<svg width="1440" height="30" viewBox="0 0 1440 30" fill="none" xmlns="http://www.w3.org/2000/svg">
  <g clip-path="url(#clip0_602_24)">
    <path
      d="M1440 30V11.49C1439.11 11.413 1438.21 11.4 1437.31 11.451C1436.97 11.4551 1436.62 11.3637 1436.33 11.187C1435.79 10.936 1435.25 10.687 1434.64 11.275C1434.57 11.344 1434 10.892 1433.66 10.675C1433.92 10.612 1434.18 10.5371 1434.44 10.4871C1435.69 10.4065 1436.93 10.4422 1438.17 10.594H1438.2C1438.8 10.594 1439.4 10.6007 1440 10.614V9.32605C1435.26 9.24005 1430.52 9.41394 1425.78 9.68994C1425.36 9.6905 1424.94 9.62929 1424.54 9.50806C1424.17 9.39982 1423.79 9.33658 1423.41 9.31995C1419.8 9.32595 1416.2 9.43304 1412.58 9.42004C1412.39 9.4227 1412.19 9.43734 1412 9.46399C1411.68 9.55002 1411.34 9.55136 1411.02 9.46777C1410.7 9.38419 1410.4 9.21859 1410.16 8.98706C1410 8.92389 1409.83 8.90155 1409.66 8.92236C1409.5 8.94318 1409.34 9.00636 1409.2 9.10596C1408.95 9.38566 1408.63 9.59298 1408.27 9.70581C1407.92 9.81864 1407.53 9.83278 1407.17 9.74695C1406.99 9.73428 1406.82 9.72803 1406.64 9.72803C1401.46 9.74069 1396.27 9.75103 1391.08 9.75903C1390.8 9.75903 1390.52 9.79004 1390.25 9.81604C1389.21 9.90404 1387.95 10.416 1387.2 10.004C1385.54 9.10403 1384.07 10.079 1382.55 10.098C1381.92 10.104 1381.09 10.286 1380.35 10.324C1379.86 10.3063 1379.39 10.2394 1378.92 10.124C1379.39 9.91002 1379.86 9.71595 1380.31 9.47095C1380.46 9.36884 1380.57 9.21808 1380.62 9.04395C1380.47 8.87395 1380.27 8.65403 1380.06 8.62903C1379.46 8.58338 1378.87 8.70574 1378.34 8.98218C1377.81 9.25862 1377.36 9.67803 1377.06 10.193C1376.24 11.273 1375.21 11.066 1374.16 11.035C1374 11.029 1373.84 10.847 1373.68 10.752C1373.82 10.564 1373.93 10.262 1374.12 10.205C1374.69 10.017 1375.3 9.94106 1375.88 9.78406C1376.04 9.74006 1376.17 9.56405 1376.3 9.45105C1376.15 9.27505 1375.98 8.95106 1375.83 8.96106C1374.95 8.97681 1374.06 9.09891 1373.21 9.32495C1372.06 9.63649 1370.86 9.73816 1369.67 9.625C1369.11 9.606 1368.54 9.58706 1367.97 9.61206C1367.16 9.64035 1366.35 9.77096 1365.56 10.001C1365.15 10.1827 1364.82 10.5116 1364.63 10.924C1363.94 12.369 1362.38 12.689 1361.66 11.324C1361.6 11.1087 1361.45 10.9266 1361.26 10.8138C1361.06 10.7011 1360.83 10.6658 1360.61 10.715C1358.79 10.784 1356.97 10.841 1355.17 11.035C1354.63 11.1917 1354.16 11.5149 1353.82 11.958C1353.42 12.4233 1352.93 12.8072 1352.38 13.089C1352.15 13.1674 1351.93 13.2707 1351.73 13.397C1351.77 13.1542 1351.8 12.9085 1351.8 12.662C1351.8 12.505 1351.69 12.2159 1351.64 12.2159C1351.36 12.225 1351.07 12.2123 1350.79 12.178C1349.96 12.084 1349.13 11.996 1348.6 13.145C1348.17 14.112 1347.14 13.805 1346.31 13.767C1346.2 13.761 1346 13.467 1346.02 13.334C1346.09 12.712 1345.88 12.241 1345.25 12.499C1344.73 12.719 1343.79 12.574 1343.83 13.599C1343.87 14.642 1343.73 14.648 1342.66 14.233C1342.22 14.0866 1341.81 13.8471 1341.47 13.5309C1341.13 13.2146 1340.85 12.8288 1340.67 12.399C1339.73 10.499 1339 10.199 1337.17 11.036C1336.18 11.4694 1335.11 11.7204 1334.03 11.777C1332.14 11.94 1330.27 12.3491 1328.39 12.6121C1327.57 12.7311 1326.73 12.719 1325.91 12.851C1325.68 12.889 1325.5 13.222 1325.29 13.416C1326.56 13.837 1325.27 14.189 1325.27 14.572C1325.25 15.866 1324.44 15.621 1323.93 15.072C1321.73 12.729 1319.13 12.9491 1316.31 13.5081C1314.72 13.8281 1313.13 14.708 1311.35 13.916C1310.93 13.728 1310.19 14.331 1309.58 14.494C1307.98 14.9802 1306.35 15.3807 1304.71 15.694C1303.48 15.882 1302.56 14.9341 1301.68 14.2371C1300.29 13.1371 1300.03 13.125 1298.82 14.601C1298.72 14.6975 1298.6 14.7725 1298.47 14.8212C1298.34 14.8699 1298.2 14.8913 1298.06 14.884C1295.37 14.639 1292.69 14.024 1290.06 15.324C1289.78 15.4175 1289.48 15.4282 1289.19 15.355C1288.98 15.323 1288.78 15.3126 1288.57 15.324C1288.34 15.343 1288.12 15.3493 1287.89 15.343C1287.78 15.261 1287.67 15.186 1287.56 15.098C1286.35 14.212 1284.67 13.245 1283.03 13.698C1281.69 14.069 1280.79 13.327 1279.69 13.089C1279.55 13.064 1279.46 12.819 1279.35 12.674C1279.54 12.529 1279.72 12.274 1279.91 12.274C1280.84 12.255 1281.78 12.312 1282.72 12.312C1282.9 12.2735 1283.07 12.2009 1283.23 12.098C1283.12 12.0188 1283 11.9532 1282.88 11.903C1282.24 11.67 1281.58 11.5159 1280.91 11.444C1279.88 11.3562 1278.85 11.4927 1277.89 11.844C1277.62 12.0478 1277.28 12.1473 1276.94 12.1241C1276.61 12.101 1276.29 11.9568 1276.05 11.718C1275.91 11.599 1275.78 11.4669 1275.65 11.3409C1275.86 11.2149 1276.19 10.941 1276.25 10.996C1276.9 11.517 1277.27 11.14 1277.64 10.77C1277.9 10.5 1278.16 10.23 1278.52 10.293C1278.49 10.098 1278.53 9.82203 1278.42 9.72803C1278.18 9.49491 1277.88 9.32822 1277.55 9.24402C1275.75 8.86102 1273.92 8.63504 1272.15 8.13904C1269.1 7.44681 1265.96 7.2579 1262.85 7.57996C1258.87 7.79396 1254.91 7.66804 1250.94 7.61804C1250.28 7.97918 1249.5 8.08208 1248.77 7.90698C1248.37 7.81166 1247.96 7.79698 1247.55 7.86377C1247.15 7.93056 1246.76 8.07752 1246.41 8.29602C1246.19 8.45902 1245.29 7.731 1244.71 7.396C1244.7 7.39 1244.78 7.07603 1244.87 7.05103C1245.88 6.69303 1247.22 5.56198 1247.89 6.32898C1248.88 7.44698 1249.85 7.18295 1250.82 6.91895C1251.32 6.74431 1251.84 6.67153 1252.37 6.70496C1253.98 6.93096 1255.73 7.352 1257.37 6.505C1257.45 6.47467 1257.55 6.47009 1257.64 6.49194C1257.69 6.49928 1257.74 6.50368 1257.79 6.505C1260.83 6.442 1263.86 6.28504 1266.89 6.34204C1267.36 6.35504 1267.85 6.336 1268.32 6.323C1269.82 6.16514 1271.33 6.35193 1272.75 6.86902C1272.92 6.94402 1273.24 6.75596 1273.45 6.61096C1273.5 6.57996 1273.39 6.21104 1273.27 6.07104C1273.01 5.66259 1272.65 5.32416 1272.23 5.08472C1271.8 4.84527 1271.33 4.71194 1270.84 4.69604C1269.67 4.77104 1268.51 4.89603 1267.35 5.03503C1266.89 5.09803 1266.31 5.49996 1266.01 5.33496C1265.15 4.94846 1264.19 4.80506 1263.25 4.92004C1262.65 4.96777 1262.05 4.94252 1261.45 4.84497C1261.29 4.81397 1261.16 4.39902 1261.09 4.14502C1261.09 3.9521 1261.13 3.7604 1261.19 3.57996C1260.98 3.69896 1260.59 3.87997 1260.61 3.94397C1260.83 4.77897 1260.16 4.81695 1259.69 5.04895C1258.25 5.64935 1256.67 5.84477 1255.13 5.61401C1254.81 5.59377 1254.49 5.64747 1254.19 5.771C1253.92 5.87237 1253.64 5.92982 1253.35 5.94104C1251.15 5.87804 1248.95 5.71503 1246.75 5.60803C1246.55 5.61355 1246.34 5.64953 1246.14 5.71497C1245.58 5.88179 1244.97 5.81849 1244.45 5.53894C1243.64 5.25534 1242.78 5.1483 1241.93 5.22498C1241.58 5.22498 1241.23 5.23104 1240.9 5.21204C1240.38 5.12575 1239.85 5.16639 1239.36 5.33057C1238.86 5.49474 1238.42 5.77751 1238.06 6.15405C1237.57 6.69405 1236.89 6.44306 1236.18 6.06006C1235.27 5.56006 1234.38 4.83505 1233.16 4.99805C1229.51 5.37298 1225.83 5.4214 1222.16 5.14294C1219.71 5.02994 1217.25 4.91705 1214.79 4.99805C1211.21 5.12405 1207.61 5.01098 1204.07 5.92798C1202.42 6.19569 1200.75 6.31751 1199.08 6.29199C1197.16 6.31139 1195.25 6.54614 1193.38 6.99194C1193.29 7.0098 1193.2 7.01194 1193.11 6.99805C1193.06 6.99034 1193 6.98594 1192.95 6.98499C1190.42 7.05999 1187.89 7.23002 1185.36 7.19202C1183.64 7.17093 1181.94 7.46028 1180.34 8.04602C1179.88 8.20902 1179.29 8.46106 1178.91 8.31006C1177.8 7.87006 1176.83 7.68797 1175.96 8.69897C1175.93 8.71696 1175.89 8.72591 1175.86 8.72485C1175.82 8.7238 1175.78 8.71279 1175.75 8.69299C1175.38 8.40399 1175.02 8.10301 1174.65 7.80701C1174.42 8.23401 1174.21 8.98194 1173.93 9.01294C1173.33 9.05711 1172.72 8.88844 1172.23 8.53601C1171.75 8.19101 1171.43 7.95799 1171.02 8.51099C1170.78 8.78525 1170.46 8.97346 1170.11 9.0459C1169.75 9.11834 1169.39 9.0709 1169.06 8.91101C1167.79 8.50301 1166.58 8.04996 1165.31 8.86096C1164.08 8.55195 1162.8 8.56718 1161.58 8.90503C1160.11 9.18103 1158.64 9.45202 1157.18 8.66602C1156.7 8.4904 1156.2 8.38038 1155.69 8.33899C1156.03 7.77399 1156.55 7.78001 1157.08 7.78601C1157.18 7.78601 1157.29 7.78603 1157.4 7.78003C1159.64 7.71703 1161.88 7.62305 1164.13 7.52905C1164.32 7.49378 1164.51 7.43464 1164.69 7.35303C1164.53 7.27103 1164.37 7.17705 1164.19 7.10205C1163.27 6.71305 1162.47 5.95899 1161.27 6.53699C1160.89 6.71299 1160.12 6.25401 1159.63 5.93701C1157.97 4.86301 1157.92 4.86298 1156.95 6.52698C1156.85 6.64432 1156.73 6.73696 1156.59 6.797C1156.45 6.85703 1156.3 6.88268 1156.15 6.87195C1155.18 6.62095 1154.25 6.22504 1153.28 5.99304C1152.97 5.91804 1152.37 6.10605 1152.28 6.32605C1152.1 6.76605 1152.09 7.34396 1152.93 7.26196C1153.27 7.23493 1153.61 7.31618 1153.9 7.49402C1154.36 7.79402 1154.6 8.17903 1154.02 8.68103C1153.56 9.09177 1152.97 9.33649 1152.35 9.37634C1151.74 9.4162 1151.13 9.24887 1150.61 8.901C1150.34 8.725 1149.81 8.55597 1149.61 8.69397C1149.29 8.85674 1148.91 8.89031 1148.57 8.78796C1147.93 8.69396 1147.31 8.59999 1147.18 9.68799C1146.12 9.45599 1144.8 9.53104 1144.06 8.91504C1143.71 8.51195 1143.25 8.22488 1142.74 8.09241C1142.22 7.95994 1141.68 7.98833 1141.18 8.17395C1140.18 8.49395 1138.92 7.91597 1138.09 9.02197C1137.99 8.97626 1137.89 8.95102 1137.78 8.94775C1137.67 8.94449 1137.57 8.96334 1137.47 9.00305C1137.07 9.08505 1136.65 9.166 1136.62 8.375C1136.62 8.281 1136.27 8.07502 1136.14 8.12402C1135 8.42987 1133.79 8.42782 1132.65 8.11804C1131.72 7.89381 1130.76 7.83421 1129.81 7.94202C1129.71 7.95791 1129.6 7.96431 1129.5 7.96106C1129.33 7.93812 1129.15 7.97114 1129.01 8.05505C1127.56 9.32405 1126.01 8.75498 1124.46 8.35498C1124.21 8.24581 1123.94 8.20475 1123.66 8.23596C1123.18 8.42396 1122.55 8.61904 1123.24 9.34204C1123.63 9.72384 1123.93 10.1872 1124.12 10.699C1124.17 10.831 1124.37 10.825 1124.54 10.812C1124.8 10.799 1125.01 10.787 1124.62 11.233C1124.43 11.433 1123.53 11.327 1123.52 11.283C1123.39 10.391 1121.4 10.768 1122.19 9.10303C1122.53 8.38103 1121.39 7.75295 1120.71 8.40295C1119.93 9.14995 1119.13 8.88695 1118.19 9.04395C1117.91 9.35795 1117.74 9.57203 1117.57 9.78503C1117.45 9.65303 1117.33 9.527 1117.21 9.396C1117.5 9.245 1117.79 9.08803 1118.09 8.93103C1117.41 8.54602 1116.65 8.33973 1115.88 8.33203C1115.1 8.32433 1114.34 8.5154 1113.66 8.88696C1113.18 9.12596 1112.99 10.143 1112.89 10.834C1112.79 11.55 1112.35 11.418 1111.99 11.334C1111.83 11.29 1111.63 10.693 1111.68 10.656C1112.13 10.317 1111.83 10.128 1111.61 9.85596C1110.98 9.06496 1110.67 8.30396 1111.94 7.78296C1111.96 7.77696 1111.83 7.10501 1111.7 7.08301C1111.55 7.02588 1111.4 7.00518 1111.24 7.02271C1111.08 7.04023 1110.93 7.09548 1110.8 7.18372C1110.66 7.27195 1110.56 7.39055 1110.48 7.52966C1110.4 7.66877 1110.36 7.82433 1110.36 7.98303C1110.27 8.62403 1110.33 9.27697 1110.29 9.91797C1110.2 11.093 1109.84 11.4 1108.7 11.275C1108.5 11.2336 1108.31 11.1681 1108.14 11.08C1108.22 10.835 1108.25 10.446 1108.41 10.38C1109.35 9.959 1109.75 9.526 1109.16 8.401C1108.99 8.062 1109.81 7.18906 1110.21 6.58606C1110.39 6.36705 1110.59 6.17079 1110.82 6.00195C1110.6 5.8688 1110.36 5.77536 1110.11 5.72595C1108.61 5.66295 1107.1 5.60002 1105.6 5.61902C1105.2 5.67426 1104.83 5.83483 1104.51 6.08398C1104.45 6.1549 1104.39 6.24231 1104.37 6.33801C1104.34 6.43372 1104.34 6.53457 1104.36 6.63098C1104.43 6.70743 1104.51 6.76782 1104.6 6.80713C1104.69 6.84644 1104.79 6.86361 1104.89 6.85706C1105.49 6.76906 1106.06 6.543 1106.66 6.505C1107.29 6.50745 1107.92 6.5535 1108.54 6.64294C1108.09 7.42794 1107.67 8.23196 1107.17 8.98596C1106.96 9.2736 1106.65 9.47227 1106.3 9.54309C1105.95 9.61391 1105.58 9.55185 1105.28 9.36902C1104.55 9.04902 1103.9 8.54595 1103.11 8.22595C1103.05 8.52595 1103.03 8.78505 1103.15 8.90405C1103.35 9.05417 1103.57 9.16886 1103.81 9.24304C1103.62 9.30004 1103.41 9.43802 1103.25 9.40002C1102.79 9.30002 1102.36 9.10004 1101.92 8.96704C1101.34 8.79704 1100.53 8.32602 1100.22 8.54602C1099.65 8.88979 1098.98 8.99753 1098.34 8.84595C1098 8.79364 1097.66 8.78533 1097.32 8.82104C1096.82 8.85032 1096.32 8.84194 1095.82 8.79602C1095.32 8.78302 1094.81 8.77095 1094.3 8.75195C1093.79 8.73295 1093.31 8.70798 1092.81 8.68298C1092.83 8.29398 1093.3 7.67802 1092.31 7.82202C1091.81 7.85963 1091.31 7.85323 1090.81 7.80298C1090.31 7.78398 1089.81 7.79705 1089.3 7.75305C1089.12 7.70084 1088.95 7.62016 1088.79 7.51404C1088.95 7.37004 1089.08 7.13104 1089.26 7.08704C1090.07 6.73826 1090.94 6.56769 1091.81 6.58704C1093.8 7.05804 1095.65 6.56805 1097.55 6.24805C1098.22 6.14105 1098.96 6.311 1099.1 6.995C1099.33 8.088 1100.06 8.04401 1100.84 8.05701C1101.56 8.07001 1102.28 8.09501 1102.99 8.11401C1102.61 7.46892 1102.19 6.85163 1101.72 6.26697C1101.59 6.13074 1101.42 6.02883 1101.24 5.96985C1101.06 5.91087 1100.86 5.89653 1100.67 5.92798C1099.64 6.42798 1098.79 5.941 1097.88 5.62C1097.45 5.40795 1096.96 5.32725 1096.48 5.38794C1095.13 5.75287 1093.71 5.85476 1092.32 5.68799C1091.75 5.65699 1091.18 5.619 1090.6 5.625C1089.33 5.638 1087.98 6.178 1086.83 5.125C1086.73 5.07459 1086.62 5.04718 1086.52 5.04492C1086.41 5.04266 1086.3 5.06569 1086.2 5.11206C1085.91 5.28739 1085.63 5.49126 1085.38 5.72095C1085.61 5.84244 1085.87 5.91723 1086.14 5.94104C1087.44 5.81504 1086.84 6.93303 1087 7.40503C1087.24 8.12103 1086.64 8.66697 1085.89 8.51697C1085.18 8.4059 1084.46 8.40791 1083.75 8.52295C1083 8.64105 1082.24 8.63672 1081.49 8.51001C1080.12 8.21001 1078.6 8.64194 1077.15 8.74194C1076.93 8.76511 1076.71 8.75679 1076.5 8.71704C1076.28 8.64386 1076.06 8.55357 1075.86 8.44702C1076.06 8.40814 1076.25 8.3557 1076.44 8.29004C1076.68 8.17704 1076.91 8.01396 1077.14 7.88196C1077.26 7.82225 1077.38 7.76984 1077.51 7.72498C1077.38 7.61245 1077.23 7.52129 1077.07 7.45496C1075.2 7.11518 1073.29 7.04115 1071.4 7.23499C1070.47 7.28499 1069.53 7.335 1068.59 7.323C1067.4 7.41846 1066.23 7.71811 1065.13 8.20898C1063.28 8.7881 1061.33 8.95533 1059.4 8.69897C1058.67 8.65497 1057.93 8.61096 1057.2 8.61096C1056.4 8.61696 1057.26 8.23401 1057.27 7.91101C1055.12 7.74801 1052.96 7.69701 1050.82 7.63501C1050.41 7.63302 1050 7.66245 1049.6 7.72302C1048.82 7.87778 1048.02 7.83446 1047.27 7.59705C1046.61 7.33905 1046.16 7.19696 1046.07 6.42896C1046.03 6.28967 1045.97 6.16016 1045.88 6.05103C1045.78 5.94189 1045.67 5.85628 1045.53 5.80103C1045.03 5.63103 1044.85 5.88302 1044.77 6.44202C1044.63 7.37802 1044.3 7.47795 1043.21 7.12695C1041.95 6.72695 1040.25 6.42699 1039.12 7.96899C1038.8 8.32049 1038.36 8.53535 1037.88 8.56897C1037.85 8.57442 1037.82 8.57641 1037.78 8.57495C1037.6 8.45503 1037.37 8.39992 1037.15 8.41797C1036.27 8.62002 1035.36 8.61799 1034.48 8.41199C1033.91 8.30179 1033.33 8.24723 1032.75 8.24902C1033.03 8.18602 1033.31 8.12296 1033.59 8.05396C1034.19 7.92196 1034.78 7.80304 1035.37 7.66504C1035.49 7.61137 1035.6 7.54173 1035.71 7.45801C1035.59 7.38301 1035.49 7.25098 1035.37 7.25098C1033.08 7.20698 1030.8 7.15696 1028.51 7.16296C1027.91 7.16296 1027.32 7.39498 1026.7 7.43298C1026.53 7.44044 1026.35 7.43845 1026.18 7.427C1025.44 7.383 1024.77 7.34503 1024.78 8.75903C1024.78 9.45903 1023.27 9.85201 1022.52 9.43701C1021.97 9.16817 1021.34 9.1275 1020.76 9.32397C1020.39 9.42893 1020 9.46282 1019.61 9.42395C1018.6 9.24195 1017.59 9.09106 1016.57 8.90906C1015.85 8.71606 1015.11 8.5773 1014.37 8.49402C1014 8.49653 1013.64 8.54279 1013.28 8.63196C1012.92 8.71455 1012.56 8.76084 1012.19 8.77002C1011.43 8.81473 1010.67 8.68149 1009.98 8.38098C1008.62 7.72098 1007.78 8.44394 1007.12 9.88794C1006.86 10.4469 1006.26 10.88 1006.07 11.571C1006.04 11.678 1004.97 11.986 1005.02 11.182C1005.07 10.259 1004.61 10.303 1004 10.303C1003.77 10.303 1003.54 10.297 1003.31 10.29C1002.79 10.197 1002.26 10.219 1001.74 10.3546C1001.23 10.4902 1000.75 10.736 1000.35 11.075C1000.39 11.3196 1000.49 11.5527 1000.62 11.76C1000.29 11.81 999.712 11.9991 999.663 11.9041C999.102 10.8491 997.918 11.188 997.107 10.704C996.83 10.534 996.132 10.553 995.988 10.754C995.209 11.828 994.412 11.231 993.601 10.905C993.23 10.754 992.871 10.578 992.495 10.446C992.075 10.302 991.282 10.239 991.265 10.069C991.171 9.30897 991.71 9.37804 992.124 9.44104C992.242 9.46641 992.363 9.47912 992.484 9.479C993.78 9.38064 995.081 9.37027 996.378 9.448C996.672 9.48668 996.968 9.4911 997.263 9.46106C997.421 9.42306 997.533 9.18506 997.671 9.03406C997.552 8.97106 997.428 8.84605 997.32 8.85205C996.343 8.90124 995.365 8.87808 994.392 8.78296C992.828 8.57285 991.238 8.65593 989.704 9.02795C988.71 9.19232 987.694 9.17747 986.704 8.98401C986.398 8.93684 986.084 8.98495 985.806 9.12195C985.527 9.25895 985.298 9.47822 985.148 9.75C983.98 11.45 983.212 11.4501 981.687 10.1021C981.231 9.85261 980.718 9.72283 980.199 9.72498C980.16 9.71198 979.941 10.114 979.999 10.24C980.174 10.6616 980.406 11.0571 980.689 11.415C980.746 11.484 980.888 11.472 981.04 11.459C981.132 11.4477 981.225 11.4457 981.318 11.453C981.718 11.516 982.118 11.6101 982.523 11.6851C982.058 11.9331 981.57 12.1341 981.066 12.285C980.565 12.3541 980.057 12.3476 979.558 12.266C978.837 12.184 978.115 12.059 977.392 11.952C978.083 11.914 978.787 11.889 979.478 11.826C979.615 11.813 979.742 11.656 979.878 11.562C979.778 11.455 979.695 11.298 979.577 11.262C979.2 11.143 978.735 10.891 978.429 11.011C977.062 11.5351 975.544 11.5104 974.195 10.942C973.583 10.7967 972.949 10.7773 972.329 10.885C971.729 10.929 971.13 11.099 970.521 11.168C970.371 11.1749 970.221 11.1665 970.074 11.1429C969.871 11.0833 969.655 11.0921 969.458 11.168C968.229 11.8052 966.807 11.9555 965.472 11.589C964.753 11.4558 964.021 11.4031 963.29 11.432C962.757 11.47 962.23 11.646 961.691 11.715C961.215 11.8437 960.715 11.8543 960.234 11.746C958.312 10.816 956.529 11.57 954.695 12.022C954.386 12.097 953.984 11.822 953.621 11.708C953.865 11.394 954.055 10.879 954.361 10.797C955.224 10.5941 956.101 10.4603 956.986 10.397C957.331 10.3676 957.678 10.3695 958.023 10.403C958.724 10.5237 959.445 10.4064 960.072 10.0699C960.353 9.89395 960.888 10.1079 961.302 10.1639C962.25 10.3512 963.209 10.4772 964.173 10.541C964.837 10.4634 965.486 10.2986 966.107 10.051C965.483 9.90806 964.852 9.79887 964.216 9.724C962.997 9.649 961.773 9.67996 960.554 9.61096C960.388 9.60135 960.221 9.60135 960.054 9.61096C959.325 9.62996 958.585 9.65494 958.396 8.51794C958.376 8.39194 957.679 8.38004 957.302 8.31104C957.26 8.69751 957.264 9.08768 957.316 9.47302C957.353 9.62402 957.73 9.69305 957.951 9.80005C957.687 9.85705 957.372 10.0259 957.165 9.94495C956.578 9.74743 955.951 9.71056 955.345 9.83801C954.991 9.88835 954.634 9.90743 954.277 9.89502C953.285 9.71824 952.272 9.70776 951.277 9.86401C949.349 10.423 947.439 10.09 945.537 10.052C943.955 10.021 942.437 9.74405 940.863 10.3521C940.016 10.5152 939.145 10.5087 938.3 10.333C938.017 10.3223 937.731 10.337 937.451 10.377C936.987 10.4641 936.511 10.4512 936.052 10.339C935.116 10.1227 934.149 10.0696 933.195 10.182C932.761 10.207 932.328 10.232 931.9 10.226C930.556 10.3432 929.226 10.5775 927.923 10.926C927.713 10.9511 927.499 10.9511 927.289 10.926C927.14 10.9122 926.992 10.9078 926.843 10.913C926.197 10.938 925.55 10.9 924.902 10.863C923.585 10.7083 922.251 10.8064 920.97 11.152C920.332 11.267 919.675 11.2565 919.041 11.121C918.956 11.0845 918.884 11.0273 918.828 10.9547C918.772 10.8821 918.736 10.7966 918.722 10.7061C918.772 10.5353 918.882 10.3881 919.031 10.291C919.239 10.3682 919.461 10.3954 919.681 10.3704C919.901 10.3453 920.113 10.2688 920.298 10.147C920.839 9.90797 921.386 9.67605 921.976 10.2791C922.203 10.5111 923.101 10.0529 923.691 9.97095C924.424 9.89552 925.163 9.89552 925.896 9.97095C926.335 10.0019 926.775 10.034 927.214 10.028C928.384 9.98753 929.55 9.87844 930.707 9.70105C931.099 9.623 931.481 9.50501 931.849 9.349C932.07 9.267 932.284 9.16106 932.498 9.06006C932.31 8.98646 932.117 8.92953 931.919 8.89001C931.807 8.87545 931.693 8.87345 931.58 8.88403C931.409 8.9068 931.235 8.88964 931.072 8.83398C930.826 8.73398 930.664 8.451 930.455 8.25C930.695 8.018 930.895 7.69105 931.177 7.59705C931.391 7.54222 931.614 7.53167 931.832 7.56604C931.969 7.58179 932.107 7.58806 932.246 7.58496C932.359 7.57896 932.472 7.45901 932.585 7.38501C932.472 7.31601 932.364 7.22804 932.251 7.16504C931.654 6.82189 930.98 6.63445 930.29 6.62012C929.601 6.60579 928.919 6.765 928.308 7.08301C928.182 7.16157 928.076 7.26823 927.998 7.39465C927.919 7.52108 927.869 7.66387 927.855 7.81201C927.867 8.98001 927.255 9.16197 926.228 9.19397C923.421 9.28197 920.613 9.50201 917.804 9.64001C917.692 9.63758 917.581 9.60837 917.482 9.55481C917.383 9.50125 917.298 9.42491 917.234 9.33203C917.216 9.22743 917.228 9.12 917.265 9.02075C917.303 8.9215 917.365 8.83391 917.447 8.76697C917.83 8.62816 918.233 8.55385 918.64 8.547C919.093 8.547 919.55 8.566 920.003 8.578C920.624 8.603 921.254 8.62803 921.874 8.60303C922.477 8.5493 923.07 8.42059 923.64 8.21997C923.723 8.17474 923.794 8.10858 923.843 8.02808C923.893 7.94757 923.92 7.85551 923.923 7.76099C923.917 7.62899 923.696 7.38399 923.564 7.39099C921.806 7.40999 920.048 7.45997 918.289 7.51697C918.089 7.52297 917.889 7.66794 917.699 7.64294C915.576 7.32894 915.3 7.44294 914.427 9.13794C914.339 9.31394 914.296 9.51502 914.22 9.69702C913.982 10.275 913.735 10.853 913.496 11.431C913.155 10.9534 912.785 10.4981 912.386 10.068C912.298 9.98599 912.116 10.005 911.927 10.024C911.834 10.0346 911.74 10.0389 911.646 10.037C911.164 10.0421 910.681 10.0023 910.207 9.91797C910.007 9.86797 909.9 9.52799 909.748 9.31799C909.948 9.27399 910.139 9.21104 910.332 9.18604C911.432 9.06704 912.525 8.96602 913.617 8.82202C913.762 8.80902 913.881 8.58301 914.017 8.45801C913.847 8.30101 913.677 7.987 913.517 8C911.423 8.00455 909.332 8.13249 907.253 8.38306C905.85 8.67534 904.396 8.6169 903.021 8.21301C901.518 7.87693 899.949 8.0063 898.521 8.58398C897.717 8.76821 896.888 8.82319 896.066 8.74695C895.931 8.70568 895.809 8.62939 895.712 8.52576C895.616 8.42212 895.55 8.29488 895.519 8.15698C895.56 8.02046 895.634 7.89672 895.736 7.79773C895.838 7.69873 895.965 7.6279 896.103 7.59204C896.593 7.56104 897.089 7.56698 897.591 7.57898C898.019 7.58498 898.452 7.592 898.886 7.573C899.056 7.567 899.218 7.27305 899.386 7.10205C899.253 6.98305 899.128 6.77496 898.978 6.75696C898.556 6.65003 898.116 6.63943 897.689 6.72595C896.121 7.29059 894.398 7.24825 892.859 6.60706C892.394 6.42506 891.793 6.49402 892.17 7.34802C892.316 7.72211 892.406 8.11557 892.439 8.51599C892.507 9.09999 892.263 9.20697 891.685 9.06897C891.062 8.95542 890.428 8.9112 889.795 8.93701C889.673 8.94274 889.553 8.9639 889.437 9C889.298 9.0555 889.146 9.07281 888.998 9.05005C888.197 8.8671 887.374 8.812 886.556 8.88696C885.524 9.01471 884.477 8.87423 883.515 8.479C882.028 7.73923 880.373 7.39751 878.714 7.48706C878.493 7.49306 878.235 7.24196 878.054 7.05396C877.986 6.98102 877.932 6.89504 877.898 6.80103C877.864 6.70701 877.85 6.60692 877.855 6.50696C877.901 6.42537 877.966 6.35642 878.045 6.30603C878.124 6.25564 878.215 6.2254 878.308 6.21802C879.671 6.23102 881.04 6.27501 882.408 6.31201C882.426 6.31201 882.459 6.30603 882.482 6.30603C882.539 6.30003 882.595 6.29297 882.615 6.31897C882.986 6.72697 883.349 7.14799 883.707 7.56299C884.041 7.14799 883.569 6.20002 884.636 6.24402C884.877 6.24123 885.115 6.19867 885.341 6.11804C885.559 6.04432 885.784 5.99985 886.013 5.98596C887.595 5.98596 889.179 6.06106 890.755 6.08606C891.173 6.09746 891.59 6.06151 892 5.979C892.176 5.941 892.311 5.703 892.47 5.552C892.345 5.44322 892.208 5.34838 892.062 5.26904C891.656 5.04188 891.211 4.89259 890.75 4.82898C889.506 4.85198 888.265 4.96326 887.037 5.16199C886.258 5.29399 885.617 5.72099 884.701 5.31299C884.072 5.03699 883.168 5.38795 882.388 5.44495C881.928 5.46685 881.466 5.45419 881.007 5.40698C880.069 5.23995 879.101 5.36494 878.236 5.76501C878.099 5.81082 877.95 5.80615 877.816 5.75195C876.547 5.41148 875.219 5.35786 873.927 5.59497C872.808 5.77606 871.666 5.77173 870.548 5.58203C870.435 5.55703 870.297 5.65695 870.172 5.69495C869.481 5.91495 869.01 6.71201 868.006 6.01501C867.516 5.68201 866.446 6.24097 865.636 6.29797C863.657 6.42397 861.673 6.48602 859.695 6.59802C859.565 6.625 859.441 6.67622 859.33 6.74902C859.443 6.90002 859.529 7.13795 859.681 7.19495C860.048 7.37904 860.453 7.46977 860.863 7.45898C862.992 7.11398 865.205 7.59095 867.297 6.79895C867.428 6.74508 867.568 6.72115 867.711 6.72876C867.853 6.73637 867.992 6.77539 868.117 6.84302C868.758 7.57202 869.28 7.11302 869.966 6.90002C870.97 6.68639 871.989 6.55262 873.013 6.5C873.685 6.412 874.351 6.27403 875.013 6.15503C875.622 6.04203 876.325 6.155 876.431 6.755C876.663 8.105 877.618 7.91102 878.517 7.94202C878.636 7.94369 878.754 7.93929 878.873 7.92896C879.108 7.87561 879.355 7.90207 879.574 8.00403C879.889 8.31956 880.15 8.68431 880.347 9.08398C880.052 9.05898 879.756 9.02103 879.459 9.00903C878.211 8.95903 876.961 8.86497 875.713 8.87097C874.098 8.88397 872.482 8.98406 870.867 9.03406C870.737 9.00606 870.615 8.95261 870.506 8.87695C870.617 8.72595 870.712 8.47695 870.857 8.44995C871.388 8.3232 871.931 8.24953 872.476 8.22998C872.915 8.21698 873.348 8.22398 873.787 8.22998C874.348 8.23598 874.913 8.24304 875.472 8.21704C875.679 8.20404 875.872 7.84602 876.064 7.64502C875.817 7.40766 875.545 7.1971 875.254 7.01697C875.147 6.96697 874.913 7.18696 874.726 7.26196C873.544 7.61822 872.314 7.79821 871.08 7.79602C868.725 8.04702 866.363 7.76502 863.98 8.34302C862.408 8.64552 860.805 8.75536 859.207 8.67004C858.561 8.66404 857.914 8.65704 857.273 8.67004C857.066 8.67604 856.857 8.44399 856.65 8.31799C856.806 8.14394 856.973 7.98027 857.15 7.828C857.366 7.66643 857.598 7.52734 857.841 7.41296C858.167 7.26196 858.507 7.143 858.841 7.005C858.446 6.848 857.932 6.45798 857.674 6.58398C856.594 7.11798 854.916 6.57099 854.451 8.31799C854.408 8.49399 853.736 8.56905 853.351 8.57605C852.413 8.58905 852.934 8.24296 853.205 7.92896C853.342 7.76596 853.505 7.39506 853.455 7.35706C853.205 7.14306 852.871 6.83605 852.607 6.87305C851.269 7.06105 849.957 7.46296 848.625 7.56396C847.709 7.62696 846.986 7.58302 846.98 8.77002C846.98 8.85802 846.501 8.933 846.244 9.021C846.22 8.76628 846.219 8.51006 846.238 8.255C846.302 7.99821 846.384 7.74622 846.484 7.50098C846.231 7.46964 845.976 7.46336 845.722 7.48206C844.849 7.60106 843.984 7.82795 843.103 7.87195C842.103 7.91595 841.003 7.67201 841.076 9.26001C841.076 9.35401 840.767 9.54303 840.623 9.53003C840.479 9.51703 840.236 9.26002 840.254 9.16602C840.518 8.05402 839.707 8.17996 839.109 8.23596C836.646 8.46196 834.179 8.73595 831.722 9.00195C831.181 9.05895 830.662 9.23397 830.123 9.27197C827.033 9.37815 823.957 9.73099 820.924 10.327C820.701 10.3637 820.473 10.3657 820.25 10.333C820.117 10.3174 819.985 10.311 819.851 10.314C818.89 10.327 817.93 10.3269 816.969 10.3199C814.679 10.2693 812.389 10.3511 810.109 10.5649C808.94 10.6747 807.765 10.7125 806.592 10.678C805.447 10.6412 804.3 10.677 803.16 10.785C799.246 11.225 795.336 11.212 791.422 11.394C788.377 11.539 785.309 11.752 782.281 12.041C780.409 12.1863 778.53 12.2219 776.654 12.1479C775.781 12.1289 774.908 12.1099 774.027 12.1169C772.715 12.043 771.41 11.8759 770.121 11.6169C769.696 11.5634 769.27 11.5444 768.842 11.5601C768.26 11.586 767.677 11.5396 767.107 11.422C767.353 11.058 767.607 10.712 767.867 10.36C767.152 9.95199 766.674 10.3471 766.228 11.0601L766.223 11.0909C765.865 11.0739 765.508 11.1319 765.174 11.261C764.869 11.3628 764.551 11.4221 764.23 11.437H763.43C763.737 10.469 763.977 9.48054 764.146 8.479C764.169 8.341 763.846 8.00206 763.693 8.00806C763.418 8.02706 762.916 8.24699 762.922 8.35999C762.978 9.39243 763.096 10.4204 763.279 11.438C762.545 11.432 761.802 11.432 761.062 11.432C761.048 11.407 761.03 11.382 761.018 11.363L760.941 11.426C759.161 11.4356 757.381 11.3539 755.609 11.181C753.332 10.8569 751.084 10.3486 748.889 9.66101C746.483 8.8367 743.909 8.6304 741.402 9.06104C740.292 9.23825 739.164 9.25502 738.049 9.11096C737.306 9.0378 736.559 9.00841 735.813 9.02295C733.754 9.11095 731.712 9.47501 729.65 9.58801C729.306 9.59436 728.962 9.5753 728.621 9.53101C728.086 9.4434 727.54 9.44987 727.008 9.55005C725.211 9.79851 723.4 9.9264 721.586 9.93298C719.186 10.133 716.786 10.398 714.395 10.655C714.086 10.686 713.666 11.019 713.516 10.913C712.467 10.128 711.7 10.574 710.971 11.371C710.96 11.3869 710.948 11.4017 710.934 11.415C710.543 11.428 710.16 11.428 709.777 11.421C709.017 10.021 707.886 10.621 706.988 11.021C706.243 11.3237 705.432 11.4235 704.635 11.3101C702.852 11.1781 701.004 10.669 699.19 11.467C698.555 11.5914 697.901 11.5869 697.268 11.454C695.521 11.3725 693.773 11.5979 692.104 12.12C689.78 12.114 687.469 12.126 685.17 12.34C684.133 12.434 683.098 12.422 682.061 12.415C680.779 12.362 679.495 12.4165 678.223 12.578C677.852 12.635 677.483 12.6779 677.112 12.7159C675.942 12.6796 674.771 12.7154 673.606 12.823C671.823 12.792 670.04 12.666 668.254 12.66C666.514 12.647 664.774 12.088 663.053 12.17C661.125 12.27 659.179 12.289 657.254 12.522C656.979 12.497 656.707 12.478 656.438 12.447C652.75 12.047 649.077 12.12 645.403 11.847C644.114 11.753 642.821 11.772 641.526 11.74C640.307 11.702 639.071 11.765 637.864 11.614C637.228 11.5524 636.588 11.5313 635.95 11.551C635.409 11.557 634.875 11.564 634.34 11.52C631.182 11.25 628.266 12.406 625.252 12.908L624.918 12.965C623.318 12.99 621.718 13.0339 620.118 13.0649C618.085 13.2147 616.044 13.198 614.014 13.015C612.598 12.6716 611.145 12.5037 609.688 12.515C603.833 13.181 598.002 12.465 592.166 12.396C588.963 12.3095 585.771 11.9752 582.62 11.396C581.382 11.196 579.976 10.8369 578.67 11.5909C578.293 11.8049 577.696 11.6349 577.192 11.6219C574.553 11.3901 571.894 11.598 569.323 12.2371C568.037 12.5139 566.723 12.6384 565.409 12.608C563.309 12.721 561.2 12.696 559.116 12.908C557.163 13.103 555.234 13.536 553.301 13.863C553.037 13.9243 552.77 13.9703 552.501 14.001C551.747 14.026 550.993 14.02 550.233 14.014C548.6 13.9335 546.963 14.0408 545.354 14.334C542.213 15.034 538.94 14.6341 535.854 15.6591C535.079 15.7932 534.286 15.7952 533.51 15.665C531.927 15.4808 530.327 15.8466 528.981 16.701C528.326 17.0464 527.593 17.2185 526.852 17.201C524.967 17.352 523.013 17.138 521.21 17.572C519.972 17.8078 518.709 17.8751 517.454 17.772C515.998 17.6238 514.528 17.7518 513.12 18.149C512.907 18.1815 512.691 18.1794 512.479 18.1429C505.489 18.1049 498.504 18.13 491.518 18.005C488.318 17.942 485.131 17.54 481.934 17.371C480.866 17.321 479.787 17.528 478.712 17.566C477.595 17.61 476.469 17.616 475.35 17.61C473.844 17.597 472.336 17.5221 470.829 17.5031C470.018 17.4841 469.214 17.459 468.397 17.434C467.197 17.403 465.985 17.434 464.786 17.327C463.763 17.2268 462.747 17.0567 461.747 16.818C460.731 16.4817 459.696 16.2069 458.647 15.995C458.176 15.951 457.547 16.472 457.153 16.887C456.634 17.3909 456.016 17.782 455.339 18.036C454.661 18.29 453.938 18.4014 453.216 18.363C451.15 18.445 449.095 18.7711 447.026 18.8781C445.226 18.9721 443.421 18.922 441.618 18.897C439.679 18.872 437.739 18.853 435.804 18.715C435.284 18.677 434.686 17.915 434.309 18.037C433.762 18.219 433.386 18.737 432.632 18.697C430.063 18.538 427.513 18.164 425.007 17.579C423.758 17.3135 422.489 17.154 421.214 17.1021C419.408 16.9913 417.622 16.6667 415.893 16.135C414.469 15.8325 413.024 15.632 411.571 15.535C410.485 15.384 409.399 15.202 408.311 15.02C408.177 15.0002 408.056 14.9283 407.974 14.8199C407.201 13.3819 405.817 13.62 404.567 13.645C401.842 13.702 399.385 12.571 396.829 11.918C393.708 11.127 390.655 10.109 387.358 10.134C385.411 10.147 383.464 9.76299 381.517 9.59399C380.941 9.55753 380.361 9.56194 379.786 9.60706C379.042 9.67805 378.294 9.66122 377.554 9.55701C376.169 9.41094 374.769 9.50666 373.417 9.83997C370.886 10.317 368.298 10.255 365.792 10.613C364.134 10.852 362.71 10.381 361.177 10.368C360.98 10.3995 360.789 10.463 360.612 10.556C360.757 10.707 360.87 10.9201 361.046 11.0081C361.517 11.2591 362.032 11.423 362.497 11.674C363.716 12.346 363.797 13.374 362.659 14.048C362.3 14.2296 361.902 14.3242 361.499 14.324C359.263 14.431 357.013 15.743 354.776 14.217C354.526 14.035 354.006 14.167 353.634 14.248C352.126 14.575 350.562 14.468 349.068 15.14C348.302 15.485 347.167 15.027 346.204 14.87C345.179 14.7 344.244 14.386 343.226 15.184C342.775 15.536 341.783 15.384 341.097 15.215C340.197 14.995 339.407 14.731 338.571 15.447C338.163 15.6882 337.689 15.7978 337.216 15.761C336.765 15.7674 336.316 15.736 335.87 15.667C335.219 15.5516 334.554 15.5432 333.9 15.642C332.756 15.7559 331.601 15.7412 330.46 15.598C328.873 15.368 327.253 15.5923 325.788 16.245C325.384 16.3622 324.96 16.3838 324.546 16.308C322.964 16.277 321.38 16.239 319.804 16.189C317.385 16.1978 314.97 16.406 312.585 16.811C310.719 16.9197 308.848 16.8903 306.986 16.723C304.99 16.6981 303 16.9303 301.064 17.4139C300.635 17.4702 300.201 17.4639 299.775 17.395C297.706 17.3277 295.638 17.5519 293.632 18.061C292.194 18.3104 290.738 18.4301 289.279 18.4189C286.963 18.3857 284.648 18.4887 282.345 18.7271C280.018 19.0364 277.663 19.0953 275.324 18.903C274.054 18.84 272.784 18.777 271.509 18.796C270.677 18.8838 269.836 18.7585 269.066 18.432C268.345 18.08 267.215 18.632 266.267 18.677C265.728 18.696 265.181 18.671 264.634 18.652C264.087 18.633 263.565 18.602 263.033 18.627C262.568 18.64 262.103 18.614 261.644 18.583C261.149 18.5421 260.652 18.5295 260.156 18.545C259.334 18.589 258.504 18.652 257.681 18.765H256.488C253.002 17.892 249.422 18.35 245.898 18.043C242.631 17.8618 239.379 17.4737 236.162 16.881C232.418 16.071 228.65 16.081 224.892 15.713C222.818 15.36 220.716 15.2023 218.613 15.2419C215.562 15.4565 212.501 15.4796 209.447 15.311C206.802 15.223 204.172 15.135 201.539 15.292C198.412 15.474 195.323 15.3801 192.22 15.3361C191.347 15.3171 190.87 16.027 190.23 16.036C189.87 15.9992 189.524 15.8786 189.218 15.684C188.911 15.4852 188.559 15.3645 188.195 15.332C187.899 15.3305 187.604 15.299 187.314 15.238C186.486 15.087 185.63 14.938 185.109 16.061C184.048 16.111 182.986 16.1931 181.92 16.1801C181.643 16.1801 181.361 15.88 181.078 15.728C181.334 15.6456 181.596 15.5867 181.863 15.552C182.711 15.521 183.563 15.552 184.406 15.483C184.59 15.464 184.734 15.112 184.896 14.911C184.71 14.8355 184.516 14.7828 184.318 14.754C182.523 14.697 180.718 14.7099 178.929 14.5909C177.761 14.5159 176.61 14.2639 175.455 14.0909C175.385 14.0779 175.255 14.072 175.255 14.053C175.204 13.079 174.802 12.653 173.722 12.709C172.912 12.6241 172.109 12.477 171.322 12.269C167.968 11.898 164.633 11.44 161.322 10.749C159.919 10.4196 158.461 10.4066 157.052 10.7111C156.452 10.8741 155.864 11.54 155.052 11.339C155.073 11.0937 155.109 10.8501 155.164 10.61C154.887 10.585 154.485 10.422 154.349 10.547C153.62 11.194 153.042 10.786 152.3 10.516C151.327 10.164 150.109 10.371 149.23 9.90002C148.493 9.56336 147.682 9.42274 146.875 9.49194C146.491 9.50236 146.106 9.48772 145.724 9.448C143.853 9.209 141.956 9.567 140.072 8.927C139.576 8.72828 139.034 8.67244 138.508 8.76575C137.981 8.85906 137.491 9.09775 137.093 9.45496C136.447 10.033 135.347 9.70001 134.594 9.13501C134.488 9.02958 134.364 8.94598 134.226 8.88916C134.089 8.83234 133.942 8.8034 133.793 8.80396C133.644 8.80451 133.496 8.8346 133.359 8.89246C133.222 8.95031 133.098 9.03478 132.994 9.14099C132.451 9.40228 131.846 9.50626 131.248 9.44104C131.023 9.44104 130.797 9.44098 130.582 9.45398C130.533 9.45398 130.332 8.88195 130.42 8.79395C131.035 8.19395 130.55 8.03998 130.119 8.20398C128.665 8.61913 127.125 8.62986 125.666 8.23499C124.626 7.99931 123.558 7.91251 122.494 7.97705C122.179 8.00109 121.864 8.00307 121.549 7.98303C120.889 7.89091 120.215 7.99815 119.617 8.29102C119.217 8.52302 118.519 8.27196 117.967 8.18396C117.717 8.13996 117.406 7.801 117.265 7.87C116.338 8.24492 115.304 8.26055 114.365 7.91394C113.737 7.72895 113.084 7.64832 112.43 7.67505C111.38 7.74841 110.326 7.74631 109.277 7.66895C108.603 7.63095 107.931 7.59996 107.265 7.60596C106.595 7.68067 105.93 7.79829 105.275 7.95801C105 7.99601 104.397 8.92499 104.476 7.71899C104.476 7.66899 104.381 7.61201 104.33 7.56201C103.697 8.83701 103.144 8.37194 102.584 7.91394C102.343 7.64638 102.012 7.47843 101.654 7.44299C100.946 7.49292 100.235 7.47382 99.5311 7.38599C98.3443 7.16379 97.1193 7.27239 95.9901 7.69995C95.6361 7.86295 95.1398 7.69997 94.7088 7.69397C93.2499 7.66897 91.7931 7.53703 90.3241 7.55603C90.1661 7.56203 89.9906 7.25602 89.8456 7.07202C89.4626 6.58202 89.0691 6.35594 88.9921 7.21594C88.9161 8.09494 88.5921 8.33997 88.0311 7.61597C87.5311 6.97497 86.9314 7.04403 86.3104 7.05103C85.1818 7.14097 84.0471 7.162 82.9159 7.11401C81.7479 6.97001 80.6159 6.637 79.4999 7.302C79.0564 7.03937 78.5606 6.88138 78.0468 6.83997C77.533 6.79855 77.0149 6.87479 76.5351 7.06299C75.863 7.263 75.1565 7.32093 74.4609 7.23303C73.2803 7.04324 72.0849 6.97615 70.8906 7.03296C70.3556 7.03896 69.8277 7.05196 69.3007 7.03296C68.0931 6.85598 66.865 6.85166 65.6562 7.02002C64.7208 7.26865 63.7498 7.35584 62.7851 7.27795C62.5151 7.26495 62.2446 7.27802 61.9746 7.29102C61.1901 7.42399 60.3845 7.24842 59.7265 6.80103C59.6317 6.74797 59.5266 6.71906 59.4179 6.7168C59.3093 6.71453 59.2004 6.73891 59.1035 6.78796C58.7622 7.01089 58.3788 7.16012 57.9765 7.22607C57.5743 7.29203 57.1621 7.2733 56.7675 7.17102C56.4511 7.1264 56.132 7.10338 55.8125 7.10205C51.4845 7.17705 47.1509 7.039 42.8359 7.302C42.2317 7.32552 41.627 7.29806 41.0274 7.21997C40.4571 7.14357 39.8818 7.11413 39.3067 7.13196C38.0649 7.16785 36.8267 7.28318 35.5996 7.47705C34.1741 7.69255 32.729 7.76423 31.2891 7.69104C30.1957 7.64476 29.1022 7.66778 28.0118 7.76001C25.4628 8.01801 22.8971 8.16796 20.3731 8.45996C18.5669 8.62683 16.7521 8.67498 14.9395 8.604C14.2165 8.591 13.4947 8.57898 12.7657 8.57898C10.7014 8.57582 8.64387 8.81406 6.63487 9.28894C6.20459 9.33268 5.77072 9.32638 5.34191 9.27002C3.55091 9.22202 1.76569 9.15894 -0.0233096 9.11694V30L1440 30ZM445.202 26.413C444.425 26.595 443.645 26.813 442.854 26.928C442.747 26.9267 442.644 26.8941 442.556 26.834C442.451 26.7583 442.32 26.7267 442.192 26.746C441.737 26.8272 441.278 26.884 440.817 26.916C440.558 26.8869 440.304 26.8212 440.063 26.7209C440.278 26.6182 440.506 26.5462 440.741 26.507C441.236 26.5309 441.731 26.4673 442.204 26.319L445.202 26.413ZM452.102 26.105C451.891 26.2064 451.668 26.2803 451.438 26.325C450.94 26.3603 450.44 26.2785 449.979 26.0861C450.508 26.0291 451.03 25.948 451.557 25.923H451.575C451.756 25.9545 451.932 26.0142 452.095 26.1L452.102 26.105ZM459.003 25.854C458.869 25.9511 458.72 26.0272 458.563 26.08C458.273 26.1075 457.982 26.0271 457.747 25.854C458.059 25.791 458.364 25.709 458.679 25.672H458.69C458.784 25.672 458.898 25.791 459.003 25.854V25.854ZM448.638 26.093C448.507 26.074 448.382 26.055 448.47 25.829C448.523 25.917 448.577 26 448.634 26.092L448.638 26.093ZM456.145 26.03C455.924 26.093 455.774 26.156 456.245 25.603L456.809 25.754C456.69 25.848 456.484 26.043 456.458 26.024C456.429 25.998 456.391 25.9842 456.352 25.986C456.28 25.9878 456.209 26.0027 456.141 26.03H456.145ZM503.725 24.667C503.668 24.579 503.612 24.4971 503.555 24.4091C503.682 24.4221 503.809 24.44 503.721 24.667H503.725ZM513.643 24.4969L512.229 24.327C512.342 24.233 512.45 24.12 512.569 24.038C512.899 23.8188 513.277 23.6792 513.671 23.63L513.643 24.4969ZM479.216 20.603C479.209 20.8274 479.134 21.0442 479.001 21.225C478.548 21.3316 478.085 21.3862 477.62 21.3879C477.085 21.329 476.561 21.1983 476.061 20.999C476.168 20.283 476.571 20.399 476.979 20.509C477.16 20.5748 477.351 20.5964 477.542 20.572C477.718 20.534 477.897 20.5149 478.077 20.515C478.443 20.515 478.835 20.578 479.212 20.6L479.216 20.603ZM521.94 20.829C521.883 20.741 521.833 20.6529 521.776 20.5649C521.902 20.5839 522.029 20.6 521.936 20.829H521.94ZM470.403 20.144L470.667 19.974C470.643 20.106 470.626 20.232 470.403 20.144V20.144ZM427.183 19.3521C427.158 19.4461 427.106 19.6219 427.1 19.6219C426.873 19.5719 426.648 19.503 426.642 19.222C426.819 19.271 426.995 19.315 427.179 19.353L427.183 19.3521ZM236.246 18.661C236.178 18.51 236.108 18.361 236.472 18.234C236.394 18.373 236.318 18.517 236.242 18.662L236.246 18.661ZM1331.86 17.329C1332.07 17.408 1332.28 17.5027 1332.48 17.6121C1332.19 17.8957 1331.83 18.0917 1331.44 18.177L1329.99 17.863C1330.48 17.681 1330.96 17.486 1331.45 17.323C1331.5 17.3026 1331.56 17.2921 1331.62 17.292C1331.7 17.2948 1331.78 17.3075 1331.86 17.33L1331.86 17.329ZM1337.98 15.79C1338.11 15.865 1338.22 16.242 1338.15 16.318C1337.72 16.8633 1337.22 17.3527 1336.67 17.775C1336.43 17.932 1335.93 17.693 1335.34 17.417C1335.45 16.9351 1335.71 16.5011 1336.08 16.1813C1336.46 15.8615 1336.93 15.6734 1337.42 15.646C1337.62 15.6417 1337.81 15.692 1337.97 15.791L1337.98 15.79ZM1358.76 16.1899C1358.7 16.5179 1358.58 16.8328 1358.41 17.12C1358.3 17.302 1358.07 17.42 1357.89 17.572C1357.78 17.421 1357.59 17.283 1357.58 17.126C1357.54 16.6835 1357.62 16.2382 1357.81 15.838C1358.11 15.712 1358.41 15.587 1358.71 15.455C1358.76 15.6959 1358.77 15.9424 1358.75 16.187L1358.76 16.1899ZM1347.23 15.5811C1346.57 15.5811 1345.95 15.669 1345.81 16.699C1345.8 16.762 1345.44 16.806 1345.24 16.806C1344.6 16.806 1343.95 16.737 1343.32 16.775C1342.64 16.806 1342.11 16.475 1342.14 15.908C1342.16 15.6 1342.85 15.135 1343.28 15.073C1344.66 14.866 1346.07 14.841 1347.46 14.702C1348.19 14.627 1348.91 14.382 1349.64 14.35C1351.21 14.281 1351.21 14.319 1350.69 16.303C1350.28 16.603 1350.03 16.68 1349.79 16.052C1349.65 15.688 1349.15 15.468 1348.81 15.179C1348.5 15.6 1347.97 15.587 1347.44 15.579L1347.23 15.5811ZM538.001 16.498C537.938 16.511 537.87 16.498 537.794 16.712L537.393 16.731C537.58 16.6341 537.727 16.474 537.807 16.2791H539.071C538.707 16.3501 538.355 16.426 537.997 16.495L538.001 16.498ZM1371.17 16.6169C1371.04 16.3169 1370.92 16.0171 1370.8 15.7061L1371.68 15.386C1371.57 15.8176 1371.39 16.2309 1371.16 16.614L1371.17 16.6169ZM541.895 16.598C541.405 16.504 540.915 16.41 540.424 16.309C540.94 16.284 541.461 16.259 541.977 16.246C542.016 16.244 542.061 16.338 541.891 16.6L541.895 16.598ZM608.096 15.907C607.884 16.0113 607.658 16.0834 607.424 16.121C606.929 16.0968 606.431 16.1629 605.959 16.316C604.627 16.347 603.295 16.404 601.959 16.41C601.709 16.3735 601.467 16.2925 601.245 16.171C601.452 15.976 601.671 15.599 601.866 15.606C602.312 15.6226 602.758 15.6144 603.204 15.5811C604.137 15.4488 605.091 15.5518 605.975 15.881C606.431 15.7996 606.89 15.743 607.352 15.7111H607.375C607.622 15.7419 607.864 15.8054 608.094 15.9L608.096 15.907ZM544.061 16.2209C543.877 16.1829 543.696 16.139 543.52 16.095C543.541 16.0057 543.566 15.9176 543.596 15.8311C543.827 15.8791 544.051 15.948 544.059 16.218L544.061 16.2209ZM1283.92 15.321C1283.65 15.3908 1283.39 15.4876 1283.14 15.61C1283.05 15.5417 1282.96 15.479 1282.87 15.422C1282.89 15.271 1282.93 15.07 1282.95 14.938C1283.28 15.0414 1283.61 15.167 1283.92 15.314L1283.92 15.321ZM177.627 15.177C177.477 15.252 177.328 15.391 177.175 15.403C176.749 15.4347 176.322 15.3522 175.939 15.1639C176.39 15.1069 176.84 15.032 177.297 15.001C177.297 14.995 177.302 14.995 177.308 14.995C177.404 14.987 177.52 15.1069 177.627 15.1689V15.177ZM175.359 15.014C175.416 15.027 175.453 15.108 175.283 15.366C174.783 15.266 174.283 15.171 173.783 15.052C173.781 14.9219 173.79 14.7918 173.808 14.663C174.329 14.767 174.844 14.88 175.359 15.006V15.014ZM1364.94 12.728C1364.72 12.96 1364.51 13.3879 1364.28 13.3879C1363.94 13.3485 1363.6 13.4333 1363.32 13.6263C1363.04 13.8194 1362.84 14.1075 1362.76 14.437C1362.48 15.184 1361.78 15.373 1361.16 14.525C1360.76 13.978 1360.29 13.2809 1359.5 14.1479C1359.46 14.2049 1359.07 14.079 1358.99 13.948C1358.96 13.8556 1358.95 13.7575 1358.97 13.6621C1358.99 13.5667 1359.03 13.4771 1359.09 13.401C1359.48 13.159 1359.92 12.9947 1360.37 12.917C1361.57 12.8559 1362.76 12.7344 1363.94 12.553C1364.27 12.6 1364.61 12.663 1364.94 12.72V12.728ZM1384.8 13.896C1384.84 14.336 1384.98 14.9451 1383.94 14.5811C1384.05 14.2231 1384.16 13.865 1384.25 13.507C1384.44 13.63 1384.78 13.7439 1384.8 13.8879V13.896ZM1394.77 14.0031C1393.8 14.5811 1393.83 13.928 1393.91 13.318C1393.98 12.7205 1394.14 12.1384 1394.4 11.597C1394.68 11.2437 1395.04 10.968 1395.45 10.797C1395.58 10.722 1395.84 10.872 1396.03 10.923C1395.86 11.2531 1395.71 11.5954 1395.59 11.947C1395.46 12.2699 1395.42 12.623 1395.49 12.965C1395.65 13.417 1395.86 13.2649 1396.07 13.1219C1396.18 13.0339 1396.3 12.9521 1396.4 12.9771C1397.84 13.2911 1397.66 11.671 1398.71 11.077C1399.42 10.777 1400.25 10.562 1399.95 11.777C1399.83 12.2181 1399.62 12.6299 1399.33 12.9869C1399.05 13.344 1398.69 13.6388 1398.29 13.853C1397.89 14.0673 1397.44 14.1964 1396.99 14.2325C1396.53 14.2687 1396.07 14.2109 1395.64 14.063C1395.44 13.9996 1395.24 13.9616 1395.03 13.95C1394.94 13.9435 1394.85 13.959 1394.77 13.995V14.0031ZM1409.47 13.0229C1408.04 13.3869 1406.62 13.7519 1405.18 14.0229C1404.9 14.0729 1404.56 13.7229 1404.24 13.5649C1404.53 13.2949 1404.79 12.83 1405.11 12.786C1406.47 12.604 1407.86 12.541 1409.66 12.441C1409.6 12.632 1409.58 12.984 1409.47 13.015L1409.47 13.0229ZM173.074 13.1801C173.193 13.1931 173.283 13.588 173.162 14.015C172.32 13.996 171.473 14.009 170.631 13.927C170.387 13.908 170.173 13.619 169.941 13.45C170.141 13.331 170.336 13.111 170.541 13.105C170.746 13.099 170.932 13.099 171.125 13.099C171.778 13.09 172.426 13.115 173.072 13.172L173.074 13.1801ZM1402.32 13.167C1402.39 13.324 1402.14 13.7669 1401.93 13.8669C1401.4 14.1249 1401.16 13.867 1401.45 13.088C1401.6 12.849 1401.75 12.749 1401.89 12.749C1402.06 12.745 1402.22 12.9141 1402.32 13.1591L1402.32 13.167ZM1417.98 12.953C1417.96 12.9834 1417.94 13.0101 1417.91 13.0317C1417.89 13.0534 1417.86 13.0694 1417.82 13.079C1416.56 13.3981 1415.24 13.4002 1413.98 13.085C1413.11 12.9019 1412.22 12.8241 1411.33 12.853C1411.32 12.753 1411.29 12.583 1411.33 12.564C1411.56 12.4514 1411.79 12.3513 1412.03 12.264C1411.78 12.1595 1411.52 12.0898 1411.25 12.057C1409.65 12.044 1408.07 11.498 1406.45 11.9C1405.98 12.019 1405.21 12.1 1404.99 11.843C1404.66 11.3898 1404.17 11.0836 1403.62 10.9901C1403.07 10.8966 1402.5 11.0233 1402.04 11.343C1401.9 11.412 1401.54 11.073 1401.29 10.928C1401.48 10.784 1401.65 10.564 1401.85 10.52C1402.85 10.3456 1403.87 10.312 1404.88 10.42C1405.99 10.5521 1407.12 10.4946 1408.21 10.25C1408.44 10.187 1408.74 10.357 1409 10.401C1409.68 10.52 1410.44 10.8849 1411.01 10.6899C1412.04 10.397 1413.13 10.301 1414.2 10.407C1414.73 10.432 1415.26 10.451 1415.8 10.426C1416.47 10.382 1417.15 10.175 1417.82 10.175C1418.45 10.175 1419.08 10.451 1419.71 10.439C1420.73 10.3024 1421.76 10.2333 1422.79 10.2321C1423.08 10.2497 1423.39 10.2306 1423.68 10.175C1424.45 10.056 1425.24 9.94295 1425.64 11.075C1425.7 11.1103 1425.76 11.1327 1425.83 11.1403C1425.89 11.1479 1425.96 11.1406 1426.02 11.119C1426.82 10.158 1427.82 10.252 1428.98 10.34C1429.46 10.3846 1429.94 10.3974 1430.43 10.3781C1430.77 10.4411 1431.1 10.4971 1431.44 10.5601C1431.24 10.6638 1431.03 10.7478 1430.81 10.811C1430.6 10.8435 1430.38 10.8415 1430.17 10.8051C1429.58 10.6524 1428.97 10.6792 1428.4 10.882C1427.83 11.0847 1427.33 11.4541 1426.98 11.942C1426.81 12.187 1426.28 12.482 1426.13 12.394C1425.15 11.889 1424.03 11.7137 1422.94 11.894C1422.41 11.9392 1421.88 11.9435 1421.35 11.907C1420.86 11.863 1420.33 11.756 1419.83 11.756C1419.43 11.7257 1419.04 11.8256 1418.7 12.0404C1418.37 12.2552 1418.11 12.5733 1417.98 12.946L1417.98 12.953ZM1367.97 13.079C1367.94 13.104 1367.76 12.979 1367.65 12.922C1367.74 12.7854 1367.86 12.6722 1368 12.5914C1368.15 12.5107 1368.31 12.4647 1368.47 12.457C1368.31 12.657 1368.15 12.877 1367.97 13.072L1367.97 13.079ZM18.672 12.627C18.9179 12.652 19.1509 12.7711 19.1719 13.0601H19.045C18.9529 13.0698 18.8595 13.0633 18.7696 13.041C18.5521 12.9679 18.3401 12.8796 18.1348 12.777C18.2986 12.7054 18.4703 12.6544 18.6466 12.625L18.672 12.627ZM23.4903 12.74L23.7169 12.313C23.7869 12.45 23.8582 12.6001 23.4922 12.7321L23.4903 12.74ZM1066.49 12.432C1066.56 12.4505 1066.62 12.484 1066.67 12.5298C1066.72 12.5756 1066.76 12.6326 1066.78 12.696C1066.56 12.69 1066.34 12.677 1066.12 12.671C1066.25 12.545 1066.37 12.426 1066.47 12.426C1066.48 12.418 1066.49 12.418 1066.5 12.425L1066.49 12.432ZM970.466 11.64C970.866 11.69 971.466 11.854 971.12 12.469H970.857C970.664 12.4796 970.47 12.4712 970.279 12.444C969.927 12.381 969.579 12.256 969.236 12.161C969.623 11.983 970.036 11.636 970.404 11.636C970.425 11.6337 970.446 11.6327 970.468 11.6331L970.466 11.64ZM1204.23 12.168C1203.91 12.3162 1203.57 12.4035 1203.22 12.425C1202.88 12.325 1202.54 12.225 1202.21 12.125C1202.32 11.9827 1202.48 11.8704 1202.65 11.7972C1202.82 11.7241 1203 11.6921 1203.18 11.704C1203.38 11.691 1203.58 11.7257 1203.76 11.8052C1203.95 11.8847 1204.11 12.0067 1204.24 12.161L1204.23 12.168ZM1064.11 11.64C1063.51 11.9253 1062.9 12.1728 1062.27 12.381C1061.54 12.293 1060.82 12.186 1060.09 12.092L1060.1 12.079C1060.33 11.8296 1060.58 11.5958 1060.84 11.379C1061.07 11.5405 1061.34 11.6402 1061.63 11.6687C1061.91 11.6972 1062.19 11.6536 1062.45 11.542C1062.72 11.4666 1063 11.4224 1063.28 11.41C1063.57 11.4054 1063.86 11.4827 1064.11 11.6331L1064.11 11.64ZM940.007 11.697C939.661 11.8994 939.275 12.0237 938.876 12.061C937.956 12.1019 937.033 12.0389 936.126 11.873C934.875 11.6093 933.583 11.6093 932.332 11.873C932.17 11.917 931.892 11.54 931.673 11.364C931.892 11.257 932.106 11.05 932.332 11.056C933.765 11.062 935.203 11.113 937.068 11.163C937.929 11.182 938.797 11.22 939.656 11.22C939.871 11.1755 940.078 11.0994 940.271 10.994C940.193 11.225 940.181 11.5889 940.011 11.6899L940.007 11.697ZM145.388 11.791L145.125 11.954C145.137 11.854 145.155 11.759 145.261 11.759C145.306 11.7577 145.351 11.7662 145.392 11.7841L145.388 11.791ZM898.816 11.741C898.709 11.791 898.516 11.904 898.496 11.879C898.386 11.7691 898.305 11.6333 898.261 11.4841C898.217 11.335 898.211 11.1771 898.244 11.025C898.442 11.256 898.631 11.495 898.82 11.734L898.816 11.741ZM948.04 11.3199C947.985 11.449 947.9 11.5631 947.792 11.6527C947.684 11.7423 947.558 11.8047 947.421 11.835C946.755 11.866 945.994 12.03 945.566 11.251C946.16 10.9462 946.789 10.7162 947.439 10.566C947.497 10.5588 947.556 10.5544 947.615 10.553C948.095 10.547 948.171 10.911 948.044 11.313L948.04 11.3199ZM1056.87 11.245C1057.13 11.3021 1057.39 11.3776 1057.64 11.4709C1057.41 11.5389 1057.19 11.6252 1056.98 11.729L1055.51 11.559C1055.69 11.4725 1055.87 11.3627 1056.03 11.2321C1056.11 11.1841 1056.2 11.162 1056.29 11.1689C1056.49 11.1782 1056.68 11.2011 1056.87 11.2371L1056.87 11.245ZM890.035 11.672L889.023 10.943C889.142 10.893 889.255 10.798 889.369 10.798H889.525C889.57 10.798 889.613 10.792 889.652 10.792C890.019 10.785 890.322 10.867 890.039 11.665L890.035 11.672ZM907.511 11.056C907.366 11.194 907.222 11.326 906.857 11.672C906.857 11.402 906.851 11.125 906.845 10.843C907.074 10.911 907.292 10.98 907.513 11.049L907.511 11.056ZM377.769 11.389C377.508 11.4437 377.237 11.3987 377.009 11.2629C377.241 11.2129 377.464 11.156 377.696 11.119C377.73 11.204 377.755 11.292 377.771 11.382L377.769 11.389ZM141.4 11.345C141.035 11.3543 140.67 11.3353 140.308 11.288C140.001 11.186 139.71 11.0376 139.447 10.848C139.764 10.6963 140.108 10.6066 140.459 10.584C140.555 10.5716 140.651 10.5652 140.748 10.5649C140.998 10.5369 141.25 10.6004 141.457 10.7437C141.664 10.8869 141.811 11.1001 141.873 11.344C141.82 11.344 141.768 11.344 141.715 11.344L141.4 11.345ZM1208 11.257L1207.83 10.993C1207.96 11.005 1208.09 11.024 1208 11.25L1208 11.257ZM1182.77 10.3781C1182.47 10.6218 1182.13 10.8264 1181.78 10.9871C1181.58 11.0501 1181.29 10.8549 1181.06 10.3459C1181.29 10.2562 1181.53 10.195 1181.78 10.1639H1181.81C1182.14 10.2027 1182.46 10.2721 1182.77 10.371L1182.77 10.3781ZM1210.38 10.678C1210.07 10.741 1209.76 10.823 1209.45 10.86C1209.35 10.866 1209.23 10.741 1209.12 10.678C1209.26 10.5819 1209.41 10.5058 1209.57 10.452C1209.61 10.4446 1209.65 10.4401 1209.69 10.439C1209.94 10.4571 1210.18 10.5351 1210.39 10.666L1210.38 10.678ZM904.527 10.7531C904.041 10.8292 903.544 10.8012 903.07 10.671C902.756 10.514 902.65 9.94896 902.441 9.55896C902.787 9.66596 903.121 9.77301 903.466 9.85901C903.748 9.88594 904.031 9.89432 904.314 9.88403C904.671 10.003 905.293 10.0539 905.337 10.2419C905.476 10.8139 905.092 10.7879 904.736 10.7629C904.668 10.7569 904.6 10.75 904.537 10.75L904.527 10.7531ZM1096.72 10.1121L1096.28 10.527C1096.23 10.301 1096.17 10.075 1096.11 9.849C1096.39 9.855 1096.66 9.87398 1096.72 10.1L1096.72 10.1121ZM1125.74 9.67896C1125.57 9.91096 1125.44 10.2631 1125.22 10.3571C1124.72 10.5571 1124.48 10.288 1124.78 9.54004C1125.1 9.57904 1125.43 9.62299 1125.75 9.66699L1125.74 9.67896ZM898.445 9.99304C898.32 9.98004 898.187 9.96199 898.281 9.73499C898.342 9.81199 898.393 9.89996 898.449 9.98096L898.445 9.99304ZM894.998 9.90503C894.865 9.88603 894.74 9.87399 894.828 9.64099L894.998 9.90503ZM893.269 9.86096C893.144 9.84196 893.011 9.83005 893.107 9.59705L893.269 9.86096ZM907.509 9.79797C907.382 9.77897 907.251 9.76706 907.345 9.53406C907.402 9.61106 907.456 9.70001 907.513 9.78601L907.509 9.79797ZM867.451 8.99805L867.076 9.35596C866.969 9.24093 866.892 9.10298 866.847 8.95264C866.803 8.80229 866.792 8.64364 866.818 8.48901C867.03 8.65001 867.244 8.81901 867.457 8.98901L867.451 8.99805ZM1132.45 9.30603C1132.23 9.36903 1132.08 9.43203 1132.55 8.87903C1132.74 8.92903 1132.93 8.98601 1133.11 9.03601C1133 9.13001 1132.79 9.31905 1132.77 9.30005C1132.74 9.27703 1132.7 9.26605 1132.66 9.26904C1132.59 9.27165 1132.52 9.28206 1132.46 9.30005L1132.45 9.30603ZM1243.61 7.18298C1243.64 7.23298 1243.41 7.483 1243.27 7.604C1242.23 8.30771 1241.05 8.78871 1239.82 9.01697C1239.6 9.07997 1239.21 8.56502 1238.91 8.31702C1239.12 8.12902 1239.34 7.94706 1239.55 7.75806C1239.63 7.66336 1239.74 7.59425 1239.86 7.55884C1239.98 7.52343 1240.11 7.52311 1240.23 7.55798C1240.18 8.36798 1240.54 8.43699 1241.08 7.98499C1241.2 7.88499 1241.93 7.65806 1241.15 7.35706C1241.03 7.30706 1240.96 7.08702 1240.88 6.94202C1241.6 6.81602 1242.32 6.64198 1243.05 6.58398H1243.06C1243.24 6.57698 1243.48 6.94097 1243.62 7.17297L1243.61 7.18298ZM850.431 8.06201C850.783 8.18101 851.412 8.23803 851.457 8.42603C851.576 8.99103 851.205 8.96606 850.857 8.93506C850.782 8.92686 850.706 8.92475 850.631 8.92896C850.205 8.94472 849.779 8.93206 849.355 8.89099C848.935 8.82799 848.521 8.69094 848.105 8.59094C848.527 8.40894 848.935 8.19103 849.369 8.05103C849.435 8.02703 849.505 8.01649 849.576 8.02002C849.758 8.00902 850.002 8.03998 850.441 8.05298L850.431 8.06201ZM1237.45 7.78601C1237.67 7.89301 1237.94 8.40096 1237.87 8.48596C1237.6 8.82496 1237.27 9.34696 1236.75 8.33496C1236.71 7.93496 1236.84 7.68799 1237.11 7.68799C1237.24 7.68875 1237.36 7.71895 1237.46 7.776L1237.45 7.78601ZM1028.75 8.37598C1028.33 8.42114 1027.91 8.49461 1027.49 8.59595C1027.38 8.55195 1027.27 8.50201 1027.16 8.45801C1027.49 8.42001 1027.83 8.37595 1028.6 8.35095L1028.75 8.37598ZM1235.5 6.57605C1235.21 6.94005 1234.92 7.31701 1234.6 7.65601C1234.51 7.76301 1234.29 7.74995 1234.14 7.79395C1234.08 7.30995 1233.84 6.73906 1234.02 6.36206C1234.15 6.06206 1234.34 5.91003 1234.57 5.91003C1234.85 5.90003 1235.16 6.11795 1235.51 6.56995L1235.5 6.57605ZM1224.49 7.31702C1223.94 7.58275 1223.35 7.7325 1222.74 7.75696C1222.39 7.63096 1222.03 7.51199 1221.67 7.38599C1221.93 7.07199 1222.12 6.58602 1222.43 6.49402C1222.79 6.41298 1223.16 6.39172 1223.53 6.43103C1223.73 6.43703 1223.93 6.44401 1224.13 6.43701C1224.47 6.42401 1224.81 6.36197 1225.15 6.32397C1225 6.6899 1224.78 7.02461 1224.5 7.31201L1224.49 7.31702ZM1219.96 7.03406C1219.78 7.10306 1219.56 7.25994 1219.41 7.21594C1219.15 7.1017 1218.9 6.95635 1218.67 6.78296C1218.91 6.62238 1219.17 6.49183 1219.44 6.39404C1219.45 6.39404 1219.46 6.38794 1219.48 6.38794C1219.63 6.38194 1219.81 6.56405 1219.97 7.02905L1219.96 7.03406ZM1230.76 6.58203C1230.6 6.75203 1230.46 7.03996 1230.28 7.05896C1229.64 7.08972 1229.01 7.08146 1228.37 7.03406C1228.32 6.98875 1228.27 6.93814 1228.23 6.88306C1228.21 6.84506 1228.23 6.74504 1228.25 6.73804C1228.88 6.5393 1229.51 6.37242 1230.15 6.23804H1230.18C1230.36 6.23804 1230.57 6.46403 1230.77 6.57703L1230.76 6.58203ZM501.462 15.882C501.442 15.763 501.311 15.744 501.186 15.725C501.204 15.7718 501.235 15.8123 501.276 15.8413C501.317 15.8703 501.367 15.8865 501.417 15.8879C501.434 15.8869 501.451 15.8819 501.466 15.873L501.462 15.882ZM509.671 15.662C509.646 15.562 509.607 15.386 509.602 15.392C509.382 15.4023 509.174 15.4944 509.018 15.65C509.127 15.6778 509.238 15.6925 509.35 15.694C509.459 15.6877 509.568 15.674 509.674 15.653L509.671 15.662ZM496.37 15.2469C495.852 15.1307 495.326 15.0697 494.796 15.0649C494.733 15.2159 494.774 15.3101 494.819 15.3101C495.34 15.2891 495.862 15.264 496.378 15.239L496.37 15.2469ZM486.409 15.033C486.364 14.933 486.309 14.75 486.276 14.75C485.944 14.763 485.61 14.807 485.276 14.85C485.262 14.85 485.245 14.95 485.262 14.988C485.293 15.051 485.357 15.095 485.622 15.151C485.889 15.1265 486.155 15.0844 486.417 15.025L486.409 15.033ZM465.346 14.833C465.045 14.7988 464.74 14.8722 464.487 15.04C464.54 15.0529 464.595 15.0592 464.649 15.059C464.899 15.0341 465.14 14.9538 465.354 14.824L465.346 14.833ZM200.853 14.626C200.921 14.326 200.915 13.985 200.828 13.96C200.061 13.7134 199.275 13.5304 198.478 13.413C198.22 13.382 197.915 13.733 197.625 13.913C197.812 14.164 197.97 14.613 198.183 14.635C198.576 14.6805 198.97 14.7035 199.365 14.704C199.849 14.692 200.34 14.6609 200.861 14.6169L200.853 14.626ZM195.295 14.444C195.088 14.199 194.924 13.86 194.654 13.728C193.244 13.1549 191.693 13.0234 190.207 13.351C188.817 13.4642 187.421 13.477 186.029 13.389C185.037 13.3376 184.044 13.3396 183.052 13.395C182.713 13.3724 182.378 13.3113 182.052 13.213C181.314 13.0446 180.561 12.9498 179.804 12.9301C179.221 13.0432 178.655 13.2355 178.125 13.502C178.672 13.59 179.219 13.659 179.752 13.76C180.418 13.892 181.073 14.068 181.732 14.193C182.001 14.2824 182.289 14.302 182.568 14.25C183.431 13.989 184.348 13.9587 185.226 14.162C185.831 14.2674 186.447 14.3033 187.06 14.269C187.939 14.256 188.705 14.395 189.478 14.432C190.105 14.463 190.734 14.438 191.363 14.413C192.409 14.3296 193.462 14.3783 194.496 14.558C194.538 14.5657 194.58 14.5701 194.623 14.571C194.852 14.5406 195.08 14.4952 195.304 14.4351L195.295 14.444ZM448.011 14.073C447.922 13.6632 447.763 13.272 447.54 12.917C447.415 13.2702 447.323 13.6341 447.264 14.004C447.244 14.404 447.295 14.5439 447.401 14.5439C447.553 14.5349 447.779 14.284 448.018 14.064L448.011 14.073ZM428.558 13.74H428.52C428.487 13.7373 428.453 13.7417 428.421 13.7531C428.33 13.8251 428.246 13.905 428.169 13.9919C428.186 14.1991 428.278 14.393 428.427 14.538C428.485 14.265 428.523 14 428.565 13.731L428.558 13.74ZM477.884 14.085C477.81 14.229 477.734 14.3739 477.872 14.5179C478.03 14.3719 477.961 14.227 477.891 14.077L477.884 14.085ZM1307.13 14.324C1307.23 14.2724 1307.31 14.1973 1307.38 14.1052C1307.44 14.0132 1307.48 13.907 1307.49 13.796C1307.16 13.496 1306.96 12.996 1306.65 13.557C1306.53 13.8322 1306.45 14.1216 1306.4 14.418C1306.65 14.4202 1306.9 14.3854 1307.14 14.3149L1307.13 14.324ZM411.536 14.368C411.649 14.368 411.862 14.255 411.856 14.217C411.838 14.0999 411.791 13.9886 411.722 13.8925C411.652 13.7963 411.562 13.718 411.456 13.6639C411.088 13.542 410.729 13.395 410.382 13.224C410.293 13.3076 410.226 13.4102 410.183 13.524C410.365 13.7307 410.573 13.9144 410.8 14.071C411.017 14.2108 411.257 14.3121 411.509 14.371L411.536 14.368ZM202.75 14.337C203.139 14.337 203.523 14.28 203.906 14.243C203.924 14.243 203.942 14.143 203.923 14.105C203.892 14.042 203.836 13.998 203.572 13.942C203.359 13.9266 203.145 13.9222 202.931 13.929C202.738 13.954 202.542 14.004 202.353 14.048C202.466 14.148 202.58 14.331 202.699 14.337H202.75ZM466.591 14.0861C466.548 13.9921 466.497 13.8101 466.452 13.8101C466.12 13.8231 465.786 13.867 465.46 13.91C465.438 13.9528 465.434 14.0021 465.448 14.048C465.479 14.111 465.536 14.1551 465.8 14.2111C466.07 14.1874 466.339 14.1426 466.602 14.077L466.591 14.0861ZM1293.18 13.8719C1293 13.8279 1292.82 13.784 1292.53 13.74C1292.7 13.9002 1292.89 14.0395 1293.09 14.155L1293.18 13.8719ZM416.085 14.111C416.357 13.9585 416.641 13.8285 416.935 13.722C416.791 13.4598 416.629 13.2078 416.45 12.968C416.387 12.893 416.18 12.918 416.042 12.924C415.242 12.993 414.437 13.075 413.632 13.15C413.677 13.866 414.109 13.816 414.55 13.759C414.902 13.721 415.259 13.677 415.423 14.042C415.446 14.111 415.577 14.142 415.741 14.142C415.858 14.1371 415.976 14.123 416.091 14.1L416.085 14.111ZM463.145 13.998C463.1 13.904 463.046 13.715 463.007 13.715C462.673 13.728 462.34 13.778 462.014 13.822C462 13.822 461.984 13.922 462.001 13.96C462.032 14.017 462.088 14.0599 462.352 14.1169C462.622 14.0974 462.889 14.0546 463.151 13.989L463.145 13.998ZM196.347 13.866C196.365 13.985 196.496 14.0039 196.621 14.0229C196.602 13.9684 196.564 13.9222 196.515 13.892C196.466 13.8617 196.408 13.8495 196.351 13.8571L196.347 13.866ZM450.466 13.797C450.974 13.797 451.487 13.697 452.001 13.646C451.601 12.892 450.896 12.899 450.192 12.946C449.765 12.9644 449.351 13.1029 448.999 13.3459C449.409 13.6225 449.89 13.779 450.384 13.798L450.466 13.797ZM432.913 13.74C433.057 13.7073 433.205 13.6926 433.352 13.696C433.505 13.4778 433.641 13.2488 433.761 13.011C433.571 12.9569 433.373 12.9356 433.177 12.948C432.831 13.023 432.236 13.143 432.222 13.287C432.191 13.687 432.341 13.787 432.556 13.787C432.678 13.7797 432.8 13.7609 432.919 13.731L432.913 13.74ZM1292.19 13.332C1292.18 13.4761 1292.22 13.6181 1292.31 13.7321C1292.33 13.5853 1292.28 13.4384 1292.19 13.323L1292.19 13.332ZM444.872 13.646C444.979 13.627 445.149 13.213 445.104 13.162C444.863 12.9681 444.576 12.8403 444.27 12.791C443.692 12.879 443.064 12.9099 443.013 13.0909C442.863 13.6499 443.234 13.644 443.579 13.631C443.661 13.631 443.741 13.631 443.817 13.637C444.03 13.65 444.252 13.668 444.47 13.668C444.606 13.6676 444.742 13.6572 444.878 13.637L444.872 13.646ZM435.206 12.986C435.056 13.124 435.124 13.2749 435.192 13.4189C435.273 13.2659 435.351 13.1221 435.212 12.9771L435.206 12.986ZM1289.31 13.1121C1289.29 13.0181 1289.26 12.842 1289.25 12.842C1289.03 12.8512 1288.82 12.9432 1288.66 13.1C1288.77 13.1281 1288.89 13.1429 1289 13.144C1289.11 13.1398 1289.22 13.125 1289.32 13.1L1289.31 13.1121ZM360.599 11.988C360.388 11.7907 360.131 11.6503 359.851 11.58C359.905 11.8633 360.033 12.1274 360.222 12.3459C360.353 12.2169 360.478 12.1 360.603 11.979L360.599 11.988ZM1413.54 12.1071C1413.74 12.0771 1413.93 12.0373 1414.12 11.988C1414.01 11.888 1413.9 11.705 1413.78 11.699C1413.37 11.7055 1412.97 11.7369 1412.56 11.793C1412.55 11.793 1412.53 11.893 1412.55 11.931C1412.58 11.994 1412.64 12.038 1412.9 12.094C1413.16 12.1 1413.3 12.113 1413.42 12.113C1413.46 12.1124 1413.51 12.108 1413.55 12.1L1413.54 12.1071ZM1000.03 10.662C1000.03 10.8088 1000.07 10.9536 1000.16 11.0699C1000.18 10.9205 1000.13 10.7711 1000.04 10.653L1000.03 10.662ZM969.992 9.96204C969.779 9.90469 969.554 9.90016 969.339 9.94897C969.364 10.043 969.402 10.219 969.408 10.219C969.632 10.2099 969.844 10.1159 970.001 9.95605L969.992 9.96204ZM972.253 9.755C972.311 9.5481 972.315 9.32991 972.265 9.12097C972.215 8.95358 972.137 8.79622 972.033 8.65601C971.806 8.84327 971.63 9.08372 971.519 9.35596C971.673 9.62884 971.803 9.91458 971.908 10.21C972.049 10.0765 972.168 9.92084 972.259 9.74902L972.253 9.755ZM771.18 9.98706C771.514 9.70406 771.733 9.52195 771.953 9.34595C771.539 9.28895 771.074 9.09497 770.728 9.21997C770.501 9.30197 770.457 9.85395 770.328 10.2C770.622 10.1624 770.91 10.0888 771.185 9.98096L771.18 9.98706ZM977.894 9.62903C978.019 9.57903 978.138 9.52205 978.257 9.47205C978.12 9.37805 977.987 9.21501 977.843 9.20801C976.851 9.15801 975.86 9.12606 974.867 9.13306C974.722 9.13306 974.571 9.33304 974.427 9.44104C974.572 9.62304 974.702 9.92505 974.872 9.95605C975.437 10.0154 976.004 10.0384 976.572 10.025C977.023 9.92107 977.468 9.78679 977.902 9.62305L977.894 9.62903ZM775.383 9.35901C775.06 9.18166 774.748 8.98671 774.447 8.77502C774.04 8.77385 773.634 8.83729 773.246 8.96301C773.617 9.29601 773.932 9.76303 774.365 9.90503C774.386 9.91584 774.41 9.92029 774.434 9.91797C774.702 9.91197 775.074 9.53503 775.389 9.35303L775.383 9.35901ZM938.882 9.44104C939.739 9.14737 940.65 9.04492 941.55 9.14099C941.972 9.15399 942.398 9.16599 942.814 9.14099C943.556 9.07202 944.292 8.94603 945.015 8.76404C945.215 8.72004 945.374 8.48105 945.556 8.33105C945.381 8.17376 945.187 8.03932 944.978 7.93103C944.867 7.90017 944.752 7.89165 944.638 7.90601C944.54 7.91126 944.441 7.90684 944.343 7.89294C944.181 7.82668 944.029 7.73788 943.892 7.62903C944.008 7.56674 944.13 7.51425 944.255 7.47205C944.771 7.33405 945.286 7.20801 946.021 7.08301C946.495 7.04571 946.972 7.09691 947.427 7.23401C947.73 7.35828 948.055 7.41686 948.382 7.40601C948.71 7.39515 949.031 7.3151 949.326 7.17102C949.505 7.08779 949.695 7.02475 949.888 6.98303C949.734 6.8788 949.566 6.79823 949.388 6.74402C947.95 6.54902 946.505 6.38606 945.068 6.18506C944.816 6.15406 944.376 6.04 944.367 5.927C944.215 4.658 943.247 4.73399 942.456 4.86499C941.828 5.00066 941.179 5.00135 940.55 4.86707C939.921 4.73278 939.328 4.46663 938.81 4.08606C938.162 3.58606 937.949 4.08602 937.591 4.36902C937.829 4.63302 938.025 5.04103 938.312 5.12903C939.097 5.36803 939.958 5.41805 940.449 6.22205C939.638 6.29105 938.828 6.417 938.017 6.422C937.624 6.35931 937.242 6.24327 936.88 6.07703C936.477 5.99089 936.055 6.04266 935.685 6.224C935.315 6.40534 935.018 6.70574 934.839 7.07703C934.794 7.22203 935.07 7.64199 935.195 7.63599C935.949 7.62299 936.703 7.523 937.451 7.448C938.951 7.291 940.451 7.12799 941.951 6.98999C942.15 7.0094 942.344 7.06717 942.521 7.16003C942.402 7.30503 942.308 7.51202 942.152 7.59302C941.447 7.96302 940.675 8.655 940.015 8.573C939.517 8.5208 939.014 8.5188 938.515 8.56702C938.057 8.609 937.597 8.61329 937.138 8.57996C936.925 8.55496 936.739 7.69397 936.539 8.51697C936.531 8.68999 936.569 8.86203 936.648 9.01611C936.727 9.1702 936.845 9.30108 936.99 9.396C937.387 9.49389 937.794 9.5509 938.203 9.56604C938.438 9.56837 938.67 9.52385 938.888 9.43506L938.882 9.44104ZM952.298 9.31494C953.124 8.91111 953.916 8.44056 954.665 7.90796C955.574 7.18049 956.73 6.83771 957.888 6.953C958.388 6.972 958.888 6.99101 959.382 6.98401C959.512 6.96322 959.638 6.92064 959.753 6.85803C959.634 6.75803 959.515 6.58195 959.382 6.57495C958.741 6.52495 958.101 6.52498 957.247 6.50598C955.89 6.46798 954.741 6.53696 953.622 6.38696C952.354 6.21096 951.934 7.25402 951.236 7.86902C951.08 8.00102 951.256 8.66 951.443 8.974C951.57 9.181 951.99 9.23799 952.285 9.31299L952.298 9.31494ZM767.324 9.026C767.542 8.91589 767.774 8.83549 768.014 8.78699C767.739 8.54199 767.404 8.04595 767.197 8.09595C766.735 8.28433 766.305 8.54281 765.922 8.86206C766.029 9.01306 766.13 9.29504 766.23 9.29504C766.61 9.26898 766.983 9.17586 767.33 9.02002L767.324 9.026ZM1001.76 8.51697C1001.71 8.51697 1001.65 8.52295 1001.59 8.52295C1001.48 8.51695 1001.36 8.61697 1001.25 8.66797C1001.58 8.9347 1001.96 9.14487 1002.36 9.29004C1002.59 8.48604 1002.18 8.49999 1001.77 8.51099L1001.76 8.51697ZM948.392 9.21704C948.431 9.13237 948.437 9.03615 948.41 8.94702C948.289 8.79106 948.198 8.61455 948.14 8.42603C947.893 8.2473 947.589 8.16064 947.285 8.18103C947.334 8.78103 947.514 9.24902 948.124 9.24902C948.217 9.24688 948.311 9.23543 948.402 9.21497L948.392 9.21704ZM1383.8 9.16699C1383.92 8.96569 1384.01 8.74788 1384.08 8.52002C1383.76 8.5087 1383.43 8.54234 1383.12 8.62C1383.16 8.7598 1383.23 8.88769 1383.33 8.99036C1383.43 9.09302 1383.56 9.16672 1383.7 9.20398C1383.72 9.20561 1383.74 9.20293 1383.75 9.19617C1383.77 9.1894 1383.79 9.17879 1383.8 9.16504L1383.8 9.16699ZM1005.61 8.91003C1005.67 8.90403 1005.79 8.665 1005.77 8.552C1005.6 7.704 1005.59 7.67298 1006.18 7.65198C1006.83 7.63298 1007.48 7.67704 1008.12 7.69604C1008.77 7.71504 1009.42 7.72705 1010.28 7.75305L1011.35 7.77795C1011.21 7.61376 1011.06 7.45849 1010.91 7.31299C1009.85 6.44599 1008.56 6.81297 1007.43 6.89197C1006.7 6.90981 1005.96 6.82942 1005.25 6.65295C1005.19 6.63995 1005.14 6.50203 1005.09 6.50903C1004.46 6.52774 1003.82 6.60778 1003.19 6.74805C1003.09 6.87181 1003.01 7.0189 1002.98 7.17725C1002.94 7.33559 1002.94 7.5007 1002.98 7.65906C1003.43 8.14192 1003.96 8.55071 1004.55 8.87097C1004.68 8.93748 1004.82 8.96789 1004.97 8.95898C1005.19 8.95698 1005.41 8.91998 1005.62 8.90698L1005.61 8.91003ZM968.673 8.92896C969.2 8.55796 970.028 8.13803 970.083 7.66003C970.183 6.78703 970.564 6.81799 971.173 6.85999C971.882 6.91425 972.592 6.92461 973.302 6.89099C973.427 6.88499 973.532 6.49095 973.538 6.16895C973.087 6.07221 972.625 6.02599 972.163 6.03101C969.62 5.96201 969.532 6.00598 968.171 8.13098C968.071 8.28798 967.943 8.63104 967.994 8.66504C968.171 8.80709 968.38 8.90595 968.603 8.95398C968.631 8.95298 968.657 8.94321 968.679 8.92603L968.673 8.92896ZM961.556 8.34497C961.148 7.81697 961.161 7.84494 961.505 7.46594C961.671 7.25119 961.807 7.01597 961.913 6.76599C961.548 6.68932 961.175 6.66611 960.802 6.69702C960.577 7.29674 960.386 7.9091 960.232 8.53101C960.703 8.61301 961.173 8.69402 961.644 8.77002C961.619 8.62402 961.638 8.44204 961.562 8.34204L961.556 8.34497ZM1145.81 8.77197C1146.19 8.76275 1146.57 8.66599 1146.91 8.48901C1146.56 8.29297 1146.18 8.16697 1145.78 8.11804C1145.63 8.11204 1145.47 8.38794 1145.32 8.53894C1145.48 8.61394 1145.64 8.771 1145.8 8.771L1145.81 8.77197ZM757.748 8.07202L755.672 7.88403C755.672 7.93403 755.645 7.99105 755.664 8.02905C755.739 8.12263 755.821 8.21076 755.908 8.29297C756.502 8.40486 757.105 8.45953 757.709 8.45605C757.732 8.32914 757.748 8.20086 757.756 8.07202H757.748ZM1280.26 7.37195C1280.14 7.35495 1280.01 7.35066 1279.88 7.35901C1279.82 7.65886 1279.88 7.96924 1280.05 8.22595C1280.14 8.10603 1280.21 7.96901 1280.24 7.82288C1280.28 7.67674 1280.29 7.52448 1280.27 7.375L1280.26 7.37195ZM990.318 8.10706C989.81 7.17106 988.918 7.05799 988.472 7.78699C988.441 7.83699 988.64 8.14498 988.761 8.15698C988.952 8.17706 989.145 8.18741 989.337 8.18799C989.668 8.18789 989.997 8.16149 990.324 8.10901L990.318 8.10706ZM1428.87 7.85596C1428.75 7.87496 1428.73 8.00696 1428.71 8.13196C1428.77 8.11194 1428.81 8.07391 1428.84 8.02405C1428.87 7.97418 1428.89 7.91557 1428.88 7.85803L1428.87 7.85596ZM885.541 8.04395C886.435 7.70004 887.403 7.59667 888.349 7.74402C888.861 7.7951 889.375 7.80548 889.888 7.77502C890.017 7.74687 890.143 7.70702 890.265 7.65601C890.152 7.55601 890.052 7.39796 889.925 7.35596C889.362 7.14589 888.779 6.99022 888.185 6.89099C887.224 6.80758 886.257 6.812 885.296 6.90405C884.496 7.60405 885.108 8.06604 885.441 8.06604C885.477 8.06712 885.513 8.06061 885.546 8.047L885.541 8.04395ZM1058.33 7.80505C1058.56 7.75546 1058.79 7.68163 1059 7.58496C1058.84 7.4901 1058.65 7.42642 1058.46 7.39697C1058.06 7.41943 1057.67 7.51546 1057.31 7.68005C1057.57 7.76688 1057.84 7.81141 1058.11 7.81201C1058.19 7.81401 1058.26 7.81398 1058.34 7.80798L1058.33 7.80505ZM926.853 7.47803C926.8 7.49982 926.754 7.53892 926.726 7.58899C926.698 7.63906 926.688 7.69719 926.697 7.75403C926.822 7.73903 926.84 7.61296 926.859 7.48096L926.853 7.47803ZM1015.68 7.55298C1015.98 7.47798 1016.26 7.25303 1016.57 7.17603C1017.04 7.05003 1017.52 6.99995 1018 6.91895C1017.47 6.67625 1016.92 6.46853 1016.36 6.297C1015.92 6.41554 1015.5 6.60903 1015.12 6.86902C1015.08 6.953 1015.06 7.04626 1015.06 7.1405C1015.06 7.23474 1015.09 7.32706 1015.13 7.40906C1015.25 7.51432 1015.41 7.57039 1015.57 7.56604C1015.61 7.56694 1015.64 7.56389 1015.68 7.55701L1015.68 7.55298ZM1148.66 7.13196C1148.84 7.04119 1149.02 6.96944 1149.2 6.91797C1149.04 6.81523 1148.85 6.7428 1148.66 6.70398C1148.38 6.68498 1148.11 6.69798 1147.82 6.70398C1147.32 6.75151 1146.8 6.71543 1146.31 6.59705C1145.33 6.37195 1144.31 6.37634 1143.34 6.60999C1142.66 6.75324 1141.96 6.80799 1141.26 6.77295C1139.4 6.58495 1137.52 6.52203 1135.66 6.35803C1135.23 6.31611 1134.8 6.31169 1134.38 6.34497C1134.28 6.35797 1134.09 6.77802 1134.14 6.82202C1134.38 7.01936 1134.67 7.14939 1134.97 7.19897C1136.34 7.09897 1137.66 6.59002 1138.62 6.97302C1139.75 7.28585 1140.94 7.41507 1142.12 7.35596C1143.21 7.57628 1144.35 7.48281 1145.4 7.08606C1145.67 7.00191 1145.94 6.9774 1146.22 7.0144C1146.49 7.05141 1146.76 7.14901 1146.99 7.30005C1147.19 7.45082 1147.43 7.53643 1147.67 7.54504C1148.04 7.50552 1148.39 7.36367 1148.67 7.13599L1148.66 7.13196ZM1129.89 7.49597C1130 7.49597 1130.11 7.36405 1130.23 7.08105C1130.24 6.72305 1130.29 6.49098 1130.24 6.45898C1129.5 6.04398 1131.49 5.10898 1129.96 4.93298C1128.65 4.78198 1128.13 5.12797 1128.1 5.94397C1128.06 7.11897 1128.45 7.49597 1129.77 7.49597H1129.89ZM1080.53 7.38306C1080.28 7.25507 1080.02 7.15444 1079.75 7.08301C1079.4 7.03672 1079.04 7.02831 1078.69 7.05798C1078.63 7.05798 1078.58 7.234 1078.52 7.328C1078.78 7.40122 1079.04 7.45566 1079.31 7.49097C1079.87 7.46197 1080.2 7.42496 1080.54 7.38696L1080.53 7.38306ZM914.834 7.02502C914.947 6.81102 915.06 6.59794 915.267 6.61694C915.115 6.49794 914.967 6.27795 914.814 6.27795C912.98 6.26495 911.223 5.81997 909.294 6.42297C907.867 6.68137 906.404 6.68784 904.974 6.44202C904.624 6.40628 904.271 6.42104 903.925 6.48596C903.825 6.50496 903.761 6.838 903.755 7.026C903.749 7.108 903.973 7.29001 904.037 7.26501C905.385 6.84743 906.809 6.7337 908.207 6.93201C909.49 7.08767 910.792 7.02006 912.052 6.73206C912.683 6.69284 913.312 6.83909 913.861 7.15295C913.996 7.30795 914.184 7.40858 914.388 7.43604C914.611 7.43704 914.724 7.23605 914.843 7.02905L914.834 7.02502ZM977.845 7.10706C979.144 6.70839 980.494 6.50605 981.853 6.50696C982.621 6.41896 983.398 6.40001 984.165 6.30701C984.27 6.28801 984.429 5.98696 984.415 5.82996C984.403 5.69796 984.157 5.46603 984.038 5.47803C983.238 5.56603 982.445 5.79804 981.646 5.81104C980.929 5.82304 980.22 5.79795 979.503 5.77295C978.726 5.74195 977.939 5.71599 977.154 5.73499C976.429 5.82629 975.715 5.99044 975.023 6.22498C975.01 6.24533 975.002 6.26818 974.999 6.29199C974.996 6.31581 974.998 6.34009 975.005 6.36304C975.036 6.42604 975.094 6.47 975.363 6.526C975.746 6.98848 976.293 7.28536 976.89 7.35498C977.226 7.34625 977.555 7.26289 977.855 7.11096L977.845 7.10706ZM902.484 6.35999C902.597 6.16543 902.749 5.99571 902.929 5.86084C903.109 5.72597 903.314 5.6287 903.533 5.57495C904.972 5.38695 906.434 5.32402 908.095 5.22302C910.677 4.65802 913.126 5.17905 915.527 4.62305C915.974 4.55578 916.43 4.57266 916.871 4.67297C917.438 4.81118 918.031 4.79811 918.591 4.63501C918.9 4.52201 919.206 4.396 919.515 4.271C919.734 4.177 919.95 4.07606 920.162 3.98206C919.98 3.89705 919.787 3.83778 919.589 3.80603C916.815 3.67852 914.036 3.86601 911.304 4.36499C910.213 4.49595 909.111 4.49795 908.019 4.37097C906.232 4.18109 904.425 4.39577 902.732 4.99902C901.892 5.16191 901.03 5.1704 900.187 5.02405C898.033 4.97405 895.887 4.90494 893.73 4.86694C893.487 4.90615 893.252 4.98034 893.031 5.08704C893.231 5.29404 893.445 5.696 893.621 5.677C894.015 5.67706 894.405 5.76055 894.765 5.922C895.074 6.08624 895.42 6.17002 895.769 6.16565C896.119 6.16128 896.461 6.06888 896.765 5.89697C897.599 5.39697 899.001 5.809 900.144 5.922C900.402 5.947 900.616 6.41203 900.845 6.67603C901.171 7.05303 901.409 7.24097 901.63 7.24097C901.916 7.24297 902.156 6.95404 902.494 6.36304L902.484 6.35999ZM964.267 7.00098C964.915 6.91531 965.557 6.78945 966.189 6.62402C965.833 6.31697 965.443 6.05156 965.027 5.83301C964.585 5.98162 964.16 6.17531 963.757 6.41101C963.927 6.61801 964.109 7.00098 964.257 7.00098H964.267ZM1126.33 6.95703C1127 6.91303 1126.87 6.51695 1126.36 6.12195C1126.05 6.24082 1125.75 6.41298 1125.49 6.63098C1125.74 6.78859 1126.01 6.90131 1126.3 6.96399C1126.32 6.96791 1126.33 6.96646 1126.34 6.95996L1126.33 6.95703ZM1115.88 6.68103C1116.51 6.38313 1117.12 6.02553 1117.68 5.61304C1117.14 5.55004 1116.58 5.47505 1116.03 5.42505C1115.68 5.39405 1115.31 5.40596 1114.74 5.38696C1113.83 5.38096 1112.75 5.16104 1112.7 5.94604C1112.64 6.67504 1113.46 6.67505 1114.12 6.67505H1114.38C1114.72 6.68105 1115.07 6.75 1115.4 6.75C1115.56 6.7552 1115.73 6.73253 1115.89 6.68298L1115.88 6.68103ZM924.833 6.24805C924.593 6.09105 924.361 5.93398 924.123 5.77698C924.055 5.88293 924.01 6.00261 923.994 6.12744C923.977 6.25227 923.99 6.3792 924.029 6.49902C924.311 6.45449 924.585 6.37066 924.843 6.25L924.833 6.24805ZM992.017 6.08496C992.236 6.06596 992.616 5.85899 992.616 5.73999C992.616 5.08699 992.416 5.26294 992.202 5.43994C992.102 5.52794 992.004 5.61603 991.921 5.60303C990.691 5.38781 989.447 5.24085 988.2 5.16296C987.857 5.19248 987.539 5.35209 987.31 5.60901C986.945 5.91701 986.562 6.22498 985.984 5.95398C985.964 5.94098 985.859 6.12404 985.784 6.21204C985.899 6.28333 986.024 6.33628 986.156 6.36902C986.513 6.40002 986.873 6.39398 987.443 6.40698C989.125 6.31298 990.576 6.21904 992.027 6.08704L992.017 6.08496ZM1120.05 6.38501C1120.57 6.32801 1121.09 6.23406 1121.62 6.15906C1121.4 5.41206 1120.77 5.24199 1120.13 5.10999C1119.81 5.06036 1119.48 5.0861 1119.17 5.18506C1118.62 5.70606 1118.05 6.15197 1119.18 6.36597C1119.34 6.39132 1119.51 6.40411 1119.67 6.40405C1119.8 6.40005 1119.93 6.39496 1120.06 6.38196L1120.05 6.38501ZM918.998 6.354C919.668 6.18869 920.325 5.97446 920.964 5.71301C920.306 5.62895 919.641 5.59752 918.978 5.61902C918.402 5.74614 917.819 5.84255 917.232 5.90796C917.054 5.95871 916.883 6.03277 916.724 6.12805C916.901 6.21801 917.088 6.28355 917.283 6.323C917.666 6.348 918.056 6.39795 918.439 6.39795C918.629 6.39874 918.82 6.38301 919.007 6.35095L918.998 6.354ZM1051.18 6.21594C1051.29 6.12194 1051.26 5.85803 1051.29 5.67603C1050.83 5.65782 1050.36 5.68933 1049.91 5.77002C1050 5.9305 1050.13 6.06623 1050.29 6.16577C1050.45 6.26532 1050.62 6.32579 1050.81 6.34204C1050.95 6.34997 1051.08 6.30329 1051.19 6.21204L1051.18 6.21594ZM1012.27 5.83899C1012.52 5.68199 1013.11 6.08405 1013.66 6.12805C1013.95 6.00476 1014.25 5.90173 1014.55 5.81995C1014.72 5.75653 1014.89 5.6831 1015.05 5.59998C1014.94 5.53098 1014.82 5.41803 1014.7 5.40503C1012.54 5.19803 1010.39 4.93997 1008.22 4.83997C1007.67 4.80897 1007.1 5.26104 1006.54 5.49304C1006.77 5.52186 1006.98 5.62308 1007.15 5.78198C1007.48 6.02698 1007.82 6.27198 1008.35 5.78198C1008.6 5.64628 1008.88 5.57266 1009.16 5.56726C1009.45 5.56187 1009.73 5.62485 1009.99 5.75098C1010.37 5.99555 1010.8 6.13848 1011.25 6.16602C1011.62 6.15932 1011.98 6.0446 1012.28 5.83606L1012.27 5.83899ZM1020.61 5.97095C1021.05 5.95409 1021.47 5.86064 1021.87 5.69495C1021.5 5.58278 1021.12 5.5381 1020.73 5.56299C1020.58 5.57599 1020.43 5.71404 1020.28 5.79504C1020.39 5.85204 1020.5 5.97095 1020.6 5.97095H1020.61ZM1037.83 5.84497C1037.92 5.75561 1037.98 5.63844 1038.01 5.51062C1038.03 5.3828 1038.01 5.25114 1037.95 5.13501C1037.18 5.05301 1036.94 5.28601 1037.16 5.80701C1037.18 5.86401 1037.37 5.90698 1037.54 5.90698C1037.64 5.91559 1037.74 5.89301 1037.84 5.84204L1037.83 5.84497ZM928.708 5.73804C928.927 5.65604 929.048 5.31705 929.208 5.09705C928.972 5.03879 928.729 5.01348 928.486 5.02197C928.037 5.13332 927.595 5.26961 927.162 5.43005C927.142 5.43605 927.123 5.53699 927.142 5.56799C927.216 5.66699 927.3 5.75755 927.394 5.83801C927.581 5.85701 927.763 5.86902 927.933 5.86902C928.201 5.87602 928.468 5.83046 928.718 5.73499L928.708 5.73804ZM999.982 5.44897C999.804 5.15997 999.604 4.98397 999.452 5.02197C999.182 5.12386 998.925 5.2582 998.687 5.422C998.915 5.59799 999.167 5.74168 999.435 5.849C999.451 5.85452 999.467 5.85655 999.484 5.85498C999.638 5.84798 999.821 5.70004 999.991 5.44604L999.982 5.44897ZM1133.18 5.54297C1133.06 5.56197 1133.04 5.69397 1133.02 5.81897C1133.07 5.79927 1133.12 5.76076 1133.15 5.70996C1133.18 5.65916 1133.2 5.59922 1133.19 5.54004L1133.18 5.54297ZM1028.57 5.75696C1028.69 5.71896 1028.83 5.68798 1028.89 5.75098C1028.91 5.76998 1029.12 5.57496 1029.24 5.48096C1028.98 5.4099 1028.72 5.35745 1028.46 5.32397C1028.24 5.70097 1028.26 5.79504 1028.37 5.79504C1028.44 5.78936 1028.51 5.77559 1028.58 5.75403L1028.57 5.75696ZM945.921 5.75098C947.265 5.61898 948.603 5.41803 950.054 5.12903C950.123 4.96419 950.155 4.78645 950.148 4.60803C949.759 4.61403 949.369 4.58896 948.98 4.56396C947.916 4.41059 946.83 4.53181 945.826 4.91602C945.646 5.00848 945.474 5.1113 945.306 5.224C945.506 5.4 945.722 5.75195 945.906 5.75195L945.921 5.75098ZM1077.54 5.70703C1078.52 5.69403 1077.8 5.33005 1077.54 4.97205C1077.26 5.02734 1077 5.15251 1076.78 5.33606C1077.03 5.46806 1077.29 5.70703 1077.54 5.70703H1077.54ZM1062.86 5.66895C1062.84 5.54995 1062.71 5.53096 1062.58 5.51196C1062.63 5.59396 1062.68 5.67505 1062.81 5.67505C1062.83 5.67586 1062.85 5.67276 1062.86 5.66602L1062.86 5.66895ZM1146.58 4.59497C1146.17 4.5968 1145.77 4.66441 1145.39 4.79504C1145.56 5.08404 1145.73 5.36701 1145.9 5.65601C1146.19 5.3441 1146.42 4.98402 1146.59 4.59204L1146.58 4.59497ZM1073.65 5.61304C1073.82 5.58478 1073.99 5.53401 1074.15 5.46204C1073.94 5.36234 1073.73 5.27416 1073.51 5.198C1073.34 5.16694 1073.15 5.19804 1073 5.28601C1073.07 5.37923 1073.16 5.45633 1073.27 5.51257C1073.37 5.56881 1073.49 5.60303 1073.6 5.61304H1073.65ZM1140.65 4.677C1140.79 4.244 1140.25 3.40197 1141.53 3.49597C1142.07 3.10697 1142.21 2.71095 1141.52 2.64795C1141.28 2.63688 1141.03 2.68012 1140.81 2.77441C1140.58 2.8687 1140.38 3.01174 1140.21 3.19336C1140.05 3.37497 1139.93 3.59062 1139.86 3.82483C1139.79 4.05903 1139.77 4.30597 1139.81 4.54797C1139.93 4.93056 1140.13 5.28777 1140.38 5.60303C1140.48 5.28903 1140.55 4.97495 1140.66 4.67395L1140.65 4.677ZM954.706 5.55005C955.375 5.47998 956.036 5.35581 956.685 5.17896C956.904 5.08941 957.107 4.96406 957.285 4.80798C957.063 4.62369 956.818 4.46967 956.556 4.34998C956.404 4.29998 956.185 4.46306 955.882 4.63306C955.343 4.72706 954.904 4.65205 954.488 4.72705C954.244 4.77705 954.043 5.05994 953.824 5.24194C954.084 5.38731 954.365 5.49133 954.658 5.55005H954.706ZM1136.28 5.31104C1136.38 5.25685 1136.47 5.17942 1136.53 5.08545C1136.59 4.99147 1136.63 4.88366 1136.65 4.771C1136.54 4.73046 1136.42 4.71295 1136.3 4.71948C1136.19 4.72602 1136.07 4.75643 1135.97 4.80896C1135.8 4.98306 1135.66 5.17967 1135.55 5.39294C1135.8 5.39821 1136.05 5.36966 1136.29 5.30798L1136.28 5.31104ZM962.859 5.32996C963.048 5.28596 963.172 5.00996 963.329 4.82996C963.184 4.71696 963.055 4.52205 962.904 4.50305C962.412 4.44654 961.915 4.44013 961.421 4.48401C961.381 4.77141 961.44 5.06388 961.589 5.31299C961.966 5.32599 962.255 5.35706 962.501 5.35706C962.624 5.36106 962.748 5.35097 962.869 5.32703L962.859 5.32996ZM930.392 5.26697C930.578 4.60374 930.64 3.912 930.578 3.22595C929.744 3.08195 929.002 3.25097 928.951 3.79797C928.914 4.27497 929.492 4.82197 929.851 5.29797C929.871 5.32897 929.945 5.34204 930.04 5.34204C930.201 5.33904 930.397 5.30004 930.402 5.26404L930.392 5.26697ZM1171.06 4.96704C1171.29 4.89916 1171.52 4.79086 1171.72 4.64697C1171.51 4.47097 1171.23 4.09997 1171.11 4.14697C1170.52 4.31303 1169.9 4.33261 1169.31 4.20398C1168.58 4.02523 1167.81 4.11431 1167.14 4.45496C1166.96 4.60144 1166.8 4.77286 1166.67 4.96399C1166.94 5.11662 1167.23 5.23493 1167.53 5.31604C1168.85 5.21404 1169.97 5.11299 1171.07 4.96899L1171.06 4.96704ZM1153.06 5.04895C1153.29 4.82394 1153.48 4.5467 1153.59 4.23901C1153.42 3.79901 1153.16 3.36599 1153.09 3.39099C1152.97 3.49362 1152.88 3.61944 1152.81 3.7605C1152.74 3.90156 1152.71 4.0548 1152.7 4.21057C1152.7 4.36635 1152.73 4.52123 1152.79 4.66553C1152.84 4.80983 1152.93 4.94038 1153.05 5.04895H1153.06ZM921.874 4.93005C923.828 4.35259 925.851 4.03779 927.888 3.99402C928.064 3.98802 928.239 3.70496 928.408 3.55396C928.219 3.42196 928.031 3.18294 927.824 3.16394C927.274 3.04951 926.706 3.04908 926.156 3.1626C925.605 3.27611 925.084 3.50119 924.624 3.82397C923.462 2.64297 922.456 2.98898 921.509 3.85498C921.32 4.03098 921.101 4.40805 921.169 4.55505C921.241 4.66191 921.335 4.75194 921.445 4.81909C921.554 4.88624 921.677 4.92884 921.804 4.94397C921.833 4.94538 921.863 4.94102 921.89 4.93103L921.874 4.93005ZM1131.86 4.87305C1132.19 4.60881 1132.51 4.31672 1132.79 4C1132.96 3.81664 1133.12 3.6215 1133.26 3.41602C1132.99 3.36602 1132.74 3.29701 1132.47 3.26501C1132.21 3.25199 1131.97 3.20769 1131.73 3.13306C1131.17 3.54106 1130.96 4.65303 1131.3 4.87903C1131.39 4.92185 1131.48 4.94348 1131.57 4.94202C1131.68 4.94867 1131.78 4.92543 1131.88 4.875L1131.86 4.87305ZM1114.78 3.66699C1114.22 3.01399 1113.88 3.07698 1113.92 3.85498C1113.97 4.20338 1114.05 4.54646 1114.16 4.87903C1114.41 4.49829 1114.62 4.09276 1114.79 3.66895L1114.78 3.66699ZM1275.27 4.62805C1275.62 4.46751 1275.95 4.26289 1276.26 4.01904C1275.94 3.9209 1275.62 3.84932 1275.3 3.80505C1275.23 3.75626 1275.15 3.72569 1275.07 3.71643C1274.99 3.70717 1274.9 3.7195 1274.83 3.7522C1274.75 3.78489 1274.68 3.83684 1274.63 3.90295C1274.58 3.96906 1274.55 4.04702 1274.54 4.12927C1274.53 4.21153 1274.54 4.29528 1274.57 4.37219C1274.6 4.44911 1274.65 4.51663 1274.72 4.56812C1274.78 4.6196 1274.86 4.65329 1274.94 4.66589C1275.03 4.6785 1275.11 4.66958 1275.19 4.64001C1275.22 4.64168 1275.25 4.63829 1275.28 4.63L1275.27 4.62805ZM1088.9 3.42798C1088.68 3.56598 1088.63 3.81802 1088.68 3.84302C1089 3.9707 1089.33 4.08185 1089.66 4.17603C1089.47 3.87611 1089.21 3.62165 1088.91 3.43005L1088.9 3.42798ZM945.177 3.59094C945.408 3.62932 945.645 3.63973 945.878 3.62195C946.076 3.60822 946.273 3.61033 946.47 3.62805C946.696 3.64893 946.923 3.6445 947.148 3.61499C947.248 3.59599 947.324 3.18199 947.324 2.94299C947.25 2.88242 947.165 2.83775 947.074 2.81177C946.982 2.78578 946.885 2.77903 946.79 2.79199C946.567 2.864 946.332 2.88607 946.099 2.85669C945.866 2.82731 945.643 2.74717 945.445 2.62195C945.183 2.45666 944.881 2.36696 944.572 2.36255C944.263 2.35814 943.959 2.43928 943.693 2.59705C942.802 3.15005 943.159 3.44499 943.492 3.98499C943.72 3.78401 943.996 3.643 944.292 3.57458C944.589 3.50617 944.899 3.51251 945.193 3.59302L945.177 3.59094ZM933.478 3.61597C933.257 3.28897 932.929 2.90598 932.583 2.88098C932.237 2.85598 931.876 3.19498 931.519 3.38098C931.844 3.50383 932.175 3.60862 932.511 3.69495C932.606 3.71292 932.703 3.72132 932.8 3.71997C933.034 3.71683 933.267 3.6826 933.492 3.61804L933.478 3.61597ZM950.956 3.42102C951.346 3.3679 951.739 3.3385 952.132 3.33301C952.408 3.27443 952.675 3.18586 952.931 3.06897C952.656 2.87397 952.372 2.49699 952.109 2.51599C951.166 2.58987 950.228 2.72012 949.3 2.90601C949.226 2.91201 949.112 3.14501 949.138 3.23901C949.181 3.40901 949.325 3.68506 949.427 3.68506C949.951 3.66399 950.47 3.57618 950.972 3.42395L950.956 3.42102ZM948.275 2.81201C948.094 3.05628 948.007 3.35707 948.029 3.66003C948.211 3.41653 948.304 3.11761 948.29 2.81396L948.275 2.81201ZM935.65 3.64697C935.97 3.59454 936.282 3.50181 936.58 3.37097C937.006 3.20797 937.414 3.01905 937.83 2.83105C937.799 2.73614 937.763 2.64383 937.718 2.55505C937.279 2.67405 936.845 2.80601 936.191 2.93201C935.98 2.91349 935.768 2.90952 935.556 2.92004C935.193 3.00204 934.822 3.09598 934.464 3.20898C934.45 3.33201 934.465 3.45663 934.507 3.573C934.805 3.61925 935.104 3.64667 935.406 3.65503C935.501 3.65603 935.583 3.65602 935.665 3.65002L935.65 3.64697ZM962.722 2.76794C962.601 2.77293 962.48 2.76016 962.363 2.72998C962 2.66698 961.617 2.59804 961.685 3.26404C961.697 3.41504 962.351 3.50295 962.923 3.62195C963.61 3.05295 963.502 2.71402 962.738 2.77002L962.722 2.76794ZM1171.45 3.05701C1171.23 2.98801 1171.01 2.91898 1170.79 2.84998C1170.76 3.09748 1170.81 3.34681 1170.91 3.57202C1171.18 3.33602 1171.32 3.19996 1171.47 3.05896L1171.45 3.05701ZM1164.75 3.50903C1164.82 3.48403 1164.85 3.32695 1164.9 3.22595C1164.57 3.15269 1164.23 3.10432 1163.9 3.08105C1163.28 3.07505 1162.66 3.13095 1162.04 3.16895C1162.66 3.27595 1163.28 3.38906 1164.12 3.50806C1164.35 3.51406 1164.49 3.53296 1164.6 3.53296C1164.66 3.53814 1164.72 3.53066 1164.77 3.51099L1164.75 3.50903ZM957.769 3.23901C957.921 3.20101 958.021 2.95603 958.154 2.80603C957.974 2.71698 957.78 2.65943 957.581 2.63599C956.702 2.72999 955.829 2.86196 954.849 2.98096C955.017 3.16135 955.221 3.30357 955.449 3.39795C955.676 3.49233 955.921 3.53667 956.167 3.52795C956.716 3.49576 957.26 3.39945 957.787 3.24097L957.769 3.23901ZM1168.72 3.12598C1168.77 3.11998 1168.82 3.032 1168.77 2.875C1168.52 2.86658 1168.28 2.83913 1168.04 2.79297C1167.46 2.68597 1166.91 2.58598 1166.48 3.15698C1166.43 3.25072 1166.4 3.35216 1166.38 3.45703C1167.18 3.34803 1167.96 3.24805 1168.74 3.12805L1168.72 3.12598ZM973.605 3.35803C973.837 2.63603 973.466 2.55804 972.99 2.59204L971.173 2.724C971.243 2.95 971.3 3.37103 971.394 3.38403C971.708 3.41503 972.029 3.43396 972.355 3.43396C972.778 3.4339 973.202 3.40953 973.622 3.36096L973.605 3.35803ZM1138.84 3.31396C1138.81 3.18796 1138.69 3.17598 1138.56 3.15698C1138.58 3.20325 1138.61 3.24291 1138.65 3.27087C1138.69 3.29884 1138.74 3.31382 1138.79 3.31396H1138.84ZM1136.25 3.245C1136.09 3.08359 1135.89 2.98131 1135.67 2.95605C1135.67 2.95605 1135.62 3.13195 1135.6 3.22595C1135.72 3.25702 1135.84 3.27385 1135.97 3.276C1136.07 3.27931 1136.17 3.26995 1136.27 3.24805L1136.25 3.245ZM1190.92 2.61694C1191.71 2.51694 1192.26 2.04497 1193.32 2.39697C1194.62 2.82397 1196.26 2.21494 1197.75 2.03894C1197.87 2.02594 1197.96 1.82501 1198.08 1.80701C1198.55 1.73201 1199.03 1.69402 1199.51 1.65002C1198.92 1.55002 1198.23 1.21001 1197.77 1.41101C1197.44 1.54372 1197.07 1.56374 1196.73 1.46802C1196.55 1.42347 1196.37 1.4023 1196.19 1.40503C1193.75 1.65003 1191.24 1.35497 1188.86 2.12097C1188.68 2.17797 1188.62 2.59195 1188.61 2.94995C1188.81 3.10693 1189.06 3.19496 1189.32 3.20105C1189.93 3.20005 1190.39 2.695 1190.94 2.62L1190.92 2.61694ZM1149.62 3.16296C1149.68 2.94735 1149.68 2.72094 1149.63 2.50305C1149.41 2.71705 1149.19 2.92396 1148.97 3.13696C1149.09 3.16801 1149.22 3.18483 1149.35 3.18701C1149.45 3.18989 1149.54 3.18286 1149.64 3.16602L1149.62 3.16296ZM954.501 2.573C954.493 2.71709 954.537 2.8593 954.626 2.97302C954.639 2.83246 954.601 2.69191 954.521 2.57605L954.501 2.573ZM968.986 2.48499C968.841 2.62299 968.912 2.77397 968.974 2.91797C969.068 2.77697 969.144 2.63804 969.001 2.48804L968.986 2.48499ZM1118.21 2.20203C1118.13 2.16993 1118.04 2.14253 1117.94 2.12C1117.88 2.33235 1117.88 2.55717 1117.92 2.77295C1118.09 2.626 1118.2 2.42482 1118.23 2.20496L1118.21 2.20203ZM1083.69 2.68604C1083.68 2.46428 1083.58 2.25406 1083.43 2.09595C1083.37 2.30891 1083.36 2.53399 1083.42 2.74902C1083.51 2.73441 1083.61 2.71432 1083.71 2.68896L1083.69 2.68604ZM1185.24 2.69897C1185.76 2.56097 1186.53 2.34698 1185.74 1.47998C1185.32 1.5366 1184.91 1.61641 1184.5 1.71899C1184.74 2.05799 1185.08 2.69897 1185.23 2.69897L1185.24 2.69897ZM977.511 2.38501C977.386 2.40401 977.372 2.52901 977.355 2.66101C977.411 2.64249 977.458 2.60501 977.49 2.55505C977.521 2.5051 977.536 2.44571 977.529 2.38696L977.511 2.38501ZM989.238 2.55505C989.803 2.45523 990.357 2.29733 990.89 2.08398C990.558 1.31798 990.105 1.49996 989.64 1.68396C989.423 1.79214 989.181 1.846 988.939 1.84094C988.921 1.84094 988.802 2.11697 988.851 2.19897C988.933 2.34297 989.109 2.55701 989.222 2.55701C989.249 2.56301 989.255 2.56301 989.255 2.55701L989.238 2.55505ZM980.206 2.34802C979.94 2.37265 979.676 2.41472 979.415 2.474C979.942 2.487 980.471 2.49894 980.992 2.51794C980.741 2.44225 980.484 2.38581 980.224 2.349L980.206 2.34802ZM1033.28 1.98999C1033.13 2.12799 1033.2 2.27297 1033.27 2.42297C1033.36 2.27997 1033.44 2.14197 1033.3 1.99097L1033.28 1.98999ZM1202.98 1.92102C1202.43 1.73031 1201.84 1.64911 1201.26 1.68201C1201.25 1.81144 1201.25 1.94133 1201.25 2.07104C1201.44 2.08404 1201.63 2.09595 1201.82 2.09595C1202.22 2.10765 1202.62 2.04879 1203 1.922L1202.98 1.92102ZM1235.23 1.78894C1235.21 1.66294 1235.08 1.64498 1234.96 1.62598C1235.01 1.70798 1235.06 1.78894 1235.19 1.78894H1235.23ZM1230.61 1.34302C1230.46 1.48102 1230.52 1.626 1230.59 1.776C1230.69 1.633 1230.76 1.49999 1230.62 1.34399L1230.61 1.34302ZM1176.84 0.463989C1176.77 0.719621 1176.72 0.98 1176.68 1.24304C1176.93 1.42333 1177.24 1.50819 1177.54 1.48206C1177.32 1.14406 1177.09 0.799966 1176.86 0.464966L1176.84 0.463989ZM1218.46 1.44995C1218.76 1.43367 1219.04 1.33356 1219.29 1.16101C1219.07 1.05405 1218.82 1.01272 1218.58 1.04199C1218.42 1.09805 1218.27 1.1762 1218.13 1.27405C1218.24 1.33105 1218.35 1.44995 1218.45 1.44995H1218.46ZM1163.84 1.33105C1164.11 1.24505 1164.37 1.11355 1164.61 0.942017C1164.39 0.753597 1164.15 0.581462 1163.91 0.427002C1163.57 0.212672 1163.19 0.0675622 1162.79 0L1162.73 0C1162.33 0.021 1162.07 0.399964 1161.58 1.28796C1161.96 1.36796 1162.36 1.40785 1162.75 1.40698C1163.12 1.40494 1163.49 1.37994 1163.85 1.33203L1163.84 1.33105ZM1214.11 1.24304C1214.09 1.11704 1213.96 1.09796 1213.83 1.07996C1213.85 1.12699 1213.88 1.16741 1213.92 1.19629C1213.97 1.22517 1214.02 1.2414 1214.07 1.24304H1214.11ZM1276.31 0.620972C1276.3 0.400822 1276.2 0.193409 1276.05 0.0369873C1275.99 0.250404 1275.99 0.475478 1276.04 0.689941C1276.15 0.665941 1276.32 0.627948 1276.32 0.621948L1276.31 0.620972Z"
      fill="#CB060B" />
  </g>
  <defs>
    <clipPath id="clip0_602_24">
      <rect width="1440" height="30" fill="white" transform="matrix(1 0 0 -1 0 30)" />
    </clipPath>
  </defs>
</svg>