<?xml version="1.0" encoding="utf-8"?>
<!-- Generator: Adobe Illustrator 26.5.0, SVG Export Plug-In . SVG Version: 6.00 Build 0)  -->
<svg version="1.1" id="Laag_1" xmlns="http://www.w3.org/2000/svg" xmlns:xlink="http://www.w3.org/1999/xlink" x="0px" y="0px"
	 viewBox="0 0 1440 30" style="enable-background:new 0 0 1440 30;" xml:space="preserve">
<style type="text/css">
	.st0{fill:#FFFFFF;}
</style>
<path class="st0" d="M0,30V11.5c0.9-0.1,1.8-0.1,2.7,0c0.4,0,0.7-0.1,1-0.3c0.5-0.3,1.1-0.5,1.7,0.1c0.1,0.1,0.6-0.4,1-0.6
	c-0.2-0.1-0.5-0.1-0.8-0.2c-1.2-0.1-2.5,0-3.7,0.1H0.1V9.3c4.7-0.1,9.5,0.1,14.2,0.4c0.4,0,0.8-0.1,1.2-0.2c0.4-0.1,0.7-0.2,1.1-0.2
	c3.6,0,7.2,0.1,10.8,0.1c0.2,0,0.4,0,0.6,0c0.6,0.2,1.3,0,1.8-0.4c0.3-0.1,0.7-0.1,1,0.1c0.5,0.6,1.3,0.8,2,0.6c0.2,0,0.4,0,0.5,0
	h15.6c0.3,0,0.6,0,0.8,0.1c1,0.1,2.3,0.6,3.1,0.2c1.7-0.9,3.1,0.1,4.6,0.1c0.6,0,1.5,0.2,2.2,0.2c0.5,0,1-0.1,1.4-0.2
	c-0.5-0.2-0.9-0.4-1.4-0.6c-0.2-0.1-0.3-0.3-0.3-0.5c0.2-0.2,0.4-0.4,0.6-0.4c1.2-0.1,2.4,0.5,3,1.6c0.8,1.1,1.9,0.9,2.9,0.8
	c0.2,0,0.3-0.2,0.5-0.3c-0.1-0.2-0.2-0.5-0.4-0.6c-0.6-0.2-1.2-0.3-1.8-0.4c-0.2,0-0.3-0.2-0.4-0.3c0.2-0.2,0.3-0.5,0.5-0.5
	c0.9,0,1.8,0.1,2.6,0.4c1.1,0.3,2.3,0.4,3.5,0.3H72c0.8,0,1.6,0.2,2.4,0.4c0.4,0.2,0.7,0.5,0.9,0.9c0.7,1.4,2.2,1.8,3,0.4
	c0.1-0.4,0.6-0.7,1-0.6c1.8,0.1,3.6,0.1,5.4,0.3c0.5,0.2,1,0.5,1.3,0.9c0.4,0.5,0.9,0.8,1.4,1.1c0.2,0.1,0.5,0.2,0.7,0.3
	c0-0.2-0.1-0.5-0.1-0.7c0-0.2,0.1-0.4,0.2-0.4c0.3,0,0.6,0,0.8,0c0.8-0.1,1.7-0.2,2.2,1c0.4,1,1.5,0.7,2.3,0.6
	c0.1,0,0.3-0.3,0.3-0.4c-0.1-0.6,0.1-1.1,0.8-0.8s1.5,0.1,1.4,1.1s0.1,1.1,1.2,0.6c0.9-0.3,1.6-1,2-1.8c0.9-1.9,1.7-2.2,3.5-1.4
	c1,0.4,2.1,0.7,3.1,0.7c1.9,0.2,3.8,0.6,5.6,0.8c0.8,0.1,1.7,0.1,2.5,0.2c0.2,0,0.4,0.4,0.6,0.6c-1.3,0.4,0,0.8,0,1.2
	c0,1.3,0.8,1,1.3,0.5c2.2-2.3,4.8-2.1,7.6-1.6c1.6,0.3,3.2,1.2,5,0.4c0.4-0.2,1.2,0.4,1.8,0.6c1.6,0.5,3.2,0.9,4.9,1.2
	c1.2,0.2,2.1-0.8,3-1.4c1.4-1.1,1.6-1.1,2.9,0.4c0.2,0.2,0.5,0.3,0.8,0.3c2.7-0.2,5.4-0.9,8,0.4c0.3,0.1,0.6,0.1,0.9,0
	c0.2,0,0.4,0,0.6,0c0.2,0,0.4,0,0.7,0l0.3-0.2c1.2-0.9,2.9-1.9,4.5-1.4c1.3,0.4,2.2-0.4,3.3-0.6c0.1,0,0.2-0.3,0.3-0.4
	c-0.2-0.1-0.4-0.4-0.6-0.4h-2.8c-0.2,0-0.4-0.1-0.5-0.2c0.1-0.1,0.2-0.1,0.3-0.2c0.6-0.2,1.3-0.4,2-0.5c1-0.1,2,0.1,3,0.4
	c0.6,0.4,1.3,0.4,1.8-0.1c0.1-0.1,0.3-0.2,0.4-0.4c-0.2-0.1-0.5-0.4-0.6-0.4c-0.6,0.5-1,0.1-1.4-0.2s-0.5-0.5-0.9-0.5
	c0-0.2,0-0.5,0.1-0.6c0.2-0.2,0.5-0.4,0.9-0.5c1.8-0.4,3.6-0.6,5.4-1.1c3-0.7,6.2-0.9,9.3-0.6c4,0.2,7.9,0.1,11.9,0
	c0.7,0.4,1.4,0.5,2.2,0.3c0.8-0.2,1.7-0.1,2.4,0.4c0.2,0.2,1.1-0.6,1.7-0.9c0,0-0.1-0.3-0.2-0.3c-1-0.4-2.4-1.5-3-0.7
	c-1,1.1-2,0.8-2.9,0.6c-0.5-0.2-1-0.3-1.5-0.2c-1.6,0.2-3.4,0.7-5-0.2c-0.1,0-0.2,0-0.3,0h-0.2c-3-0.1-6.1-0.2-9.1-0.2h-1.4
	c-1.5-0.2-3,0-4.4,0.6c-0.2,0.1-0.5-0.1-0.7-0.3c-0.1,0,0.1-0.4,0.2-0.5c0.5-0.8,1.4-1.3,2.4-1.4c1.2,0.1,2.3,0.2,3.5,0.3
	c0.5,0.1,1,0.5,1.3,0.3c0.9-0.4,1.8-0.5,2.8-0.4c0.6,0,1.2,0,1.8-0.1c0.2,0,0.3-0.4,0.4-0.7c0-0.2,0-0.4-0.1-0.6
	c0.2,0.1,0.6,0.3,0.6,0.4c-0.2,0.8,0.4,0.9,0.9,1.1c1.4,0.6,3,0.8,4.6,0.6c0.3,0,0.6,0,0.9,0.2c0.3,0.1,0.6,0.2,0.8,0.2
	c2.2-0.1,4.4-0.2,6.6-0.3c0.2,0,0.4,0,0.6,0.1c0.6,0.2,1.2,0.1,1.7-0.2c0.8-0.3,1.7-0.4,2.5-0.3h1c1-0.2,2.1,0.2,2.8,0.9
	c0.5,0.5,1.2,0.3,1.9-0.1c0.9-0.5,1.8-1.2,3-1.1c3.7,0.4,7.3,0.4,11,0.1c2.5-0.1,4.9-0.2,7.4-0.1c3.6,0.1,7.2,0,10.7,0.9
	c1.7,0.3,3.3,0.4,5,0.4c1.9,0,3.8,0.3,5.7,0.7c0.1,0,0.2,0,0.3,0h0.2c2.5,0.1,5.1,0.2,7.6,0.2c1.7,0,3.4,0.3,5,0.9
	c0.4,0.2,0.9,0.3,1.4,0.3c1.1-0.4,2.1-0.6,2.9,0.4c0.1,0,0.1,0,0.2,0l1.1-0.9c0.2,0.4,0.4,1.2,0.7,1.2c0.6,0,1.2-0.1,1.7-0.5
	c0.5-0.4,0.8-0.6,1.2,0c0.5,0.6,1.3,0.7,2,0.4c1.3-0.4,2.5-0.9,3.8-0.1c1.2-0.3,2.5-0.3,3.7,0c1.4,0.5,3,0.4,4.4-0.2
	c0.5-0.2,1-0.3,1.5-0.3c-0.3-0.6-0.9-0.6-1.4-0.6h-0.3c-2.2-0.1-4.5-0.2-6.7-0.2c-0.2,0-0.4-0.1-0.6-0.2c0.2-0.1,0.3-0.2,0.5-0.2
	c0.9-0.4,1.7-1.1,2.9-0.6c0.4,0.2,1.1-0.3,1.6-0.6c1.7-1.1,1.7-1.1,2.7,0.6c0.2,0.2,0.5,0.4,0.8,0.3c1-0.2,1.9-0.7,2.9-0.9
	c0.3-0.1,0.9,0.1,1,0.3c0.2,0.4,0.2,1-0.6,0.9c-0.3,0-0.7,0-1,0.2c-0.5,0.3-0.7,0.7-0.1,1.2c1,0.8,2.4,0.9,3.4,0.2
	c0.3-0.2,0.8-0.3,1-0.2c0.3,0.2,0.7,0.2,1,0.1c0.6-0.1,1.3-0.2,1.4,0.9c1.1-0.2,2.4-0.2,3.1-0.8c0.7-0.8,1.9-1.1,2.9-0.7
	c1,0.3,2.3-0.2,3.1,0.9c0.2-0.1,0.4-0.1,0.6,0c0.4,0.1,0.8,0.2,0.8-0.6c0-0.1,0.4-0.3,0.5-0.2c1.1,0.3,2.3,0.3,3.5,0
	c0.9-0.2,1.9-0.3,2.8-0.2c0.1,0,0.2,0,0.3,0c0.2,0,0.3,0,0.5,0.1c1.5,1.3,3,0.7,4.5,0.3c0.3-0.1,0.5-0.1,0.8-0.1
	c0.5,0.2,1.1,0.4,0.4,1.1c-0.4,0.4-0.7,0.8-0.9,1.4c0,0.1-0.2,0.1-0.4,0.1s-0.5,0-0.1,0.4c0.2,0.2,1.1,0.1,1.1,0
	c0.1-0.9,2.1-0.5,1.3-2.2c-0.3-0.7,0.8-1.3,1.5-0.7s1.6,0.5,2.5,0.6c0.3,0.3,0.5,0.5,0.6,0.7c0.1-0.1,0.2-0.2,0.4-0.4l-0.9-0.5
	c1.4-0.8,3.1-0.8,4.4,0c0.5,0.2,0.7,1.2,0.8,1.9s0.5,0.6,0.9,0.5c0.2,0,0.4-0.6,0.3-0.7c-0.5-0.3-0.1-0.5,0.1-0.8
	c0.6-0.8,0.9-1.6-0.3-2.1c0,0,0.1-0.7,0.2-0.7c0.5-0.2,1.1,0.1,1.3,0.6c0,0.1,0.1,0.2,0.1,0.3c0.1,0.6,0,1.3,0.1,1.9
	c0.1,1.2,0.5,1.5,1.6,1.4c0.2,0,0.4-0.1,0.6-0.2c-0.1-0.2-0.1-0.6-0.3-0.7c-0.9-0.4-1.3-0.9-0.8-2c0.2-0.3-0.6-1.2-1-1.8
	c-0.2-0.2-0.4-0.4-0.6-0.6c0.2-0.1,0.5-0.2,0.7-0.3c1.5-0.1,3-0.1,4.5-0.1c0.4,0,0.8,0.2,1.1,0.5c0.1,0.1,0.2,0.4,0.1,0.6
	c-0.1,0.2-0.3,0.2-0.5,0.2c-0.6-0.1-1.2-0.3-1.8-0.4c-0.6,0-1.3,0.1-1.9,0.1c0.5,0.8,0.9,1.6,1.4,2.4c0.4,0.6,1.3,0.8,1.9,0.4
	c0.7-0.3,1.4-0.8,2.2-1.1c0.1,0.3,0.1,0.6,0,0.7c-0.2,0.2-0.4,0.3-0.7,0.3c0.2,0.1,0.4,0.2,0.6,0.2c0.5-0.1,0.9-0.3,1.3-0.4
	s1.4-0.6,1.7-0.4c0.6,0.3,1.2,0.4,1.9,0.3c0.3,0,0.7,0,1,0c0.5,0,1,0,1.5,0l1.5-0.1l1.5-0.1c0-0.4-0.5-1,0.5-0.9c0.5,0,1,0,1.5,0
	h1.5c0.2-0.1,0.4-0.1,0.5-0.2c-0.2-0.1-0.3-0.4-0.5-0.4c-0.8-0.3-1.7-0.5-2.6-0.5c-2,0.5-3.8,0-5.7-0.3c-0.7-0.1-1.4,0.1-1.6,0.7
	c-0.2,1.1-1,1-1.7,1.1H337c0.4-0.6,0.8-1.3,1.3-1.8c0.3-0.3,0.7-0.4,1-0.3c1,0.5,1.9,0,2.8-0.3c0.4-0.2,0.9-0.3,1.4-0.2
	c1.4,0.4,2.8,0.5,4.2,0.3c0.6,0,1.1-0.1,1.7-0.1c1.3,0,2.6,0.6,3.8-0.5c0.2-0.1,0.4-0.1,0.6,0c0.3,0.2,0.6,0.4,0.8,0.6
	c-0.2,0.1-0.5,0.2-0.8,0.2c-1.3-0.1-0.7,1-0.9,1.5c-0.2,0.7,0.4,1.3,1.1,1.1c0.7-0.1,1.4-0.1,2.1,0c0.7,0.1,1.5,0.1,2.3,0
	c1.4-0.3,2.9,0.1,4.3,0.2c0.2,0,0.4,0,0.6,0c0.2-0.1,0.4-0.2,0.6-0.3c-0.2,0-0.4-0.1-0.6-0.2c-0.2-0.1-0.5-0.3-0.7-0.4
	c-0.1-0.1-0.2-0.1-0.4-0.2c0.1-0.1,0.3-0.2,0.4-0.3c1.9-0.3,3.8-0.4,5.7-0.2c0.9,0,1.9,0.1,2.8,0.1c1.2,0.1,2.4,0.4,3.5,0.9
	c1.9,0.6,3.8,0.7,5.7,0.5c0.7,0,1.5-0.1,2.2-0.1s-0.1-0.4-0.1-0.7c2.1-0.2,4.3-0.2,6.5-0.3c0.4,0,0.8,0,1.2,0.1
	c0.8,0.2,1.6,0.1,2.3-0.1c0.7-0.3,1.1-0.4,1.2-1.2c0.1-0.3,0.3-0.5,0.5-0.6c0.5-0.2,0.7,0.1,0.8,0.6c0.1,0.9,0.5,1,1.5,0.7
	c1.3-0.4,3-0.7,4.1,0.8c0.3,0.4,0.8,0.6,1.2,0.6h0.1c0.2-0.1,0.4-0.2,0.6-0.1c0.9,0.2,1.8,0.2,2.7,0c0.6-0.1,1.2-0.2,1.7-0.2
	l-0.9-0.2l-1.8-0.4c-0.1-0.1-0.2-0.1-0.3-0.2c0.1-0.1,0.2-0.2,0.3-0.2c2.3,0,4.6-0.1,6.9-0.1c0.6,0,1.2,0.2,1.8,0.3
	c0.2,0,0.4,0,0.5,0c0.7,0,1.4-0.1,1.4,1.3c0,0.7,1.5,1.1,2.3,0.7c0.5-0.3,1.2-0.3,1.8-0.1c0.4,0.1,0.8,0.1,1.1,0.1
	c1-0.2,2-0.3,3-0.5c0.7-0.2,1.5-0.3,2.2-0.4c0.4,0,0.7,0.1,1.1,0.1c0.4,0.1,0.7,0.1,1.1,0.1c0.8,0,1.6-0.1,2.3-0.5
	c1.4-0.7,2.2,0.1,2.9,1.5c0.3,0.6,0.9,1,1,1.7c0,0.1,1.1,0.4,1-0.4s0.4-0.9,1-0.9h0.7c1.1-0.2,2.2,0.1,3,0.8c0,0.2-0.1,0.5-0.3,0.7
	c0.3,0.1,0.9,0.2,1,0.1c0.6-1.1,1.7-0.7,2.5-1.2c0.3-0.2,1-0.1,1.1,0.1c0.8,1.1,1.6,0.5,2.4,0.1c0.4-0.1,0.7-0.3,1.1-0.4
	s1.2-0.2,1.2-0.4c0.1-0.8-0.5-0.7-0.9-0.6c-0.1,0-0.2,0-0.4,0c-1.3-0.1-2.6-0.1-3.9,0c-0.3,0-0.6,0-0.9,0c-0.2,0-0.3-0.3-0.4-0.4
	c0.1-0.1,0.2-0.2,0.4-0.2c1,0.1,2,0,2.9-0.1c1.6-0.2,3.1-0.1,4.7,0.2c1,0.2,2,0.2,3,0c0.6-0.1,1.3,0.2,1.6,0.8
	c1.2,1.7,1.9,1.7,3.5,0.4c0.5-0.2,1-0.4,1.5-0.4c0,0,0.3,0.4,0.2,0.5c-0.2,0.4-0.4,0.8-0.7,1.2c-0.1,0.1-0.2,0.1-0.4,0h-0.3
	c-0.4,0.1-0.8,0.2-1.2,0.2c0.5,0.2,1,0.4,1.5,0.6c0.5,0.1,1,0.1,1.5,0c0.7-0.1,1.4-0.2,2.2-0.3c-0.7,0-1.4-0.1-2.1-0.1
	c-0.1,0-0.3-0.2-0.4-0.3c0.1-0.1,0.2-0.3,0.3-0.3c0.4-0.1,0.8-0.4,1.1-0.2c1.4,0.5,2.9,0.5,4.2-0.1c0.6-0.1,1.3-0.1,1.9,0
	c0.6,0,1.2,0.2,1.8,0.3c0.1,0,0.3,0,0.4,0c0.2-0.1,0.4-0.1,0.6,0c1.2,0.6,2.7,0.8,4,0.4c0.7-0.1,1.4-0.2,2.2-0.2
	c0.5,0,1.1,0.2,1.6,0.3c0.5,0.1,1,0.1,1.5,0c1.9-0.9,3.7-0.2,5.5,0.3c0.3,0.1,0.7-0.2,1.1-0.3c-0.2-0.3-0.4-0.8-0.7-0.9
	c-0.9-0.2-1.7-0.3-2.6-0.4c-0.3,0-0.7,0-1,0c-0.7,0.1-1.4,0-2-0.3c-0.3-0.2-0.8,0-1.2,0.1c-0.9,0.2-1.9,0.3-2.9,0.4
	c-0.7-0.1-1.3-0.2-1.9-0.5c0.6-0.1,1.3-0.2,1.9-0.3c1.2-0.1,2.5,0,3.7-0.1h0.5c0.7,0,1.5,0,1.7-1.1c0-0.1,0.7-0.1,1.1-0.2
	c0,0.4,0,0.8,0,1.2c0,0.1-0.4,0.2-0.6,0.3c0.3,0.1,0.6,0.2,0.8,0.1c0.6-0.2,1.2-0.2,1.8-0.1c0.4,0.1,0.7,0.1,1.1,0.1
	c1-0.2,2-0.2,3,0c1.9,0.6,3.8,0.2,5.7,0.2c1.6,0,3.1-0.3,4.7,0.3c0.8,0.2,1.7,0.2,2.6,0c0.3,0,0.6,0,0.9,0.1c0.5,0.1,0.9,0.1,1.4,0
	c0.9-0.2,1.9-0.3,2.9-0.2c0.4,0,0.9,0.1,1.3,0.1c1.4,0.1,2.7,0.3,4,0.7c0.2,0,0.4,0,0.6,0c0.1,0,0.3,0,0.5,0c0.6,0,1.3,0,1.9-0.1
	c1.3-0.1,2.6-0.1,3.9,0.3c0.6,0.1,1.3,0.1,1.9,0c0.2-0.1,0.3-0.2,0.3-0.4c0-0.2-0.2-0.3-0.3-0.4c-0.4,0.2-0.9,0.1-1.3-0.1
	c-0.5-0.2-1.1-0.5-1.7,0.1c-0.2,0.2-1.1-0.2-1.7-0.3c-0.7-0.1-1.5-0.1-2.2,0c-0.4,0-0.9,0.1-1.3,0.1c-1.2,0-2.3-0.2-3.5-0.3
	c-0.4-0.1-0.8-0.2-1.1-0.4c-0.2-0.1-0.4-0.2-0.6-0.3c0.2-0.1,0.4-0.1,0.6-0.2c0.1,0,0.2,0,0.3,0c0.2,0,0.3,0,0.5-0.1
	c0.2-0.1,0.4-0.4,0.6-0.6c-0.2-0.2-0.5-0.6-0.7-0.7c-0.2,0-0.4,0-0.6,0c-0.1,0-0.3,0-0.4,0c-0.1,0-0.2-0.1-0.3-0.2
	c0.1-0.1,0.2-0.1,0.3-0.2c1.2-0.7,2.7-0.7,3.9-0.1c0.3,0.2,0.4,0.4,0.5,0.7c0,1.2,0.6,1.4,1.6,1.4c2.8,0.1,5.6,0.3,8.4,0.4
	c0.2,0,0.4-0.1,0.6-0.3c0-0.2-0.1-0.4-0.2-0.6c-0.4-0.1-0.8-0.2-1.2-0.2h-1.4c-0.6,0-1.2,0.1-1.9,0c-0.6-0.1-1.2-0.2-1.8-0.4
	c-0.2-0.1-0.3-0.3-0.3-0.5c0-0.1,0.2-0.4,0.4-0.4c1.8,0,3.5,0.1,5.3,0.1c0.2,0,0.4,0.2,0.6,0.1c2.1-0.3,2.4-0.2,3.3,1.5
	c0.1,0.2,0.2,0.4,0.2,0.6c0.2,0.6,0.5,1.1,0.7,1.7c0.3-0.5,0.7-0.9,1.1-1.4c0.1-0.1,0.3-0.1,0.5-0.1h0.3c0.5,0,1,0,1.4-0.1
	c0.2-0.1,0.3-0.4,0.5-0.6c-0.2-0.1-0.4-0.1-0.6-0.1c-1.1-0.1-2.2-0.2-3.3-0.4c-0.1,0-0.3-0.2-0.4-0.4c0.2-0.2,0.3-0.5,0.5-0.5
	c2.1,0,4.2,0.1,6.3,0.4c1.4,0.2,2.8,0.1,4.1-0.3c1.5-0.3,3.1-0.2,4.5,0.4c0.8,0.2,1.6,0.2,2.5,0.2c0.3-0.1,0.5-0.3,0.5-0.6
	c-0.1-0.3-0.3-0.5-0.6-0.6h-2.8c-0.2,0-0.3-0.3-0.5-0.5c0.1-0.1,0.2-0.3,0.4-0.3c0.4-0.1,0.9-0.1,1.3,0c1.6,0.6,3.3,0.5,4.8-0.1
	c0.5-0.2,1.1-0.1,0.7,0.7c-0.1,0.4-0.2,0.8-0.3,1.2c-0.1,0.6,0.2,0.7,0.8,0.6C549,9,549.6,9,550.2,9c0.1,0,0.2,0,0.3,0.1
	c0.1,0.1,0.3,0.1,0.4,0.1c0.8-0.2,1.6-0.2,2.5-0.2c1,0.1,2,0,3-0.4c1.5-0.7,3.1-1.1,4.8-1c0.2,0,0.5-0.2,0.7-0.4
	c0.1-0.1,0.2-0.3,0.2-0.5c-0.1-0.2-0.3-0.3-0.5-0.3c-1.4,0-2.7,0-4.1,0.1h-0.2c-0.4,0.4-0.7,0.8-1.1,1.2c-0.3-0.4,0.1-1.4-0.9-1.3
	c-0.2,0-0.5,0-0.7-0.1C554.4,6.1,554.2,6,554,6c-1.6,0-3.2,0.1-4.7,0.1c-0.4,0-0.8,0-1.3-0.1c-0.2,0-0.3-0.3-0.5-0.4
	c0.1-0.1,0.3-0.2,0.4-0.3c0.4-0.2,0.8-0.4,1.3-0.4c1.2,0,2.5,0.1,3.7,0.3c0.8,0.1,1.4,0.6,2.3,0.2c0.6-0.3,1.5,0.1,2.3,0.1
	c0.5,0,0.9,0,1.4,0c0.9-0.2,1.9,0,2.8,0.4c0.1,0,0.3,0,0.4,0c1.3-0.3,2.6-0.4,3.9-0.2c1.1,0.2,2.3,0.2,3.4,0c0.1,0,0.3,0.1,0.4,0.1
	c0.7,0.2,1.2,1,2.2,0.3c0.5-0.3,1.6,0.2,2.4,0.3c2,0.1,4,0.2,5.9,0.3c0.1,0,0.2,0.1,0.4,0.2c-0.1,0.2-0.2,0.4-0.3,0.4
	c-0.4,0.2-0.8,0.3-1.2,0.3c-2.1-0.3-4.3,0.1-6.4-0.7c-0.3-0.1-0.6-0.1-0.8,0c-0.6,0.7-1.2,0.3-1.8,0.1c-1-0.2-2-0.3-3-0.4
	c-0.7-0.1-1.3-0.2-2-0.3s-1.3,0-1.4,0.6c-0.2,1.3-1.2,1.2-2.1,1.2h-0.4c-0.2-0.1-0.5,0-0.7,0.1c-0.3,0.3-0.6,0.7-0.8,1.1
	c0.3,0,0.6-0.1,0.9-0.1c1.2,0,2.5-0.1,3.8-0.1c1.6,0,3.2,0.1,4.8,0.2c0.1,0,0.3-0.1,0.4-0.1c-0.1-0.1-0.2-0.4-0.3-0.4
	c-0.5-0.1-1.1-0.2-1.6-0.2h-3c-0.2,0-0.4-0.4-0.6-0.6c0.2-0.2,0.5-0.4,0.8-0.6c0.1,0,0.3,0.2,0.5,0.2c1.2,0.4,2.4,0.5,3.6,0.5
	c2.4,0.3,4.7,0,7.1,0.5c1.6,0.3,3.2,0.4,4.8,0.3h1.9c0.2,0,0.4-0.2,0.6-0.4c-0.2-0.2-0.3-0.3-0.5-0.5c-0.2-0.2-0.4-0.3-0.7-0.4
	c-0.3-0.2-0.7-0.3-1-0.4c0.4-0.2,0.9-0.6,1.2-0.4c1.1,0.5,2.8,0,3.2,1.7c0,0.2,0.7,0.2,1.1,0.3c0.9,0,0.4-0.3,0.2-0.7
	c-0.1-0.2-0.3-0.5-0.2-0.6c0.2-0.2,0.6-0.5,0.8-0.5c1.3,0.2,2.7,0.6,4,0.7c0.9,0.1,1.6,0,1.6,1.2c0,0.1,0.5,0.2,0.7,0.2
	c0-0.3,0-0.5,0-0.8c-0.1-0.3-0.1-0.5-0.2-0.8c0.3,0,0.5,0,0.8,0c0.9,0.1,1.7,0.3,2.6,0.4s2.1-0.2,2,1.4c0,0.1,0.3,0.3,0.5,0.3
	s0.4-0.3,0.4-0.4c-0.3-1.1,0.5-1,1.1-0.9c2.5,0.2,4.9,0.5,7.4,0.8c0.5,0.1,1.1,0.2,1.6,0.3c3.1,0.1,6.2,0.5,9.2,1.1
	c0.2,0,0.4,0,0.7,0h3.3c2.3-0.1,4.6,0,6.9,0.2c1.2,0.1,2.3,0.1,3.5,0.1c1.1,0,2.3,0,3.4,0.1c3.9,0.4,7.8,0.4,11.7,0.6
	c3,0.1,6.1,0.4,9.1,0.6c1.9,0.1,3.7,0.2,5.6,0.1h2.6c1.3-0.1,2.6-0.2,3.9-0.5c0.4-0.1,0.9-0.1,1.3-0.1c0.6,0,1.2,0,1.7-0.1
	c-0.2-0.4-0.5-0.7-0.8-1.1c0.7-0.4,1.2,0,1.6,0.7c0.4,0,0.7,0,1,0.2c0.3,0.1,0.6,0.2,0.9,0.2h0.8c-0.3-1-0.6-2-0.7-3
	c0-0.1,0.3-0.5,0.5-0.5s0.8,0.2,0.8,0.4c-0.1,1-0.2,2.1-0.4,3.1h2.2v-0.1l0.1,0.1c1.8,0,3.6-0.1,5.3-0.2c2.3-0.3,4.5-0.8,6.7-1.5
	c2.4-0.8,5-1,7.5-0.6c1.1,0.2,2.2,0.2,3.3,0c0.7-0.1,1.5-0.1,2.2-0.1c2.1,0.1,4.1,0.5,6.2,0.6c0.3,0,0.7,0,1-0.1
	c0.5-0.1,1.1-0.1,1.6,0c1.8,0.3,3.6,0.4,5.4,0.4c2.4,0.2,4.8,0.5,7.2,0.7c0.3,0,0.7,0.4,0.9,0.2c1-0.8,1.8-0.3,2.5,0.5v0.1h1.2
	c0.8-1.4,1.9-0.8,2.8-0.4c0.7,0.3,1.6,0.4,2.4,0.3c1.8-0.1,3.6-0.6,5.4,0.2c0.6,0.1,1.3,0.1,1.9,0c1.7-0.1,3.5,0.1,5.2,0.7
	c2.3,0,4.6,0,6.9,0.2c1,0.1,2.1,0.1,3.1,0.1c1.3-0.1,2.6,0,3.8,0.2c0.4,0.1,0.7,0.1,1.1,0.1c1.2,0,2.3,0,3.5,0.1
	c1.8,0,3.6-0.1,5.3-0.2s3.5-0.6,5.2-0.5c1.9,0.1,3.9,0.1,5.8,0.4l0.8-0.1c3.7-0.4,7.4-0.3,11-0.6c1.3-0.1,2.6-0.1,3.9-0.1
	s2.5,0,3.7-0.1c0.6-0.1,1.3-0.1,1.9-0.1h1.6c3.2-0.3,6.1,0.9,9.1,1.4L815,13c1.6,0,3.2,0.1,4.8,0.1c2.1,0.1,4.2,0.1,6.2-0.1
	c1.4-0.4,2.9-0.5,4.3-0.5c5.9,0.7,11.7,0,17.5-0.1c3.2-0.1,6.4-0.4,9.5-1c1.2-0.2,2.6-0.6,4,0.2c0.4,0.2,1,0.1,1.5,0
	c2.6-0.2,5.3,0,7.9,0.6c1.3,0.3,2.6,0.4,3.9,0.4c2.1,0.1,4.2,0.1,6.3,0.3s3.9,0.6,5.8,0.9c0.3,0.1,0.5,0.1,0.8,0.1h2.3
	c1.6-0.1,3.3,0,4.9,0.3c3.1,0.7,6.4,0.3,9.5,1.3c0.8,0.1,1.6,0.1,2.3,0c1.6-0.2,3.2,0.2,4.5,1c0.7,0.3,1.4,0.5,2.1,0.5
	c1.9,0,3.8,0.1,5.6,0.4c1.2,0.2,2.5,0.3,3.8,0.2c1.5-0.1,2.9,0,4.3,0.4c0.2,0,0.4,0,0.6,0c7,0,14,0,21-0.1c3.2-0.1,6.4-0.5,9.6-0.6
	c1.1,0,2.2,0.2,3.2,0.2s2.2,0,3.4,0c1.5,0,3-0.1,4.5-0.1l2.4-0.1c1.2,0,2.4,0,3.6-0.1c1-0.1,2-0.3,3-0.5c1-0.3,2.1-0.6,3.1-0.8
	c0.5,0,1.1,0.5,1.5,0.9c1.1,1,2.5,1.5,3.9,1.5c2.1,0.1,4.1,0.4,6.2,0.5c1.8,0.1,3.6,0,5.4,0s3.9,0,5.8-0.2c0.5,0,1.1-0.8,1.5-0.7
	c0.5,0.2,0.9,0.7,1.7,0.7c2.6-0.2,5.1-0.5,7.6-1.1c1.3-0.3,2.5-0.4,3.8-0.5c1.8-0.1,3.6-0.5,5.3-1c1.4-0.3,2.9-0.5,4.3-0.6
	c1.1-0.1,2.2-0.3,3.3-0.5c0.1,0,0.3-0.1,0.3-0.2c0.8-1.4,2.2-1.2,3.4-1.2c2.7,0.1,5.2-1.1,7.7-1.7c3.1-0.8,6.2-1.8,9.5-1.8
	c1.9,0,3.9-0.4,5.8-0.5c0.6,0,1.2,0,1.7,0c0.7,0.1,1.5,0.1,2.2,0c1.4-0.1,2.8-0.1,4.1,0.3c2.5,0.5,5.1,0.4,7.6,0.8
	c1.7,0.2,3.1-0.2,4.6-0.2c0.2,0,0.4,0.1,0.6,0.2c-0.2,0.1-0.3,0.4-0.4,0.4c-0.5,0.2-1,0.4-1.4,0.7c-1.2,0.7-1.3,1.7-0.2,2.4
	c0.4,0.2,0.8,0.3,1.2,0.3c2.2,0.1,4.5,1.4,6.7-0.1c0.2-0.2,0.8-0.1,1.1,0c1.5,0.3,3.1,0.2,4.6,0.9c0.8,0.3,1.9-0.1,2.9-0.3
	s2-0.5,3,0.3c0.4,0.4,1.4,0.2,2.1,0c0.9-0.2,1.7-0.5,2.5,0.2c0.4,0.2,0.9,0.3,1.3,0.3c0.5,0,0.9,0,1.3-0.1c0.7-0.1,1.3-0.1,2,0
	c1.1,0.1,2.3,0.1,3.4,0c1.6-0.2,3.2,0,4.7,0.6c0.4,0.1,0.8,0.1,1.2,0.1c1.6,0,3.2-0.1,4.7-0.1c2.4,0,4.8,0.2,7.2,0.6
	c1.9,0.1,3.7,0.1,5.6-0.1c2,0,4,0.2,5.9,0.7c0.4,0.1,0.9,0.1,1.3,0c2.1-0.1,4.1,0.2,6.1,0.7c1.4,0.2,2.9,0.4,4.4,0.4
	c2.3,0,4.6,0.1,6.9,0.3c2.3,0.3,4.7,0.4,7,0.2c1.3-0.1,2.5-0.1,3.8-0.1c0.8,0.1,1.7,0,2.4-0.4c0.7-0.4,1.8,0.2,2.8,0.2h3.2
	c0.5,0,0.9,0,1.4,0c0.5,0,1,0,1.5,0c0.8,0,1.7,0.1,2.5,0.2h1.2c3.5-0.9,7.1-0.4,10.6-0.7c3.3-0.2,6.5-0.6,9.7-1.2
	c3.8-0.8,7.5-0.8,11.3-1.2c2.1-0.4,4.2-0.5,6.3-0.5c3.1,0.2,6.1,0.2,9.2,0.1c2.6-0.1,5.3-0.2,7.9,0c3.1,0.2,6.2,0.1,9.3,0.1
	c0.9,0,1.3,0.7,2,0.7c0.4,0,0.7-0.2,1-0.4c0.3-0.2,0.6-0.3,1-0.4c0.3,0,0.6,0,0.9-0.1c0.8-0.1,1.7-0.3,2.2,0.8
	c1.1,0,2.1,0.1,3.2,0.1c0.3,0,0.6-0.3,0.8-0.4c-0.3-0.1-0.5-0.1-0.8-0.2c-0.8,0-1.7,0-2.5-0.1c-0.2,0-0.3-0.4-0.5-0.6
	c0.2-0.1,0.4-0.1,0.6-0.2c1.8-0.1,3.6,0,5.4-0.2c1.2-0.1,2.3-0.3,3.5-0.5h0.2c0-1,0.4-1.4,1.5-1.3c0.8-0.1,1.6-0.2,2.4-0.4
	c3.3-0.4,6.7-0.8,10-1.5c1.4-0.3,2.9-0.3,4.3,0c0.6,0.2,1.2,0.8,2,0.6c0-0.2-0.1-0.5-0.1-0.7c0.3,0,0.7-0.2,0.8-0.1
	c0.7,0.6,1.3,0.2,2,0c1-0.4,2.2-0.1,3.1-0.6c0.7-0.3,1.6-0.5,2.4-0.4c0.4,0,0.8,0,1.2,0c1.9-0.2,3.8,0.1,5.7-0.5
	c1-0.4,2.2-0.2,3,0.5c0.7,0.6,1.8,0.2,2.5-0.3c0.4-0.4,1.1-0.4,1.6,0c0,0,0,0,0,0c0.5,0.3,1.2,0.4,1.8,0.3h0.7c0,0,0.2-0.6,0.2-0.7
	c-0.6-0.6-0.1-0.8,0.3-0.6c1.5,0.4,3,0.4,4.4,0c1-0.2,2.1-0.3,3.2-0.2c0.3,0,0.7,0,1,0c0.7-0.1,1.3,0,1.9,0.3c0.4,0.2,1.1,0,1.7-0.1
	c0.2,0,0.6-0.4,0.7-0.3c0.9,0.4,2,0.4,2.9,0c0.6-0.2,1.3-0.3,1.9-0.2c1.1,0.1,2.1,0.1,3.2,0c0.7,0,1.3-0.1,2-0.1
	c0.7,0.1,1.3,0.2,2,0.4c0.3,0,0.9,1,0.8-0.2c0,0,0.1-0.1,0.1-0.2c0.6,1.3,1.2,0.8,1.8,0.3c0.2-0.3,0.6-0.4,0.9-0.5
	c0.7,0,1.4,0,2.1-0.1c1.2-0.2,2.4-0.1,3.5,0.3c0.4,0.1,0.9,0.1,1.3,0c1.4,0,2.9-0.2,4.4-0.1c0.2,0,0.3-0.3,0.5-0.5
	c0.4-0.5,0.8-0.7,0.8,0.2s0.4,1.1,1,0.4s1.1-0.6,1.7-0.6c1.1,0.1,2.3,0.1,3.4,0.1c1.2-0.1,2.3-0.5,3.4,0.2c0.9-0.5,2-0.6,3-0.2
	c0.7,0.2,1.4,0.3,2.1,0.2c1.2-0.2,2.4-0.3,3.6-0.2h1.6c1.2-0.2,2.4-0.2,3.7,0c0.9,0.3,1.9,0.3,2.9,0.3c0.3,0,0.5,0,0.8,0
	c0.8,0.1,1.6,0,2.2-0.5c0.2-0.1,0.4-0.1,0.6,0c0.7,0.5,1.5,0.6,2.3,0.4c0.3,0,0.7-0.1,1-0.1c4.3,0.1,8.7-0.1,13,0.2
	c0.6,0,1.2,0,1.8-0.1c0.6-0.1,1.1-0.1,1.7-0.1c1.2,0,2.5,0.2,3.7,0.3c1.4,0.2,2.9,0.3,4.3,0.2c1.1,0,2.2,0,3.3,0.1
	c2.6,0.3,5.1,0.4,7.6,0.7c1.8,0.2,3.6,0.2,5.4,0.1h2.2c2.1,0,4.1,0.2,6.1,0.7c0.4,0.1,0.9,0.1,1.3,0c1.8,0,3.6-0.1,5.4-0.1V30H0z
	 M994.8,26.4c0.8,0.2,1.5,0.4,2.3,0.5c0.1,0,0.2,0,0.3-0.1c0.1-0.1,0.2-0.1,0.4-0.1c0.5,0.1,0.9,0.1,1.4,0.2c0.3,0,0.5-0.1,0.8-0.2
	c-0.2-0.1-0.4-0.2-0.7-0.2c-0.5,0-1,0-1.5-0.2L994.8,26.4z M987.9,26.1c0.2,0.1,0.4,0.2,0.7,0.2c0.5,0,1,0,1.5-0.2
	c-0.5,0-1-0.1-1.6-0.2C988.2,25.9,988.1,26,987.9,26.1L987.9,26.1z M981,25.9c0.1,0.1,0.3,0.2,0.4,0.2c0.3,0,0.6-0.1,0.8-0.2
	c-0.3-0.1-0.6-0.1-0.9-0.2C981.2,25.7,981.1,25.8,981,25.9L981,25.9z M991.3,26.1c0.1,0,0.3,0,0.2-0.3L991.3,26.1L991.3,26.1z
	 M983.8,26c0.2,0.1,0.4,0.1-0.1-0.4l-0.6,0.1c0.1,0.1,0.3,0.3,0.3,0.3c0,0,0.1,0,0.1,0C983.7,26,983.8,26,983.8,26L983.8,26z
	 M936.3,24.6c0-0.1,0.1-0.2,0.2-0.3C936.3,24.4,936.2,24.4,936.3,24.6z M926.3,24.5l1.4-0.2c-0.1-0.1-0.2-0.2-0.3-0.3
	c-0.3-0.2-0.7-0.4-1.1-0.4L926.3,24.5z M960.8,20.6c0,0.2,0.1,0.4,0.2,0.6c0.5,0.1,0.9,0.2,1.4,0.2c0.5-0.1,1.1-0.2,1.6-0.4
	c-0.1-0.7-0.5-0.6-0.9-0.5c-0.2,0.1-0.4,0.1-0.6,0.1c-0.2,0-0.4-0.1-0.5-0.1C961.5,20.5,961.2,20.6,960.8,20.6L960.8,20.6z
	 M918,20.8l0.2-0.3C918.1,20.5,918,20.5,918,20.8z M969.6,20.1l-0.3-0.2C969.3,20.1,969.3,20.2,969.6,20.1z M1012.8,19.3
	c0,0.1,0,0.2,0.1,0.3c0.2,0,0.5-0.1,0.5-0.4L1012.8,19.3L1012.8,19.3z M1203.7,18.6c0.1-0.1,0.1-0.3-0.2-0.4L1203.7,18.6z
	 M108.1,17.3c-0.2,0.1-0.4,0.2-0.6,0.3c0.3,0.3,0.6,0.5,1,0.6l1.4-0.3c-0.5-0.2-1-0.4-1.4-0.5c-0.1,0-0.1,0-0.2,0
	C108.3,17.3,108.2,17.3,108.1,17.3L108.1,17.3z M102,15.8c-0.1,0.1-0.2,0.4-0.2,0.5c0.4,0.5,0.9,1,1.5,1.5c0.2,0.2,0.7-0.1,1.3-0.4
	c-0.2-1-1.1-1.7-2.1-1.8C102.4,15.6,102.2,15.7,102,15.8z M81.2,16.2c0.1,0.3,0.2,0.6,0.3,0.9c0.2,0.2,0.3,0.3,0.5,0.5
	c0.1-0.1,0.3-0.3,0.3-0.5c0-0.4,0-0.9-0.2-1.3l-0.9-0.4C81.2,15.7,81.2,15.9,81.2,16.2L81.2,16.2z M92.7,15.6c0.7,0,1.3,0.1,1.4,1.1
	c0,0.1,0.4,0.1,0.6,0.1c0.6,0,1.3-0.1,1.9,0s1.2-0.3,1.2-0.9c0-0.3-0.7-0.8-1.2-0.8c-1.4-0.2-2.8-0.2-4.2-0.4
	c-0.7-0.1-1.5-0.3-2.2-0.4c-1.6-0.1-1.6,0-1,2c0.4,0.3,0.7,0.4,0.9-0.2c0.1-0.4,0.7-0.6,1-0.9c0.3,0.4,0.8,0.4,1.4,0.4L92.7,15.6z
	 M902,16.5c0.1,0,0.1,0,0.2,0.2h0.4c-0.2-0.1-0.3-0.3-0.4-0.5h-1.3L902,16.5L902,16.5z M68.8,16.6c0.1-0.3,0.2-0.6,0.4-0.9l-0.9-0.3
	C68.4,15.8,68.6,16.2,68.8,16.6L68.8,16.6z M898.1,16.6l1.5-0.3l-1.6-0.1C898,16.2,897.9,16.3,898.1,16.6L898.1,16.6z M831.9,15.9
	c0.2,0.1,0.4,0.2,0.7,0.2c0.5,0,1,0,1.5,0.2c1.3,0,2.7,0.1,4,0.1c0.3,0,0.5-0.1,0.7-0.2c-0.2-0.2-0.4-0.6-0.6-0.6
	c-0.4,0-0.9,0-1.3,0c-0.9-0.1-1.9,0-2.8,0.3c-0.5-0.1-0.9-0.1-1.4-0.2C832.4,15.8,832.2,15.8,831.9,15.9L831.9,15.9z M895.9,16.2
	l0.5-0.1c0-0.1,0-0.2-0.1-0.3C896.1,15.9,895.9,16,895.9,16.2z M156.1,15.3c0.3,0.1,0.5,0.2,0.8,0.3l0.3-0.2c0-0.1-0.1-0.4-0.1-0.5
	C156.7,15.1,156.4,15.2,156.1,15.3L156.1,15.3z M1262.3,15.2c0.2,0.1,0.3,0.2,0.4,0.2c0.4,0,0.9-0.1,1.2-0.2
	c-0.4-0.1-0.9-0.1-1.4-0.2C1262.6,15,1262.5,15.1,1262.3,15.2L1262.3,15.2z M1264.6,15c-0.1,0-0.1,0.1,0.1,0.4
	c0.5-0.1,1-0.2,1.5-0.3c0-0.1,0-0.3,0-0.4L1264.6,15L1264.6,15z M75.1,12.7c0.2,0.2,0.4,0.7,0.7,0.7c0.7-0.1,1.3,0.3,1.5,1
	c0.3,0.7,1,0.9,1.6,0.1c0.4-0.5,0.9-1.2,1.7-0.4c0.2,0,0.4,0,0.5-0.1c0.1-0.2,0-0.4-0.1-0.6c-0.4-0.2-0.8-0.4-1.3-0.5
	c-1.2-0.1-2.4-0.2-3.6-0.4L75.1,12.7L75.1,12.7z M55.2,13.9c0,0.4-0.2,1,0.9,0.7c-0.1-0.4-0.2-0.7-0.3-1.1
	C55.6,13.6,55.2,13.7,55.2,13.9z M45.2,14c1,0.6,0.9-0.1,0.8-0.7c-0.1-0.6-0.2-1.2-0.5-1.7c-0.3-0.4-0.6-0.6-1-0.8
	c-0.1-0.1-0.4,0.1-0.6,0.1c0.2,0.3,0.3,0.7,0.5,1c0.1,0.3,0.2,0.7,0.1,1c-0.2,0.5-0.4,0.3-0.6,0.2S43.7,13,43.6,13
	c-1.4,0.3-1.2-1.3-2.3-1.9c-0.7-0.3-1.5-0.5-1.2,0.7c0.5,1.8,2.3,2.8,4.1,2.3c0,0,0,0,0,0c0.1,0,0.1,0,0.2-0.1
	C44.6,14,44.8,14,45,14C45.1,14,45.2,14,45.2,14L45.2,14z M30.5,13c1.4,0.4,2.8,0.7,4.3,1c0.3,0.1,0.6-0.3,0.9-0.5
	c-0.3-0.3-0.5-0.7-0.9-0.8c-1.4-0.2-2.7-0.2-4.5-0.3C30.4,12.6,30.4,13,30.5,13L30.5,13z M1266.9,13.2c-0.1,0-0.2,0.4-0.1,0.8
	c0.8,0,1.7,0,2.5-0.1c0.2,0,0.4-0.3,0.7-0.5c-0.2-0.1-0.4-0.3-0.6-0.4h-0.6C1268.2,13.1,1267.5,13.1,1266.9,13.2L1266.9,13.2z
	 M37.7,13.2c-0.1,0.1,0.2,0.6,0.4,0.7c0.5,0.2,0.8,0,0.5-0.8c-0.1-0.2-0.3-0.3-0.4-0.3S37.8,12.9,37.7,13.2L37.7,13.2z M22,13
	c0,0.1,0.1,0.1,0.2,0.1c1.3,0.3,2.6,0.3,3.8,0c0.9-0.2,1.8-0.3,2.7-0.2v-0.3c-0.2-0.1-0.5-0.2-0.7-0.3c0.2-0.1,0.5-0.2,0.8-0.2
	c1.6,0,3.2-0.6,4.8-0.2c0.5,0.1,1.2,0.2,1.5-0.1c0.7-0.9,2-1.2,3-0.5c0.1,0.1,0.5-0.3,0.8-0.4c-0.2-0.1-0.4-0.4-0.6-0.4
	c-1-0.2-2-0.2-3-0.1c-1.1,0.1-2.2,0.1-3.3-0.2c-0.2-0.1-0.5,0.1-0.8,0.1c-0.7,0.1-1.4,0.5-2,0.3c-1-0.3-2.1-0.4-3.2-0.3h-1.6
	c-0.5,0-1.4-0.2-2-0.2s-1.3,0.3-1.9,0.3c-1-0.1-2-0.2-3.1-0.2c-0.3,0-0.6,0-0.9-0.1c-0.8-0.1-1.6-0.2-2,0.9c-0.1,0.1-0.3,0.1-0.4,0
	c-0.8-1-1.8-0.9-3-0.8c-0.5,0-1,0-1.4,0l-1,0.2c0.2,0.1,0.4,0.2,0.6,0.2c0.2,0,0.4,0,0.6,0c1.2-0.3,2.5,0.2,3.2,1.2
	c0.2,0.2,0.7,0.5,0.9,0.4c1-0.5,2.1-0.7,3.2-0.5c0.5,0,1.1,0,1.6,0c0.5-0.1,1-0.2,1.5-0.2C21,11.7,21.7,12.2,22,13L22,13z M72,13.1
	l0.3-0.2c-0.2-0.3-0.5-0.5-0.8-0.5C71.7,12.7,71.8,12.9,72,13.1L72,13.1z M1421.3,12.7c-0.3,0-0.5,0.2-0.5,0.4h0.1
	c0.1,0,0.2,0,0.3,0c0.2-0.1,0.4-0.2,0.6-0.3C1421.6,12.8,1421.5,12.7,1421.3,12.7L1421.3,12.7z M1416.5,12.8l-0.2-0.4
	C1416.2,12.5,1416.1,12.6,1416.5,12.8L1416.5,12.8z M373.5,12.5c-0.1,0-0.2,0.1-0.3,0.3h0.7C373.7,12.6,373.6,12.5,373.5,12.5
	L373.5,12.5z M469.5,11.7c-0.4,0-1,0.2-0.6,0.8h0.3c0.2,0,0.4,0,0.6,0c0.4-0.1,0.7-0.2,1-0.3C470.3,12.1,469.8,11.7,469.5,11.7
	L469.5,11.7L469.5,11.7z M235.7,12.2c0.3,0.1,0.7,0.2,1,0.2l1-0.3c-0.2-0.3-0.6-0.4-1-0.4C236.3,11.7,235.9,11.9,235.7,12.2
	L235.7,12.2z M375.8,11.7c0.6,0.3,1.2,0.5,1.8,0.7l2.2-0.3c-0.2-0.3-0.5-0.5-0.7-0.7c-0.5,0.3-1.1,0.4-1.6,0.2
	c-0.3-0.1-0.5-0.1-0.8-0.1C376.4,11.5,376.1,11.5,375.8,11.7L375.8,11.7z M500,11.7c0.3,0.2,0.7,0.3,1.1,0.4c0.9,0,1.8,0,2.8-0.2
	c1.3-0.3,2.5-0.3,3.8,0c0.2,0.1,0.4-0.3,0.7-0.5c-0.2-0.1-0.4-0.3-0.7-0.3c-1.4,0-2.9,0.1-4.7,0.1c-0.9,0-1.7,0.1-2.6,0.1
	c-0.2,0-0.4-0.1-0.6-0.2C499.8,11.2,499.8,11.6,500,11.7L500,11.7z M1294.6,11.8l0.3,0.2c0-0.1,0-0.2-0.1-0.2
	C1294.7,11.7,1294.6,11.7,1294.6,11.8L1294.6,11.8z M541.2,11.8c0.1,0,0.3,0.2,0.3,0.1c0.2-0.2,0.3-0.5,0.3-0.9
	C541.6,11.3,541.4,11.5,541.2,11.8L541.2,11.8z M492,11.3c0.1,0.3,0.3,0.5,0.6,0.5c0.7,0,1.4,0.2,1.9-0.6c-0.6-0.3-1.2-0.5-1.9-0.7
	h-0.2C491.9,10.6,491.9,10.9,492,11.3L492,11.3z M383.2,11.2c-0.3,0.1-0.5,0.1-0.8,0.2c0.2,0.1,0.5,0.2,0.7,0.3l1.5-0.2
	c-0.2-0.1-0.4-0.2-0.5-0.3c-0.1,0-0.2-0.1-0.3-0.1C383.6,11.2,383.4,11.2,383.2,11.2L383.2,11.2z M550,11.7l1-0.7
	c-0.1-0.1-0.2-0.1-0.3-0.1h-0.3C550,10.8,549.7,10.9,550,11.7L550,11.7z M532.5,11.1l0.7,0.6v-0.8L532.5,11.1L532.5,11.1z
	 M1062.3,11.4c0.3,0.1,0.5,0,0.8-0.1c-0.2,0-0.4-0.1-0.7-0.1C1062.3,11.2,1062.3,11.3,1062.3,11.4L1062.3,11.4z M1298.6,11.3
	c0.4,0,0.7,0,1.1-0.1c0.3-0.1,0.6-0.3,0.9-0.4c-0.3-0.1-0.7-0.2-1-0.3h-0.3c-0.5-0.1-1,0.3-1.1,0.8L1298.6,11.3L1298.6,11.3z
	 M232,11.3l0.2-0.3C232,11,231.9,11,232,11.3L232,11.3z M257.2,10.4c0.3,0.2,0.6,0.5,1,0.6c0.2,0.1,0.5-0.1,0.7-0.6
	c-0.2-0.1-0.5-0.1-0.7-0.2C257.9,10.2,257.6,10.3,257.2,10.4L257.2,10.4z M229.6,10.7c0.3,0.1,0.6,0.1,0.9,0.2
	c0.1,0,0.2-0.1,0.3-0.2c-0.1-0.1-0.3-0.2-0.4-0.2h-0.1C230.1,10.5,229.8,10.5,229.6,10.7L229.6,10.7z M535.5,10.8
	c0.5,0.1,1,0.1,1.5-0.1c0.3-0.2,0.4-0.7,0.6-1.1c-0.3,0.1-0.7,0.2-1,0.3c-0.3,0-0.6,0-0.8,0c-0.4,0.1-1,0.2-1,0.4
	c-0.1,0.6,0.2,0.6,0.6,0.5L535.5,10.8L535.5,10.8z M343.3,10.1l0.4,0.4c0-0.2,0.1-0.5,0.2-0.7C343.6,9.8,343.3,9.8,343.3,10.1
	L343.3,10.1z M314.3,9.7c0.2,0.2,0.3,0.6,0.5,0.7c0.5,0.2,0.7-0.1,0.4-0.8L314.3,9.7L314.3,9.7z M541.6,10c0.1,0,0.2,0,0.2-0.3
	L541.6,10L541.6,10z M545,9.9c0.1,0,0.3,0,0.2-0.3L545,9.9z M546.7,9.9c0.1,0,0.3,0,0.2-0.3L546.7,9.9z M532.5,9.8
	c0.1,0,0.3,0,0.2-0.3L532.5,9.8L532.5,9.8z M572.5,9l0.4,0.4c0.2-0.2,0.3-0.5,0.3-0.9L572.5,9L572.5,9z M307.5,9.3
	c0.2,0.1,0.4,0.1-0.1-0.4L306.9,9c0.1,0.1,0.3,0.3,0.3,0.3c0,0,0.1,0,0.1,0C307.4,9.3,307.5,9.3,307.5,9.3L307.5,9.3z M196.4,7.2
	c0,0.1,0.2,0.3,0.3,0.4c1,0.7,2.2,1.2,3.5,1.4c0.2,0.1,0.6-0.5,0.9-0.7l-0.6-0.6c-0.2-0.2-0.4-0.3-0.7-0.2c0.1,0.8-0.3,0.9-0.9,0.4
	c-0.1-0.1-0.9-0.3-0.1-0.6c0.1-0.1,0.2-0.3,0.3-0.4c-0.7-0.1-1.4-0.3-2.2-0.4C196.8,6.6,196.5,6.9,196.4,7.2L196.4,7.2z M589.6,8.1
	c-0.3,0.1-1,0.2-1,0.4c-0.1,0.6,0.2,0.5,0.6,0.5h0.2c0.4,0,0.8,0,1.3,0c0.4-0.1,0.8-0.2,1.2-0.3c-0.4-0.2-0.8-0.4-1.3-0.5
	c-0.1,0-0.1,0-0.2,0L589.6,8.1L589.6,8.1z M202.6,7.8c-0.2,0.1-0.5,0.6-0.4,0.7c0.3,0.3,0.6,0.9,1.1-0.1c0-0.4-0.1-0.6-0.4-0.6
	C202.8,7.7,202.7,7.7,202.6,7.8L202.6,7.8z M411.3,8.4c0.4,0,0.8,0.1,1.3,0.2l0.3-0.1c-0.5-0.1-1-0.1-1.4-0.1L411.3,8.4z M204.5,6.6
	c0.3,0.4,0.6,0.8,0.9,1.1c0.1,0.1,0.3,0.1,0.5,0.1c0.1-0.5,0.3-1,0.1-1.4s-0.3-0.4-0.6-0.4S204.8,6.1,204.5,6.6L204.5,6.6z
	 M215.5,7.3c0.5,0.3,1.1,0.4,1.7,0.4l1.1-0.4c-0.2-0.3-0.4-0.8-0.8-0.9c-0.4-0.1-0.7-0.1-1.1-0.1h-0.6c-0.3,0-0.7-0.1-1-0.1
	C215,6.7,215.2,7,215.5,7.3L215.5,7.3z M220,7c0.2,0.1,0.4,0.2,0.6,0.2c0.3-0.1,0.5-0.3,0.7-0.4c-0.2-0.2-0.5-0.3-0.8-0.4
	C220.4,6.4,220.2,6.5,220,7L220,7z M209.2,6.6c0.2,0.2,0.3,0.5,0.5,0.5c0.6,0,1.3,0,1.9,0c0.1,0,0.1-0.1,0.1-0.2V6.7
	c-0.6-0.2-1.3-0.4-1.9-0.5C209.7,6.2,209.4,6.5,209.2,6.6L209.2,6.6z M938.5,15.9c0-0.1,0.2-0.1,0.3-0.2
	C938.7,15.8,938.6,15.9,938.5,15.9L938.5,15.9L938.5,15.9z M930.3,15.6c0-0.1,0.1-0.3,0.1-0.3c0.2,0,0.4,0.1,0.6,0.3
	c-0.1,0-0.2,0-0.3,0C930.5,15.6,930.4,15.6,930.3,15.6L930.3,15.6z M943.6,15.2c0.5-0.1,1-0.2,1.6-0.2c0.1,0.1,0,0.2,0,0.2
	L943.6,15.2L943.6,15.2z M953.6,15c0-0.1,0.1-0.3,0.1-0.3c0.3,0,0.7,0.1,1,0.1c0,0,0,0.1,0,0.1c0,0.1-0.1,0.1-0.4,0.2
	C954.1,15.1,953.8,15.1,953.6,15L953.6,15z M974.6,14.8c0.3,0,0.6,0,0.8,0.2h-0.2C975.1,15,974.9,14.9,974.6,14.8L974.6,14.8z
	 M1239.1,14.6c-0.1-0.3-0.1-0.6,0-0.7c0.8-0.2,1.6-0.4,2.3-0.6c0.3,0,0.6,0.3,0.8,0.5c-0.2,0.2-0.3,0.7-0.6,0.7
	c-0.4,0-0.8,0.1-1.2,0.1C1240.1,14.7,1239.6,14.7,1239.1,14.6L1239.1,14.6z M1244.7,14.4c0.2-0.2,0.4-0.6,0.6-0.7
	c1.4-0.6,3-0.7,4.4-0.4c1.4,0.1,2.8,0.1,4.2,0c1-0.1,2-0.1,3,0c0.3,0,0.7-0.1,1-0.2c0.7-0.2,1.5-0.3,2.2-0.3
	c0.6,0.1,1.2,0.3,1.7,0.6c-0.6,0.1-1.1,0.2-1.6,0.3s-1.3,0.3-2,0.4c-0.3,0.1-0.6,0.1-0.8,0.1c-0.9-0.3-1.8-0.3-2.7-0.1
	c-0.6,0.1-1.2,0.1-1.8,0.1c-0.9,0-1.7,0.1-2.4,0.2s-1.3,0-1.9,0c-1-0.1-2.1,0-3.1,0.1h-0.1C1245.1,14.5,1244.9,14.4,1244.7,14.4
	L1244.7,14.4z M992,14.1c0.1-0.4,0.2-0.8,0.5-1.1c0.1,0.3,0.2,0.7,0.3,1.1c0,0.4,0,0.5-0.1,0.5S992.2,14.3,992,14.1L992,14.1z
	 M1011.5,13.7h0.1c0.1,0.1,0.2,0.2,0.2,0.2c0,0.2-0.1,0.4-0.3,0.6C1011.5,14.2,1011.5,14,1011.5,13.7L1011.5,13.7z M962.1,14.1
	c0.1,0.1,0.2,0.3,0,0.4C962,14.4,962,14.2,962.1,14.1z M132.9,14.3c-0.2-0.1-0.3-0.3-0.4-0.5c0.3-0.3,0.5-0.8,0.8-0.2
	c0.1,0.3,0.2,0.6,0.2,0.9C133.4,14.4,133.1,14.4,132.9,14.3L132.9,14.3z M1028.5,14.3c-0.1,0-0.2-0.1-0.3-0.1c0-0.2,0.2-0.5,0.4-0.6
	c0.4-0.1,0.7-0.3,1.1-0.4c0.1,0.1,0.2,0.2,0.2,0.3c-0.2,0.2-0.4,0.4-0.6,0.6C1029,14.2,1028.8,14.3,1028.5,14.3L1028.5,14.3z
	 M1237.3,14.3c-0.4,0-0.8,0-1.2-0.1v-0.1c0,0,0.1-0.1,0.4-0.2s0.4,0,0.6,0c0.2,0,0.4,0.1,0.6,0.1
	C1237.6,14.1,1237.4,14.3,1237.3,14.3L1237.3,14.3z M973.4,14.1c0-0.1,0.1-0.3,0.1-0.3c0.3,0,0.7,0.1,1,0.1c0,0,0,0.1,0,0.1
	c0,0.1-0.1,0.1-0.3,0.2C973.9,14.2,973.7,14.1,973.4,14.1L973.4,14.1z M146.8,13.9c0.2,0,0.4-0.1,0.7-0.1c-0.2,0.2-0.4,0.3-0.6,0.4
	L146.8,13.9z M1023.9,14.1c-0.3-0.1-0.6-0.3-0.8-0.4c0.1-0.3,0.3-0.5,0.5-0.8c0.1-0.1,0.3-0.1,0.4-0.1l2.4,0.2
	c0,0.7-0.5,0.7-0.9,0.6s-0.7-0.1-0.9,0.3c0,0.1-0.2,0.1-0.3,0.1C1024.1,14.2,1024,14.2,1023.9,14.1L1023.9,14.1z M976.8,14
	c0-0.1,0.1-0.3,0.1-0.3c0.3,0,0.7,0.1,1,0.1c0,0,0,0.1,0,0.1c0,0.1-0.1,0.1-0.3,0.2C977.4,14.1,977.1,14.1,976.8,14L976.8,14z
	 M1243.6,13.9c0,0.1-0.2,0.1-0.3,0.2C1243.4,13.9,1243.5,13.8,1243.6,13.9L1243.6,13.9z M989.5,13.8c-0.5,0-1-0.1-1.5-0.2
	c0.4-0.8,1.1-0.7,1.8-0.7c0.4,0,0.8,0.2,1.2,0.4C990.6,13.6,990.1,13.8,989.5,13.8L989.5,13.8z M1007.1,13.7c-0.1,0-0.3,0-0.4-0.1
	c-0.2-0.2-0.3-0.4-0.4-0.7c0.2-0.1,0.4-0.1,0.6-0.1c0.3,0.1,1,0.2,1,0.3c0,0.4-0.1,0.5-0.3,0.5C1007.4,13.8,1007.2,13.8,1007.1,13.7
	L1007.1,13.7z M147.8,13.3c0,0.1,0,0.3-0.1,0.4C147.7,13.6,147.7,13.4,147.8,13.3L147.8,13.3z M995.1,13.6c-0.1,0-0.3-0.4-0.2-0.5
	c0.2-0.2,0.5-0.3,0.8-0.4c0.6,0.1,1.2,0.1,1.3,0.3c0.2,0.6-0.2,0.6-0.6,0.5L995.1,13.6L995.1,13.6z M1004.8,13
	c0.2,0.1,0.1,0.3,0,0.4C1004.7,13.3,1004.6,13.1,1004.8,13z M150.7,13.1l0.1-0.3c0.2,0,0.4,0.1,0.6,0.3c-0.1,0-0.2,0-0.3,0
	C150.9,13.1,150.8,13.1,150.7,13.1L150.7,13.1z M1079.4,12c0.2-0.2,0.5-0.3,0.8-0.4c-0.1,0.3-0.2,0.5-0.4,0.8L1079.4,12L1079.4,12z
	 M26.5,12.1L25.9,12c0.1-0.1,0.2-0.3,0.3-0.3c0.4,0,0.8,0,1.2,0.1v0.1c0,0-0.1,0.1-0.4,0.2L26.5,12.1L26.5,12.1z M440,10.7
	c0,0.1,0,0.3-0.1,0.4C439.9,10.9,439.9,10.8,440,10.7L440,10.7z M470,10c0.2-0.1,0.4-0.1,0.6,0c0,0.1,0,0.2-0.1,0.3
	C470.4,10.2,470.2,10.1,470,10L470,10z M467.7,9.8c-0.1-0.2-0.1-0.4,0-0.6c0-0.2,0.1-0.3,0.2-0.5c0.2,0.2,0.4,0.4,0.5,0.7
	c-0.2,0.3-0.3,0.6-0.4,0.9C467.9,10.1,467.8,9.9,467.7,9.8z M668.8,10L668,9.3c0.4-0.1,0.9-0.2,1.2-0.1s0.3,0.6,0.4,1
	C669.3,10.2,669,10.1,668.8,10L668.8,10z M462.1,9.6l-0.4-0.2c0.1-0.1,0.3-0.3,0.4-0.3c1-0.1,2-0.1,3-0.1c0.1,0,0.3,0.2,0.4,0.3
	c-0.1,0.2-0.3,0.5-0.4,0.5c-0.6,0.1-1.1,0.1-1.7,0.1C463,9.9,462.6,9.8,462.1,9.6L462.1,9.6z M664.6,9.4c0.3-0.2,0.6-0.4,0.9-0.6
	c0.4,0,0.8,0.1,1.2,0.2c-0.4,0.3-0.7,0.8-1.1,0.9h-0.1C665.3,9.9,664.9,9.5,664.6,9.4L664.6,9.4z M501.1,9.4
	c-0.9-0.3-1.8-0.4-2.7-0.3h-1.3c-0.7-0.1-1.5-0.2-2.2-0.4c-0.2,0-0.4-0.3-0.5-0.4c0.2-0.2,0.4-0.3,0.6-0.4c0.1,0,0.2,0,0.3,0
	c0.1,0,0.2,0,0.3,0c0.2-0.1,0.3-0.2,0.5-0.3c-0.1-0.1-0.2-0.1-0.4-0.2c-0.5-0.1-1-0.3-1.8-0.4c-0.5,0-1,0-1.4,0.2
	c-0.6,0.3-1.3,0.2-1.9-0.1c-0.2-0.1-0.4-0.1-0.6-0.2c0.2-0.1,0.3-0.2,0.5-0.2c1.4-0.2,2.9-0.4,4.3-0.6c0.3,0,0.7-0.1,0.7-0.2
	c0.2-1.3,1.1-1.2,1.9-1.1c1.3,0.3,2.6,0,3.6-0.8c0.6-0.5,0.9,0,1.2,0.3c-0.2,0.3-0.4,0.7-0.7,0.8c-0.8,0.2-1.6,0.3-2.1,1.1
	c0.8,0.1,1.6,0.2,2.4,0.2c0.4-0.1,0.8-0.2,1.1-0.3c0.8-0.2,1.6,0.3,2,1c0,0.1-0.2,0.6-0.4,0.6c-0.8,0-1.5-0.1-2.2-0.2
	c-1.5-0.2-3-0.3-4.5-0.5c-0.2,0-0.4,0.1-0.6,0.2c0.1,0.1,0.2,0.3,0.4,0.4c0.7,0.4,1.5,1.1,2.1,1c0.5,0,1,0,1.5,0c0.5,0,0.9,0,1.4,0
	c0.2,0,0.4-0.9,0.6-0.1c0,0.3-0.2,0.7-0.5,0.9c-0.4,0.1-0.8,0.2-1.2,0.2C501.5,9.6,501.3,9.6,501.1,9.4L501.1,9.4z M487.7,9.3
	c-0.8-0.4-1.6-0.9-2.4-1.4c-0.9-0.7-2.1-1.1-3.2-1h-1.5c-0.1,0-0.3-0.1-0.4-0.1c0.1-0.1,0.2-0.3,0.4-0.3c0.6-0.1,1.3-0.1,2.1-0.1
	c1.2,0,2.4,0,3.6-0.1c1.3-0.2,1.7,0.9,2.4,1.5c0.2,0.1,0,0.8-0.2,1.1S488,9.2,487.7,9.3L487.7,9.3z M672.7,9
	c-0.2-0.1-0.4-0.2-0.7-0.2c0.3-0.2,0.6-0.8,0.8-0.7c0.5,0.2,0.9,0.5,1.3,0.8c-0.1,0.1-0.2,0.4-0.3,0.4C673.4,9.3,673,9.2,672.7,9
	L672.7,9z M438.3,8.5h0.2c0.1,0,0.2,0.1,0.3,0.1c-0.3,0.3-0.7,0.5-1.1,0.6C437.4,8.5,437.8,8.5,438.3,8.5L438.3,8.5z M491.6,9.2
	c0-0.1,0-0.2,0-0.3c0.1-0.2,0.2-0.3,0.3-0.5c0.2-0.2,0.5-0.3,0.9-0.2c0,0.6-0.2,1.1-0.8,1.1C491.8,9.3,491.7,9.3,491.6,9.2
	L491.6,9.2z M56.2,9.2C56.1,9,56,8.7,55.9,8.5c0.3,0,0.7,0,1,0.1c-0.1,0.3-0.3,0.5-0.6,0.6C56.3,9.2,56.3,9.2,56.2,9.2L56.2,9.2z
	 M434.4,8.9c-0.1-0.1-0.2-0.2-0.2-0.4c0.2-0.8,0.2-0.9-0.4-0.9s-1.3,0-1.9,0l-2.2,0.1h-1.1c0.1-0.2,0.3-0.3,0.4-0.5
	c1.1-0.9,2.4-0.5,3.5-0.4c0.7,0,1.5-0.1,2.2-0.2c0.1,0,0.1-0.2,0.1-0.1c0.6,0,1.3,0.1,1.9,0.2c0.2,0.2,0.3,0.6,0.2,0.9
	c-0.5,0.5-1,0.9-1.6,1.2C435.3,8.9,435.2,9,435,9C434.8,9,434.6,9,434.4,8.9L434.4,8.9z M471.3,8.9c-0.5-0.4-1.4-0.8-1.4-1.3
	c-0.1-0.9-0.5-0.8-1.1-0.8c-0.7,0-1.4,0-2.1,0c-0.1,0-0.2-0.4-0.2-0.7c0.5-0.1,0.9-0.1,1.4-0.1c2.5-0.1,2.6,0,4,2.1
	c0.1,0.2,0.2,0.5,0.2,0.5C471.8,8.8,471.6,8.9,471.3,8.9C471.4,8.9,471.3,8.9,471.3,8.9L471.3,8.9z M478.4,8.3
	c0.4-0.5,0.4-0.5,0-0.9c-0.2-0.2-0.3-0.5-0.4-0.7c0.4-0.1,0.7-0.1,1.1-0.1c0.2,0.6,0.4,1.2,0.6,1.8l-1.4,0.2
	C478.4,8.6,478.4,8.4,478.4,8.3L478.4,8.3z M294.2,8.8c-0.4,0-0.8-0.1-1.1-0.3c0.3-0.2,0.7-0.3,1.1-0.4c0.2,0,0.3,0.3,0.5,0.4
	C294.5,8.6,294.4,8.8,294.2,8.8L294.2,8.8z M682.2,8.1l2.1-0.2V8c-0.1,0.1-0.2,0.2-0.2,0.3c-0.6,0.1-1.2,0.2-1.8,0.2
	C682.3,8.3,682.3,8.2,682.2,8.1L682.2,8.1z M159.7,7.4c0.1,0,0.3,0,0.4,0c0.1,0.3,0,0.6-0.2,0.9C159.8,8,159.7,7.7,159.7,7.4
	L159.7,7.4z M449.7,8.1c0.5-0.9,1.4-1,1.9-0.3c0,0-0.2,0.3-0.3,0.4c-0.2,0-0.4,0-0.6,0C450.3,8.1,450,8.1,449.7,8.1L449.7,8.1z
	 M11.1,7.8c0.1,0,0.1,0.2,0.1,0.3C11.2,8.1,11.1,8,11.1,7.8L11.1,7.8z M554.5,8c-0.9-0.3-1.9-0.4-2.8-0.3c-0.5,0-1,0-1.5,0
	c-0.1,0-0.3-0.1-0.4-0.1c0.1-0.1,0.2-0.2,0.3-0.3c0.6-0.2,1.1-0.4,1.7-0.5c1-0.1,1.9-0.1,2.9,0c0.8,0.7,0.2,1.2-0.1,1.2
	C554.5,8,554.5,8,554.5,8L554.5,8z M381.7,7.8c-0.2,0-0.5-0.1-0.7-0.2c0.2-0.1,0.4-0.2,0.5-0.2c0.4,0,0.8,0.1,1.1,0.3
	c-0.3,0.1-0.5,0.1-0.8,0.1L381.7,7.8L381.7,7.8z M513.2,7.5c0.1,0,0.2,0.2,0.2,0.3C513.2,7.8,513.2,7.6,513.2,7.5L513.2,7.5z
	 M424.3,7.6c-0.3-0.1-0.6-0.3-0.9-0.4c-0.5-0.1-1-0.2-1.4-0.2c0.5-0.2,1.1-0.4,1.6-0.6c0.4,0.1,0.9,0.3,1.2,0.6
	c0.1,0.2,0.1,0.4,0,0.5c-0.1,0.1-0.3,0.2-0.4,0.2C424.4,7.6,424.4,7.6,424.3,7.6L424.3,7.6z M291.3,7.1C291.2,7,291,7,290.8,6.9
	c0.2-0.1,0.3-0.2,0.5-0.2h0.8c0.5,0,1,0,1.5-0.1c1-0.2,2-0.2,3,0c0.7,0.1,1.4,0.2,2.1,0.2c1.9-0.2,3.7-0.2,5.6-0.4
	c0.4,0,0.9,0,1.3,0c0.1,0.1,0.2,0.3,0.2,0.5c-0.2,0.2-0.5,0.3-0.8,0.4c-1.4-0.1-2.7-0.6-3.6-0.2c-1.1,0.3-2.3,0.4-3.5,0.4
	c-1.1,0.2-2.2,0.1-3.3-0.3c-0.5-0.2-1.1-0.1-1.6,0.2c-0.2,0.2-0.4,0.2-0.7,0.2C292,7.5,291.6,7.4,291.3,7.1L291.3,7.1z M310.1,7.5
	c-0.1,0-0.2-0.1-0.4-0.4s-0.1-0.6,0-0.6c0.7-0.4-1.3-1.3,0.3-1.5c1.3-0.2,1.8,0.2,1.9,1c0,1.2-0.4,1.6-1.7,1.6L310.1,7.5z
	 M359.5,7.4c0.2-0.1,0.5-0.2,0.8-0.3c0.4,0,0.7,0,1.1,0c0.1,0,0.1,0.2,0.2,0.3c-0.3,0.1-0.5,0.1-0.8,0.2
	C360.1,7.5,359.8,7.4,359.5,7.4L359.5,7.4z M525.2,7c-0.1-0.2-0.2-0.4-0.4-0.4c0.2-0.1,0.3-0.3,0.5-0.3c1.8,0,3.6-0.5,5.5,0.1
	c1.4,0.3,2.9,0.3,4.3,0c0.3,0,0.7,0,1,0c0.1,0,0.2,0.4,0.2,0.5s-0.2,0.3-0.3,0.2c-1.3-0.4-2.8-0.5-4.2-0.3c-1.3,0.2-2.6,0.1-3.8-0.2
	c-0.6,0-1.3,0.1-1.8,0.4c-0.1,0.2-0.3,0.3-0.5,0.3C525.3,7.3,525.2,7.2,525.2,7L525.2,7z M462.2,7.1c-1.3-0.4-2.6-0.6-4-0.6
	c-0.8-0.1-1.5-0.1-2.3-0.2c-0.1,0-0.3-0.3-0.2-0.5s0.3-0.4,0.4-0.3c0.8,0.1,1.6,0.3,2.4,0.3s1.4,0,2.1,0s1.6-0.1,2.3,0
	c0.7,0.1,1.4,0.3,2.1,0.5c0,0,0,0.1,0,0.1c0,0.1-0.1,0.1-0.4,0.2C464.1,7.4,463,7.7,462.2,7.1L462.2,7.1z M537.5,6.3
	c-0.2-0.4-0.6-0.7-1-0.8c-1.4-0.2-2.9-0.2-4.6-0.3c-2.6-0.6-5,0-7.4-0.6c-0.4-0.1-0.9-0.1-1.3,0c-0.6,0.2-1.2,0.2-1.7,0l-0.9-0.4
	L519.8,4c0.2-0.1,0.4-0.1,0.6-0.2c2.8-0.1,5.6,0.1,8.3,0.6c1.1,0.1,2.2,0.1,3.3,0c1.8-0.2,3.6,0,5.3,0.6c0.8,0.2,1.7,0.2,2.5,0
	c2.2,0,4.3-0.1,6.5-0.2c0.2,0,0.5,0.1,0.7,0.2c-0.2,0.2-0.4,0.6-0.6,0.6c-0.4,0-0.8,0.1-1.2,0.2c-0.6,0.3-1.4,0.3-2,0
	c-0.8-0.5-2.2-0.1-3.4,0c-0.3,0-0.5,0.5-0.7,0.8s-0.6,0.6-0.8,0.6S537.8,6.9,537.5,6.3L537.5,6.3z M475.7,7
	c-0.6-0.1-1.3-0.2-1.9-0.4c0.4-0.3,0.8-0.6,1.2-0.8c0.4,0.1,0.9,0.3,1.3,0.6C476.1,6.6,475.9,7,475.7,7L475.7,7z M313.7,7
	c-0.7,0-0.5-0.4,0-0.8c0.3,0.1,0.6,0.3,0.9,0.5C314.3,6.8,314,6.9,313.7,7L313.7,7z M324.1,6.7c-0.6-0.3-1.2-0.7-1.8-1.1
	c0.5-0.1,1.1-0.1,1.6-0.2h1.3c0.9,0,2-0.2,2,0.6s-0.8,0.7-1.4,0.7h-0.3c-0.3,0-0.7,0.1-1,0.1C324.4,6.8,324.3,6.8,324.1,6.7
	L324.1,6.7z M515.1,6.3l0.7-0.5c0.1,0.2,0.2,0.5,0.1,0.7C515.6,6.5,515.4,6.4,515.1,6.3L515.1,6.3z M448,6.1c-0.2,0-0.6-0.2-0.6-0.3
	c0-0.7,0.2-0.5,0.4-0.3s0.2,0.2,0.3,0.2c1.2-0.2,2.5-0.4,3.7-0.4c0.3,0,0.7,0.2,0.9,0.4C453,6,453.5,6.2,454,6l0.2,0.3
	c-0.1,0.1-0.2,0.1-0.4,0.2h-1.3C450.9,6.3,449.4,6.2,448,6.1L448,6.1z M320,6.4c-0.5,0-1-0.2-1.6-0.2c0.2-0.8,0.9-0.9,1.5-1
	c0.3-0.1,0.7,0,1,0.1c0.5,0.5,1.1,1,0,1.2c-0.2,0-0.3,0-0.5,0L320,6.4L320,6.4z M521,6.3c-0.7-0.2-1.4-0.4-2-0.6
	c0.7-0.1,1.3-0.1,2-0.1c0.6,0.1,1.2,0.2,1.8,0.3c0.2,0,0.3,0.1,0.5,0.2c-0.2,0.1-0.4,0.2-0.6,0.2c-0.4,0-0.8,0.1-1.2,0.1
	C521.3,6.4,521.2,6.4,521,6.3L521,6.3z M388.8,6.2c-0.1-0.1-0.1-0.3-0.1-0.5c0.5,0,0.9,0,1.4,0.1c-0.2,0.3-0.5,0.5-0.9,0.6
	C389.1,6.3,388.9,6.3,388.8,6.2L388.8,6.2z M427.7,5.8c-0.2-0.2-0.9,0.2-1.4,0.3c-0.3-0.1-0.6-0.2-0.9-0.3c-0.2-0.1-0.3-0.1-0.5-0.2
	c0.1-0.1,0.2-0.2,0.4-0.2c2.2-0.2,4.3-0.5,6.5-0.6c0.5,0,1.1,0.4,1.7,0.7c-0.2,0-0.4,0.1-0.6,0.3c-0.3,0.2-0.7,0.5-1.2,0
	c-0.5-0.3-1.1-0.3-1.6,0c-0.4,0.2-0.8,0.4-1.3,0.4C428.4,6.2,428,6.1,427.7,5.8L427.7,5.8z M419.4,6c-0.4,0-0.9-0.1-1.2-0.3
	c0.4-0.1,0.8-0.2,1.1-0.1c0.1,0,0.3,0.2,0.5,0.2C419.6,5.9,419.5,6,419.4,6L419.4,6z M402.2,5.9c-0.2-0.2-0.2-0.5-0.1-0.7
	c0.8-0.1,1,0.2,0.8,0.7c-0.1,0.1-0.2,0.1-0.4,0.1C402.4,5.9,402.3,5.9,402.2,5.9L402.2,5.9z M511.3,5.8c-0.2-0.1-0.3-0.4-0.5-0.6
	c0.2-0.1,0.5-0.1,0.7-0.1c0.5,0.1,0.9,0.2,1.3,0.4v0.1c-0.1,0.1-0.2,0.2-0.3,0.3H512C511.8,5.9,511.5,5.8,511.3,5.8L511.3,5.8z
	 M440,5.4c0.2-0.3,0.4-0.5,0.5-0.4c0.3,0.1,0.5,0.2,0.8,0.4c-0.2,0.2-0.5,0.3-0.8,0.4C440.5,5.8,440.2,5.7,440,5.4L440,5.4z
	 M306.8,5.5c0.1,0,0.1,0.2,0.2,0.3C306.8,5.8,306.8,5.7,306.8,5.5L306.8,5.5z M411.4,5.8c-0.1,0-0.2-0.1-0.3,0s-0.2-0.2-0.4-0.3
	c0.3-0.1,0.5-0.1,0.8-0.2c0.2,0.4,0.2,0.5,0.1,0.5C411.5,5.8,411.5,5.8,411.4,5.8L411.4,5.8z M494.1,5.8c-1.4-0.1-2.7-0.4-4.1-0.6
	c-0.1-0.2-0.1-0.3-0.1-0.5c0.4,0,0.8,0,1.2-0.1c1.1-0.2,2.1,0,3.1,0.4c0.2,0.1,0.4,0.2,0.5,0.3C494.5,5.4,494.3,5.8,494.1,5.8
	L494.1,5.8z M362.4,5.8c-1,0-0.3-0.4,0-0.7c0.3,0.1,0.5,0.2,0.8,0.4C362.9,5.5,362.7,5.8,362.4,5.8L362.4,5.8z M377.1,5.8
	c0-0.1,0.1-0.1,0.3-0.2C377.4,5.7,377.3,5.8,377.1,5.8L377.1,5.8L377.1,5.8z M293.4,4.6c0.4,0,0.8,0.1,1.2,0.2l-0.5,0.9
	C293.8,5.3,293.6,5,293.4,4.6L293.4,4.6z M366.3,5.6c-0.2,0-0.3-0.1-0.5-0.2c0.2-0.1,0.4-0.2,0.6-0.3c0.2,0,0.4,0,0.5,0.1
	C366.9,5.5,366.6,5.6,366.3,5.6L366.3,5.6z M299.3,4.7c-0.1-0.4,0.4-1.3-0.9-1.2c-0.5-0.4-0.7-0.8,0-0.8c0.9,0,1.7,0.7,1.7,1.6
	c0,0,0,0,0,0c0,0.1,0,0.2,0,0.3c-0.1,0.4-0.3,0.7-0.6,1C299.5,5.2,299.4,4.9,299.3,4.7L299.3,4.7z M485.3,5.5
	c-0.7-0.1-1.3-0.2-2-0.4c-0.2-0.1-0.4-0.2-0.6-0.4c0.2-0.2,0.5-0.3,0.7-0.5c0.2,0,0.4,0.1,0.7,0.3c0.5,0.1,1,0,1.4,0.1
	c0.2,0,0.5,0.3,0.7,0.5C485.9,5.4,485.6,5.5,485.3,5.5L485.3,5.5z M303.7,5.3c-0.2-0.1-0.3-0.3-0.4-0.5c0.2-0.1,0.5-0.1,0.7,0
	c0.2,0.2,0.3,0.4,0.4,0.6C304.2,5.4,304,5.3,303.7,5.3L303.7,5.3z M477.1,5.3c-0.2,0-0.3-0.3-0.5-0.5c0.1-0.1,0.3-0.3,0.4-0.3
	c0.5,0,1,0,1.5,0c0,0.3,0,0.6-0.2,0.8c-0.4,0-0.7,0.1-0.9,0.1C477.4,5.4,477.3,5.4,477.1,5.3L477.1,5.3z M509.6,5.2
	c-0.2-0.6-0.2-1.3-0.2-2c0.8-0.2,1.6,0,1.6,0.6s-0.5,1-0.9,1.5H510C509.9,5.3,509.6,5.3,509.6,5.2L509.6,5.2z M269,5
	c-0.2-0.1-0.5-0.2-0.7-0.3c0.2-0.2,0.5-0.6,0.6-0.5c0.6,0.1,1.2,0.1,1.8,0c0.7-0.2,1.5-0.1,2.2,0.2c0.2,0.1,0.3,0.3,0.5,0.5
	c-0.3,0.2-0.6,0.3-0.9,0.4C271.2,5.2,270.1,5.1,269,5L269,5z M287,5.1c-0.2-0.2-0.4-0.5-0.5-0.8c0.2-0.4,0.4-0.9,0.5-0.8
	C287.4,3.8,287.4,4.6,287,5.1L287,5.1L287,5.1z M518.2,5c-1.9-0.6-4-0.9-6-0.9c-0.2,0-0.4-0.3-0.5-0.4c0.2-0.1,0.4-0.4,0.6-0.4
	c1.1-0.2,2.3,0,3.2,0.7c1.2-1.2,2.2-0.8,3.1,0c0.2,0.2,0.4,0.6,0.3,0.7C518.7,4.8,518.5,4.9,518.2,5L518.2,5L518.2,5z M308.2,4.9
	c-0.3-0.3-0.6-0.6-0.9-0.9c-0.2-0.2-0.3-0.4-0.5-0.6c0.3-0.1,0.5-0.1,0.8-0.2c0.3,0,0.5-0.1,0.7-0.1c0.5,0.4,0.8,1.5,0.4,1.8
	c-0.1,0-0.2,0.1-0.3,0.1C308.4,5,308.3,5,308.2,4.9L308.2,4.9z M325.2,3.7c0.6-0.7,0.9-0.6,0.9,0.2c-0.1,0.3-0.1,0.7-0.2,1
	C325.6,4.5,325.4,4.1,325.2,3.7L325.2,3.7z M164.8,4.7c-0.4-0.2-0.7-0.4-1-0.6c0.3-0.1,0.7-0.2,1-0.2c0.2-0.2,0.5-0.1,0.7,0.1
	c0.2,0.2,0.1,0.5-0.1,0.7l0,0c-0.1,0.1-0.3,0.1-0.4,0.1L164.8,4.7L164.8,4.7z M351.1,3.4c0.2,0.1,0.3,0.4,0.2,0.4
	c-0.3,0.1-0.6,0.2-1,0.3C350.5,3.9,350.8,3.6,351.1,3.4L351.1,3.4z M494.8,3.6c-0.2,0-0.5,0-0.7,0c-0.2,0-0.4,0-0.6,0
	c-0.2,0-0.5,0-0.7,0c-0.1,0-0.2-0.4-0.2-0.7c0.1-0.1,0.3-0.2,0.5-0.2c0.5,0.1,0.9,0.1,1.4-0.2c0.5-0.3,1.2-0.3,1.8,0
	c0.9,0.5,0.5,0.8,0.2,1.4C496,3.6,495.4,3.4,494.8,3.6L494.8,3.6z M506.5,3.6c0.2-0.3,0.5-0.7,0.9-0.7s0.7,0.3,1.1,0.5
	c-0.3,0.1-0.7,0.2-1,0.3c-0.1,0-0.2,0-0.3,0C507,3.7,506.7,3.6,506.5,3.6L506.5,3.6z M489,3.4c-0.4,0-0.8-0.1-1.2-0.1
	c-0.3-0.1-0.5-0.1-0.8-0.3c0.3-0.2,0.5-0.6,0.8-0.5c0.9,0.1,1.9,0.2,2.8,0.4c0.1,0,0.2,0.2,0.2,0.3s-0.2,0.4-0.3,0.4
	C490,3.7,489.5,3.6,489,3.4z M491.7,2.8c0.2,0.2,0.3,0.5,0.2,0.8C491.7,3.4,491.7,3.1,491.7,2.8L491.7,2.8z M504.3,3.6
	c-0.3-0.1-0.6-0.2-0.9-0.3c-0.4-0.2-0.8-0.3-1.2-0.5c0-0.1,0.1-0.2,0.1-0.3c0.5,0.2,1,0.3,1.5,0.4c0.2,0,0.4,0,0.6,0
	c0.4,0.1,0.7,0.2,1.1,0.3c0,0.1,0,0.2,0,0.4c-0.3,0.1-0.6,0.1-0.9,0.1L504.3,3.6L504.3,3.6z M477.2,2.8c0.1,0,0.2,0,0.4,0
	c0.4-0.1,0.8-0.1,0.7,0.5c0,0.2-0.7,0.2-1.2,0.4C476.4,3.1,476.5,2.7,477.2,2.8L477.2,2.8z M268.5,3.1l0.7-0.2c0,0.2,0,0.5-0.1,0.7
	L268.5,3.1L268.5,3.1z M275.2,3.5c-0.1,0-0.1-0.2-0.1-0.3c0.3-0.1,0.7-0.1,1-0.2c0.6,0,1.2,0,1.9,0.1c-0.6,0.1-1.2,0.2-2.1,0.3h-0.5
	C275.3,3.5,275.2,3.5,275.2,3.5L275.2,3.5z M482.2,3.2c-0.2,0-0.2-0.3-0.4-0.4c0.2-0.1,0.4-0.1,0.6-0.2c0.9,0.1,1.8,0.2,2.7,0.3
	c-0.3,0.4-0.8,0.6-1.3,0.5C483.3,3.5,482.7,3.4,482.2,3.2L482.2,3.2z M271.2,3.1c0,0-0.1-0.1,0-0.2c0.2,0,0.5,0,0.7-0.1
	c0.6-0.1,1.1-0.2,1.6,0.4c0,0.1,0.1,0.2,0.1,0.3C272.8,3.4,272,3.3,271.2,3.1L271.2,3.1z M466.3,3.4c-0.2-0.7,0.1-0.8,0.6-0.8
	l1.8,0.1c-0.1,0.2-0.1,0.7-0.2,0.7c-0.3,0-0.6,0-1,0C467.1,3.4,466.7,3.4,466.3,3.4L466.3,3.4z M301.1,3.4c0-0.1,0.1-0.1,0.3-0.2
	C301.3,3.3,301.2,3.4,301.1,3.4L301.1,3.4z M303.7,3.3c0.2-0.2,0.4-0.3,0.6-0.3c0,0,0,0.2,0.1,0.3c-0.1,0-0.2,0-0.4,0
	C303.9,3.3,303.8,3.3,303.7,3.3L303.7,3.3z M249,2.7c-0.8-0.1-1.3-0.6-2.4-0.2c-1.3,0.4-2.9-0.2-4.4-0.4c-0.1,0-0.2-0.2-0.3-0.2
	c-0.5-0.1-0.9-0.1-1.4-0.2c0.6-0.1,1.3-0.4,1.7-0.2c0.3,0.1,0.7,0.1,1,0.1c0.2,0,0.4-0.1,0.5-0.1c2.4,0.2,4.9,0,7.3,0.7
	c0.2,0.1,0.2,0.5,0.2,0.8c-0.2,0.2-0.5,0.2-0.7,0.2C250,3.2,249.5,2.7,249,2.7L249,2.7z M290.3,3.2c-0.1-0.2-0.1-0.4,0-0.7l0.7,0.6
	c-0.1,0-0.3,0-0.4,0C290.5,3.2,290.4,3.2,290.3,3.2L290.3,3.2z M485.4,2.6c0,0.1,0,0.3-0.1,0.4C485.3,2.9,485.3,2.7,485.4,2.6
	L485.4,2.6z M471,2.5c0.1,0.1,0.1,0.3,0,0.4C470.9,2.8,470.8,2.6,471,2.5L471,2.5z M321.8,2.2l0.3-0.1c0.1,0.2,0.1,0.4,0,0.6
	C321.9,2.6,321.8,2.4,321.8,2.2L321.8,2.2z M356.3,2.7c0-0.2,0.1-0.4,0.3-0.6c0.1,0.2,0.1,0.4,0,0.6L356.3,2.7L356.3,2.7z
	 M254.8,2.7c-0.5-0.1-1.3-0.3-0.5-1.2c0.4,0.1,0.8,0.1,1.2,0.2C255.3,2,254.9,2.7,254.8,2.7L254.8,2.7z M462.5,2.4
	c0.1,0,0.1,0.2,0.1,0.3C462.5,2.6,462.5,2.5,462.5,2.4L462.5,2.4z M450.8,2.5c-0.6-0.1-1.1-0.3-1.6-0.5c0.3-0.8,0.8-0.6,1.2-0.4
	c0.2,0.1,0.5,0.2,0.7,0.2c0.1,0.1,0.1,0.2,0.1,0.4C451.1,2.3,450.9,2.6,450.8,2.5L450.8,2.5z M459.8,2.3c0.3,0,0.5,0.1,0.8,0.1H459
	C459.2,2.4,459.5,2.3,459.8,2.3L459.8,2.3z M406.7,2c0.1,0.1,0.1,0.3,0,0.4C406.6,2.3,406.5,2.2,406.7,2z M237,1.9
	c0.6-0.2,1.1-0.3,1.7-0.2v0.4h-0.6C237.8,2.1,237.4,2,237,1.9z M204.8,1.8c0-0.1,0.1-0.1,0.3-0.2C205,1.7,204.9,1.8,204.8,1.8
	L204.8,1.8z M209.4,1.3c0.1,0.1,0.1,0.3,0,0.4C209.3,1.6,209.2,1.5,209.4,1.3z M263.2,0.5c0.1,0.3,0.1,0.5,0.2,0.8
	c-0.2,0.2-0.6,0.3-0.9,0.2C262.7,1.1,262.9,0.8,263.2,0.5L263.2,0.5z M221.5,1.5c-0.3,0-0.6-0.1-0.8-0.3c0.2-0.1,0.5-0.2,0.7-0.1
	c0.2,0.1,0.3,0.1,0.4,0.2C221.8,1.3,221.7,1.5,221.5,1.5L221.5,1.5z M276.2,1.3c-0.3-0.1-0.5-0.2-0.8-0.4c0.2-0.2,0.5-0.4,0.7-0.5
	c0.3-0.2,0.7-0.4,1.1-0.4h0.1c0.4,0,0.7,0.4,1.1,1.3c-0.4,0.1-0.8,0.1-1.2,0.1C276.9,1.4,276.5,1.4,276.2,1.3L276.2,1.3z M225.9,1.2
	c0-0.1,0.1-0.1,0.3-0.2C226.1,1.2,226,1.2,225.9,1.2L225.9,1.2z M163.7,0.6c0-0.2,0.1-0.5,0.3-0.6c0.1,0.2,0.1,0.4,0,0.6
	C163.9,0.6,163.7,0.6,163.7,0.6L163.7,0.6z"/>
</svg>
