<?xml version="1.0" encoding="utf-8"?>
<!-- Generator: Adobe Illustrator 26.5.0, SVG Export Plug-In . SVG Version: 6.00 Build 0)  -->
<svg version="1.1" id="Laag_1" xmlns="http://www.w3.org/2000/svg" xmlns:xlink="http://www.w3.org/1999/xlink" x="0px" y="0px"
	 viewBox="0 0 30 30" style="enable-background:new 0 0 30 30;" xml:space="preserve">
<style type="text/css">
	.st0{fill:#FFFFFF;}
</style>
<path class="st0" d="M6.2,5C5.5,5,5,5.5,5,6.2c0,0.3,0.1,0.7,0.4,0.9l7.9,7.9l-7.9,7.9c-0.5,0.5-0.5,1.3,0,1.8s1.3,0.5,1.8,0
	c0,0,0,0,0,0l7.9-7.9l7.9,7.9c0.5,0.5,1.3,0.5,1.8,0s0.5-1.3,0-1.8c0,0,0,0,0,0L16.8,15l7.9-7.9c0.5-0.5,0.5-1.3,0-1.8
	C24.4,5.1,24.1,5,23.7,5c-0.3,0-0.6,0.1-0.9,0.4L15,13.2L7.1,5.4C6.9,5.1,6.6,5,6.2,5z"/>
</svg>
