<svg xmlns="http://www.w3.org/2000/svg" width="40" height="40" viewBox="0 0 40 40"><g transform="translate(-290 -2329.139)"><path d="M1059.651,937.832l-.1-.008a.222.222,0,0,1,.1.117,280.7,280.7,0,0,1,.221.218,4.755,4.755,0,0,1,.442.545.207.207,0,0,1,.11.109l.1.008a.222.222,0,0,1-.1-.117.208.208,0,0,1-.11-.109c-.144-.166-.1-.5-.442-.545a280.7,280.7,0,0,0-.221-.218m2.319.436-.1-.008a.224.224,0,0,1,.1.117l.1.008a.223.223,0,0,1-.1-.117m-5.741,1.853-.1-.008a.224.224,0,0,1,.1.117l.1.008a.223.223,0,0,1-.1-.117m1.214.981a.207.207,0,0,1-.11-.109c-.085-.091-.17-.182-.257-.271,0,0-.028.015-.043.023.069.089.136.179.209.264.019.022.06.026.091.093a568.643,568.643,0,0,1,.221.218l.1.008a.223.223,0,0,1-.1-.117.207.207,0,0,1-.11-.109m5.741,6.868-.1-.008a.223.223,0,0,1,.1.117l.1.008a.223.223,0,0,1-.1-.117m18.328-25.182.1.008a.222.222,0,0,1-.1-.117.8.8,0,0,1-.111-.218l.078-.142c.121.167.248.332.362.5.07.105.121.222.181.334a2.175,2.175,0,0,0,.034-.416c-.007-.074-.1-.138-.143-.211-.136-.215-.268-.433-.4-.65-.024-.038-.034-.1-.067-.114a1.14,1.14,0,0,0-.291.448,2.394,2.394,0,0,1,.247.356.8.8,0,0,1,.111.218m-27.161,18.641a.208.208,0,0,1-.11-.109c-.047-.055-.085-.131-.145-.158-.09-.041-.248-.014-.288-.074a4.516,4.516,0,0,1-.654-1.089c-.27-.862-.842-1.578-1.124-2.427-.016-.049-.084-.081-.128-.121-.03.072-.089.147-.082.215a.7.7,0,0,0,.11.279,13.113,13.113,0,0,1,.9,2.027,3.056,3.056,0,0,0,.723,1.234,2.078,2.078,0,0,1,.354.611c.039.074.037.173.086.236.279.36.582.7.851,1.069.3.411.8.652.98,1.168.024.068.17.111.267.128.034.006.137-.133.125-.152a2.171,2.171,0,0,0-.514-.7,4.59,4.59,0,0,1-1.24-1.465c-.156-.224-.3-.457-.439-.692-.017-.029.028-.093.044-.141a.45.45,0,0,1,.172.157.208.208,0,0,1,.11.109l.03.139.072-.022a.9.9,0,0,1-.1-.226m9.164-4.579-.1-.008a.223.223,0,0,1,.1.117l.177.044.016-.071a.3.3,0,0,1-.193-.081m8.17-23.22-.323-.008.271.062c.017,0,.035,0,.052.055l.323.008-.271-.062c-.017,0-.035,0-.052-.055M1063.4,945.9l.1.008a.223.223,0,0,1-.1-.117c-.087-.055-.173-.11-.262-.16-.006,0-.038.041-.058.062a1.061,1.061,0,0,1,.32.207m.331-10.247.1.008a.222.222,0,0,1-.1-.117c-.087-.055-.173-.11-.262-.16-.005,0-.038.041-.058.062a1.062,1.062,0,0,1,.32.207m-5.631,2.834-.1-.008a.223.223,0,0,1,.1.117,1.7,1.7,0,0,1,.221.327l.1.008a.223.223,0,0,1-.1-.117,1.7,1.7,0,0,1-.221-.327m-.442,0-.1-.008a.223.223,0,0,1,.1.117l.155.262c.022-.02.066-.05.063-.058a1.513,1.513,0,0,0-.126-.219c-.016-.023-.06-.027-.091-.094m15.237-25.291c-.117-.018-.233-.045-.35-.051a.722.722,0,0,0-.193.043.689.689,0,0,0,.171.06,1.069,1.069,0,0,1,.373.057,1.974,1.974,0,0,0,.228.112.864.864,0,0,0,.187.024c-.047-.064-.08-.157-.143-.183-.078-.032-.18-.008-.271-.062m8.281,9.7-.1-.008a.222.222,0,0,1,.1.117.368.368,0,0,0,0,.1.451.451,0,0,0,.073.166c.012.014.126-.022.126-.038a.283.283,0,0,0-.042-.174c-.037-.049-.105-.075-.16-.165m2.65.327c.037-.093.078-.185.106-.281,0-.016-.051-.048-.078-.073.079.142-.329.252-.028.463.034.1-.1.278.141.272a1.541,1.541,0,0,0,.156-.02,2.753,2.753,0,0,0-.166-.228c-.032-.036-.086-.053-.131-.133M1074,913.958l-.177-.044-.016.071a.3.3,0,0,1,.193.081,2.322,2.322,0,0,1,.552.218l.1.008a.222.222,0,0,1-.1-.117,2.325,2.325,0,0,1-.552-.218m-11.262,31.069-.128-.163-.093.095a.634.634,0,0,1,.221.178l.528.242a.479.479,0,0,0,.022-.094c-.164-.071-.33-.136-.5-.2-.016-.006-.036,0-.054-.055m3.423,1.417.177.044.016-.071a.3.3,0,0,1-.193-.081c-.237-.053-.365-.364-.662-.327l-.1-.008a.223.223,0,0,1,.1.117c.237.053.365.364.662.327m-6.4-7.522.376.273.065-.129a1.829,1.829,0,0,1-.442-.253,6.809,6.809,0,0,1-.442-.654c-.051-.086-.1-.175-.153-.259s-.1-.136-.151-.2c.007.1-.019.215.027.286.063.1.182.156.277.286a1.078,1.078,0,0,0,.442.654m-1.987.763.1.008a.224.224,0,0,1-.1-.117,2.283,2.283,0,0,0-.269-.364c-.078-.073-.014-.335-.244-.2a1,1,0,0,0,.16.314c.1.116.234.2.353.357m2.65-1.417-.1-.008a.222.222,0,0,1,.1.117c.175.173.349.347.526.517a.382.382,0,0,0,.113.051c0-.048.025-.1.008-.143a.857.857,0,0,0-.647-.534m20.923,4.088a2.894,2.894,0,0,0,.344-.35,1.579,1.579,0,0,0,.144-.367c-.078.082-.163.159-.232.248-.115.149-.355.218-.368.469a.388.388,0,0,0-.1,0,.466.466,0,0,0-.168.072c-.014.012.022.124.039.125a.294.294,0,0,0,.177-.041c.05-.036.075-.1.167-.158m3.92-20.549.1.008a.223.223,0,0,1-.1-.117,1.8,1.8,0,0,0-.552-.763.586.586,0,0,0-.08-.183c-.188-.2-.392-.379-.578-.578-.3-.325-.582-.672-.9-.983a.793.793,0,0,0-.7-.157c-.059.009-.106.092-.159.14a1.255,1.255,0,0,0,.155.071c.26.08.589.083.767.247a13.1,13.1,0,0,1,1.154,1.3.543.543,0,0,0,.336.253,1.316,1.316,0,0,0,.552.763m-2.484,18.587c.132.164.048.283-.073.409-.029.031.005.121.01.184.064-.022.163-.026.185-.069a1.3,1.3,0,0,0,.148-.418c.03-.243-.01-.253-.381-.106l-.044.174.072.016a.291.291,0,0,1,.082-.19m-24.015-2.126-.03-.139-.072.022a.891.891,0,0,1,.1.226c.088.427.454.641.729.924.016.017.068,0,.1,0,0-.038,0-.089-.017-.111-.27-.291-.544-.577-.816-.919m27.6-10.138-.1-.008a.223.223,0,0,1,.1.117c.087.376.17.754.266,1.128.011.042.1.066.148.1.009-.05.039-.108.024-.149-.142-.379-.291-.755-.438-1.186m-7.839-13.518a.978.978,0,0,1-.14-.056,1.083,1.083,0,0,1-.124-.1c-.092.132-.219-.285-.267.012-.007.042.273.131.422.193.031.013.072,0,.109.056a2.6,2.6,0,0,0,1.058.705c.041.011.1-.025.145-.04-.018-.025-.03-.061-.055-.075-.38-.219-.672-.593-1.148-.7m-12.256,31.505c.115.185.3.176.481.161.022,0,.04-.041.06-.063-.162-.051-.324-.1-.486-.152-.017-.005-.036,0-.055-.055-.493-.269-.985-.539-1.481-.8-.036-.019-.1.008-.147.013.021.038.031.091.063.113a4.886,4.886,0,0,0,1.565.786m13.8-30.415-.128-.163-.093.095a.633.633,0,0,1,.221.178c.337.326.85.435,1.106.866a.19.19,0,0,0,.143-.038.145.145,0,0,0-.012-.144c-.326-.26-.675-.493-.982-.773-.147-.134-.166.083-.255-.019m2.65,4.47-.372-.382c-.023.023-.071.055-.066.069a.533.533,0,0,0,.438.422c.038.111.075.222.115.332a.409.409,0,0,0,.535.266.47.47,0,0,0,.123-.071.635.635,0,0,0-.107-.143c-.352-.266-.379-.278-.178-.629.092-.161.054-.235-.06-.294-.028-.015-.153.109-.2.188-.032.053.022.163-.013.207a.2.2,0,0,1-.214.036m.607,20.767c.177-.17.325-.211.415.08a.814.814,0,0,0,.115.223c.128.183.25.182.378,0a.728.728,0,0,0,.078-.184c.021-.06.033-.123.049-.185a.875.875,0,0,0-.154.074c-.082.061-.156.131-.234.2a1.976,1.976,0,0,1-.034-.362.47.47,0,0,1,.109-.223c.051-.066.151-.124.018-.19a1.581,1.581,0,0,0-.294-.082.712.712,0,0,0-.04.181c.008.194.007.211-.166.161-.324-.093-.316.1-.352.311a4.48,4.48,0,0,1-.714.816c-.05.049-.163.081-.04.194.1.095.141.041.2-.025.193-.225.395-.444.57-.682.053-.073.03-.2.1-.3m.276-20.658-.1-.008a.222.222,0,0,1,.1.117,1.5,1.5,0,0,0,.118.223,14.014,14.014,0,0,1,1.03,1.372,6.014,6.014,0,0,0,.64.928.615.615,0,0,0,.191.1.631.631,0,0,0-.027-.253,7.126,7.126,0,0,0-.408-.594,8.529,8.529,0,0,0-1.545-1.887m-20.04,27.526c.742.333,1.491.65,2.222,1a10.763,10.763,0,0,0,1.654.52c.04.012.1-.027.145-.042-.033-.038-.059-.1-.1-.112-.146-.048-.3-.067-.445-.121a21.672,21.672,0,0,1-2.89-1.249c-.657-.36-1.316-.717-1.964-1.093-.313-.182-.6-.415-.9-.605-.072-.044-.195-.007-.294-.007a.954.954,0,0,0,.163.19c.27.184.543.363.822.534.51.313,1.025.619,1.593.982m22.138-23.6c-.11-.19-.214-.385-.333-.569-.15-.232-.116-.584-.466-.69-.041-.012-.066-.1-.083-.162-.162-.582-.651-.959-.945-1.459-.062-.1-.22-.159-.342-.221-.032-.016-.1.018-.14.046a.1.1,0,0,0-.008.1c.222.224.36.526.559.737a3.478,3.478,0,0,1,.537.709c.145.268.486.38.5.772a1.487,1.487,0,0,0,.411.742,1.4,1.4,0,0,1,.232.452,4.113,4.113,0,0,0,.344.673c.026.045.1.063.152.093.008-.069.049-.175.018-.2-.281-.244-.277-.615-.437-1.021m.828-2.017a6.728,6.728,0,0,1-.383-.6,14.493,14.493,0,0,0-1.8-2.417,2.551,2.551,0,0,0-.352-.344.147.147,0,0,0-.141.019.142.142,0,0,0-.016.14,6.945,6.945,0,0,0,.544.647,16.061,16.061,0,0,1,2.089,2.844c.1.154.188.316.281.474.154-.257-.073-.408-.168-.6a.506.506,0,0,0-.057-.162m-29.48,17.224c-.117-.188-.231-.378-.353-.562-.022-.033-.075-.045-.114-.067a.412.412,0,0,0-.026.15.665.665,0,0,0,.083.183,5.959,5.959,0,0,0,1.324,1.742.4.4,0,0,0,.116.044c0-.049.019-.113-.005-.145-.32-.433-.646-.861-1.025-1.345m-5.852-3.925c-.129-.4-.251-.8-.392-1.195-.027-.077-.123-.131-.187-.2a.73.73,0,0,0-.015.254c.135.432.28.86.431,1.287a3.62,3.62,0,0,0,.182.377c.012-.121.025-.243.036-.364a.244.244,0,0,0-.055-.163m30.584-18.75c-.146-.015-.234.073-.14.177.285.315.6.6.907.9.013.012.167-.075.162-.1a.492.492,0,0,0-.115-.27c-.244-.226-.5-.433-.813-.7m-7.729-2.289a.194.194,0,0,0,.038-.039c0-.009,0-.034-.006-.036-.562-.194-1.124-.39-1.69-.573-.074-.024-.171.021-.258.033.093.06.188.175.278.171.566-.028.988.4,1.638.445m4.748,1.417.265.066c-.038-.058-.062-.142-.116-.171-.358-.19-.721-.369-1.085-.546-.021-.01-.062.021-.094.032a.365.365,0,0,0,.039.076c.1.109.174.259.3.315.2.09.424.119.694.228m-11.759,30.8-.252-.054-.19-.038c.034.049.058.124.1.143.376.153.754.3,1.136.436a.672.672,0,0,0,.273,0,.58.58,0,0,0,.142-.052c-.047-.018-.094-.038-.142-.054-.339-.11-.678-.218-1.072-.382m15.4-23.6c.092.106.185.212.276.32.026.031.048.067.072.1.013-.049.052-.111.035-.144-.173-.326-.353-.649-.537-.969-.013-.022-.074-.017-.113-.024a.268.268,0,0,0-.007.1,4.63,4.63,0,0,0,.274.613m.883-.218.227.1c.007-.062.037-.133.016-.184a.83.83,0,0,0-.194-.35,2.255,2.255,0,0,0-.478-.224c.06.1.118.2.18.3a3.932,3.932,0,0,0,.249.356m-7.894-8.667c-.139-.1-.276-.2-.417-.3a.552.552,0,0,0-.114-.047c0,.049-.023.111,0,.143.1.141.321.354.292.4-.135.188-.008.273.107.289.226.031.1-.168.131-.265a1.171,1.171,0,0,0,0-.216m-19.156,30.469c.089.088.164.215.271.254a.983.983,0,0,0,.419.024c.039-.238-.123-.28-.324-.281a1.212,1.212,0,0,0-.366,0m2.981,1.962c-.127.381.252.373.424.513.054.044.189-.008.287-.016a1,1,0,0,0-.173-.178c-.156-.1-.322-.177-.538-.319m5.741-.436c-.055.045-.165.116-.158.131.156.315.524.256.775.411.015.009.058-.025.088-.039l-.565-.393a1.184,1.184,0,0,1-.14-.109m16.893-6c.125-.087.246-.179.375-.259.179-.111.08-.211-.028-.264-.226-.11-.39,0-.4.252a.541.541,0,0,0,.055.271m2.043-12.373a.559.559,0,0,0,0-.214c-.077-.167-.175-.325-.264-.487-.213.175.026.3.051.454a2.325,2.325,0,0,0,.136.484c.02.049.122.064.187.095a1.177,1.177,0,0,1-.105-.332m2.871,10.356c.1-.173.213-.342.3-.522a.478.478,0,0,0,.025-.255c-.006-.053-.061-.1-.094-.149-.04.042-.116.085-.115.127a.643.643,0,0,1-.157.427c-.071.094-.015.282.04.373m-28.376,1.526c-.056.057-.161.114-.025.189.041.022.126.032.15.008.185-.184.153-.278-.241-.631a1.082,1.082,0,0,0-.3-.134l.34.383c.024.027.051.051.077.186m13.084-26.872a.574.574,0,0,0-.161.086c-.014.014.025.121.052.126.235.046.471.08.708.112.03,0,.063-.019.094-.029-.022-.038-.036-.1-.069-.109a3.54,3.54,0,0,0-.625-.186m11.593,5.451a.991.991,0,0,0,.157.15.722.722,0,0,0,.186.056.777.777,0,0,0-.069-.153c-.113-.154-.229-.307-.354-.452-.026-.03-.1-.023-.146-.033-.008.062-.044.139-.019.182a1.564,1.564,0,0,0,.244.25m-7.232-3.761c.051.05.094.121.155.146a1.407,1.407,0,0,0,.287.056.974.974,0,0,0-.13-.317.476.476,0,0,0-.308-.148c-.17,0-.134.111,0,.263m2.981,1.744a5.51,5.51,0,0,0,.494.264c.032.013.15-.076.158-.127s-.057-.176-.1-.183a1.407,1.407,0,0,0-.549.046m2.926,25.019a.194.194,0,0,0-.037.038.053.053,0,0,0,0,.035,4.513,4.513,0,0,0,.469.031,1.32,1.32,0,0,0,.282-.068c-.016-.046-.021-.124-.05-.134a.959.959,0,0,0-.366-.081c-.067,0-.127.115-.3.177m-.221-23.111a.759.759,0,0,0,.161,0,2.177,2.177,0,0,0,.225-.074c-.043-.071-.1-.208-.126-.2a4.753,4.753,0,0,0-.536.145.621.621,0,0,0,.276.135m-18.715,29.6c-.238-.162-.474-.328-.717-.483-.03-.019-.1.016-.144.025a.229.229,0,0,0,.033.075.985.985,0,0,0,.828.383m22.745-23.983c.026.026.049.068.079.074a.486.486,0,0,0,.262.016c.174-.087.034-.185-.039-.218-.12-.054-.02-.351-.258-.228-.046.023-.031.162-.044.357m-21.53,21.912c-.026-.025-.047-.064-.077-.073-.157-.048-.316-.088-.475-.131.128.122.253.248.392.358.01.008.241.137.16-.154m21.972-23.329c-.037-.055-.075-.11-.11-.167-.122-.192-.362-.265-.315-.16a2.313,2.313,0,0,0,.329.448.427.427,0,0,0,.115.109c.017.01.089-.03.087-.039a.479.479,0,0,0-.106-.192m-5.962-5.451a3.123,3.123,0,0,0-.151-.356c-.01-.018-.166.012-.167.025a.92.92,0,0,0,.022.351c.012.035.157.025.3-.02m.718.272c-.039-.074-.059-.177-.12-.217a1.088,1.088,0,0,0-.325-.1c-.01,0-.054.072-.049.077a3.483,3.483,0,0,0,.279.241c.022.017.069,0,.215,0m0,21.258-.147.036a.365.365,0,0,0,.6.166.153.153,0,0,0,.038-.138.151.151,0,0,0-.125-.061,1.052,1.052,0,0,1-.366,0m-3.809-23.492c.034.094-.091.287.127.263.111-.012.288-.116.3-.2.03-.21-.168-.087-.266-.118-.032-.01-.07,0-.161.053m4.03,2.453c-.158-.027-.192.07-.159.184a.232.232,0,0,0,.152.137,1.614,1.614,0,0,0,.374,0,.388.388,0,0,0,.124-.057c-.047-.016-.093-.035-.141-.048-.113-.03-.312.093-.351-.219m-29.535,19.459.156.154c.022-.057.073-.124.059-.17a2.064,2.064,0,0,0-.166-.367c-.022-.041-.075-.065-.114-.1-.015.048-.052.1-.041.144a2.4,2.4,0,0,1,.106.337m30.694-18.423c.188.1.224.424.53.349-.138-.151-.275-.3-.418-.451-.019-.02-.074-.005-.112.1M1071.63,947.7c-.165-.036-.329-.075-.494-.107-.028-.005-.062.021-.093.032.03.025.057.065.091.072.2.041.4.075.6.112,0-.036,0-.073-.1-.109m11.759-24.256-.19-.248a.9.9,0,0,0,.019.288.572.572,0,0,0,.188.189c.013.01.09-.029.089-.035a.5.5,0,0,0-.106-.193m2.981-.218a1.908,1.908,0,0,0,.113.225,1.242,1.242,0,0,0,.147.157c.007-.071.044-.159.015-.209a.37.37,0,0,0-.275-.173m-5.079,16.025c.126.242.277.04.418.024-.027-.062-.066-.181-.079-.178a1.042,1.042,0,0,0-.338.154m-8.115-26.654c.055-.045.165-.116.157-.132a.29.29,0,0,0-.424,0c-.008.016.1.087.267.132m8.612,5.669-.258.182c.068.049.159.152.2.135.127-.052.322-.106.058-.317m5.355,18.587-.034-.251a.244.244,0,0,0-.185.305c.029.168.122.129.219-.054m-2.429-12.428a.254.254,0,0,0-.076.356c.01.019.087.027.088.024a1.885,1.885,0,0,0,.094-.3c.007-.04-.032-.088-.106-.078m-2.484-4.96c-.129-.185-.2-.021-.265.056-.017.02.042.153.07.154.109.006.282.071.2-.21m1.767,19.95c-.157-.185-.18-.069-.162.078.011.086.057.236.093.238.217.011.09-.167.069-.316m-1.546-15.48c.16.009.192-.017.072-.156a1.794,1.794,0,0,1-.2-.376c.023.141.046.282.069.423,0,.018,0,.036.056.108m-5.631-10.138c-.057.018-.232-.033-.1.107a.984.984,0,0,0,.367.156.463.463,0,0,0,.115.012c-.026-.055-.038-.136-.082-.161-.071-.039-.163-.042-.3-.115m-15.4,23.929-.19-.139c0,.061-.012.134.017.179a.605.605,0,0,0,.188.186c.046.028.12.012.181.016-.047-.063-.094-.125-.2-.242m18.715,1.254c-.036.085-.266.125-.063.262a.167.167,0,0,0,.113.012c.023,0,.025-.306-.05-.274m-21.585,1.145c.124.091.247.182.374.27a.583.583,0,0,0,.057-.062,1.056,1.056,0,0,0-.431-.208m26.443,2.017c-.149.148,0,.223.088.295.033.027.12-.009.183-.017a.621.621,0,0,0-.077-.166c-.03-.033-.091-.039-.194-.112m-20.757,2.289-.259.037c.055.06.1.141.167.174s.14,0,.212,0a.9.9,0,0,0-.121-.208m14.883-27.579h-.2l.11.111a.715.715,0,0,0,.117.112.73.73,0,0,0,.153.054,1.636,1.636,0,0,0-.161-.277m7.121,8.12a1.527,1.527,0,0,0,.222.1c.029.009.073-.031.11-.049-.08-.115-.117-.315-.331-.055m-.055-.491.1-.228-.224-.086a1.181,1.181,0,0,0,.124.314m-4.416-5.342c0-.038.01-.1-.009-.112-.11-.072-.227-.132-.342-.2a.992.992,0,0,0,.351.308m2.263,26.763a.205.205,0,0,0,.037.035.07.07,0,0,0,.035,0,2.04,2.04,0,0,0,0-.281c0-.012-.089-.016-.136-.023a.585.585,0,0,0,.06.268m-23.021,2.453c.05.023.1.069.149.063s.11-.071.107-.1c-.011-.116-.213-.094-.257.041m19.046-7.686.127.164.177-.191a.625.625,0,0,0-.3.027m4.306-16.788a.212.212,0,0,0-.037-.035.07.07,0,0,0-.035,0,2.04,2.04,0,0,0,0,.281c0,.012.089.016.136.023a.588.588,0,0,0-.06-.268m-.718-5.4-.04.287c.025,0,.063.015.073,0,.078-.082.222-.151-.033-.291m-3.478,21.094c0,.017-.007.044,0,.05.056.037.115.07.174.1q0-.159-.009-.318l-.166.163m6.735-9.266a.2.2,0,0,0,.038.036.052.052,0,0,0,.035,0c.014-.082.058-.181.027-.243s-.138-.08-.211-.118a1.082,1.082,0,0,1,.11.326m-37.154.055-.083-.3-.078.023c.055.1-.126.282.161.277m12.7,8.83c-.154.221.049.256.178.324.017.009.058-.027.088-.042a.818.818,0,0,0-.058-.075c-.05-.052-.1-.1-.208-.207m8.072-26.622v.241l.253-.032a.5.5,0,0,0-.253-.186m16.053,25.673c-.074,0-.147,0-.22.006a.514.514,0,0,0,0,.1.206.206,0,0,0,.22-.1M1072.9,913.631c-.039-.038-.071-.091-.118-.111a.691.691,0,0,0-.186-.025.63.63,0,0,0,.1.15c.035.029.1.029.2-.013m1.767.218a.376.376,0,0,0-.042-.144.639.639,0,0,0-.152-.1.669.669,0,0,0,.026.183c.02.046.074.078.168.062m1.932.927.166-.125-.094-.093a.263.263,0,0,0-.072.218m2.264,3.107.105-.223c-.026-.007-.068-.028-.075-.02-.076.085-.234.15-.03.243m8.888,8.994c-.149.148.01.213.085.3.008.009.049-.013.075-.02a1.624,1.624,0,0,0-.16-.278m-6.956-8.83.166-.125-.094-.093a.263.263,0,0,0-.072.218m-2.374.055.187.033-.127-.191a.146.146,0,0,0-.061.158m2.595.491c.039.034.11.1.112.1.149-.149-.025-.206-.09-.3a.219.219,0,0,0-.022.2m5.907,5.614-.038-.147c-.061.072-.125.142-.179.219-.009.012.029.056.046.086.039-.034.077-.069.172-.158m-7.122-5.178-.149.038c.073.06.144.124.222.177.012.009.057-.029.087-.045-.035-.038-.07-.076-.16-.169m-15.623,29.488c-.039-.038-.071-.091-.118-.111a.69.69,0,0,0-.186-.025.631.631,0,0,0,.1.15c.035.029.1.029.2-.013m19.1-26.927a.374.374,0,0,0,.042.144.64.64,0,0,0,.152.1.664.664,0,0,0-.026-.183c-.02-.046-.074-.078-.167-.062m-.442,1.2a.378.378,0,0,0,.042.144.639.639,0,0,0,.152.1.669.669,0,0,0-.026-.183c-.02-.046-.074-.078-.168-.062m-15.678,23.22.127.164.094-.093a.27.27,0,0,0-.221-.071m-10.047-.763c.039.038.071.091.118.111a.689.689,0,0,0,.186.025.634.634,0,0,0-.1-.15c-.036-.029-.1-.029-.2.013m22.8-3.107c0-.073,0-.146-.006-.218a.529.529,0,0,0-.1,0,.2.2,0,0,0,.1.218m-2.263.6.03.139.166-.164a.27.27,0,0,0-.2.025m4.361-.491.151-.178c-.028-.013-.076-.044-.082-.037a.235.235,0,0,0-.069.215m-17,2.4-.14.03.166.164a.26.26,0,0,0-.025-.193m-1.435.436-.113-.216a.216.216,0,0,0,.113.216m18.494-24.256-.03-.139-.166.164a.27.27,0,0,0,.2-.025m-.939-.382.008-.21-.172.049.163.161m-15.734,26.545c.079.018.157.041.237.052.026,0,.056-.027.085-.043a.437.437,0,0,0-.111-.061.308.308,0,0,0-.211.052m1.27.163-.113-.216a.216.216,0,0,0,.113.216m-4.527,1.635q0-.108,0-.216c-.038.072-.075.144,0,.216m1.214.654a.4.4,0,0,0-.1,0,1.7,1.7,0,0,0-.163.062.4.4,0,0,0,.137.042c.063,0,.124-.033.13-.106m7.232.273c-.079-.018-.157-.041-.237-.052-.026,0-.056.027-.085.042a.434.434,0,0,0,.111.061.309.309,0,0,0,.211-.052m2.374-35.157-.146.035c.03.025.082.075.088.07.052-.042.237.114.058-.105m8.391,26.054a.4.4,0,0,0,.1,0,1.686,1.686,0,0,0,.163-.062.4.4,0,0,0-.137-.042c-.063,0-.124.033-.13.106m-.939-4.2c-.079-.018-.157-.041-.237-.052-.026,0-.056.027-.084.043a.433.433,0,0,0,.111.061.308.308,0,0,0,.21-.052m.386,3.325-.146.035c.03.025.082.075.088.07.052-.042.237.114.058-.105m2.595-.164a.222.222,0,0,0-.037-.035c-.009-.005-.023,0-.035,0l.029.2a.151.151,0,0,0,.043-.164m-20.095-1.853a.215.215,0,0,0-.036-.035c-.009-.005-.023,0-.035,0l.029.2a.151.151,0,0,0,.043-.164m4.8.055-.14.03.166.164a.26.26,0,0,0-.025-.193m16.12.763a.23.23,0,0,0,.035-.036c.005-.009,0-.023,0-.035l-.2.028a.155.155,0,0,0,.166.043m-1.491.273c.058.015.117.031.176.042,0,0,.012-.044.019-.068a.269.269,0,0,0-.195.026m.166-1.363c.015-.058.031-.115.042-.174,0,0-.045-.012-.068-.019a.26.26,0,0,0,.026.192m-19.874-.872c.015-.058.031-.115.042-.174,0,0-.045-.012-.068-.019a.259.259,0,0,0,.026.192m12.642-23.056-.029-.138c-.024.006-.069.017-.068.019.011.058.027.116.1.119m-5.631,37.065c.058.015.117.031.176.042,0,0,.012-.044.019-.068a.269.269,0,0,0-.195.026m-2.54-.763c-.058-.015-.117-.031-.176-.042,0,0-.012.044-.019.068a.27.27,0,0,0,.195-.026m-1.491-.491.055.109c.018-.036.037-.073-.055-.109m-5.355-20.767c-.058-.015-.117-.031-.176-.042,0,0-.012.044-.019.068a.269.269,0,0,0,.195-.026m15.292-13.681.055.109c.018-.036.037-.073-.055-.109m5.3,25.836c-.015.058-.031.115-.042.174,0,0,.045.012.068.019a.26.26,0,0,0-.026-.192m-1.049-22.839c.058.015.117.031.176.042a.69.69,0,0,0,.019-.068.269.269,0,0,0-.195.026m6.183,8.285-.029-.138c-.024.006-.069.017-.068.019.011.058.027.116.1.119m-4.251-7.358.055.109c.018-.036.037-.073-.055-.109m3.864,22.348-.14.029c.006.023.017.068.019.068.059-.011.118-.027.121-.1m-3.92-17.5-.029-.138c-.024.006-.069.017-.068.019.011.058.027.116.1.119m-1.1-4.034c.058.015.117.031.176.042,0,0,.012-.044.019-.068a.269.269,0,0,0-.195.026m-20.592,25.128-.055-.109c-.018.036-.037.073.055.109m4.968-.654.14-.029c-.006-.024-.017-.068-.019-.068-.059.011-.118.027-.121.1m9.992-1.036-.029-.138c-.024.006-.069.017-.068.019.011.058.027.116.1.119m-5.962,7.413.066.044c0-.033-.008-.065-.066-.044m-4.141-4.524.044-.065c-.033,0-.066.007-.044.065m-6.128-.054-.066-.044c0,.033.007.065.066.044m6.956-.327.066.044c0-.033-.007-.065-.066-.044m-1.656-.109-.066-.044c0,.033.007.065.066.044m-4.693-.491-.044.065c.033,0,.066-.007.044-.065m19.929-2.235-.066-.044c0,.033.007.065.066.044m-.828-.055-.044.065c.033,0,.066-.007.044-.065m1.546-.545.044-.065c-.033,0-.066.007-.044.065m-25.726,0,.044-.065c-.033,0-.066.007-.044.065m31.522-.491.066.044c0-.033-.007-.065-.066-.044m-5.521-.327-.066-.044c0,.033.007.065.066.044m-23.9-1.145-.044.065c.033,0,.066-.007.044-.065m25.781-.164.066.044c0-.033-.007-.065-.066-.044m-24.732-.872.066.044c0-.033-.007-.065-.066-.044m-2.153-.6-.044.065c.033,0,.066-.007.044-.065m26.333-.491-.066-.044c0,.033.007.065.066.044m-.331,0,.066.044c0-.033-.007-.065-.066-.044m-13.194-26.218.044-.065c-.033,0-.066.007-.044.065m12.09,24.038-.066-.044c0,.033.007.065.066.044m-18.88-22.566.066.044c0-.033-.007-.065-.066-.044m13.746,4.742-.044.065c.033,0,.066-.007.044-.065m8.557,6.377.066.044c0-.033-.007-.065-.066-.044m-1.325,0,.066.044c0-.033-.008-.065-.066-.044m-1.435-3.379.066.044c0-.033-.007-.065-.066-.044m4.692,1.581-.044.065c.033,0,.066-.007.044-.065m-2.043,24.174c-.408-.04-.593.318-.844.5-.49.362-.9.823-1.374,1.214a5.815,5.815,0,0,1-1.588.815c-.817.333-1.632.672-2.46.978a8.207,8.207,0,0,1-2.317.67c-.823.053-1.627.268-2.455.341-.5.044-1,.057-1.5.088-.225.014-.448.1-.672.1a11.107,11.107,0,0,1-2.743-.428,7.326,7.326,0,0,0-1.012-.216,9.874,9.874,0,0,1-3.165-.878c-.347-.169-.725-.258-.948-.66-.1-.183-.469-.258-.731-.311a3.456,3.456,0,0,1-1.157-.527c-.577-.366-1.082-.842-1.631-1.253q-1.025-.767-2.073-1.5a13.53,13.53,0,0,1-2.159-1.818c-.246-.265-.409-.6-.654-.872-.576-.631-.868-1.438-1.373-2.113a5.476,5.476,0,0,1-.5-.939c-.384-.805-.685-1.645-1.054-2.458a13.063,13.063,0,0,1-1.05-2.949c-.085-.45-.216-.891-.327-1.337-.012-.049-.014-.122-.047-.141-.4-.243-.256-.733-.495-1.057-.122-.166.073-.389,0-.615a2.276,2.276,0,0,1-.109-.93c.057-.45-.051-.955.351-1.327a.344.344,0,0,0,.069-.291,5.343,5.343,0,0,1,.023-1.383c-.007-.35.2-.7.193-1.054a11.127,11.127,0,0,1,.683-2.779,8.526,8.526,0,0,1,1.663-3.079c.285-.37.527-.774.828-1.13a6.628,6.628,0,0,1,.922-.911,11.026,11.026,0,0,0,1.994-1.884,1.53,1.53,0,0,1,.556-.515c.383-.156.543-.516.839-.74.6-.453,1.2-.9,1.807-1.349.367.069.474-.367.824-.4a3,3,0,0,0,.892-.357,11.81,11.81,0,0,1,1.259-.555c.584-.182,1.158-.4,1.738-.592a.344.344,0,0,1,.218,0c.392.158.707-.074,1.047-.187.408-.135.8-.4,1.252-.056.128.1.392.027.593.019s.083-.081.029-.146a1.432,1.432,0,0,1-.1-.153.556.556,0,0,1,.154-.024c.243.031.484.085.728.1.114.007.315.1.318-.16a.492.492,0,0,1,.243-.048,20.786,20.786,0,0,1,2.5.219.74.74,0,0,1,.318.155.961.961,0,0,1,.161.258c.026-.086.026-.208.084-.248a.377.377,0,0,1,.3-.053c.668.265,1.464.125,2.052.635a16.071,16.071,0,0,1,3.069,1.1,10.963,10.963,0,0,1,2.712,1.433c.626.458,1.294.86,1.939,1.292a4.275,4.275,0,0,1,.544.412c.874.817,1.776,1.609,2.6,2.477.408.433.725.974,1.1,1.441a11.5,11.5,0,0,1,1.41,2.322,11.872,11.872,0,0,1,1.175,3.445,11.407,11.407,0,0,0,.351,1.325c.073.281.136.564.189.849a18.675,18.675,0,0,1,.3,5.147,6.353,6.353,0,0,1-.3,2.483,10.482,10.482,0,0,1-.626,2.468,2.848,2.848,0,0,0-.035.585,1.087,1.087,0,0,1-.321.85.828.828,0,0,0-.229.776,1.352,1.352,0,0,1-.522,1.253,6.2,6.2,0,0,0-1.249,1.785,10.827,10.827,0,0,1-1.288,1.654c-.212.245-.563.434-.6.838-.013.128-.206.238-.316.384m-32.682-9.157c-.324-.087-.421-.4-.505-.659a8.774,8.774,0,0,0-.354-.893c-.13-.288-.1-.64-.348-.9-.034-.036.027-.161.043-.245.063.059.157.107.183.179a8.858,8.858,0,0,1,.661,1.695C1050.873,937.094,1051.165,937.3,1051.149,937.641Zm-1.629-4.143a1.8,1.8,0,0,1,.01-.392c.127.078.338.133.367.238a12.741,12.741,0,0,1,.253,1.254c.006.034-.04.077-.061.116-.039-.038-.1-.07-.113-.116a1.389,1.389,0,0,1-.14-.533C1049.866,933.8,1049.7,933.677,1049.52,933.5Zm1.849,5.151a.25.25,0,0,1,.188-.083c.01,0,.036.061.031.09-.046.275.372.448.168.755C1051.628,939.176,1051.5,938.94,1051.37,938.649Zm-.221-.954a1.163,1.163,0,0,1,.106.262c.01.04-.026.091-.041.137a.815.815,0,0,1-.062-.164A1.645,1.645,0,0,1,1051.149,937.7Zm33.675,8.258a.331.331,0,0,1,.218.057A.331.331,0,0,1,1084.824,945.953Zm-32.544-5.478a.23.23,0,0,1,.148-.069s.012.044.019.068A.34.34,0,0,1,1052.281,940.475Zm31.55,6.377a.46.46,0,0,1,.193,0l-.016.071A.483.483,0,0,1,1083.831,946.853Zm1.408-1.036c-.031-.005-.035-.038-.039-.071A.065.065,0,0,1,1085.238,945.817Zm-32.406-4.633c.031.005.035.038.039.071A.065.065,0,0,1,1052.833,941.184Zm-.773-1.036c.005-.031.039-.035.072-.038A.066.066,0,0,1,1052.06,940.148Z" transform="translate(-759.385 1417.631)" fill="#f7a600"></path><g transform="translate(-28.707 3316.11)"><g transform="translate(335.789 -976.569)"><path d="M576.8-975l.291.193.814,1.587,1.511-1.623-.891-.956-.078-.341-.3-.085-.042-.339a1.851,1.851,0,0,0-1.63,1.128l.309.155Z" transform="translate(-576.479 976.569)" fill="#fff"></path><path d="M704.749-825.78l-5.61-8.11-1.932-1.057-1.118-1.2-1.72,3.355.364,1.948,5.61,8.11C702.2-821.948,704.913-823.774,704.749-825.78Z" transform="translate(-690.838 840.354)" fill="#fff"></path></g><path d="M328.357-961.045c-.105,2.017,2.534,3.942,4.364,3.1l5.717-8.035.336-2.176,2.894-5.646.294-.189-.021-.307.3-.155a1.851,1.851,0,0,0-1.615-1.149l-.04.343-.261.106-.082.339-4.315,4.635-1.857,1.094Z" transform="translate(0 -0.943)" fill="#fff"></path></g></g></svg>