<svg width="800" height="600" xmlns="http://www.w3.org/2000/svg" preserveAspectRatio="none">

    <g>
        <title>Layer 1</title>
        <path id="svg_1" fill="#cc0000"
            d="m791.48,236.43a0.67,0.67 0 0 1 -0.23,0.53a0.67,0.67 0 0 0 0.23,-0.53a2.13,2.13 0 0 0 -0.15,-0.79a2.13,2.13 0 0 1 0.15,0.79zm-485.18,-223.23l0,0a2,2 0 0 1 -0.35,0a2,2 0 0 0 0.35,0zm-1.16,-0.37l0,0a1.26,1.26 0 0 0 0.36,0.24l0.13,0.06a1.55,1.55 0 0 1 -0.22,-0.12a1.55,1.55 0 0 0 0.22,0.12l0.05,0l0,0l-0.16,-0.07a1.34,1.34 0 0 1 -0.37,-0.25l-0.07,-0.05a0.14,0.14 0 0 0 0.08,0.05l-0.02,0.02zm-0.13,-0.08l0,0c0,0.07 0,0.11 0,0.11s0,0 0,-0.1l0,-0.01zm-298.01,383.41a0.12,0.12 0 0 1 0.08,0a0.2,0.2 0 0 1 0.08,0a0.2,0.2 0 0 0 -0.08,0a0.12,0.12 0 0 0 -0.09,0.05l0.01,-0.05zm34.95,190.27l0,0l0,0zm45.7,7.93a1.48,1.48 0 0 0 0.1,-0.27c0,-0.1 0,-0.2 0,-0.3c0,0.1 0,0.2 0,0.3s-0.06,0.18 -0.1,0.27zm8.31,-4.07l0,0a4.8,4.8 0 0 0 0.37,1a5,5 0 0 1 -0.38,-1l0.01,0zm0,0l0,0l0.11,0l-0.11,0zm2.91,0.25a0.88,0.88 0 0 1 0,-0.15a0.41,0.41 0 0 0 0,-0.09l0,0a0.41,0.41 0 0 1 0,0.09a0.47,0.47 0 0 0 -0.06,0.15l0.06,0zm5.93,1.13a0.9,0.9 0 0 0 0.18,-0.44a2.47,2.47 0 0 1 -0.06,-0.29c0,0.09 0,0.19 0.06,0.29a0.86,0.86 0 0 1 -0.18,0.44zm72.5,-1.36l0,0l0,0zm1.26,8.79c0,-0.06 0,-0.18 0,-0.27a2.62,2.62 0 0 0 -0.23,-0.32a2.62,2.62 0 0 1 0.23,0.32a1.56,1.56 0 0 1 0,0.27zm134.38,-9.17a0.66,0.66 0 0 1 -0.05,-0.15a0.66,0.66 0 0 0 0.05,0.15l0,0zm65.7,-4.65l0,-0.12l-0.08,-0.06l0.08,0.06s0,0.08 0,0.12zm48.46,4.84l-0.11,-0.19l0.11,0.18l0.28,-0.19l-0.28,0.2zm0.33,-0.24l-0.07,-0.12l0.07,0.12zm23.07,-0.26l0,0l0.14,-0.07a1.19,1.19 0 0 0 0.23,-0.16a1.19,1.19 0 0 1 -0.23,0.16l-0.14,0.07zm58.88,-9.7a1.75,1.75 0 0 0 -0.29,0.18a1.75,1.75 0 0 1 0.29,-0.18a0.94,0.94 0 0 1 0.6,0.45a1,1 0 0 0 -0.61,-0.45l0.01,0zm163.11,-3.76l0,0l0,0l0,0l0,0l0,-0.09l0,0a0.16,0.16 0 0 0 0,0.09zm40.24,-5.75l-0.11,0l0.11,0a1,1 0 0 0 0.37,-0.27c-0.09,0.14 -0.25,0.19 -0.38,0.28l0.01,-0.01zm84.09,-294.18a6.78,6.78 0 0 0 -0.1,1.2a2.27,2.27 0 0 1 -0.67,1.82c-0.23,0.25 -0.48,0.49 -0.74,0.75a6.47,6.47 0 0 1 -2.26,-0.38a4.78,4.78 0 0 0 -2.06,-0.07a1,1 0 0 0 -0.56,1.11a15.52,15.52 0 0 0 0.93,3.41a3.29,3.29 0 0 1 0,3.37a2.37,2.37 0 0 0 -0.3,1.43a3,3 0 0 1 -0.75,2.11a4.86,4.86 0 0 1 -0.53,0.58a7.32,7.32 0 0 0 -2.15,3.47a2.77,2.77 0 0 1 -0.84,1.39c-0.33,0.28 -0.64,0.57 -0.94,0.88a3,3 0 0 0 -0.85,2.06c0,0.67 -0.13,1.19 -0.66,1.42a1.18,1.18 0 0 0 -0.62,0.83c-0.22,0.86 -0.39,1.75 -0.62,2.6a2.22,2.22 0 0 0 0.77,2.76a2.32,2.32 0 0 1 0.82,2a9.55,9.55 0 0 1 -0.12,2.39c-0.42,1.34 -0.17,2.82 -0.66,4.11a12.44,12.44 0 0 1 -0.42,4.12c-0.06,0.18 0.19,0.52 0.27,0.79s0,0.4 -0.2,0.42s-0.37,0 -0.42,-0.09c-0.18,-0.43 -0.3,-0.9 -0.47,-1.34c0,-0.07 -0.15,-0.14 -0.2,-0.11s-0.32,0.18 -0.34,0.3a9.45,9.45 0 0 0 0,1.19a1.29,1.29 0 0 0 0.58,1.21a2.81,2.81 0 0 1 1.41,2.52c0,0.2 0,0.41 0,0.61c0.06,1.1 0.34,1.62 1.35,1.39a1.71,1.71 0 0 1 0.45,0c0.21,0 0.35,0.4 0.25,0.7s-0.18,0.33 -0.24,0.52c-0.24,0.62 -0.13,1.11 0.31,1.13a2.64,2.64 0 0 1 2,1.29c0.08,0.1 0,0.37 0,0.56a0.38,0.38 0 0 1 -0.15,0.22a7.66,7.66 0 0 0 -2.74,3.95c-0.28,0.72 -0.51,1.48 -0.8,2.19a4.34,4.34 0 0 0 -0.11,1.48c0,0.36 -0.19,0.63 -0.43,0.56c-0.67,-0.19 -1.17,0 -1.55,0.84a3.47,3.47 0 0 1 -1.84,1.72c-0.35,0.17 -0.76,0.13 -1.1,0.59c0.14,0.81 0.33,1.66 0.44,2.52a2.05,2.05 0 0 1 -0.13,1.15a2.83,2.83 0 0 0 -0.14,2.8c-0.25,0.26 -0.44,0.44 -0.6,0.64s-0.27,0.31 -0.26,0.46a4.45,4.45 0 0 1 -0.56,2.5a9.8,9.8 0 0 0 -0.59,2.28a4,4 0 0 0 0.4,3.13a5.77,5.77 0 0 1 0.82,1.8a3.86,3.86 0 0 0 1,1.57c0,1.2 0.7,1.41 1.42,1.55a0.32,0.32 0 0 1 0.23,0.39l0,0c-0.06,0.17 -0.18,0.41 -0.27,0.41a7.27,7.27 0 0 1 -1.14,-0.07a5.6,5.6 0 0 0 -0.84,4.75a18,18 0 0 1 0,4.21a2.57,2.57 0 0 1 -0.34,1.11a8,8 0 0 1 -1.47,2.32a2.78,2.78 0 0 0 -0.71,2.41c0,0.3 0,0.61 0,0.91a2.35,2.35 0 0 0 0.33,1.1a4.86,4.86 0 0 1 0.6,1.26a37.89,37.89 0 0 0 1.65,4.66a20.31,20.31 0 0 1 1.24,5.76a9.31,9.31 0 0 0 0.37,2a11,11 0 0 1 0.51,4.15c-0.06,1.92 -0.17,3.83 -0.25,5.75c0,0.8 0,1.61 0,2.42a9.77,9.77 0 0 1 0,1.21a36.61,36.61 0 0 0 -0.11,5.44a11.11,11.11 0 0 0 0.19,3.59a2,2 0 0 1 0,0.9a31.17,31.17 0 0 0 0.17,6a2.79,2.79 0 0 0 0.4,1.05c0.16,0.33 0.4,0.6 0.57,0.94a2.5,2.5 0 0 1 0.15,2.27a2,2 0 0 0 -0.29,0.81a3.19,3.19 0 0 1 -0.76,2.12a0.87,0.87 0 0 0 0.21,1.19l0,0c0.13,0.1 0.29,0.14 0.42,0.24a1.48,1.48 0 0 1 0.52,1.52a4.82,4.82 0 0 0 -0.12,2.07a4.75,4.75 0 0 1 -1,3.83c-0.25,0.29 -0.2,0.47 0.12,1c0.14,0.24 0.37,0.45 0.4,0.72a30.86,30.86 0 0 1 0.63,5.67a7.87,7.87 0 0 1 -0.75,2.82c0,0.09 0.09,0.33 0.16,0.47a0.23,0.23 0 0 0 0.22,0.06c0.44,-0.17 0.87,-0.37 1.31,-0.54c0.27,-0.11 0.64,0.3 0.59,0.69a1.8,1.8 0 0 1 -0.23,0.82a2.92,2.92 0 0 1 -1,0.8a7,7 0 0 1 -1.35,0.31c-0.44,0.11 -0.68,0.58 -0.7,1.38c0,0.36 0.21,0.67 0.41,0.58c0.43,-0.2 0.85,-0.43 1.29,-0.6c0.12,0 0.28,0.08 0.42,0.16s0.22,0.5 0.1,0.81a5.17,5.17 0 0 1 -0.42,1.07a3.7,3.7 0 0 1 -0.87,1a2.79,2.79 0 0 0 -1,1.93a22.91,22.91 0 0 1 -1.08,4.63a10.72,10.72 0 0 1 -0.51,1.33a2.66,2.66 0 0 0 -0.22,2.27a20.06,20.06 0 0 1 0.43,3.27a3.67,3.67 0 0 1 -0.1,1.19c-0.1,0.59 -0.21,1.19 -0.36,1.76a89.7,89.7 0 0 0 -0.54,14.1a6.71,6.71 0 0 1 -0.3,2.67a6.25,6.25 0 0 0 -0.28,3.53a4.87,4.87 0 0 1 -0.18,1.78a11.53,11.53 0 0 1 -0.52,2a5.19,5.19 0 0 0 -0.17,1.47c0,0.71 0.08,1.41 0.11,2.12a5,5 0 0 1 -0.49,2.59a8.5,8.5 0 0 0 -0.77,3.75a18.5,18.5 0 0 1 -0.53,3.86c-0.2,0.86 -0.38,1.75 -0.53,2.64a8.16,8.16 0 0 0 -0.21,2.09a15.72,15.72 0 0 1 -0.38,4.79a6.41,6.41 0 0 0 0,2.39a3.34,3.34 0 0 1 -0.12,1.47c-0.41,1.31 -0.87,2.59 -1.34,3.86a1.91,1.91 0 0 1 -1.24,1.25c-0.89,0.28 -1.78,0.58 -2.68,0.84a28,28 0 0 0 -2.66,0.94a14.2,14.2 0 0 1 -2.48,0.59a0.79,0.79 0 0 0 -0.36,0.69a1.12,1.12 0 0 0 0.27,0.46a0.48,0.48 0 0 0 0.64,0.11l0,0c0,0.2 0,0.4 0,0.6c-0.12,0.57 -0.46,0.88 -0.82,0.81c-1,-0.18 -1,-0.19 -1.45,0.18c-0.2,0.14 -0.42,0.26 -0.61,0.41a0.78,0.78 0 0 1 -1.07,0a1.43,1.43 0 0 0 -1.33,-0.13c-0.46,0.11 -1.23,4.87 -1.23,5.44a33.24,33.24 0 0 1 -0.32,5.37c0,0.2 0,0.4 0,0.6a1.23,1.23 0 0 0 0.48,1c0.58,0.26 1.73,-4 2.31,-4.47l0.19,0l-0.19,0l0,0a2.08,2.08 0 0 1 -0.36,1.08a7.47,7.47 0 0 0 -0.69,0.8a1.69,1.69 0 0 0 -0.28,1.12c0,0.19 0.07,0.39 0.12,0.58a4.24,4.24 0 0 1 -0.35,3.18a45,45 0 0 0 -1.78,8.31a2.51,2.51 0 0 1 -1.27,2a6.33,6.33 0 0 1 -1.09,0.43l-1.29,0.45a21,21 0 0 0 -0.81,3.24a19.67,19.67 0 0 1 -0.5,2a2.9,2.9 0 0 1 -1.27,1.68a0.58,0.58 0 0 1 -0.82,-0.06l0,0a1.16,1.16 0 0 0 -1.25,-0.54c-0.15,0 -0.31,0 -0.46,0.08a106.43,106.43 0 0 1 -10.7,2a13.19,13.19 0 0 1 -5.49,0.05a2.53,2.53 0 0 0 -0.91,0a3.37,3.37 0 0 1 -3.15,-0.66a2,2 0 0 1 -2.22,1.09a4,4 0 0 0 -2.27,-0.12a0.52,0.52 0 0 1 -0.45,-0.09c-0.57,-0.39 -1.12,-0.62 -1.68,0.09c-0.13,0.17 -0.43,0.16 -0.65,0.15a3.92,3.92 0 0 1 -0.91,-0.13a1.77,1.77 0 0 0 -1.56,0.27a1.77,1.77 0 0 1 -2.21,0a0.52,0.52 0 0 0 -0.44,0c-0.5,0.17 -0.69,-0.22 -0.82,-0.73a5.13,5.13 0 0 1 -0.16,-0.87q0,-0.33 0.06,-0.66a9.31,9.31 0 0 0 0.62,0.76a1,1 0 0 0 1.1,0.19a0.78,0.78 0 0 0 0.43,-0.9c0,-0.19 -0.1,-0.38 -0.12,-0.58c-0.06,-0.72 0.61,-1.55 1.18,-1.43a0.58,0.58 0 0 1 0.26,0.43c0,0.4 0,0.8 0,1.2a1,1 0 0 0 0.54,0.87a4,4 0 0 0 0.91,0.16a0.77,0.77 0 0 0 0.77,-0.75a0.37,0.37 0 0 0 0,-0.11a5,5 0 0 1 0.61,-2.84a1.76,1.76 0 0 1 0.75,-0.63a0.37,0.37 0 0 1 0.39,0.18c0.23,0.74 0.43,1.49 0.61,2.25c0,0.15 -0.1,0.37 -0.15,0.55s-0.18,0.44 -0.13,0.52a1.48,1.48 0 0 0 0.49,0.59a1,1 0 0 0 0.66,0.16a3.17,3.17 0 0 0 0.88,-0.35a0.62,0.62 0 0 0 0.23,-0.73c-0.21,-0.73 -0.43,-1.45 -0.65,-2.18l0,0l0,0c1,-0.14 2.09,-0.39 3.14,-0.43a16.64,16.64 0 0 1 2.73,0.29a0.86,0.86 0 0 0 0.86,-0.26a2.63,2.63 0 0 1 1.68,-0.89a10,10 0 0 0 1.78,-0.56c0.11,0 0.19,-0.26 0.26,-0.41a0.36,0.36 0 0 0 -0.07,-0.26a3,3 0 0 1 -1.64,-2.23c-0.74,0 -1.34,0 -1.94,0c-0.44,0 -0.68,0.38 -0.7,1a2.87,2.87 0 0 1 -0.11,0.57c-0.06,0.21 -0.48,0.37 -0.6,0.22a11.89,11.89 0 0 0 -1.74,-1.94a1.2,1.2 0 0 0 -0.86,-0.25a25.68,25.68 0 0 0 -3.35,0.85c-0.29,0 -0.36,0.24 -0.32,0.93c0,0.24 0,0.43 -0.13,0.48s-0.36,0.08 -0.42,0a1.17,1.17 0 0 0 -1.57,-0.58l-0.07,0l-4.72,2.19l-0.69,1.75a7.79,7.79 0 0 0 -0.28,-0.94c-0.24,-0.56 -0.6,-0.77 -0.94,-0.59a4.83,4.83 0 0 0 -0.84,0.51a1.16,1.16 0 0 1 -1.68,0.12a1.3,1.3 0 0 1 -0.19,-0.22c-0.19,-0.21 -0.45,0 -0.62,0.2s-0.28,0.47 -0.42,0.71a0.82,0.82 0 0 1 -1.08,0.46a0.39,0.39 0 0 1 -0.14,-0.08a4.9,4.9 0 0 1 -0.62,-0.38a0.41,0.41 0 0 1 -0.09,-0.53c0.17,-0.33 0.37,-0.63 0.51,-1a0.75,0.75 0 0 0 -0.11,-0.53a0.49,0.49 0 0 0 -0.39,-0.24a1.83,1.83 0 0 0 -1.31,1.47a6.92,6.92 0 0 0 0,0.91a3.34,3.34 0 0 1 -0.59,1.91a1.36,1.36 0 0 1 -1,0.71l-0.23,0c-0.9,0 -1.82,-0.39 -2.71,0.17a6.48,6.48 0 0 0 -2.7,0.6a0.77,0.77 0 0 1 -0.45,0a0.54,0.54 0 0 1 -0.3,-0.36c0,-0.29 0,-0.61 0,-0.91c-0.08,-0.74 -0.6,-1.33 -1.11,-1.23s-0.89,0.29 -1.34,0.35a1.82,1.82 0 0 1 -1.13,0a1.05,1.05 0 0 0 -1.47,0.2a1.57,1.57 0 0 1 -2.15,0.39c-0.12,-0.08 -0.29,0 -0.51,0l-0.77,1.16a12.38,12.38 0 0 0 -1.72,0.18a10,10 0 0 0 -1.77,0.62a1.27,1.27 0 0 0 -0.54,0.51c-0.21,0.37 -0.42,0.59 -0.74,0.26a1.26,1.26 0 0 0 -1.07,-0.37c-0.38,0 -0.48,-0.36 -0.25,-0.8c0.08,-0.16 0.23,-0.26 0.31,-0.43a0.31,0.31 0 0 0 -0.06,-0.44l0,0a0.68,0.68 0 0 0 -0.44,-0.09a2.58,2.58 0 0 1 -2.39,-0.75a2.33,2.33 0 0 0 -0.7,-0.28a8.27,8.27 0 0 1 -0.48,1.41c-0.45,0.8 -1,1.51 -1.41,2.35c-0.11,0.23 -0.39,0.32 -0.59,0.45s-0.47,0 -0.54,-0.32s-0.06,-0.6 -0.14,-0.88a0.53,0.53 0 0 0 -0.66,-0.37a0.43,0.43 0 0 0 -0.12,0a0.8,0.8 0 0 0 -0.35,0.72a6,6 0 0 0 0.69,2.83a1.63,1.63 0 0 1 0,1.81l0,0l0,0l0,-0.06a0.86,0.86 0 0 1 -0.45,0a0.6,0.6 0 0 1 -0.37,-0.29a1.42,1.42 0 0 1 0,-0.58a5.05,5.05 0 0 0 -0.66,-3.12a3,3 0 0 1 -0.56,-2.16a0.59,0.59 0 0 0 -0.38,-0.18a1.21,1.21 0 0 0 -0.64,0.27a9.42,9.42 0 0 0 -0.84,1a1,1 0 0 1 -1.42,0.4l0,0c-0.31,-0.16 -0.59,0 -0.85,0.26a3.77,3.77 0 0 0 -1,1.61c-0.21,0.65 -0.33,0.63 -0.86,0.19c-0.13,-0.11 -0.25,-0.22 -0.38,-0.31a0.9,0.9 0 0 0 -0.27,-0.07a9,9 0 0 0 -0.9,0.85a1.17,1.17 0 0 1 -1.5,0.33c-0.06,0 -0.15,0 -0.33,0.07c-0.22,0.4 -0.48,0.89 -0.76,1.36c-0.54,1 -0.79,1.24 -1.71,0.51a1.2,1.2 0 0 0 -1.32,-0.24a3,3 0 0 1 -1.58,0.33a3.56,3.56 0 0 0 -2.42,0.78a11.3,11.3 0 0 0 -1.43,0.93a3.38,3.38 0 0 1 -2.37,1a10.41,10.41 0 0 0 -1.82,0.34c-0.53,0.1 -1.05,0.22 -1.58,0.35a1.68,1.68 0 0 0 -0.66,0.19c-1.32,0.94 -2.21,-3.33 -3.64,-3c-0.83,0.21 -1.66,0.42 -2.48,0.68a77.91,77.91 0 0 1 -7.72,1.65a34.48,34.48 0 0 1 -7.58,0.66a22.06,22.06 0 0 0 -2.3,0a12.38,12.38 0 0 1 -3.44,0.12a4.88,4.88 0 0 0 -1.37,0.15a7.06,7.06 0 0 1 -2,0.17a16.16,16.16 0 0 0 -4.81,-0.06a2.66,2.66 0 0 1 -0.69,0c-1.53,-0.26 -3.08,-0.13 -4.6,-0.27a29,29 0 0 0 -4.37,0c-2.3,0.14 -4.6,0.11 -6.91,0.12a15,15 0 0 0 -3.21,0.23a10.37,10.37 0 0 1 -1.84,0.14c-2.07,0.06 -4.15,0.08 -6.22,0.15c-0.76,0 -1.53,0.15 -2.29,0.23a4.05,4.05 0 0 1 -0.92,0.1c-2.15,-0.24 -4.29,0.15 -6.44,0.09a31.8,31.8 0 0 0 -5.06,0.43a13.43,13.43 0 0 1 -2.29,0.16a21.19,21.19 0 0 0 -2.76,0a64.66,64.66 0 0 0 -6.66,0.5a9.43,9.43 0 0 1 -1.84,0a17.24,17.24 0 0 0 -4.59,0.31a3.57,3.57 0 0 1 -1.13,0c-1.54,-0.07 -3.07,-0.15 -4.61,-0.2s-3.07,0 -4.6,-0.13a29,29 0 0 1 -4.37,-0.14a2.41,2.41 0 0 0 -1.13,0.19a2.65,2.65 0 0 1 -1.82,0a1.62,1.62 0 0 0 -1.34,0.15a1.2,1.2 0 0 1 -1.33,-0.16a5.08,5.08 0 0 0 -2.66,-0.88a1.79,1.79 0 0 0 -1.9,0.74c-0.43,0.56 -1,0.33 -1.46,-0.18a2,2 0 0 0 -1.43,-0.86a0.87,0.87 0 0 0 -0.45,0.05c-0.14,0.06 -0.35,0.2 -0.36,0.32c-0.06,1.22 -0.89,1.52 -1.44,2.16l-0.19,0.17c-0.14,0.11 -0.51,-0.13 -0.55,-0.37c-0.06,-0.5 -0.11,-1 -0.17,-1.5s-0.33,-0.77 -0.6,-0.78l-1.15,0c-0.76,0 -1.53,-0.34 -2.26,0.18c-1.15,-0.32 -2.24,0.36 -3.38,0.34c-0.23,0 -0.47,0.14 -0.68,0.07a4.32,4.32 0 0 0 -2,-0.12c-0.52,-0.49 -1,-0.19 -1.5,0.11a0.69,0.69 0 0 1 -0.65,-0.1a7.17,7.17 0 0 1 -0.74,-0.72a1.23,1.23 0 0 0 -1.09,-0.36a7.56,7.56 0 0 1 -3.21,-0.13a1.18,1.18 0 0 0 -1.27,0.46a0.8,0.8 0 0 1 -0.63,0.24a13.18,13.18 0 0 1 -1.4,-0.23c-0.22,-0.51 -0.41,-1 -0.65,-1.53a0.53,0.53 0 0 0 -0.41,-0.22c-0.19,0 -0.28,0.14 -0.25,0.4a1.5,1.5 0 0 1 0,0.3c0,0.34 -0.14,0.61 -0.4,0.52a1.93,1.93 0 0 0 -2,0.2a1.39,1.39 0 0 1 -2,0.07a1.46,1.46 0 0 1 -0.26,-0.34a0.38,0.38 0 0 0 -0.54,-0.05a0.27,0.27 0 0 0 -0.09,0.12c-0.44,0.87 -1.13,1 -1.81,1.13a6.46,6.46 0 0 1 -0.72,0.11a5.87,5.87 0 0 0 -0.72,-0.69a1.86,1.86 0 0 0 -0.84,-0.39c-0.61,0 -1.23,0.09 -1.83,0a2.3,2.3 0 0 0 -2.15,0.74a1.46,1.46 0 0 1 -1.75,0.35a1.13,1.13 0 0 0 -1.32,0.12a2.59,2.59 0 0 1 -0.64,0.33a1.16,1.16 0 0 1 -1.33,0c-0.62,-0.44 -1.16,-0.25 -1.69,0.34a7,7 0 0 1 -1,0.78c-0.29,-0.25 -0.55,-0.45 -0.79,-0.68a1.2,1.2 0 0 0 -1.74,-0.19a1.43,1.43 0 0 0 -0.28,0.32a3,3 0 0 1 -1.61,-1.26a5.84,5.84 0 0 0 -0.68,-0.81c-0.21,-0.23 -0.71,0 -0.76,0.33s-0.06,1 -0.09,1.49c0,0.33 -0.26,0.51 -0.48,0.36a4.16,4.16 0 0 1 -0.39,-0.32a0.75,0.75 0 0 0 -1.06,-0.14a1.21,1.21 0 0 1 -1.72,-0.12c-0.41,-0.4 -0.62,-0.28 -1,0.21l-0.77,1.06c-1.05,-0.13 -2,-0.28 -3,-0.37a7.37,7.37 0 0 0 -1.14,0.13l-1.84,0.13a2.58,2.58 0 0 0 -0.68,0a15,15 0 0 1 -5.46,0.54a3.84,3.84 0 0 0 -0.68,0c-1.29,0.29 -2.56,0.63 -3.85,0.89a2.5,2.5 0 0 1 -2.45,-0.37c-0.14,-0.13 -0.44,0 -0.64,0.06c-0.36,0.16 -0.7,0.4 -1.05,0.59a1.64,1.64 0 0 1 -1.35,0.14c-0.67,-0.22 -1.35,-0.39 -2.1,-0.6a5.49,5.49 0 0 1 -3.5,1a5.36,5.36 0 0 0 -1.59,0.27a2,2 0 0 1 -1.78,-0.2a2.37,2.37 0 0 0 -1.34,-0.22a11.53,11.53 0 0 1 -2.75,0.11a1.53,1.53 0 0 0 -1.31,0.47c-0.26,0.21 -0.51,-1 -0.78,-0.84a1.47,1.47 0 0 1 -1.34,0.23c-0.45,-0.14 -0.87,1.1 -1.32,1a0.74,0.74 0 0 0 -0.65,0a1.57,1.57 0 0 1 -1.33,0.22c-0.69,-0.1 -1.37,-5.2 -2,-4.58a2.53,2.53 0 0 1 -0.62,0.4a1.28,1.28 0 0 1 -1.33,0.08c-1,-0.58 -2.14,4.23 -3.25,3.93l0,0l0,-0.06l0,0a3.33,3.33 0 0 0 -0.08,-1.44c-0.07,-0.22 -0.48,-0.33 -0.6,-0.16a1.94,1.94 0 0 0 -0.31,0.44c-0.2,0.54 -0.37,-4.08 -0.6,-3.37a8.16,8.16 0 0 1 -2.59,1.59a1.47,1.47 0 0 1 -1.56,-0.1a1.42,1.42 0 0 0 -1.52,-0.15a1.12,1.12 0 0 1 -0.66,-0.18a1.1,1.1 0 0 1 -0.46,-1.44c0.2,-0.43 0.39,4.32 0.61,3.92c0.13,-0.23 0.31,-0.5 0.5,-0.55a9.23,9.23 0 0 0 2.24,-1.32c-0.36,-1.06 -1.32,-1.33 -1.76,-2.3a0.56,0.56 0 0 0 -0.38,-0.27c-0.76,-0.1 -1.52,2.77 -2.27,2.72c-0.11,0 -0.27,-2.75 -0.32,-2.59a0.83,0.83 0 0 0 0,0.54c0.31,0.3 0.65,0.51 1,0.79a1.5,1.5 0 0 1 0,2.07c-1,0.78 -1.82,-3.32 -3,-3.08a2,2 0 0 0 -0.41,0.26a2.28,2.28 0 0 0 -0.21,0.51a2.07,2.07 0 0 1 -0.5,1.31c-0.44,0.39 -0.87,-2.14 -1.46,-2.25a3,3 0 0 0 -0.9,0c-0.3,0 -0.66,0.22 -0.9,0.07a4,4 0 0 0 -3.17,0a2.17,2.17 0 0 1 -1.8,0c-0.2,-0.12 -0.46,0 -0.69,-0.08a1.75,1.75 0 0 0 -1.7,0.69a3.24,3.24 0 0 1 -0.36,0.38a1.6,1.6 0 0 1 -2,0.14a5.2,5.2 0 0 1 -0.59,-0.46a1.39,1.39 0 0 0 -2,-0.15a1.3,1.3 0 0 0 -0.28,0.34a0.73,0.73 0 0 1 -0.86,0.28c-1,-0.49 -1.61,0.14 -2.2,1c0,0.06 -0.14,0.07 -0.25,0.12a4.18,4.18 0 0 1 -0.51,-0.52a1,1 0 0 0 -1,-0.46a7.63,7.63 0 0 0 -2.25,0.59a1.79,1.79 0 0 1 -2.17,0l-0.9,1.3c-0.18,-0.11 -0.38,-0.24 -0.58,-0.35s-0.33,-0.21 -0.42,-0.14a1.3,1.3 0 0 1 -1.88,0.13l0,0c-0.2,-0.16 -0.6,0 -0.88,0.11c-0.5,0.21 -0.85,0.12 -1.18,-0.48s-0.47,-0.42 -0.86,0.21c-0.22,0.35 -0.51,0.65 -0.77,0.5a11.72,11.72 0 0 0 -3.58,-0.91c-0.18,0 -0.39,-0.47 -0.35,-0.7c0.14,-0.68 0.27,-1.36 0.42,-2c0.12,-0.47 0.29,-0.92 0.39,-1.4a1.17,1.17 0 0 1 0.79,-1c0.36,-0.12 0.77,8.12 1.08,7.63c-0.43,-0.37 -0.86,-8.91 -1.3,-9.24a0.38,0.38 0 0 0 -0.43,0.07a3.15,3.15 0 0 0 -0.72,1.15c-0.21,1.11 -0.92,1.85 -1.18,2.92c-0.07,0.31 -0.43,0.51 -0.67,0.75a0.22,0.22 0 0 1 -0.22,0a0.32,0.32 0 0 1 -0.15,-0.43l0,0a6.12,6.12 0 0 0 0.7,-1.53c0.12,-0.89 0.39,-1.76 -0.21,-2.57c-0.14,-0.18 -0.1,-0.57 -0.17,-0.86a0.44,0.44 0 0 0 -0.54,-0.29l-0.05,0l-2.76,1.57a0.92,0.92 0 0 0 -0.35,0.38a1,1 0 0 0 -0.12,0.54a0.68,0.68 0 0 0 0.23,0.45a7,7 0 0 0 0.89,0.26a1.18,1.18 0 0 1 0.63,1.52a1.11,1.11 0 0 1 -0.18,0.32a1.16,1.16 0 0 1 -0.18,0.2c-0.34,0.38 -0.65,0.31 -0.92,-0.23s-0.44,-0.71 -0.87,-0.46l-0.21,0.15c-1.31,0.73 -1.6,1 -1,2.92c0.25,0.76 -0.29,1 -0.57,1.47a1.07,1.07 0 0 0 0,0.54s0.12,0.11 0.18,0.11a2.32,2.32 0 0 1 0.46,-0.07a0.62,0.62 0 0 1 0.35,0.25a0.71,0.71 0 0 1 -0.22,0.76c-0.22,0.07 -0.45,0.11 -0.68,0.16a1.28,1.28 0 0 0 -0.84,0.93a7.06,7.06 0 0 1 -0.29,0.81a0.35,0.35 0 0 1 -0.5,0.1a0.47,0.47 0 0 1 -0.1,-0.1a2.66,2.66 0 0 1 -0.21,-0.53a1.33,1.33 0 0 0 -1.18,-1.21a5.66,5.66 0 0 1 -0.91,-0.19c-0.28,-0.08 -0.55,-0.89 -0.42,-1.27a5.56,5.56 0 0 1 0.32,-0.8c0.38,-0.75 0.8,-1.48 1.17,-2.25a2.44,2.44 0 0 0 0.18,-0.85a0.67,0.67 0 0 0 -0.21,-0.48a0.38,0.38 0 0 0 -0.42,0c-0.35,0.3 -0.36,0.85 -0.52,1.3c-0.22,0.64 -0.58,0.81 -1.13,0.55a1.56,1.56 0 0 1 -0.92,-0.79a1.06,1.06 0 1 0 -2.05,0.5a16.66,16.66 0 0 0 0.87,1.61c0,0.35 -0.05,0.85 -0.1,1.34c-0.08,1.07 -0.22,1.18 -1,0.74c-0.21,-0.12 -0.46,-0.33 -0.62,-0.09a1.24,1.24 0 0 1 -1.43,0.63a2.28,2.28 0 0 0 -1.12,0.17a1.52,1.52 0 0 1 -1.34,-0.18c-0.38,-0.25 -0.71,-0.09 -1.08,0.13a1.27,1.27 0 0 1 -1.78,-0.47l-0.06,-0.1a6.63,6.63 0 0 0 -1.09,-1.85a0.86,0.86 0 0 1 0,-0.57c0.12,-0.36 0.32,-0.67 0.43,-1c0,-0.11 -0.12,-0.37 -0.23,-0.47a0.55,0.55 0 0 0 -0.43,-0.07c-0.69,0.13 -1.37,0.29 -2,0.43c-0.28,0.06 -0.46,0.59 -0.35,1a1.79,1.79 0 0 0 0.56,0.93a1.91,1.91 0 0 1 0.58,0.48a1.31,1.31 0 0 1 0.22,0.8a3.14,3.14 0 0 1 -1,2c-0.19,0.14 -0.46,0.33 -0.64,0.27c-1.19,-0.45 -2.45,-0.27 -3.64,-0.63c-1,-0.3 -2.07,-0.7 -3.1,-1.06c-0.14,0 -0.3,-0.2 -0.43,-0.18a1.23,1.23 0 0 0 -0.63,0.27a2.37,2.37 0 0 0 -0.45,0.68a1.44,1.44 0 0 1 -1.37,0.91c-1.31,0 -2.61,0 -3.92,0c-0.92,0 -1.84,0.17 -2.75,0.3a3.1,3.1 0 0 0 -0.89,0.29c-0.35,0.15 -0.5,0.87 -0.93,0.74s-0.66,-0.53 -1,-0.64c-0.59,-0.19 -1.22,-0.22 -1.82,-0.36a2.84,2.84 0 0 1 -1.08,-0.44c-0.53,-0.42 -1,-0.5 -1.44,0.12a1.15,1.15 0 0 1 -1.35,0.23a3.18,3.18 0 0 0 -2.47,0.26a1.56,1.56 0 0 1 -2,-0.21c-0.21,-0.18 -0.59,-0.07 -0.89,0a0.77,0.77 0 0 1 -0.83,-0.33a1.92,1.92 0 0 0 -1.19,-0.84c-0.95,-0.18 -1,-0.18 -1.6,1.11a0.85,0.85 0 0 1 -0.34,0.31c-0.15,0.09 -0.29,-0.35 -0.2,-0.72s0.19,-0.76 0.29,-1.13a2.19,2.19 0 0 0 0.17,-0.55a0.75,0.75 0 0 0 -0.18,-0.48a0.38,0.38 0 0 0 -0.42,-0.05a0.79,0.79 0 0 0 -0.32,0.4a6.07,6.07 0 0 1 -1.16,1.86c-0.42,0.51 -0.84,0.84 -1.44,0.71a1.51,1.51 0 0 0 -1.5,0.51a1.32,1.32 0 0 1 -1.89,0.2a1.75,1.75 0 0 1 -0.23,-0.24c-0.09,-0.09 -0.26,-0.05 -0.4,-0.07a1.88,1.88 0 0 0 -0.28,1.11c0,0.3 0,0.6 -0.07,1a2.12,2.12 0 0 1 -0.23,-0.35a1.7,1.7 0 0 0 -0.81,-1a7.9,7.9 0 0 0 -1.57,-0.48a0.63,0.63 0 0 0 -0.61,0.27c-0.49,1.3 -1.65,1.4 -2.32,2.69a10.55,10.55 0 0 1 -0.24,-1a2.91,2.91 0 0 0 -0.72,-1.83a1.56,1.56 0 0 1 -0.38,-2a1.23,1.23 0 0 0 -0.51,-1.46a1.35,1.35 0 0 0 -1.34,0.19c-0.27,0.14 -0.6,0.18 -0.65,0.69s-0.33,0.62 -0.67,0.54c-0.15,0 -0.29,-0.13 -0.44,-0.16s-0.44,0.12 -0.54,0.4a5.6,5.6 0 0 0 -0.12,0.59c-0.38,1.74 -0.74,1.69 -1.82,1.7l-2.05,0a4.6,4.6 0 0 0 -0.05,0.64c0,0.38 -0.11,0.55 -0.36,0.58s-0.81,0 -1,-0.5a2.09,2.09 0 0 0 -1,-1.11c-0.51,-0.28 -0.95,-0.16 -1.12,0.54a1.56,1.56 0 0 1 -1.12,1.32c-0.11,0 -0.26,-0.11 -0.38,-0.22a0.36,0.36 0 0 1 0,-0.27a3.84,3.84 0 0 0 0.54,-1.91c0,-0.62 -0.2,-1 -0.65,-1a1.93,1.93 0 0 1 -0.89,-0.16a0.54,0.54 0 0 0 -0.61,0.16a2.24,2.24 0 0 1 -1.92,1.34a0.31,0.31 0 0 0 -0.14,0.23a1.09,1.09 0 0 0 0.13,0.53a2.6,2.6 0 0 0 0.8,0.55a6.06,6.06 0 0 0 1.12,0.17c-0.23,0.2 -0.35,0.37 -0.49,0.4c-0.75,0.18 -1.5,0.31 -2.21,0.46c-0.4,-0.65 -0.17,-1.47 -0.58,-2a1.31,1.31 0 0 1 -0.16,-0.85a5.21,5.21 0 0 0 -0.3,-3.19a1.83,1.83 0 0 1 0.06,-0.87a7.68,7.68 0 0 1 1.21,-2.55c0.31,-0.47 0.1,-0.87 -0.44,-1a1.48,1.48 0 0 0 -1.85,0.8a1.24,1.24 0 0 1 -0.35,0.37a0.2,0.2 0 0 1 -0.21,0c-0.11,-0.11 -0.27,-0.29 -0.26,-0.4a9.89,9.89 0 0 0 0.34,-2.36a0.87,0.87 0 0 0 -0.21,-0.49a0.41,0.41 0 0 0 -0.42,0.1a1.82,1.82 0 0 0 -0.63,1.79a1.44,1.44 0 0 1 -0.34,1.33a2.12,2.12 0 0 0 -0.37,1.66c0,0.3 0.21,0.54 0.47,0.45s0.59,-0.16 0.85,0.16s0.56,0.69 0.83,1.06a1.06,1.06 0 0 1 0.09,1.1a2.07,2.07 0 0 0 -0.11,1.72a4.84,4.84 0 0 1 0.23,0.85c0.16,0.84 -0.21,1.73 -0.84,1.85a2.22,2.22 0 0 1 -1.35,0a5.6,5.6 0 0 0 -1.79,-0.4c-0.1,0 -0.24,-0.28 -0.25,-0.43a0.8,0.8 0 0 1 0.2,-0.49a0.58,0.58 0 0 1 0.43,-0.13c0.45,0 0.73,-0.2 0.84,-0.78a1,1 0 0 1 0.63,-0.8c0.77,-0.3 0.8,-1.1 0.72,-1.94c0,-0.09 -0.07,-0.23 -0.12,-0.25a1,1 0 0 0 -0.42,0c-0.07,0 -0.13,0.12 -0.17,0.2a1.7,1.7 0 0 1 -1.52,1.15a4.43,4.43 0 0 0 -1,0.2a24.19,24.19 0 0 0 -1.75,3.1a1.05,1.05 0 0 1 -1.14,0.65a8.46,8.46 0 0 1 -3.71,-1.41a1.74,1.74 0 0 0 -1.11,-0.23c-0.22,0.59 -0.32,1.28 -0.91,1.54a1.55,1.55 0 0 1 -1.77,0a1.22,1.22 0 0 0 -1.32,-0.12a9.52,9.52 0 0 1 -2,0.52a1.32,1.32 0 0 1 -0.89,-0.17a3.44,3.44 0 0 0 -1.57,-0.39c-0.92,0 -1.84,-0.13 -2.76,-0.19a1.87,1.87 0 0 0 -0.91,0a8.78,8.78 0 0 1 -2.5,0.25a17.5,17.5 0 0 1 -2.51,-0.08a6.51,6.51 0 0 0 -3,0.31a0.79,0.79 0 0 1 -0.67,0.06a2.84,2.84 0 0 0 -1.82,0a4.94,4.94 0 0 1 -1.15,-0.07c-0.32,0 -0.53,-0.29 -0.74,-0.62c-0.58,-1 -0.68,-1 -1.27,-0.42a2.12,2.12 0 0 1 -1.24,0.71a5.42,5.42 0 0 1 -1.14,0.18a15,15 0 0 0 -4.11,0.4a2.91,2.91 0 0 1 -1.82,-0.1a1.28,1.28 0 0 0 -1.52,0.33c-0.29,0.25 -0.56,0.1 -0.85,-0.1c-0.57,-0.41 -0.59,-0.38 -1.11,0.3c-0.37,0.5 -0.55,0.43 -0.76,-0.27c-0.37,-1.25 -0.65,-1.54 -1.46,-1.5s-1.68,0.12 -2.53,0.16c-0.42,0 -0.51,-0.14 -0.62,-1c-0.07,-0.55 -0.21,-0.82 -0.49,-0.87a9.55,9.55 0 0 0 -4.12,-0.14a3.59,3.59 0 0 1 -1.38,0.13c-2.3,-0.29 -4.6,0.19 -6.9,0.09a20.49,20.49 0 0 0 -2.07,0.1a4.4,4.4 0 0 1 -3.11,-0.84a2.05,2.05 0 0 0 -2,-0.39a2.88,2.88 0 0 1 -0.92,0.12c-1,0 -1.6,0.55 -1.93,1.74a0.39,0.39 0 0 1 -0.14,0.23c-0.14,0.09 -0.28,0.2 -0.42,0.18s-0.25,-0.25 -0.18,-0.49s0.27,-0.73 0.37,-1.11s-0.21,-1.09 -0.57,-1.12c-1,-0.09 -2,-0.52 -2.94,0.16l-4.1,0.74c-0.39,0.07 -0.62,0.48 -0.55,1.1a2.82,2.82 0 0 1 -0.06,1.47c-0.06,0.15 -0.27,0.35 -0.34,0.31a2.11,2.11 0 0 0 -3,0.87c-0.26,0.45 -0.77,0.26 -0.9,-0.29c-0.07,-0.28 -0.07,-0.6 -0.14,-0.88a0.93,0.93 0 0 0 -0.27,-0.47a3.17,3.17 0 0 0 -2.86,-0.78a2.89,2.89 0 0 1 -1.12,0.28a4,4 0 0 0 -3.62,1.49a16.35,16.35 0 0 0 -0.59,1.92c-0.09,0.35 0,0.88 -0.47,0.86c-0.25,0 -0.34,-0.35 -0.42,-0.62a1.7,1.7 0 0 0 -0.94,-1.23a1.61,1.61 0 0 1 -0.86,-0.93a1,1 0 0 0 -1.23,-0.56a1,1 0 0 0 -0.43,0.19a2.45,2.45 0 0 1 -2.23,0.4a3.18,3.18 0 0 0 -2.27,0.1a4.85,4.85 0 0 1 -1.36,0.23c-0.69,0.07 -1.38,0.12 -2.07,0.16c-0.31,0 -0.61,0 -0.92,0c-0.61,0 -1.12,-0.78 -1.77,-0.39s-1.22,0 -1.82,0.22a1.15,1.15 0 0 0 -0.51,0.49a0.87,0.87 0 0 0 0.15,0.5c0.31,0.44 0.65,0.86 1,1.33a4.21,4.21 0 0 1 2.66,-0.74c0.3,0.07 0.68,0.06 0.87,0.29a2.19,2.19 0 0 0 1.72,0.72c0.22,0 0.44,0.08 0.7,0.12c-1,0.73 -1.06,0.82 -1.66,0.59a6,6 0 0 0 -3.18,-0.17a13.72,13.72 0 0 1 -2.31,0a1.79,1.79 0 0 1 -1.41,-0.87c-0.42,-0.57 -0.54,-0.56 -1,-0.24s-0.66,0.5 -1,0.76a0.33,0.33 0 0 0 -0.08,0.25c0.06,0.16 0.14,0.38 0.24,0.43c0.42,0.2 0.94,0.1 1.22,0.7a1.14,1.14 0 0 1 0,0.55c0,0.06 -0.14,0.12 -0.2,0.11a2.32,2.32 0 0 1 -0.44,-0.16l0,0l0.09,0.66l-0.09,-0.65c-0.4,-0.07 -0.68,0.17 -0.87,0.61s-0.29,0.79 -0.44,1.19l0,0l-0.06,0.06l0,-0.05c-0.52,0.06 -0.85,0.35 -0.88,1.08a5.82,5.82 0 0 1 0,0.6c-0.08,0.52 -0.35,0.81 -0.63,0.59a1.77,1.77 0 0 0 -1.76,-0.36c-0.24,0.08 -0.51,-0.29 -0.43,-0.52a1,1 0 0 1 0.28,-0.44a0.7,0.7 0 0 1 0.44,-0.12a1.08,1.08 0 0 0 1,-0.53a3.07,3.07 0 0 0 0.46,-1.67c0,-0.3 -0.09,-0.59 -0.12,-0.89a1.2,1.2 0 0 1 0.35,-1c0.44,-0.4 0.92,-0.73 1.35,-1.14a0.76,0.76 0 0 0 0.1,-0.53a0.7,0.7 0 0 0 -0.27,-0.43a0.84,0.84 0 0 0 -1.09,0.14a9.06,9.06 0 0 0 -0.78,1l-2.22,-0.45l0,0l0,0l0,0l0,0l-0.07,-0.05l0.1,0c0.26,-0.34 0.54,-0.65 0.81,-1a0.52,0.52 0 0 0 -0.2,-0.69l0,0a4.63,4.63 0 0 0 -4.25,0.46c-0.4,0.28 -0.82,0.5 -1.22,0.78a0.69,0.69 0 0 0 0,1l0,0c0.12,0.1 0.28,0.15 0.42,0.25a1.16,1.16 0 0 1 0.14,0.27c-0.26,0.34 -0.56,0.66 -0.8,1a6.64,6.64 0 0 0 -0.52,1c-0.25,0.58 0,1.5 -0.68,1.78s-0.79,-0.5 -1.21,-0.7a1.31,1.31 0 0 0 -1.34,0a1.87,1.87 0 0 0 -0.78,0.61c-1,1.79 -2.39,1.5 -3.78,1.42a5.73,5.73 0 0 0 -2.69,-0.64c-0.84,0 -1.63,-0.61 -2.5,-0.49c-0.41,0.06 -0.69,-0.28 -1,-0.68c-0.38,-0.56 -0.54,-0.56 -1,-0.26a4.25,4.25 0 0 1 -0.59,0.43a0.39,0.39 0 0 1 -0.4,-0.16a0.7,0.7 0 0 1 0,-0.53a8,8 0 0 1 0.74,-0.68a1,1 0 0 0 0.33,-1c-0.14,-0.58 -0.3,-1.14 -0.46,-1.77c0.23,-0.52 0.45,-1 0.69,-1.56l0.64,-1.44a2.81,2.81 0 0 0 -2.41,-0.94c-0.53,0.05 -1.07,0.11 -1.6,0.19s-0.73,1.13 -0.37,1.42c0.56,0.46 0.44,0.86 0.19,1.44a2.36,2.36 0 0 0 -0.07,0.79l0.08,0l-0.05,0l0,0.09l0,-0.1a1.29,1.29 0 0 1 -1,-0.42a1.41,1.41 0 0 1 -0.39,-1.05c0,-0.29 0.13,-0.57 0.16,-0.87c0.16,-1.17 -0.14,-1.81 -0.93,-2a2.37,2.37 0 0 0 -0.46,-0.11c-1.29,0 -2.59,0 -3.88,0a0.9,0.9 0 0 0 -0.78,0.92a1,1 0 0 0 0.68,1c0.52,0.08 1,0.12 1.6,0.18c-0.13,0.51 -0.49,0.51 -0.73,0.71a3.46,3.46 0 0 0 -1.2,1.37a0.76,0.76 0 0 1 -0.78,0.52c-1.15,-0.11 -2.29,-0.24 -3.43,-0.43a1.55,1.55 0 0 1 -1.11,-1c-0.6,-1.27 -0.63,-1.28 -1.49,-0.43c-0.28,0.27 -0.56,0.15 -0.73,-0.29c-0.06,-0.18 -0.12,-0.37 -0.17,-0.56s0,-0.2 0,-0.3c-0.06,-0.42 0.2,-0.89 0.49,-0.84a2,2 0 0 1 0.87,0.26a1.2,1.2 0 0 0 1.33,0.1c0.49,-0.26 0.85,0 1.23,0.43c0.62,0.72 0.81,0.71 1.41,0.2c0.26,-0.21 0.51,-0.45 0.76,-0.68s0.27,-0.65 0.12,-0.79s-0.25,-0.3 -0.37,-0.29a8.09,8.09 0 0 1 -3.66,-0.12c-2,0.64 -4,-0.21 -6,0.18a6.07,6.07 0 0 1 -2.28,-0.25a25.3,25.3 0 0 0 -6.2,-0.38a5.11,5.11 0 0 0 -1.6,0.22a3.4,3.4 0 0 1 -2.92,-0.2a3,3 0 0 0 -2.71,-0.11a0.74,0.74 0 0 0 -0.36,0.7c0.07,0.38 0.18,0.76 0.24,1.15a9.27,9.27 0 0 1 0.14,1.18c0,0.67 -0.6,1.27 -1.13,1.06c-0.13,0 -0.32,-0.25 -0.32,-0.37c0,-1 0.06,-2 0.09,-3c0,-0.33 -0.37,-0.75 -0.64,-0.69s-0.35,0.07 -0.42,0.2a11.94,11.94 0 0 0 -1.4,2.73a1.17,1.17 0 0 1 -0.69,0.75c-0.22,0.11 -0.62,0 -0.62,-0.16a1.89,1.89 0 0 1 0,-0.58a2.43,2.43 0 0 1 0.7,-1.17a5.56,5.56 0 0 0 0.56,-0.52a1,1 0 0 0 0.06,-1.09c-0.42,-0.74 -0.88,-0.85 -1.35,-0.32c-0.18,0.2 -0.31,0.45 -0.48,0.65a1.09,1.09 0 0 1 -1.06,0.47c-1.79,-0.48 -3.3,0.5 -4.81,1.47c-0.36,-0.15 -0.37,-0.6 -0.51,-0.94c-0.26,-0.63 -0.73,-0.72 -1.12,-0.19c-0.21,0.29 -0.38,0.65 -0.6,0.91a1.08,1.08 0 0 1 -0.59,0.4c-0.61,0.09 -1.23,0.05 -1.83,0.15c-0.18,0 -0.36,0.34 -0.47,0.58a1,1 0 0 0 0.31,1a2.26,2.26 0 0 0 0.85,0.42c1.07,0.13 2.14,0.17 3.22,0.28a4.36,4.36 0 0 1 1.12,0.27a1.05,1.05 0 0 1 0.42,1.22c-0.21,0.41 -0.71,0.71 -1,0.56a1,1 0 0 1 -0.38,-0.32a1.54,1.54 0 0 0 -2,-0.84a1,1 0 0 0 -0.23,0.12a4.32,4.32 0 0 1 -3.82,0.2a4.29,4.29 0 0 0 -1.13,-0.11a2.15,2.15 0 0 1 -0.91,-0.1a3.27,3.27 0 0 0 -2.26,-0.19c-0.1,0 -0.26,-0.16 -0.34,-0.31s0.1,-0.57 0.33,-0.61s0.46,-0.08 0.69,-0.09c1,-0.06 2,-0.08 3,-0.17a2,2 0 0 0 0.85,-0.4a0.72,0.72 0 0 0 0.14,-0.51c0,-0.17 -0.13,-0.44 -0.23,-0.46a5.58,5.58 0 0 0 -1.35,-0.2a2.07,2.07 0 0 1 -1.82,-1.1a7.85,7.85 0 0 0 -0.47,-0.66a1.24,1.24 0 0 0 -1.25,-0.58a4,4 0 0 1 -1.83,-0.08c-0.67,-0.18 -1,0.31 -1.21,1c-0.12,0.36 -0.35,0.12 -0.53,-0.09s-0.33,-0.24 -0.38,-0.17c-0.23,0.25 -0.4,0.6 -0.62,0.88a1.62,1.62 0 0 1 -1.9,0.69c-0.22,-0.07 -0.43,-0.21 -0.65,-0.29a2.37,2.37 0 0 0 -2.22,0.4c-0.2,0.14 -0.38,0.35 -0.58,0.5a1,1 0 0 1 -1.32,0.06c-0.26,-0.2 -0.51,-0.45 -0.78,-0.64a3.19,3.19 0 0 0 -0.64,-0.32a0.74,0.74 0 0 0 -0.91,0.56s0,0 0,0.06a1.28,1.28 0 0 0 0.51,1.22a4.4,4.4 0 0 0 1.12,0.24c2,0.08 4,0.12 6,0.2a3.92,3.92 0 0 1 1.12,0.23c0.1,0 0.19,0.29 0.23,0.47a0.75,0.75 0 0 1 -0.27,0.75a1.43,1.43 0 0 1 -0.43,0.17a21.42,21.42 0 0 1 -5.06,-0.08a74.41,74.41 0 0 0 -8,-1.07a21.68,21.68 0 0 1 -3.64,-0.79a8.66,8.66 0 0 0 -1.34,-0.41c-1.18,-0.08 -1.82,-1 -2.14,-2.34a5.35,5.35 0 0 0 -1.33,-2.41c-0.15,-0.17 -0.42,-0.15 -0.62,-0.22l0,0l1.4,-0.35c0.08,-0.37 0.15,-0.75 0.23,-1.12a0.94,0.94 0 0 1 0.64,-0.77c0.44,-0.14 0.9,-0.21 1.33,-0.37c0.12,0 0.21,-0.28 0.28,-0.45s-0.08,-0.53 -0.3,-0.69a2.77,2.77 0 0 0 -1.8,-0.39c-0.52,0 -0.84,-0.33 -1.07,-0.92a2.12,2.12 0 0 1 0.16,-2.21a1.14,1.14 0 0 0 0.06,-1.13a5.38,5.38 0 0 1 -0.61,-1.28a3,3 0 0 0 -2.16,-2.39c-0.22,-0.07 -0.45,-0.12 -0.68,-0.17s-0.77,0.19 -0.79,0.44a1.65,1.65 0 0 0 0.12,0.82a2.09,2.09 0 0 1 0.35,1.06a1.36,1.36 0 0 0 0.22,0.81a2.09,2.09 0 0 1 0.14,2.45a1.69,1.69 0 0 1 -1.79,1.26a5.48,5.48 0 0 1 -3.65,-1.64c-1,-1.07 -1.9,-2.33 -2.83,-3.53a0.66,0.66 0 0 1 0.11,-0.49c0.24,-0.23 0.57,-0.31 0.79,-0.57a1.07,1.07 0 0 0 0.15,-0.8a6.61,6.61 0 0 0 -2.11,-3.1a3.46,3.46 0 0 1 -0.73,-0.7a7.7,7.7 0 0 0 -0.63,-0.87a65.79,65.79 0 0 1 -6.32,-7a4.9,4.9 0 0 1 -0.62,-0.89a1.45,1.45 0 0 1 -0.24,-0.81a6.43,6.43 0 0 0 -0.32,-3a3.43,3.43 0 0 1 0.12,-2.34a5.18,5.18 0 0 0 0.17,-0.56a1.26,1.26 0 0 0 -0.26,-1.09c-0.19,-0.16 -0.4,-0.29 -0.59,-0.46a3.45,3.45 0 0 1 -0.76,-0.67c-0.81,-1.2 -1.6,-2.43 -2.39,-3.66a2.06,2.06 0 0 1 -0.2,-0.54c-0.22,-1 -0.44,-1.93 -0.63,-2.91a2.87,2.87 0 0 1 0.17,-1.76a10.15,10.15 0 0 1 2,-3.31a1.74,1.74 0 0 0 0.33,-1.66c-0.12,-0.48 -0.23,-1 -0.33,-1.45a7.46,7.46 0 0 1 0,-3.29a3.83,3.83 0 0 0 -0.07,-2.07a6,6 0 0 1 -0.12,-3a5.82,5.82 0 0 0 -0.36,-3.79c-0.12,-0.26 -0.2,-0.55 -0.31,-0.81a2.87,2.87 0 0 1 -0.18,-1.76a6.4,6.4 0 0 0 -0.08,-3.55a4.76,4.76 0 0 1 -0.12,-1.19c0,-0.91 -0.06,-1.82 -0.08,-2.72a8,8 0 0 1 0,-1.2a25.34,25.34 0 0 0 0.25,-4.52a10.93,10.93 0 0 1 0.09,-1.81a17.27,17.27 0 0 0 -0.23,-6.29l-0.85,-0.93l1.7,-3.22a4.61,4.61 0 0 0 -0.71,-2.31a4.61,4.61 0 0 1 -0.39,-3.16a0.87,0.87 0 0 0 -0.54,-1.09a1,1 0 0 0 -0.25,0c-0.3,0 -0.6,0.11 -0.91,0.15a9,9 0 0 1 -0.91,0.08a0.26,0.26 0 0 1 -0.18,-0.17a1.15,1.15 0 0 1 0,-0.52a0.92,0.92 0 0 1 0.35,-0.38a6.24,6.24 0 0 1 1.33,-0.49a3.21,3.21 0 0 0 2.34,-1.72c0.36,-0.61 0.92,-0.71 1.38,-1.05a0.82,0.82 0 0 0 0.24,-0.77a1,1 0 0 0 -0.3,-0.39a1.21,1.21 0 0 0 -0.46,-0.08a3.5,3.5 0 0 1 -0.45,-0.07a0.87,0.87 0 0 1 -0.46,-0.91c0.13,-0.9 0.27,-1.79 0.4,-2.68a2.32,2.32 0 0 0 -0.2,-1.45a7.47,7.47 0 0 1 -0.76,-4.89a1.1,1.1 0 0 0 -0.38,-1a1.43,1.43 0 0 1 -0.34,-1.59a8,8 0 0 0 0.5,-2.31a1,1 0 0 1 0.16,-0.55c0.71,-0.69 0.65,-1.76 0.8,-2.71c-0.17,-0.56 -0.61,-0.56 -0.94,-0.78a1,1 0 0 1 -0.41,-1c0.31,-1.43 0.27,-3 1.23,-4.13a2.36,2.36 0 0 1 1.1,-1.79c0.39,-0.26 0.4,-0.74 0.11,-1.28c-0.08,-0.17 -0.23,-0.28 -0.3,-0.45a4.06,4.06 0 0 0 -1.79,-2.43a1.44,1.44 0 0 1 -0.55,-1.25c0,-0.91 0.11,-1.81 0.17,-2.78a7.76,7.76 0 0 0 1.54,-3.09c-0.44,-1.95 -0.73,-4.12 -1.22,-6.23a2.3,2.3 0 0 0 -0.82,-1.3l0,0a9.65,9.65 0 0 1 0,-3.86a1.83,1.83 0 0 0 -0.12,-0.87a1.1,1.1 0 0 0 -0.53,-0.47a0.41,0.41 0 0 1 -0.26,-0.61a3.52,3.52 0 0 0 0.19,-2.59c-0.14,-0.43 0.12,-0.73 0.28,-1.07c0.24,-0.51 0.22,-0.73 0,-1.06a1.54,1.54 0 0 0 -0.17,-0.19a6.18,6.18 0 0 1 -1.52,-3.29a22.2,22.2 0 0 0 -1.58,-4.46a5.88,5.88 0 0 0 -1,-1.6a7,7 0 0 1 -1.78,-4.4a6.46,6.46 0 0 0 -0.49,-1.66c-0.33,-0.93 0,-2.05 -0.5,-2.91a10.73,10.73 0 0 1 -0.92,-2.75c-0.14,-0.58 -0.34,-1.12 -0.47,-1.7c-0.17,-0.77 -0.31,-1.56 -0.43,-2.34a2.25,2.25 0 0 1 0.34,-1.89a1.88,1.88 0 0 0 0.13,-2.18c-0.24,-0.51 -0.54,-1 -0.81,-1.46a1.13,1.13 0 0 1 0.11,-1.11c0.19,-0.31 0.42,-0.58 0.59,-0.92a0.77,0.77 0 0 0 -0.1,-0.8c-0.19,-0.23 -0.39,-0.13 -0.59,0l0,0l0,0a0.27,0.27 0 0 1 -0.08,-0.07a0.27,0.27 0 0 0 0.08,0.07l0,0c0.11,-0.13 0.2,-0.28 0.31,-0.41a2.48,2.48 0 0 0 0.74,-1.45a16.56,16.56 0 0 1 1,-4.62a1.35,1.35 0 0 0 -0.09,-1.16a3.83,3.83 0 0 1 -0.75,-1.48a1.44,1.44 0 0 0 -0.73,-1.09a9.27,9.27 0 0 1 -1.17,-0.92a0.92,0.92 0 0 1 0,-0.55a1,1 0 0 1 0.3,-0.43c0.32,-0.26 0.84,-0.25 0.9,-0.81a5.5,5.5 0 0 0 -0.23,-1.46a11.44,11.44 0 0 1 -0.26,-1.16a1.93,1.93 0 0 1 0.11,-0.86c0.36,-0.78 0.76,-1.52 1.12,-2.21a3,3 0 0 0 0,-0.67a1.11,1.11 0 0 1 0.42,-1.25c0.33,-0.26 0.68,-0.46 1,-0.72a1,1 0 0 0 0.14,-1.28a11.66,11.66 0 0 0 -2,-2.48a0.67,0.67 0 0 1 -0.08,-0.5a1.67,1.67 0 0 0 0.14,-1.67a2.72,2.72 0 0 1 0,-1.76a4.11,4.11 0 0 0 0.17,-0.57a3.15,3.15 0 0 1 1.44,-2.54a0.89,0.89 0 0 0 0.33,-0.41a1,1 0 0 0 0.09,-0.55a9.37,9.37 0 0 0 -0.74,-1.86c-0.78,-1.27 -1.23,-2.78 -1.9,-4.08c0.15,-0.77 0.28,-1.44 0.41,-2.13a17.78,17.78 0 0 0 0.36,-2a28.19,28.19 0 0 0 0.14,-3.31a3.76,3.76 0 0 1 0.41,-2.26c0.33,-0.51 0,-1.16 0,-1.75s0.2,-0.87 0.7,-0.79a2.62,2.62 0 0 1 1.23,0.75c0.44,0.4 0.83,0.26 1.2,-0.33a5.83,5.83 0 0 0 0.39,-0.74c0.11,-0.26 0,-0.72 -0.16,-0.79a3.25,3.25 0 0 0 -0.43,-0.18l-2,-0.43c-0.2,0 -0.35,-0.47 -0.24,-0.72s0.24,-0.52 0.37,-0.77a2.18,2.18 0 0 0 0.23,-1.71a3.26,3.26 0 0 1 0.12,-2.3a10.4,10.4 0 0 0 0.49,-2.33a4.65,4.65 0 0 0 -0.06,-1.18a2.81,2.81 0 0 1 0.82,-2.57a11.09,11.09 0 0 1 2.58,-1.28c0.1,-0.06 0.17,-0.29 0.22,-0.46a0.37,0.37 0 0 0 -0.12,-0.24a2.8,2.8 0 0 0 -0.63,-0.35c-0.38,-0.1 -0.76,-0.14 -1.14,-0.22l-1.33,-0.26l0,-1.88c0.51,-0.71 1.15,-0.72 1.73,-0.94a10.4,10.4 0 0 0 1.06,-0.52a0.3,0.3 0 0 0 0.11,-0.24c0,-0.16 -0.09,-0.42 -0.17,-0.44c-0.38,-0.09 -0.76,-0.1 -1.14,-0.18a0.83,0.83 0 0 1 -0.37,-0.28c-0.11,-0.12 0,-0.59 0.13,-0.83s0.53,-0.73 0.82,-1.07a1.54,1.54 0 0 0 0.35,-1.06a3.4,3.4 0 0 1 0,-1.19a19.47,19.47 0 0 0 0.53,-2.61a3.16,3.16 0 0 1 0.42,-0.71a0.92,0.92 0 0 0 0,-1.07c-0.14,-0.23 -0.45,-0.4 -0.47,-0.63a2,2 0 0 0 -1.15,-1.69a0.94,0.94 0 0 1 -0.35,-1c0.08,-0.39 0.21,-0.76 0.29,-1.15s0.07,-0.58 0.12,-0.92c0.64,-0.35 1.28,-0.67 1.9,-1.05a0.76,0.76 0 0 0 0.24,-0.49a4.52,4.52 0 0 0 0,-0.9a9,9 0 0 1 0,-1.8a2.57,2.57 0 0 1 1.46,-2.43a8,8 0 0 0 1.41,-1a0.92,0.92 0 0 0 0,-1.07a4.19,4.19 0 0 0 -0.6,-0.44c-0.21,-0.12 -0.43,-0.19 -0.64,-0.31s-0.1,-0.13 -0.2,-0.28l1,-1.26l-0.91,-2.32c0.27,-0.52 0.59,-0.36 0.88,-0.32a1.81,1.81 0 0 0 1.64,-0.9a0.85,0.85 0 0 0 0,-1.18l0,0a1,1 0 0 0 -0.2,-0.16a3.86,3.86 0 0 1 -1.85,-3.5c0,-0.2 -0.06,-0.39 -0.08,-0.59a1.53,1.53 0 0 1 0,-0.3c1.46,-1.26 1.46,-1.26 2.71,-3.9a2.07,2.07 0 0 0 -0.17,-0.55a1.94,1.94 0 0 1 -0.21,-2.18c0.23,-0.59 0.59,-0.94 1.1,-0.91s0.92,0.1 1.37,0.18a14.35,14.35 0 0 0 5.5,-0.23a4.23,4.23 0 0 1 1.37,-0.22a37.06,37.06 0 0 0 4.59,-0.25a2.05,2.05 0 0 0 0.82,-0.31a12,12 0 0 0 -2.82,-0.7c-1.1,-0.18 -2.11,0.72 -3.17,0.47a7.63,7.63 0 0 0 -3.2,-0.17c-0.83,0.16 -1.68,0.16 -2.52,0.25c-0.69,0.07 -1.17,-0.29 -1.48,-1.11c-0.11,-0.27 -0.35,-0.2 -0.57,0.11s-0.42,0.57 -0.64,0.85c0,0 -0.15,0 -0.22,0s-0.26,-0.23 -0.22,-0.47s0.13,-0.57 0.19,-0.82a2.79,2.79 0 0 0 -0.8,-1.09c-0.75,-0.8 -0.76,-1.09 -0.13,-1.9c0.11,-0.14 0.24,-0.25 0.36,-0.38a1.88,1.88 0 0 0 0.41,-1.35c0,-0.3 -0.08,-0.6 -0.11,-0.9a1.49,1.49 0 0 1 0.35,-1.34c0.48,-0.46 0.44,-1.25 0.65,-1.89a1,1 0 0 0 -0.48,-1.33l-0.09,0c-0.5,-0.22 -1,-0.38 -1.54,-0.6a2.73,2.73 0 0 1 -1.3,-1.19a0.93,0.93 0 0 1 0.25,-1.25c0.43,-0.2 0.88,-0.32 1.31,-0.5a0.3,0.3 0 0 0 0.14,-0.22c0,-0.19 0,-0.45 -0.11,-0.53c-0.52,-0.43 -1.05,-0.82 -1.58,-1.21a4.8,4.8 0 0 1 -1.59,-1.7a0.9,0.9 0 0 1 0.21,-1.22l0,0a2.21,2.21 0 0 0 0.4,-0.28c0.11,-0.12 0.27,-0.36 0.24,-0.46a1.42,1.42 0 0 0 -0.39,-0.67a5.81,5.81 0 0 0 -0.88,-0.32c-0.14,-0.06 -0.32,-0.16 -0.36,-0.31a0.74,0.74 0 0 1 0.18,-0.49a6.18,6.18 0 0 0 0.66,-0.78c0.21,-0.4 0.32,-0.91 0.52,-1.33a4.07,4.07 0 0 0 0.35,-2.31c-0.11,-0.79 -0.19,-1.59 -0.27,-2.39a2.29,2.29 0 0 1 0.39,-1.67a3.57,3.57 0 0 0 0.34,-0.71a1,1 0 0 0 -0.83,-0.55a5.42,5.42 0 0 1 -2,-0.78c-0.84,-0.59 -0.93,-0.84 -0.42,-2.08a1.44,1.44 0 0 0 0.08,-1.13a4,4 0 0 1 -0.3,-0.81a3.88,3.88 0 0 0 -1.16,-2.53c0.28,-0.18 0.48,-0.29 0.68,-0.43a1.46,1.46 0 0 0 0.78,-1.68a37.76,37.76 0 0 1 -0.42,-7.21a3.94,3.94 0 0 1 0.3,-1.43c0.28,-0.7 0.64,-1.36 1,-2.07c-0.17,-0.77 -0.33,-1.53 -0.5,-2.28l1,-1.79a7.35,7.35 0 0 1 0.77,-1.47a3.4,3.4 0 0 0 0.6,-2.21c0.54,-0.67 1.43,-0.79 1.72,-1.87a0.85,0.85 0 0 0 -1,-0.65a2.7,2.7 0 0 0 -0.88,0.3a2.38,2.38 0 0 1 -2,-0.1c-0.16,-0.06 -0.26,-0.45 -0.38,-0.68l0,0c0.47,-0.37 0.56,-0.58 0.36,-0.84s-0.26,-0.22 -0.36,-0.36a4.71,4.71 0 0 1 -1,-3.57a25.2,25.2 0 0 1 0.91,-5.32a12.52,12.52 0 0 1 -0.45,-1.7a9.72,9.72 0 0 1 0,-1.79c0,-0.14 0.21,-0.37 0.31,-0.36c0.76,0.11 1.52,0.29 2.28,0.39a0.93,0.93 0 0 0 0.64,-0.21a1.59,1.59 0 0 0 0.07,-1.64a10.58,10.58 0 0 0 -3,-2.69a2.42,2.42 0 0 1 -1.09,-1.08a8.85,8.85 0 0 0 -2,-2.49c-0.14,-2.16 -0.8,-4.14 -0.82,-6.29a1.66,1.66 0 0 0 -0.56,-1.27c-0.39,-0.33 -0.78,-0.66 -1.15,-1c-1,-1 -1.48,-1.16 -0.68,-3.18a20.78,20.78 0 0 0 0.56,-2.33c0.65,-0.54 1.3,-1.07 1.94,-1.62a0.74,0.74 0 0 0 0,-1l-0.26,-0.19c-0.33,-0.23 -0.79,-0.28 -0.83,-0.91a2.17,2.17 0 0 1 0.36,-1.09a1.23,1.23 0 0 0 -0.16,-1.58c-0.21,-0.29 -0.47,-0.52 -0.67,-0.82a0.75,0.75 0 0 1 0,-0.55c0.05,-0.14 0.22,-0.22 0.35,-0.3s0.15,0 0.23,0c1.1,0 1.3,-0.17 1.56,-1.23l0.48,-2a0.87,0.87 0 0 0 -0.44,-0.93a5.07,5.07 0 0 0 -0.68,-0.11c-0.38,0 -0.76,0 -1.25,0c0.2,-0.31 0.31,-0.61 0.49,-0.7c0.57,-0.26 1.17,-0.44 1.76,-0.68a1.14,1.14 0 0 0 0.74,-1.4a1.34,1.34 0 0 0 -0.07,-0.18a3.17,3.17 0 0 1 -0.08,-2c0.34,-1.34 0.64,-2.7 0.93,-3.94a3.06,3.06 0 0 0 -0.1,-0.41a3.45,3.45 0 0 1 -0.56,-2.5c0.12,-0.77 -0.09,-1.22 -0.94,-1.3a4.7,4.7 0 0 0 -2.51,0.31a1.42,1.42 0 0 0 -0.93,1.77l0,0a5.16,5.16 0 0 1 0,0.88c0,0.08 -0.1,0.2 -0.15,0.2s-0.36,0 -0.41,-0.1a25.88,25.88 0 0 0 -1.42,-2.52a0.92,0.92 0 0 1 0,-1.06a3.28,3.28 0 0 1 2.13,-1.06a2.63,2.63 0 0 1 2.22,0.43a1.79,1.79 0 0 0 1.79,0.12a0.63,0.63 0 0 0 0.31,-0.4c0.12,-0.57 0.2,-1.17 0.3,-1.75a1,1 0 0 0 -0.44,-1a5.34,5.34 0 0 0 -0.62,-0.37c0,-0.73 0.07,-1.42 0.09,-2.11c0,-1.1 -0.14,-1.23 -0.92,-1.25a2.3,2.3 0 0 1 -0.45,-0.05a0.53,0.53 0 0 1 -0.32,-0.65l0,0a3.6,3.6 0 0 1 0.44,-1c0.76,-1 1.57,-1.92 2.35,-2.88a4.39,4.39 0 0 0 0.44,-0.68c0.25,-0.46 0,-1.39 -0.46,-1.46s-0.76,-0.06 -1.14,-0.12c-0.53,-0.09 -1.06,-0.19 -1.58,-0.31a2,2 0 0 1 -1.37,-1.49a5.68,5.68 0 0 1 -0.36,-1.73a13.92,13.92 0 0 1 -0.07,-3.29c0,-0.06 0,-0.13 0.06,-0.2l0,0a0.37,0.37 0 0 0 0,-0.09l0,0l0,0.08a4.69,4.69 0 0 1 -0.5,-2.3a2,2 0 0 1 0.59,-1.55a1.89,1.89 0 0 0 0.87,-1.31a3.9,3.9 0 0 0 -0.14,-2.06l-0.59,-1.52a19.32,19.32 0 0 1 0.71,-3.62a1.19,1.19 0 0 0 -0.66,-1.36l-0.46,-0.27c-0.35,-0.86 0.33,-1.71 0.1,-2.78a10.91,10.91 0 0 0 -0.7,-0.94a4.53,4.53 0 0 1 -1,-3.24a6.8,6.8 0 0 1 0.06,-0.9a6.62,6.62 0 0 0 -0.43,-3.52a1.56,1.56 0 0 1 -0.15,-1.22a3.07,3.07 0 0 0 0,-2c-0.84,-2.61 -1.67,-5.22 -2.51,-7.82a18.57,18.57 0 0 1 -0.91,-4.37a7.73,7.73 0 0 1 0.07,-2.4a6.83,6.83 0 0 0 -0.1,-3.27a2,2 0 0 1 0.61,-2.14a3.25,3.25 0 0 1 1.9,-1c0.7,-0.07 1,-0.78 1.22,-1.6a5.51,5.51 0 0 0 0.1,-0.9c0.25,-3.63 0.69,-7.22 1.28,-10.78a39.07,39.07 0 0 1 0.5,-4.18a2.25,2.25 0 0 0 0,-1.18a17.18,17.18 0 0 1 -0.55,-5a7.32,7.32 0 0 1 0.35,-0.81a7.47,7.47 0 0 0 1.11,-4.2a10.48,10.48 0 0 1 0.83,-4.35c0.33,-0.79 0.6,-1.63 0.89,-2.44a9.4,9.4 0 0 0 0.92,-0.2a0.94,0.94 0 0 0 0.39,-1c0,-0.09 -0.07,-0.18 -0.1,-0.27c-0.44,-1.35 -0.39,-1.57 0.38,-2.24a7.2,7.2 0 0 1 3.2,-1.58c0.3,-0.08 0.61,-0.12 0.91,-0.19a0.87,0.87 0 0 0 0.34,-1a2.21,2.21 0 0 1 -0.1,-2c0,-0.1 0.06,-0.19 0.08,-0.29c0.22,-0.78 -0.22,-1.63 0.12,-2.37a7.22,7.22 0 0 0 0.86,-1.65a2,2 0 0 1 1.07,-1.44a1.12,1.12 0 0 0 0.35,-0.72a1.15,1.15 0 0 0 -0.16,-0.81a2.85,2.85 0 0 0 -0.83,-0.43a1.78,1.78 0 0 1 -1.05,-1.76c0,-1 0,-2 0,-3l0.62,-1.41a3.88,3.88 0 0 0 -0.58,-0.87a2.55,2.55 0 0 1 -0.69,-2.33c0.11,-1 0.31,-2 0.48,-3c0.47,-0.5 1,-1 1.42,-1.51a5.6,5.6 0 0 0 1.13,-2.59c0.17,-0.86 -0.24,-1.58 -0.94,-1.6c-0.15,0 -0.3,0 -0.46,0a0.9,0.9 0 0 1 -0.21,-0.08a0.31,0.31 0 0 1 0.12,-0.42l0,0c1.29,-0.63 2.56,-1.37 3.89,-1.87a39.24,39.24 0 0 1 3.83,-1a25.84,25.84 0 0 0 4.06,-1.08a2.46,2.46 0 0 0 1,-0.61a3.81,3.81 0 0 1 2.26,-1.32c1.13,-0.31 2.25,-0.61 3.39,-0.84c2.81,-0.56 5.55,-1.58 8.32,-2.39a21.24,21.24 0 0 1 5.22,-1.06a17.58,17.58 0 0 1 5.37,0.13c-0.07,0.09 -0.11,0.19 -0.16,0.21c-0.43,0.14 -1,0.07 -1,0.9c0,0.61 0.36,0.83 0.66,1.11a2.83,2.83 0 0 0 2.16,0.89a1.43,1.43 0 0 1 0.86,0.3a1,1 0 0 1 0.37,0.69a6.67,6.67 0 0 1 -0.11,1.14a0.77,0.77 0 0 0 0.47,0.89c0.45,0.11 1,-0.08 1,-0.47c0.08,-1.61 1.11,-2.34 1.79,-3.37c0.43,-0.65 1.08,-0.9 1.67,-0.37a3,3 0 0 0 2,0.72a11.86,11.86 0 0 1 2.5,0.47a7.14,7.14 0 0 0 1.6,0a1.5,1.5 0 0 1 1.46,0.63c-0.71,0.27 -1.44,-0.11 -2.07,0.42c-0.06,0 -0.15,0.15 -0.14,0.22a1.75,1.75 0 0 0 0.14,0.51a0.33,0.33 0 0 0 0.2,0.15c0.82,0.22 1.65,0.45 2.48,0.65a1.94,1.94 0 0 0 0.68,0c0.69,-0.12 1.37,-0.26 2,-0.39a1.53,1.53 0 0 0 1,-0.68a0.91,0.91 0 0 1 1.26,-0.31c0.28,0.11 0.68,0.26 0.87,0.08a1.85,1.85 0 0 1 2.18,-0.14a1.67,1.67 0 0 0 1.11,-0.01a17.75,17.75 0 0 1 5,-1.32a31.63,31.63 0 0 0 6.41,-2.44a9.45,9.45 0 0 1 4,-1.3c2.52,-0.31 5,-0.81 7.54,-1.23c0.38,-0.07 0.76,-0.19 1.14,-0.23c2.68,-0.31 5.36,-0.56 8,-0.92a66.76,66.76 0 0 0 7.32,-0.94a4.1,4.1 0 0 1 0.69,-0.1l5.31,-0.26c0.69,0 1.39,0 2.08,-0.07a99.45,99.45 0 0 1 10.36,0c0.46,0 0.92,0 1.38,-0.07a12.44,12.44 0 0 1 1.38,-0.1c1.53,0.12 3.07,-0.06 4.6,-0.07c4.3,0 8.59,0 12.89,0.35c3.61,0.3 7.2,0.76 10.79,1.15c2.15,0.23 4.29,0.48 6.42,0.84c2.68,0.44 5.36,0.68 8,0.9c2.14,0.18 4.3,0.21 6.45,0.31c0.69,0 1.38,0 2.07,0.09c3.44,0.4 6.88,0.88 10.33,1.22c3.76,0.38 7.45,1.3 11.19,2a3.27,3.27 0 0 0 0.45,0.1a53,53 0 0 1 7.1,0.88a28,28 0 0 1 5.51,1.21a3.44,3.44 0 0 1 2.15,-0.55a83.46,83.46 0 0 0 10.37,0.11a31.55,31.55 0 0 1 3.22,0.28a2.86,2.86 0 0 0 1.36,-0.17a27.51,27.51 0 0 1 6.58,-1.48c2,-0.24 4,-0.64 5.92,-1.08a16.62,16.62 0 0 1 6,-0.37c1.07,0.14 2.15,0.2 3.24,0.29a0.21,0.21 0 0 1 0,0.29a0.16,0.16 0 0 1 -0.1,0.08c-0.52,0.2 -1,0.34 -1.56,0.5a0.37,0.37 0 0 0 -0.23,0.46a0.24,0.24 0 0 0 0.18,0.16a9.52,9.52 0 0 0 1.6,-0.14c1.66,-0.4 3.3,-0.92 5,-1.27a24.27,24.27 0 0 1 5.49,-0.74a23.11,23.11 0 0 1 6.85,1a48,48 0 0 0 9.34,1.77a10.22,10.22 0 0 0 2.76,-0.19a17.79,17.79 0 0 1 4.37,-0.27a4.84,4.84 0 0 1 2.42,0.88a2.56,2.56 0 0 1 1.19,1.75a2.76,2.76 0 0 0 1.13,1.82l0.6,0.45a1.52,1.52 0 0 0 2.19,0a1.88,1.88 0 0 0 0.29,-0.39l0,0a1.08,1.08 0 0 1 -0.31,0a1.08,1.08 0 0 0 0.31,0l0,0l0,0a2.32,2.32 0 0 0 1.11,1a14.26,14.26 0 0 0 3.53,1.2a38.15,38.15 0 0 0 5.74,0.61a78.43,78.43 0 0 0 16.55,-1.12a3.4,3.4 0 0 1 0.46,-0.08c3.45,-0.24 6.86,-1 10.33,-0.94a60.35,60.35 0 0 0 6.43,-0.65c1.08,-0.12 2.15,-0.2 3.22,-0.29s2.15,-0.2 3.22,-0.32c1.45,-0.15 2.9,-0.33 4.36,-0.48c0.76,-0.08 1.54,-0.12 2.3,-0.14s1.22,0 1.84,0c0.92,0.05 1.84,0.19 2.76,0.19c2,0 4,0.13 6,0.3s4.12,0.54 6.18,0.84a65.1,65.1 0 0 0 9.65,0.81q6.23,-0.06 12.45,-0.16c0.77,0 1.53,-0.17 2.29,-0.26a7.16,7.16 0 0 1 1.38,-0.13a45.85,45.85 0 0 0 5.74,-0.24a7.9,7.9 0 0 1 2.52,0.2a2.33,2.33 0 0 0 1.13,0.19a9.17,9.17 0 0 1 3.22,0a6.24,6.24 0 0 0 1.83,-0.09a5.5,5.5 0 0 1 2.52,0a4.67,4.67 0 0 0 2.29,0a43,43 0 0 1 6.89,-0.44a23.92,23.92 0 0 1 3.68,0.29l0.23,0c2.29,1.05 4.7,0.52 7.05,0.89c1.47,-0.19 2.86,0.68 4.35,0.49a14.91,14.91 0 0 1 4.36,0.4c1.36,0.23 2.74,0.29 4.12,0.54a25,25 0 0 1 5.59,1.69a4.09,4.09 0 0 0 2.25,0.47a2.08,2.08 0 0 1 1.33,0.34a5.61,5.61 0 0 0 3.82,0.67c0.66,-0.07 0.87,-0.63 0.54,-1.45a4.71,4.71 0 0 1 -0.21,-0.52c-0.05,-0.2 0.06,-0.37 0.26,-0.35a1.68,1.68 0 0 1 0.88,0.18a20.4,20.4 0 0 1 1.9,1.7a1.76,1.76 0 0 0 1.29,0.54a10.94,10.94 0 0 1 1.61,0.09a2.2,2.2 0 0 0 2.1,-0.94l0.18,-0.2c1,-1.74 2.29,-1.17 3.54,-0.53a0.56,0.56 0 0 1 0.2,0.14a2.77,2.77 0 0 0 3.15,1.19a6.19,6.19 0 0 1 1.61,0.05a1.8,1.8 0 0 0 1.67,-0.83a1.64,1.64 0 0 1 1.45,-0.73a2.2,2.2 0 0 1 1.76,0.46c0.83,0.72 1.69,1.39 2.5,2.05a40.48,40.48 0 0 1 6.69,0.32c1.22,0.19 2.44,0.42 3.66,0.54c1,0.09 2,0.47 2.93,-0.17c1,0.16 2,-0.28 3,0a2.18,2.18 0 0 0 1.13,-0.07a1.07,1.07 0 0 0 0.49,-0.58a1,1 0 0 0 -0.26,-1.05c-0.2,-0.16 -0.42,-0.26 -0.62,-0.4c-0.46,-0.33 -0.58,-0.55 -0.52,-0.86a1.35,1.35 0 0 1 0.56,-0.9a4.15,4.15 0 0 1 2.39,-1a19.49,19.49 0 0 0 4.79,-0.78a10,10 0 0 1 3.45,-0.15a0.59,0.59 0 0 1 0.22,0.05a13.15,13.15 0 0 0 2,0.89a10,10 0 0 0 1.82,0.07a1.48,1.48 0 0 1 1.19,0.8a1.17,1.17 0 0 0 1.47,0.57a3.74,3.74 0 0 1 2,-0.18c0.78,0.2 1.36,-0.14 1.71,-1.09a0.74,0.74 0 0 1 0.76,-0.54c0.69,0 1.37,0.14 2,0.21a3,3 0 0 1 0,1.86c-0.12,0.76 -0.52,1.22 -1.19,1a1.5,1.5 0 0 0 -1.34,0a0.65,0.65 0 0 0 -0.24,0.44c0,0.16 0.12,0.44 0.22,0.46a15.21,15.21 0 0 1 2.17,0.79a2.35,2.35 0 0 0 2,-0.38a1.06,1.06 0 0 0 0.44,-1c0,-0.4 0,-0.8 -0.07,-1.24l1.43,-2.08c2,-0.57 4,-1.15 6,-1.75a3.94,3.94 0 0 1 3.17,0.15a2.65,2.65 0 0 0 2,0.13a8.19,8.19 0 0 1 4.11,-0.18a0.87,0.87 0 0 1 0,0.28c-0.44,1 -0.43,1.52 0.18,2a1.48,1.48 0 0 1 0.72,1.37c0,0.68 0.25,0.9 0.7,0.88a2,2 0 0 0 0.69,-0.06a1.28,1.28 0 0 1 1.49,0.45c0.23,0.25 0.57,0.05 0.77,-0.32a1.45,1.45 0 0 0 -0.18,-1.84c-0.33,-0.25 -0.69,-0.45 -1,-0.67a2.58,2.58 0 0 1 -1,-1.62a1,1 0 0 1 0.34,-1a2.11,2.11 0 0 1 0.44,-0.17a20.26,20.26 0 0 0 5,-1.2a2.65,2.65 0 0 0 1.78,-1.51a1.49,1.49 0 0 1 1.39,-0.92a5.66,5.66 0 0 0 0.92,0c0.65,-0.16 1,0.25 1.21,1c0.15,0.47 0.5,0.43 0.7,0c0.08,-0.18 0.11,-0.38 0.17,-0.56s0.28,-0.47 0.54,-0.38a1.91,1.91 0 0 1 0.41,0.26c0.14,0.1 0.26,0.22 0.4,0.32a1.06,1.06 0 0 0 1.51,-0.07a7.75,7.75 0 0 1 0.66,-0.46l1.14,0.94a4.7,4.7 0 0 0 2.83,1.09a3.82,3.82 0 0 0 2.68,-0.68a3.88,3.88 0 0 1 2.87,-0.81a3.23,3.23 0 0 0 0.69,-0.07a1.56,1.56 0 0 1 1.29,0.47a7.1,7.1 0 0 0 1.39,1.06a1.68,1.68 0 0 0 2.19,-0.19a6.49,6.49 0 0 1 3,-1.36c0.36,0.18 0.7,0.37 1,0.58a3.63,3.63 0 0 0 3.53,0.81a0.94,0.94 0 0 1 0.68,0a2.46,2.46 0 0 0 2,-0.26a3.06,3.06 0 0 1 1.1,-0.38c1.92,-0.13 3.84,-0.21 5.75,-0.33a6.92,6.92 0 0 1 2.52,0.25a3.66,3.66 0 0 0 2.29,0a11.5,11.5 0 0 1 3.19,-0.51a22.07,22.07 0 0 0 2.3,-0.2a19.48,19.48 0 0 1 5.06,0c1.83,0.24 3.68,0.23 5.52,0.34a9.46,9.46 0 0 1 2.75,0.28a16,16 0 0 0 3.65,0.51a3.29,3.29 0 0 0 1.36,-0.08a6.26,6.26 0 0 1 3,-0.06a16.16,16.16 0 0 0 1.84,0.19a11.35,11.35 0 0 1 1.84,0.1a40,40 0 0 0 7.58,0.36a14.1,14.1 0 0 0 2.75,-0.28a20.52,20.52 0 0 1 5.75,-0.18a34.53,34.53 0 0 0 5.28,0.26c1.25,-0.05 2.45,0.34 3.67,0.31a11.76,11.76 0 0 1 3.44,0.42a3.17,3.17 0 0 0 1.37,0a6.31,6.31 0 0 1 2.29,0.08c1.14,0.18 2.29,0.21 3.44,0.28c0.61,0 1.23,0 1.84,0.1a20.29,20.29 0 0 0 3.18,0.53a22.71,22.71 0 0 1 3,0.2c4.67,0.56 9.33,1.17 14,1.73a8.58,8.58 0 0 0 3,0.1a0.9,0.9 0 0 1 0.46,0a19,19 0 0 0 4.82,0.08a44.28,44.28 0 0 1 6,0.53a70.53,70.53 0 0 1 9.32,2c1.5,0.4 3,0.95 4.47,1.45a1.06,1.06 0 0 1 0.42,0.22a10.29,10.29 0 0 0 4.36,1.78l1.35,0.35a1.7,1.7 0 0 1 1,0.7a4.45,4.45 0 0 0 0.87,1a2,2 0 0 0 2.4,0.38a4.16,4.16 0 0 1 2.93,-0.42a34.5,34.5 0 0 1 7,1.68c0.12,0 8.64,0.29 8.73,0.43c-0.12,0.09 -8.68,0.26 -8.79,0.24c-0.53,-0.06 -1.07,-0.15 -1.6,-0.26a4.83,4.83 0 0 0 -2.74,0.1a5.71,5.71 0 0 1 -3.2,0.05c-0.84,-0.16 -1.66,-0.41 -2.5,-0.6s-1.51,-0.33 -2.27,-0.43a10.1,10.1 0 0 1 -2.49,-0.56a7.41,7.41 0 0 0 -1.57,-0.46c-0.76,-0.13 -1.53,-0.18 -2.15,-0.25c-0.72,0.29 -0.86,1.07 -1.26,1.54a1,1 0 0 0 0.25,1.26c0.66,0.39 1.16,0.27 1.59,-0.55c0.25,-0.47 0.51,-0.79 0.93,-0.63a42.4,42.4 0 0 0 5.41,1.47c1.2,0.31 2.42,0.53 3.62,0.88a14.14,14.14 0 0 0 3.42,0.57c1.77,0.06 11.93,0.63 13.67,1.06a4.15,4.15 0 0 1 1.43,0.91a1.05,1.05 0 0 0 1.49,-0.22c0.39,-0.49 0.66,-1.12 1.17,-1.43a0.59,0.59 0 0 1 0.9,0.49c0,0.67 0.15,0.93 0.59,1a4.72,4.72 0 0 0 0.92,0a2,2 0 0 0 1.59,-1.06c0.34,-0.55 0.7,-1.06 1.05,-1.61a1.39,1.39 0 0 1 1.2,-0.74a8.92,8.92 0 0 1 3.19,0.58a0.72,0.72 0 0 1 0.34,0.37a0.84,0.84 0 0 1 0.07,0.54c-0.31,0.44 -0.67,0.82 -1,1.24a1.65,1.65 0 0 0 -0.17,1.66a3.32,3.32 0 0 0 0.87,1.39c0.51,0.43 1,0.85 1.57,1.26a5.31,5.31 0 0 1 1.65,1.62a1.42,1.42 0 0 0 1.21,0.74l0.23,0a2.84,2.84 0 0 1 2.35,1a3.13,3.13 0 0 0 0.58,0.36a21.92,21.92 0 0 1 -2.29,2.62a1.91,1.91 0 0 0 -0.49,1.6c0,0.71 0.09,1.41 0.14,2.11c0,0.38 0.32,0.81 0.57,0.84a2,2 0 0 0 2,-0.4c0.18,-0.19 0.4,-0.44 0.6,-0.43c0.81,0 1.39,-0.78 2.15,-1a0.31,0.31 0 0 1 0.23,0a0.37,0.37 0 0 1 0.17,0.16a0.36,0.36 0 0 1 0,0.26c-0.8,1 -1.49,2.29 -2.72,2.58a2.35,2.35 0 0 0 -0.64,0.35a2.28,2.28 0 0 0 -1.06,2.41a1.22,1.22 0 0 1 -0.47,1.25a1.77,1.77 0 0 0 -0.89,1.6a4.7,4.7 0 0 1 -0.42,1.38a2.57,2.57 0 0 0 -0.08,1.48a9.55,9.55 0 0 0 0.81,2.49c0.23,0.4 0.7,0.67 1,0.38c1.06,-1 2.33,-0.85 3.52,-1.14c0,0 0.14,0.07 0.19,0.14a0.46,0.46 0 0 1 0,0.26a0.45,0.45 0 0 1 0.04,0.27a30,30 0 0 1 -3.92,3.1c-0.29,1 -0.57,2.08 -0.85,3.14a4,4 0 0 0 0.49,0.67a1.2,1.2 0 0 1 0.42,1.27a5.62,5.62 0 0 0 0.1,3.25a2.26,2.26 0 0 1 -0.15,2a1.58,1.58 0 0 0 -0.05,0.86a7.49,7.49 0 0 0 0.83,2.48a2.76,2.76 0 0 1 0.13,2.23c-0.05,0.2 -0.09,0.39 -0.12,0.59a3.49,3.49 0 0 0 0.22,0.53a5.2,5.2 0 0 1 1,3.59a5.55,5.55 0 0 0 0.22,1.77c0.19,0.69 0.53,1.23 1.17,1.26a4.22,4.22 0 0 1 0.62,0.1s0,0 0,-0.07a0.2,0.2 0 0 1 0.06,-0.14l0,0a0.19,0.19 0 0 0 -0.05,0.14l0.05,0.07l-0.17,0a6.29,6.29 0 0 1 -0.85,2.38a1.25,1.25 0 0 0 0,1.13a18.38,18.38 0 0 0 1.26,1.74c0.5,0.55 0.43,1.51 1,2a5.21,5.21 0 0 1 0.48,0.74a5.35,5.35 0 0 0 -0.7,0.8a1.58,1.58 0 0 0 -0.19,0.8c0,0.38 0.31,0.83 0.22,1.11c-0.31,1 -0.21,1.76 0.62,2.18a0.41,0.41 0 0 1 0.16,0.28c0.16,0.33 0.46,0.63 0.31,1.06c-0.08,0.25 -0.33,0.39 -0.46,0.63a1.15,1.15 0 0 0 0,0.49s0.14,0.07 0.21,0.06c0.37,0 0.73,-0.37 1.11,-0.12a1.24,1.24 0 0 1 0.3,0.41a0.7,0.7 0 0 1 0,0.29c-0.1,1.1 -0.21,2.19 -0.28,3.29a6.37,6.37 0 0 1 -0.66,1.91a1.18,1.18 0 0 0 0.35,1.52c0.07,0 0.13,0.11 0.2,0.15a0.92,0.92 0 0 0 0.21,0.13a2.56,2.56 0 0 1 1.31,2.27c0,0.2 0.08,0.39 0.1,0.59c0.23,1.5 0.73,2.63 2.06,2.68c0.2,0 0.35,0.52 0.23,0.7a0.86,0.86 0 0 1 -0.15,0.22a4.18,4.18 0 0 0 -1.12,1.87a1.63,1.63 0 0 0 0.18,1.66c0.3,0.4 0.81,0.6 0.52,1.37a0.49,0.49 0 0 0 0,0.29a10.53,10.53 0 0 1 0.65,1.19c0.17,0.44 0.18,1 0.36,1.42a17.52,17.52 0 0 0 0.94,1.7a2.53,2.53 0 0 1 0.35,2a1.82,1.82 0 0 0 0.34,1.65a3.3,3.3 0 0 1 0.51,0.6c0.57,1.25 -4.14,1.86 -3.19,2.43l0.06,-0.08l0,0s-0.55,0.49 -0.79,0.7a2.05,2.05 0 0 0 -0.71,1.48c0,0.6 -2.93,1.2 -3,1.81a3.54,3.54 0 0 0 0.25,1.76a4.15,4.15 0 0 1 -0.25,4.18a1.33,1.33 0 0 0 -0.26,0.5a4.2,4.2 0 0 0 0.06,0.86a0.4,0.4 0 0 0 0.14,0.22a3.62,3.62 0 0 1 0.83,2.7a1.6,1.6 0 0 0 0.81,1.63c0.32,0.18 0.21,0.63 0.12,1.05c-0.19,0.89 -0.17,1 0.32,1.13a1.37,1.37 0 0 1 1,1.62l0,0a3.57,3.57 0 0 0 0.24,1.71a23.92,23.92 0 0 1 0.74,2.5a13.6,13.6 0 0 0 -0.33,1.48a4.5,4.5 0 0 1 -0.94,2.36a2.25,2.25 0 0 0 -0.42,1.94a29.57,29.57 0 0 1 0.53,5.39a6.78,6.78 0 0 0 0.14,1.19c0.28,1.78 0.54,3.56 0.87,5.32a7.76,7.76 0 0 0 1.08,3.29a1.33,1.33 0 0 1 -0.18,1.59c-0.1,0.14 -0.26,0.21 -0.37,0.35a1.28,1.28 0 0 0 -0.08,1.37c0.14,0.23 0.33,0.43 0.49,0.65s0.21,0.29 0.35,0.51a7,7 0 0 0 0.1,2.85a6.45,6.45 0 0 0 0.75,2.47a1.74,1.74 0 0 1 0.17,0.84a2.36,2.36 0 0 0 0.34,1.1a2.33,2.33 0 0 1 0,2.5a1.17,1.17 0 0 0 0.08,1.35a1.12,1.12 0 0 1 0.16,0.22c0.09,0.27 0.28,0.59 0.23,0.81c-0.25,1.06 0.42,1.63 0.67,2.42l-0.67,1.58a1.82,1.82 0 0 0 0.11,1.93a0.83,0.83 0 0 1 0.16,0.55c-0.21,1.28 0.3,2.59 -0.1,3.88a1.38,1.38 0 0 0 0.53,1.52a2.07,2.07 0 0 1 0.94,1.58a10.31,10.31 0 0 1 0.13,3.59a14.37,14.37 0 0 0 -0.2,3a9.7,9.7 0 0 1 -0.93,4.31c-0.08,0.17 -0.17,0.33 -0.25,0.5a2.15,2.15 0 0 0 0.12,2.48a3.05,3.05 0 0 0 1.71,1.41l0,-0.06l0,0l0,0.06l0,0c0.55,2.06 1.2,4.09 1.93,6.06a7.5,7.5 0 0 1 0,5.55a18.85,18.85 0 0 0 -1.05,5.21c0,0.51 -0.2,1 -0.26,1.45a4.56,4.56 0 0 0 0.34,2.91a3.11,3.11 0 0 1 0.27,2.26c-0.06,0.33 0.19,0.49 0.43,0.58c0.89,0.31 0.94,0.37 1,1.25a4,4 0 0 0 0,0.6c0.07,0.26 0.16,0.63 0.32,0.72a1.48,1.48 0 0 1 0.57,1.75c-0.09,0.48 -0.19,1 -0.31,1.44c-0.18,0.71 -0.19,0.7 0.28,1.17s0.43,0.58 0.26,1s-0.42,0.85 -0.58,1.3a1.07,1.07 0 0 0 0.06,0.56a0.4,0.4 0 0 0 0.51,0.26l0.08,0a1.52,1.52 0 0 0 0.38,-0.34c0.14,-0.16 0.3,-0.21 0.41,0a1.88,1.88 0 0 1 0.25,0.81c0,0.55 -0.42,0.8 -0.64,1.2a1,1 0 0 0 0.27,1.27c0.43,0.19 0.88,0.31 1.31,0.52a0.65,0.65 0 0 1 0.11,0.49c-0.18,0.32 -0.45,0.55 -0.62,0.88a1.6,1.6 0 0 1 -1.34,1a1.27,1.27 0 0 0 -0.63,0.3a0.73,0.73 0 0 0 -0.19,0.49c0,0.15 0.15,0.42 0.23,0.42c0.61,0 1.22,-0.11 1.83,-0.12a0.78,0.78 0 0 1 0.64,0.28a10.16,10.16 0 0 1 1.9,3.34a1.72,1.72 0 0 1 -0.6,1.77a6,6 0 0 1 -0.66,0.26c-0.3,0.1 -0.61,0.17 -0.9,0.28a1,1 0 0 0 -0.33,1.58c0.16,0.21 0.36,0.39 0.53,0.58a1.3,1.3 0 0 1 0.22,1.59a1.29,1.29 0 0 0 -0.08,0.28a1.11,1.11 0 0 0 0.64,1.36c0.3,0.09 0.61,0.09 0.91,0.19c1,0.3 1.23,1.22 0.6,2.22c-0.2,0.3 -0.41,0.58 -0.61,0.86c0.14,0.21 0.22,0.44 0.33,0.49c0.68,0.29 0.85,0.87 0.74,1.68l0.14,-0.08zm-780.53,164.77l0,-0.14l0.48,-0.26l-0.48,0.27l0,0.13zm761.29,-365.83l0,0l-0.08,-0.06a0.14,0.14 0 0 0 0.07,0.06l0.01,0z" />
    </g>
</svg>