<svg xmlns="http://www.w3.org/2000/svg" width="1440.004" height="30" viewBox="0 0 1440.004 30">
  <path id="Intersection_35" data-name="Intersection 35" d="M23348,1097V1078.49a18.838,18.838,0,0,1,2.688-.039,1.891,1.891,0,0,0,.986-.264c.541-.251,1.08-.5,1.684.088.07.069.641-.383.98-.6-.258-.063-.516-.138-.779-.188a20.012,20.012,0,0,0-3.73.107h-.031q-.9,0-1.8.02v-1.288c4.742-.086,9.484.088,14.227.364a4.263,4.263,0,0,0,1.238-.182,4.736,4.736,0,0,1,1.131-.188c3.605.006,7.211.113,10.822.1a4.756,4.756,0,0,1,.584.044,1.93,1.93,0,0,0,1.84-.477,1,1,0,0,1,.961.119,2.079,2.079,0,0,0,2.029.641q.264-.019.527-.019,7.781.019,15.564.031c.277,0,.559.031.83.057,1.035.088,2.3.6,3.053.188,1.658-.9,3.127.075,4.646.094.635.006,1.465.188,2.205.226a7.022,7.022,0,0,0,1.426-.2c-.465-.214-.941-.408-1.387-.653a.793.793,0,0,1-.314-.427c.15-.17.352-.39.559-.415a3.2,3.2,0,0,1,3,1.564c.816,1.08,1.848.873,2.9.842.162-.006.32-.188.477-.283-.139-.188-.244-.49-.434-.547-.572-.188-1.18-.264-1.766-.421-.156-.044-.281-.22-.42-.333.156-.176.326-.5.471-.49a11.067,11.067,0,0,1,2.625.364,9.934,9.934,0,0,0,3.537.3c.564-.019,1.131-.038,1.7-.013a9.728,9.728,0,0,1,2.406.389,1.822,1.822,0,0,1,.93.923c.691,1.445,2.256,1.765,2.971.4a.9.9,0,0,1,1.055-.609c1.816.069,3.639.126,5.439.32a2.641,2.641,0,0,1,1.352.923,4.823,4.823,0,0,0,1.438,1.131,3.3,3.3,0,0,1,.654.308,4.938,4.938,0,0,1-.076-.735c.006-.157.113-.446.158-.446a5.626,5.626,0,0,0,.854-.038c.83-.094,1.664-.182,2.186.967.434.967,1.465.66,2.293.622.107-.006.309-.3.295-.433-.074-.622.139-1.093.768-.835.52.22,1.457.075,1.418,1.1-.043,1.043.1,1.049,1.168.634a3.283,3.283,0,0,0,1.992-1.834c.936-1.9,1.67-2.2,3.5-1.363a9.04,9.04,0,0,0,3.141.741c1.891.163,3.758.572,5.641.835.816.119,1.658.107,2.475.239.232.038.416.371.623.565-1.275.421.02.773.025,1.156.018,1.294.828,1.049,1.338.5,2.2-2.343,4.793-2.123,7.613-1.564,1.594.32,3.189,1.2,4.967.408.422-.188,1.162.415,1.771.578a47.086,47.086,0,0,0,4.869,1.2c1.225.188,2.146-.76,3.027-1.457,1.395-1.1,1.645-1.112,2.863.364a1.007,1.007,0,0,0,.754.283c2.689-.245,5.377-.86,8,.44a1.556,1.556,0,0,0,.873.031,2.983,2.983,0,0,1,.621-.031,5.991,5.991,0,0,0,.674.019c.111-.082.225-.157.338-.245,1.207-.886,2.883-1.853,4.523-1.4,1.344.371,2.248-.371,3.348-.609.131-.025.227-.27.34-.415-.189-.145-.371-.4-.561-.4-.936-.019-1.871.038-2.807.038a1.476,1.476,0,0,1-.51-.214,1.587,1.587,0,0,1,.346-.195,8.257,8.257,0,0,1,1.967-.459,7.1,7.1,0,0,1,3.027.4,1.4,1.4,0,0,0,1.834-.126c.139-.119.27-.251.4-.377-.207-.126-.535-.4-.6-.345-.652.521-1.023.144-1.389-.226-.264-.27-.521-.54-.885-.477.031-.195-.006-.471.105-.565a1.959,1.959,0,0,1,.867-.484c1.8-.383,3.637-.609,5.4-1.105a28.666,28.666,0,0,1,9.3-.559c3.982.214,7.939.088,11.914.038a3.049,3.049,0,0,0,2.168.289,3.091,3.091,0,0,1,2.361.389c.221.163,1.119-.565,1.7-.9.014-.006-.074-.32-.162-.345-1.012-.358-2.35-1.489-3.021-.722-.986,1.118-1.959.854-2.928.59a3.9,3.9,0,0,0-1.545-.214c-1.613.226-3.367.647-5-.2a.476.476,0,0,0-.27-.013,1.355,1.355,0,0,1-.156.013c-3.035-.063-6.068-.22-9.1-.163-.473.013-.955-.006-1.434-.019a9.858,9.858,0,0,0-4.422.546c-.17.075-.49-.113-.7-.258-.049-.031.057-.4.176-.54a3.014,3.014,0,0,1,2.432-1.375c1.168.075,2.33.2,3.492.339.459.063,1.037.465,1.338.3a5.208,5.208,0,0,1,2.758-.415,7.468,7.468,0,0,0,1.8-.075c.162-.031.289-.446.357-.7a1.546,1.546,0,0,0-.1-.565c.209.119.6.3.586.364-.227.835.445.873.916,1.105a8.582,8.582,0,0,0,4.566.565,2.087,2.087,0,0,1,.936.157,2.654,2.654,0,0,0,.836.17c2.2-.063,4.4-.226,6.6-.333a2.147,2.147,0,0,1,.615.107,2.226,2.226,0,0,0,1.689-.176,5.989,5.989,0,0,1,2.52-.314c.352,0,.7.006,1.035-.013a3.2,3.2,0,0,1,2.84.942c.484.54,1.168.289,1.877-.094.912-.5,1.8-1.225,3.016-1.062a61.857,61.857,0,0,0,11,.145c2.457-.113,4.912-.226,7.369-.145,3.58.126,7.18.013,10.721.93a28.482,28.482,0,0,0,4.994.364,25.67,25.67,0,0,1,5.7.7.738.738,0,0,0,.264.006,1.332,1.332,0,0,1,.164-.013c2.531.075,5.063.245,7.594.207a14.157,14.157,0,0,1,5.02.854c.457.163,1.049.415,1.432.264,1.105-.44,2.078-.622,2.945.389a.2.2,0,0,0,.207-.006c.371-.289.734-.59,1.1-.886.238.427.439,1.175.723,1.206a2.6,2.6,0,0,0,1.7-.477c.484-.345.8-.578,1.213-.025a1.624,1.624,0,0,0,1.953.4c1.275-.408,2.488-.861,3.756-.05a7.272,7.272,0,0,1,3.725.044c1.477.276,2.947.547,4.4-.239a5.7,5.7,0,0,1,1.494-.327c-.338-.565-.859-.559-1.389-.553-.105,0-.213,0-.32-.006-2.242-.063-4.484-.157-6.732-.251a2.406,2.406,0,0,1-.564-.176c.162-.082.32-.176.5-.251.922-.389,1.727-1.143,2.926-.565.377.176,1.145-.283,1.641-.6,1.658-1.074,1.707-1.074,2.676.59a.947.947,0,0,0,.8.345c.967-.251,1.9-.647,2.871-.879.309-.075.91.113,1,.333.176.44.189,1.018-.646.936a1.623,1.623,0,0,0-.973.232c-.459.3-.705.685-.121,1.187a2.776,2.776,0,0,0,3.406.22c.275-.176.809-.345,1-.207a1.439,1.439,0,0,0,1.049.094c.635-.094,1.256-.188,1.389.9,1.061-.232,2.381-.157,3.115-.773a2.606,2.606,0,0,1,2.883-.741c1,.32,2.262-.258,3.09.848a.782.782,0,0,1,.623-.019c.4.082.809.163.84-.628,0-.094.359-.3.484-.251a6.718,6.718,0,0,0,3.492-.006,8.175,8.175,0,0,1,2.84-.176,1.723,1.723,0,0,0,.314.019.777.777,0,0,1,.488.094c1.451,1.269,3,.7,4.543.3a1.563,1.563,0,0,1,.8-.119c.484.188,1.111.383.422,1.106a3.7,3.7,0,0,0-.881,1.357c-.049.132-.244.126-.42.113-.258-.013-.471-.025-.076.421.184.2,1.088.094,1.1.05.127-.892,2.117-.515,1.326-2.18-.34-.722.8-1.35,1.482-.7.779.747,1.582.484,2.525.641.275.314.451.528.621.741.119-.132.238-.258.352-.389-.289-.151-.578-.308-.873-.465a4.537,4.537,0,0,1,4.428-.044c.473.239.666,1.256.768,1.947.1.716.539.584.9.5.162-.044.363-.641.313-.678-.451-.339-.15-.528.07-.8.627-.791.941-1.552-.334-2.073-.018-.006.107-.678.238-.7a.99.99,0,0,1,1.346.9c.082.641.025,1.294.068,1.935.088,1.175.453,1.482,1.59,1.357a2.412,2.412,0,0,0,.564-.195c-.088-.245-.113-.634-.275-.7-.943-.421-1.338-.854-.754-1.979.176-.339-.648-1.212-1.049-1.815a3.427,3.427,0,0,0-.609-.584,2.164,2.164,0,0,1,.709-.276c1.5-.063,3.01-.126,4.516-.107a2.23,2.23,0,0,1,1.082.465.584.584,0,0,1,.15.547.62.62,0,0,1-.521.226c-.6-.088-1.176-.314-1.771-.352a13.667,13.667,0,0,0-1.885.138c.453.785.873,1.589,1.375,2.343a1.434,1.434,0,0,0,1.891.383c.729-.32,1.377-.823,2.168-1.143.063.3.082.559-.045.678a2.154,2.154,0,0,1-.658.339c.188.057.4.195.564.157.453-.1.887-.3,1.332-.433.572-.17,1.381-.641,1.7-.421a2.5,2.5,0,0,0,1.879.3,3.942,3.942,0,0,1,1.018-.025,9.989,9.989,0,0,0,1.5-.025c.5-.013,1.006-.025,1.516-.044s.992-.044,1.488-.069c-.02-.389-.49-1.005.5-.861a8.645,8.645,0,0,0,1.508-.019c.5-.019,1-.006,1.506-.05a1.787,1.787,0,0,0,.51-.239c-.156-.144-.289-.383-.471-.427a6.075,6.075,0,0,0-2.551-.5c-1.984.471-3.838-.019-5.734-.339-.678-.107-1.414.063-1.559.747-.225,1.093-.955,1.049-1.74,1.062-.715.013-1.432.038-2.146.057a15.688,15.688,0,0,1,1.268-1.847,1.2,1.2,0,0,1,1.049-.339c1.037.5,1.885.013,2.795-.308a2.48,2.48,0,0,1,1.4-.232,10.967,10.967,0,0,0,4.158.3c.57-.031,1.143-.069,1.721-.063,1.268.013,2.625.553,3.775-.5a.692.692,0,0,1,.621-.013,5.231,5.231,0,0,1,.828.609,2.071,2.071,0,0,1-.76.22c-1.307-.126-.7.992-.859,1.464-.24.716.352,1.262,1.105,1.112a6.8,6.8,0,0,1,2.141.006,7.013,7.013,0,0,0,2.262-.013c1.369-.3,2.889.132,4.34.232a2.238,2.238,0,0,0,.648-.025,4.461,4.461,0,0,0,.641-.27,4.4,4.4,0,0,1-.584-.157c-.24-.113-.465-.276-.7-.408a3.259,3.259,0,0,0-.365-.157,1.611,1.611,0,0,1,.434-.27,20.212,20.212,0,0,1,5.672-.22c.936.05,1.871.1,2.807.088a10.5,10.5,0,0,1,3.461.886,13.3,13.3,0,0,0,5.729.49c.736-.044,1.471-.088,2.205-.088.8.006-.062-.377-.074-.7,2.148-.163,4.309-.214,6.457-.276a7.949,7.949,0,0,1,1.219.088,4.671,4.671,0,0,0,2.324-.126c.658-.258,1.111-.4,1.205-1.168a.908.908,0,0,1,.533-.628c.5-.17.68.082.768.641.137.936.465,1.036,1.557.685,1.264-.4,2.965-.7,4.09.842a1.847,1.847,0,0,0,1.236.6.485.485,0,0,0,.1.006,1.024,1.024,0,0,1,.633-.157,5.9,5.9,0,0,0,2.67-.006,9.01,9.01,0,0,1,1.734-.163c-.283-.063-.566-.126-.848-.195-.592-.132-1.182-.251-1.771-.389a1.508,1.508,0,0,1-.34-.207c.113-.075.221-.207.334-.207,2.291-.044,4.572-.094,6.857-.088.6,0,1.2.232,1.811.27a4.9,4.9,0,0,0,.527-.006c.74-.044,1.406-.082,1.395,1.332,0,.7,1.514,1.093,2.26.678a2.311,2.311,0,0,1,1.76-.113,3.093,3.093,0,0,0,1.148.1c1.012-.182,2.029-.333,3.041-.515a14.985,14.985,0,0,1,2.2-.415,4.64,4.64,0,0,1,1.092.138,5.432,5.432,0,0,0,1.088.138,4.884,4.884,0,0,0,2.217-.389c1.355-.66,2.2.063,2.857,1.507.258.559.854.992,1.049,1.683.031.107,1.1.415,1.049-.389-.051-.923.408-.879,1.023-.879.227,0,.453-.006.686-.013a3.637,3.637,0,0,1,2.965.785,1.844,1.844,0,0,1-.277.685c.334.05.912.239.961.144.561-1.055,1.746-.716,2.557-1.2.277-.17.975-.151,1.119.05.779,1.074,1.576.477,2.387.151.371-.151.729-.327,1.105-.459.42-.144,1.213-.207,1.23-.377.094-.76-.445-.691-.859-.628a1.7,1.7,0,0,1-.359.038,28.752,28.752,0,0,0-3.895-.031,3.812,3.812,0,0,1-.885.013c-.158-.038-.27-.276-.408-.427.119-.063.244-.188.352-.182a19.835,19.835,0,0,0,2.928-.069,12.7,12.7,0,0,1,4.686.245,8.452,8.452,0,0,0,3-.044,1.515,1.515,0,0,1,1.557.766c1.168,1.7,1.936,1.7,3.461.352a3.075,3.075,0,0,1,1.488-.377c.039-.013.258.389.2.515a4.934,4.934,0,0,1-.689,1.175c-.057.069-.2.057-.352.044a1.38,1.38,0,0,0-.277-.006c-.4.063-.8.157-1.205.232a7.906,7.906,0,0,0,1.457.6,5.06,5.06,0,0,0,1.508-.019c.721-.082,1.443-.207,2.166-.314-.691-.038-1.395-.063-2.086-.126-.137-.013-.264-.17-.4-.264.1-.107.182-.264.3-.3.377-.119.842-.371,1.148-.251a5.675,5.675,0,0,0,4.234-.069,4.63,4.63,0,0,1,1.865-.057c.6.044,1.2.214,1.809.283a2.193,2.193,0,0,0,.447-.025.957.957,0,0,1,.615.025,5.5,5.5,0,0,0,3.988.421,9.827,9.827,0,0,1,2.18-.157c.533.038,1.061.214,1.6.283a3.03,3.03,0,0,0,1.457.031c1.922-.93,3.705-.176,5.539.276.309.075.711-.2,1.074-.314-.244-.314-.434-.829-.74-.911a16.665,16.665,0,0,0-2.625-.4,5.718,5.718,0,0,0-1.037.006,3.188,3.188,0,0,1-2.049-.333c-.281-.176-.816.038-1.23.094a22.466,22.466,0,0,1-2.871.377,7.6,7.6,0,0,1-1.934-.49,17.776,17.776,0,0,1,1.891-.327c1.219-.075,2.443-.044,3.662-.113a4.339,4.339,0,0,1,.5,0c.729.019,1.469.044,1.658-1.093.02-.126.717-.138,1.094-.207a4.808,4.808,0,0,1-.014,1.162c-.037.151-.414.22-.635.327.264.057.578.226.785.145a3.472,3.472,0,0,1,1.822-.107,6.079,6.079,0,0,0,1.068.057,9.071,9.071,0,0,1,3-.031c1.928.559,3.838.226,5.74.188,1.582-.031,3.1-.308,4.674.3a6.525,6.525,0,0,0,2.563-.019,4.745,4.745,0,0,1,.848.044,3.316,3.316,0,0,0,1.4-.038,8.351,8.351,0,0,1,2.857-.157c.434.025.867.05,1.295.044a23.189,23.189,0,0,1,3.977.7,2.67,2.67,0,0,0,.633,0,3.524,3.524,0,0,1,.447-.013c.646.025,1.293-.013,1.941-.05a10.423,10.423,0,0,1,3.932.289,4.994,4.994,0,0,0,1.928-.031.542.542,0,0,0,.32-.415.746.746,0,0,0-.309-.415,1.413,1.413,0,0,1-1.268-.144c-.541-.239-1.088-.471-1.678.132-.227.232-1.125-.226-1.715-.308a10.771,10.771,0,0,0-2.205,0c-.439.031-.879.063-1.318.057a29.831,29.831,0,0,1-3.492-.327,5.86,5.86,0,0,1-1.143-.352c-.221-.082-.434-.188-.648-.289a3.412,3.412,0,0,1,.578-.17,1.537,1.537,0,0,1,.34-.006,1.117,1.117,0,0,0,.508-.05c.246-.1.408-.383.617-.584-.24-.232-.441-.559-.723-.653a1.617,1.617,0,0,0-.654-.031,3.039,3.039,0,0,1-.414.019c-.113-.006-.227-.126-.34-.2.113-.069.221-.157.334-.22a4.11,4.11,0,0,1,3.943-.082.969.969,0,0,1,.453.729c-.012,1.168.6,1.35,1.627,1.382,2.807.088,5.615.308,8.424.446a.71.71,0,0,0,.57-.308.6.6,0,0,0-.213-.565,3.681,3.681,0,0,0-1.193-.22c-.453,0-.91.019-1.363.031-.621.025-1.25.05-1.871.025a7.27,7.27,0,0,1-1.766-.383.543.543,0,0,1-.283-.459c.006-.132.227-.377.359-.37,1.758.019,3.516.069,5.275.126.2.006.4.151.59.126,2.123-.314,2.4-.2,3.273,1.495.088.176.131.377.207.559.238.578.484,1.156.723,1.734a13.745,13.745,0,0,1,1.111-1.363c.088-.082.27-.063.459-.044a2.129,2.129,0,0,0,.281.013,7.759,7.759,0,0,0,1.439-.119c.2-.05.307-.39.459-.6-.2-.044-.391-.107-.584-.132-1.1-.119-2.193-.22-3.285-.364-.145-.013-.264-.239-.4-.364.17-.157.34-.471.5-.458a53.31,53.31,0,0,1,6.264.383,8.713,8.713,0,0,0,4.232-.17,7.584,7.584,0,0,1,4.5.371,7.779,7.779,0,0,0,2.455.163.8.8,0,0,0,.547-.59.826.826,0,0,0-.584-.565c-.49-.031-.986-.025-1.488-.013-.428.006-.861.013-1.295-.006-.17-.006-.332-.3-.5-.471.133-.119.258-.327.408-.345a2.9,2.9,0,0,1,1.289-.031,6.677,6.677,0,0,0,4.83-.119c.465-.182,1.066-.113.689.741a4.119,4.119,0,0,0-.27,1.168c-.068.584.176.691.754.553a8.6,8.6,0,0,1,1.891-.132,1.426,1.426,0,0,1,.357.063.841.841,0,0,0,.439.05,7.779,7.779,0,0,1,2.443-.163,6.046,6.046,0,0,0,3.041-.408,9.615,9.615,0,0,1,4.8-.992c.221.006.479-.245.66-.433a.741.741,0,0,0,.2-.547.572.572,0,0,0-.453-.289c-1.363.013-2.732.057-4.1.094-.018,0-.051-.006-.074-.006-.057-.006-.113-.013-.133.013-.371.408-.734.829-1.092,1.244-.334-.415.137-1.363-.93-1.319a2.177,2.177,0,0,1-.705-.126,2.575,2.575,0,0,0-.672-.132c-1.582,0-3.166.075-4.742.1a5.531,5.531,0,0,1-1.244-.107c-.176-.038-.312-.276-.471-.427a2.3,2.3,0,0,1,.408-.283,3.738,3.738,0,0,1,1.313-.44,26.289,26.289,0,0,1,3.713.333c.779.132,1.42.559,2.336.151.629-.276,1.533.075,2.313.132a9.215,9.215,0,0,0,1.381-.038,4.658,4.658,0,0,1,2.771.358.607.607,0,0,0,.42-.013,8.844,8.844,0,0,1,3.889-.157,10.334,10.334,0,0,0,3.379-.013c.113-.025.252.075.377.113.691.22,1.162,1.017,2.166.32.49-.333,1.559.226,2.369.283,1.979.126,3.963.188,5.941.3a1.058,1.058,0,0,1,.365.151c-.113.151-.2.389-.352.446a2.486,2.486,0,0,1-1.182.264c-2.129-.345-4.34.132-6.432-.66a.963.963,0,0,0-.822.044c-.641.729-1.162.27-1.848.057a19.416,19.416,0,0,0-3.047-.4c-.672-.088-1.338-.226-2-.345-.609-.113-1.312,0-1.418.6-.232,1.35-1.187,1.156-2.086,1.187a3.544,3.544,0,0,1-.357-.013,1.087,1.087,0,0,0-.7.075,4.094,4.094,0,0,0-.773,1.08c.295-.025.59-.063.887-.075,1.248-.05,2.5-.144,3.748-.138,1.615.013,3.229.113,4.844.163a1.014,1.014,0,0,0,.363-.157c-.111-.151-.207-.4-.352-.427a8.245,8.245,0,0,0-1.619-.22c-.439-.013-.873-.006-1.312,0-.561.006-1.125.013-1.684-.013-.207-.013-.4-.371-.592-.572a4.859,4.859,0,0,1,.811-.628c.107-.05.34.17.527.245a12.555,12.555,0,0,0,3.645.534c2.355.251,4.717-.031,7.1.547a19.7,19.7,0,0,0,4.773.327c.646-.006,1.293-.013,1.934,0,.207.006.416-.226.623-.352a5.363,5.363,0,0,0-.5-.49,3.944,3.944,0,0,0-.691-.415c-.326-.151-.666-.27-1-.408.395-.157.91-.547,1.168-.421,1.08.534,2.758-.013,3.223,1.734.043.176.715.251,1.1.258.938.013.416-.333.145-.647-.137-.163-.3-.534-.25-.572.25-.214.584-.521.848-.484,1.338.188,2.65.59,3.982.691.916.063,1.639.019,1.645,1.206,0,.088.479.163.736.251a4.569,4.569,0,0,0,.006-.766,5.638,5.638,0,0,0-.246-.754,3.879,3.879,0,0,1,.762-.019c.873.119,1.738.346,2.619.39,1,.044,2.1-.2,2.027,1.388,0,.094.309.283.453.27s.389-.27.371-.364c-.264-1.112.545-.986,1.143-.93,2.463.226,4.93.5,7.387.766.541.057,1.061.232,1.6.27a58.064,58.064,0,0,1,9.2,1.055,2.185,2.185,0,0,0,.672.006,2.879,2.879,0,0,1,.4-.019c.961.013,1.922.013,2.883.006a59.366,59.366,0,0,1,6.859.245,28.645,28.645,0,0,0,3.518.113,27.138,27.138,0,0,1,3.43.107c3.914.44,7.826.427,11.74.609,3.045.145,6.111.358,9.139.647a48.2,48.2,0,0,0,5.627.107c.873-.019,1.746-.038,2.627-.031a27.748,27.748,0,0,0,3.906-.5,7.93,7.93,0,0,1,1.281-.057,7.031,7.031,0,0,0,1.734-.138c-.246-.364-.5-.71-.76-1.062.715-.408,1.193-.013,1.639.7l.006.031a2.57,2.57,0,0,1,1.049.17,3.487,3.487,0,0,0,.943.176h.8a21.741,21.741,0,0,1-.717-2.958c-.023-.138.3-.477.453-.471.275.019.779.239.773.352a24.96,24.96,0,0,1-.359,3.078c.734-.006,1.477-.006,2.217-.006.014-.025.033-.05.045-.069l.076.063a52.037,52.037,0,0,0,5.332-.245,42.549,42.549,0,0,0,6.721-1.52,15.169,15.169,0,0,1,7.486-.6,11.74,11.74,0,0,0,3.355.05,19.034,19.034,0,0,1,2.236-.088c2.059.088,4.1.452,6.162.565a6.99,6.99,0,0,0,1.029-.057,4.654,4.654,0,0,1,1.613.019,40.66,40.66,0,0,0,5.422.383c2.4.2,4.8.465,7.191.722.309.031.729.364.879.258,1.049-.785,1.816-.339,2.545.458a.274.274,0,0,0,.037.044c.391.013.773.013,1.156.006.76-1.4,1.891-.8,2.789-.4a4.554,4.554,0,0,0,2.355.289c1.783-.132,3.631-.641,5.445.157a4.833,4.833,0,0,0,1.922-.013,14.964,14.964,0,0,1,5.164.666c2.324-.006,4.635.006,6.934.22,1.037.094,2.072.082,3.109.075a22.943,22.943,0,0,1,3.838.163c.371.057.74.1,1.111.138a28.519,28.519,0,0,1,3.506.107c1.783-.031,3.566-.157,5.352-.163,1.74-.013,3.479-.572,5.2-.49,1.928.1,3.875.119,5.8.352.275-.025.547-.044.816-.075,3.688-.4,7.361-.327,11.035-.6,1.289-.094,2.582-.075,3.877-.107,1.219-.038,2.455.025,3.662-.126a15.04,15.04,0,0,1,1.914-.063c.541.006,1.074.013,1.609-.031,3.158-.27,6.074.886,9.088,1.388l.334.057c1.6.025,3.2.069,4.8.1a37.4,37.4,0,0,0,6.105-.05,17.769,17.769,0,0,1,4.326-.5c5.855.666,11.684-.05,17.52-.119a62.086,62.086,0,0,0,9.547-1c1.238-.2,2.645-.559,3.951.195.377.214.973.044,1.477.031a23.937,23.937,0,0,1,7.869.615,16.753,16.753,0,0,0,3.914.371c2.1.113,4.209.088,6.293.3,1.953.195,3.883.628,5.816.955a7.092,7.092,0,0,0,.8.138c.754.025,1.508.019,2.268.013a21.345,21.345,0,0,1,4.879.32c3.141.7,6.414.3,9.5,1.325a6.98,6.98,0,0,0,2.344.006,6.952,6.952,0,0,1,4.529,1.036,4.348,4.348,0,0,0,2.129.5c1.885.151,3.838-.063,5.641.371a13.959,13.959,0,0,0,3.756.2,11.624,11.624,0,0,1,4.334.377,2,2,0,0,0,.641-.006c6.99-.038,13.975-.013,20.961-.138,3.2-.063,6.387-.465,9.584-.634,1.068-.05,2.148.157,3.223.195,1.117.044,2.242.05,3.361.044,1.506-.013,3.014-.088,4.521-.107.811-.019,1.615-.044,2.432-.069,1.2-.031,2.412,0,3.611-.107a22.556,22.556,0,0,0,3.039-.509,26.675,26.675,0,0,1,3.1-.823c.471-.044,1.1.477,1.494.892a5.258,5.258,0,0,0,3.939,1.476c2.066.082,4.119.408,6.188.515,1.8.094,3.605.044,5.408.019,1.939-.025,3.881-.044,5.816-.182.52-.038,1.117-.8,1.494-.678.547.182.924.7,1.678.66a46.062,46.062,0,0,0,7.625-1.118,22.686,22.686,0,0,1,3.793-.477,22.862,22.862,0,0,0,5.32-.967,30.613,30.613,0,0,1,4.322-.6c1.086-.151,2.172-.333,3.26-.515a.519.519,0,0,0,.338-.2c.773-1.438,2.156-1.2,3.406-1.175,2.725.057,5.182-1.074,7.738-1.727,3.121-.791,6.174-1.809,9.471-1.784,1.947.013,3.895-.371,5.842-.54a12.23,12.23,0,0,1,1.729.013,9.53,9.53,0,0,0,2.234-.05,12.007,12.007,0,0,1,4.135.283c2.531.477,5.119.415,7.625.773,1.658.239,3.084-.232,4.617-.245a1.829,1.829,0,0,1,.564.188c-.145.151-.258.364-.434.452-.471.251-.986.415-1.451.666-1.219.672-1.3,1.7-.162,2.374a2.57,2.57,0,0,0,1.16.276c2.236.107,4.486,1.419,6.723-.107.25-.182.771-.05,1.143.031,1.508.327,3.072.22,4.566.892.766.345,1.9-.113,2.863-.27,1.025-.17,1.961-.484,2.979.314.451.352,1.443.2,2.129.031.9-.22,1.689-.484,2.525.232a2.314,2.314,0,0,0,1.355.314,8.044,8.044,0,0,0,1.346-.094,6.088,6.088,0,0,1,1.971-.025,15.373,15.373,0,0,0,3.438-.044,8.489,8.489,0,0,1,4.672.647,2.712,2.712,0,0,0,1.244.063c1.582-.031,3.166-.069,4.742-.119a44.058,44.058,0,0,1,7.217.622,37.941,37.941,0,0,0,5.6-.088,23.241,23.241,0,0,1,5.922.691,4.447,4.447,0,0,0,1.289-.019,22.057,22.057,0,0,1,6.143.666,24.382,24.382,0,0,0,4.354.358,59.129,59.129,0,0,1,6.934.308,32.855,32.855,0,0,0,7.021.176c1.27-.063,2.539-.126,3.814-.107a4.933,4.933,0,0,0,2.443-.364c.721-.352,1.852.2,2.8.245.539.019,1.086-.006,1.633-.025s1.068-.05,1.6-.025c.465.013.93-.013,1.389-.044a13.087,13.087,0,0,1,1.488-.038c.822.044,1.652.107,2.475.22h1.193c3.486-.873,7.066-.415,10.59-.722a77.4,77.4,0,0,0,9.736-1.162c3.744-.81,7.512-.8,11.27-1.168a33.639,33.639,0,0,1,6.279-.471,73.165,73.165,0,0,0,9.166.069c2.645-.088,5.275-.176,7.908-.019,3.127.182,6.217.088,9.32.044.873-.019,1.35.691,1.99.7a2.321,2.321,0,0,0,1.012-.352,2.251,2.251,0,0,1,1.023-.352,4.39,4.39,0,0,0,.881-.094c.828-.151,1.684-.3,2.205.823,1.061.05,2.123.132,3.189.119.277,0,.559-.3.842-.452a4.417,4.417,0,0,0-.785-.176c-.848-.031-1.7,0-2.543-.069-.184-.019-.328-.371-.49-.572a2.479,2.479,0,0,1,.578-.157c1.795-.057,3.6-.044,5.389-.163,1.168-.075,2.318-.327,3.473-.5.07-.013.2-.019.2-.038.051-.974.453-1.4,1.533-1.344a15.887,15.887,0,0,0,2.4-.44c3.354-.371,6.689-.829,10-1.52a9.712,9.712,0,0,1,4.271-.038c.6.163,1.188.829,2,.628a5.32,5.32,0,0,0-.113-.729c.277-.025.68-.188.816-.063.729.647,1.307.239,2.049-.031.973-.352,2.191-.145,3.07-.616a4.7,4.7,0,0,1,2.355-.408,8.808,8.808,0,0,0,1.15-.044c1.871-.239,3.768.119,5.652-.521a2.865,2.865,0,0,1,2.979.528c.646.578,1.746.245,2.5-.32a1.125,1.125,0,0,1,1.6.006,3.22,3.22,0,0,0,1.746.3c.225,0,.451,0,.666.013.049,0,.25-.572.162-.66-.615-.6-.131-.754.3-.59a8.312,8.312,0,0,0,4.453.031,11.265,11.265,0,0,1,3.172-.258,6.79,6.79,0,0,0,.947.006,3.339,3.339,0,0,1,1.93.308c.4.232,1.1-.019,1.652-.107.25-.044.559-.383.7-.314a4.021,4.021,0,0,0,2.9.044,5.986,5.986,0,0,1,1.936-.239,22,22,0,0,0,3.152-.006c.674-.038,1.346-.069,2.012-.063a15.787,15.787,0,0,1,1.99.352c.275.038.879.967.8-.239,0-.05.094-.107.145-.157.633,1.275,1.186.81,1.746.352a1.441,1.441,0,0,1,.93-.471,10.936,10.936,0,0,0,2.123-.057,6.58,6.58,0,0,1,3.541.314c.354.163.85,0,1.281-.006,1.459-.025,2.916-.157,4.385-.138.158.006.334-.3.479-.484.383-.49.777-.716.854.144.076.879.4,1.124.961.4.5-.641,1.1-.572,1.721-.565a27.852,27.852,0,0,0,3.393.063c1.168-.144,2.3-.477,3.416.188a3.39,3.39,0,0,1,2.965-.239,5.051,5.051,0,0,0,2.074.17,17.32,17.32,0,0,1,3.572-.2c.535.006,1.063.019,1.59,0a12.875,12.875,0,0,1,3.643-.013,8.51,8.51,0,0,0,2.871.258c.27-.013.541,0,.811.013a3.082,3.082,0,0,0,2.248-.49.663.663,0,0,1,.623-.013,2.928,2.928,0,0,0,2.336.383,7.049,7.049,0,0,1,.955-.069c4.328.075,8.662-.063,12.977.2a10.766,10.766,0,0,0,1.809-.082,10.509,10.509,0,0,1,1.721-.088,29.151,29.151,0,0,1,3.707.345,21.519,21.519,0,0,0,4.309.214,25.907,25.907,0,0,1,3.279.069c2.549.258,5.113.408,7.637.7a41.442,41.442,0,0,0,5.434.144c.723-.013,1.445-.025,2.174-.025a26.476,26.476,0,0,1,6.131.71,5.587,5.587,0,0,0,1.293-.019c1.791-.048,3.576-.111,5.365-.153V1097Zm994.8-3.587c.777.182,1.557.4,2.348.515a.546.546,0,0,0,.3-.094.494.494,0,0,1,.363-.088,12.92,12.92,0,0,0,1.375.17,2.766,2.766,0,0,0,.754-.195,2.543,2.543,0,0,0-.678-.214,4.209,4.209,0,0,1-1.463-.188Zm-6.9-.308a2.743,2.743,0,0,0,.664.22,3.2,3.2,0,0,0,1.459-.239c-.529-.057-1.051-.138-1.578-.163h-.018A1.759,1.759,0,0,0,24335.908,1093.1Zm-6.9-.251a1.638,1.638,0,0,0,.439.226,1.187,1.187,0,0,0,.816-.226c-.312-.063-.615-.145-.93-.182h-.012C24329.219,1092.672,24329.105,1092.791,24329,1092.854Zm10.365.239c.131-.019.256-.038.168-.264C24339.48,1092.917,24339.426,1093,24339.369,1093.092Zm-7.508-.063c.221.063.371.126-.1-.427l-.564.151c.119.094.326.289.352.27a.146.146,0,0,1,.105-.038A.6.6,0,0,1,24331.861,1093.03Zm-47.58-1.363c.057-.088.113-.17.17-.258C24284.32,1091.422,24284.193,1091.44,24284.281,1091.667Zm-9.918-.17,1.414-.17c-.113-.094-.221-.207-.34-.289a2.566,2.566,0,0,0-1.1-.408Zm34.428-3.894a1.108,1.108,0,0,0,.215.622,6.122,6.122,0,0,0,1.381.163,5.976,5.976,0,0,0,1.559-.389c-.107-.716-.51-.6-.918-.49a1.2,1.2,0,0,1-.564.063,2.525,2.525,0,0,0-.535-.057C24309.559,1087.515,24309.168,1087.578,24308.791,1087.6Zm-42.725.226c.057-.088.107-.176.164-.264C24266.1,1087.584,24265.973,1087.6,24266.066,1087.829Zm51.537-.685-.264-.17C24317.359,1087.106,24317.377,1087.232,24317.6,1087.144Zm43.221-.792c.025.094.076.27.082.27.227-.05.453-.119.459-.4C24361.184,1086.271,24361.008,1086.315,24360.824,1086.353Zm190.938-.691c.068-.151.137-.3-.227-.427C24551.609,1085.373,24551.686,1085.517,24551.762,1085.662Zm-1095.619-1.332a4.581,4.581,0,0,0-.615.283,2.1,2.1,0,0,0,1.037.565l1.445-.314c-.484-.182-.961-.377-1.451-.54a.52.52,0,0,0-.176-.031A.964.964,0,0,0,23456.143,1084.33Zm-6.117-1.539c-.131.075-.244.452-.176.528a8.383,8.383,0,0,0,1.482,1.457c.238.157.74-.082,1.332-.358a2.258,2.258,0,0,0-2.08-1.771A1.047,1.047,0,0,0,23450.025,1082.791Zm-20.777.4a2.809,2.809,0,0,0,.344.93c.107.182.346.3.521.452.107-.151.3-.289.309-.446a2.44,2.44,0,0,0-.232-1.288c-.3-.126-.6-.251-.9-.383A2.614,2.614,0,0,0,23429.248,1083.187Zm11.525-.609c.66,0,1.281.088,1.42,1.118.012.063.369.107.57.107.641,0,1.289-.069,1.922-.031.68.031,1.213-.3,1.182-.867-.02-.308-.709-.773-1.143-.835-1.383-.207-2.789-.232-4.178-.371-.734-.075-1.457-.32-2.186-.352-1.57-.069-1.57-.031-1.043,1.953.408.3.66.377.893-.251.139-.364.646-.584.986-.873.307.421.834.408,1.363.4Zm809.232.917c.063.013.131,0,.207.214l.4.019a.889.889,0,0,1-.414-.452h-1.264C24249.295,1083.35,24249.648,1083.426,24250.006,1083.495Zm-833.17.119c.125-.3.25-.6.371-.911l-.887-.32A4.787,4.787,0,0,0,23416.836,1083.614Zm829.275-.019c.49-.094.98-.188,1.471-.289-.516-.025-1.037-.05-1.553-.063C24245.986,1083.244,24245.941,1083.338,24246.111,1083.6Zm-66.2-.691a2.38,2.38,0,0,0,.672.214,4.094,4.094,0,0,1,1.463.195c1.332.031,2.664.088,4,.094a2.133,2.133,0,0,0,.715-.239c-.207-.195-.426-.572-.621-.565a11.96,11.96,0,0,1-1.338-.025,5.662,5.662,0,0,0-2.77.3,12.894,12.894,0,0,0-1.377-.17h-.025A2.8,2.8,0,0,0,24179.908,1082.9Zm64.035.314c.184-.038.365-.082.541-.126a2.533,2.533,0,0,0-.076-.264C24244.176,1082.879,24243.951,1082.948,24243.943,1083.218Zm-739.861-.9a4.111,4.111,0,0,1,.779.289,2.714,2.714,0,0,1,.275-.188c-.025-.151-.062-.352-.088-.484A7.649,7.649,0,0,0,23504.082,1082.314Zm1106.295-.144c.15.075.3.214.453.226a2.4,2.4,0,0,0,1.236-.239c-.451-.057-.9-.132-1.357-.163,0-.006-.006-.006-.012-.006C24610.6,1081.987,24610.484,1082.107,24610.377,1082.169Zm2.268-.163c-.057.013-.094.094.076.352.5-.1,1-.195,1.5-.314a2.5,2.5,0,0,0-.025-.389C24613.674,1081.767,24613.16,1081.88,24612.645,1082.006Zm-1189.584-2.286c.219.232.434.66.66.66a1.4,1.4,0,0,1,1.52,1.049c.283.747.979.936,1.6.088.4-.547.867-1.244,1.658-.377.043.057.434-.069.516-.2a.593.593,0,0,0-.1-.547,3.622,3.622,0,0,0-1.287-.484,35.341,35.341,0,0,1-3.562-.364C23423.727,1079.6,23423.393,1079.663,23423.061,1079.72Zm-19.855,1.168c-.043.44-.182,1.049.855.685-.107-.358-.215-.716-.314-1.074C23403.557,1080.63,23403.219,1080.744,23403.205,1080.888Zm-9.975.107c.967.578.943-.075.855-.685a5.249,5.249,0,0,0-.49-1.721,2.573,2.573,0,0,0-1.049-.8c-.127-.075-.385.075-.578.126a7.7,7.7,0,0,1,.445,1.024,1.826,1.826,0,0,1,.1,1.018c-.164.452-.377.3-.586.157-.111-.088-.232-.17-.332-.145-1.437.314-1.25-1.306-2.3-1.9-.717-.3-1.545-.515-1.244.7a3.344,3.344,0,0,0,4.309,2.286,2.441,2.441,0,0,1,.609-.113A.55.55,0,0,1,23393.23,1080.995Zm-14.7-.98c1.426.364,2.852.729,4.295,1,.271.05.615-.3.93-.458-.281-.27-.547-.735-.867-.779-1.361-.182-2.744-.245-4.553-.345C23378.395,1079.632,23378.42,1079.984,23378.527,1080.015Zm1236.4.157c-.119.013-.209.408-.088.835.842-.019,1.689-.006,2.531-.088.244-.019.457-.308.689-.477-.2-.119-.395-.339-.6-.345s-.391-.006-.584-.006C24616.225,1080.09,24615.578,1080.115,24614.932,1080.172Zm-1229.25-.013c-.07.157.182.6.389.7.527.258.773,0,.477-.779-.145-.239-.295-.339-.434-.339C23385.938,1079.745,23385.781,1079.914,23385.682,1080.159Zm-15.66-.214a.263.263,0,0,0,.158.126,7.859,7.859,0,0,0,3.838.006,11.173,11.173,0,0,1,2.656-.232c.006-.1.043-.27,0-.289a7.026,7.026,0,0,0-.7-.3,2.918,2.918,0,0,1,.777-.207c1.6-.013,3.18-.559,4.8-.157.473.119,1.244.2,1.459-.057a2.137,2.137,0,0,1,2.951-.5c.145.069.5-.27.748-.415-.182-.144-.359-.364-.559-.408a10.888,10.888,0,0,0-3.029-.1,9.885,9.885,0,0,1-3.328-.17c-.232-.063-.527.107-.791.151-.68.119-1.439.484-2.01.289a8.589,8.589,0,0,0-3.186-.283c-.533.025-1.068.044-1.6.019-.678-.044-1.35-.251-2.021-.251-.635,0-1.264.276-1.891.264a23.413,23.413,0,0,0-3.078-.207,3.653,3.653,0,0,1-.893-.057c-.773-.119-1.564-.232-1.959.9a.453.453,0,0,1-.385.044c-.8-.961-1.8-.867-2.957-.779a10.9,10.9,0,0,1-1.445.038c-.34.063-.672.119-1.012.182a3.452,3.452,0,0,0,.623.251,2.031,2.031,0,0,0,.646-.006,3.01,3.01,0,0,1,3.191,1.137c.17.245.7.54.842.452a5.171,5.171,0,0,1,3.2-.5,10.238,10.238,0,0,0,1.582.013c.49-.044,1.023-.151,1.525-.151A1.821,1.821,0,0,1,23370.021,1079.946Zm50.012.126c.025.025.207-.1.32-.157a1.05,1.05,0,0,0-.824-.465C23419.693,1079.657,23419.85,1079.877,23420.033,1080.072Zm1349.3-.452c-.246.025-.479.144-.5.433h.127a.794.794,0,0,0,.275-.019,4.933,4.933,0,0,0,.635-.264,2.166,2.166,0,0,0-.512-.152Zm-4.818.113-.227-.427C24764.217,1079.45,24764.146,1079.6,24764.512,1079.732Zm-1043.006-.308a.437.437,0,0,0-.289.264c.219-.006.439-.019.658-.025-.125-.126-.25-.245-.344-.245C23721.518,1079.418,23721.512,1079.418,23721.506,1079.425Zm96.027-.792c-.4.05-1,.214-.654.829h.264a2.952,2.952,0,0,0,.578-.025c.352-.063.7-.188,1.043-.283-.387-.178-.8-.525-1.168-.525A.539.539,0,0,0,23817.533,1078.633Zm-233.768.528a2.836,2.836,0,0,0,1.018.257c.332-.1.672-.2,1.01-.3a1.176,1.176,0,0,0-.979-.421A1.25,1.25,0,0,0,23583.766,1079.161Zm140.127-.528a15.7,15.7,0,0,0,1.834.741c.729-.088,1.457-.195,2.18-.289l-.006-.013a7.747,7.747,0,0,0-.742-.7,1.675,1.675,0,0,1-1.613.163,3.7,3.7,0,0,0-.83-.132A1.543,1.543,0,0,0,23723.893,1078.633Zm124.1.057a2.747,2.747,0,0,0,1.131.364,12.263,12.263,0,0,0,2.75-.188,9.2,9.2,0,0,1,3.795,0c.162.044.439-.333.658-.509-.219-.107-.432-.314-.658-.308-1.434.006-2.871.057-4.736.107-.861.019-1.729.057-2.588.057a2.219,2.219,0,0,1-.615-.226C23847.809,1078.225,23847.82,1078.589,23847.99,1078.69Zm794.621.094.264.163c-.012-.1-.031-.195-.137-.195A.307.307,0,0,0,24642.611,1078.784Zm-753.43-.05c.107.05.3.163.32.138a.931.931,0,0,0,.252-.854C23889.559,1078.256,23889.371,1078.495,23889.182,1078.734Zm-49.225-.421a.882.882,0,0,0,.621.515c.666.031,1.426.195,1.854-.584a8.088,8.088,0,0,0-1.873-.685,1.751,1.751,0,0,0-.176-.013C23839.906,1077.547,23839.83,1077.911,23839.957,1078.313Zm-108.828-.075a5.725,5.725,0,0,0-.773.226,4.431,4.431,0,0,1,.666.258l1.469-.17a2.422,2.422,0,0,1-.52-.327.452.452,0,0,0-.266-.063A4.218,4.218,0,0,0,23731.129,1078.237Zm166.834.427,1.012-.729c-.119-.05-.232-.145-.346-.145h-.156c-.045,0-.088-.006-.127-.006C23897.982,1077.785,23897.68,1077.867,23897.963,1078.665Zm-17.475-.616c.145.138.289.27.654.616,0-.27.006-.547.012-.829C23880.928,1077.911,23880.709,1077.98,23880.488,1078.049Zm529.744.333a1.061,1.061,0,0,0,.76-.126c-.232-.05-.457-.107-.689-.144A1.35,1.35,0,0,0,24410.232,1078.382Zm236.369-.044a7.031,7.031,0,0,0,1.092-.057,3.186,3.186,0,0,0,.861-.44,2.757,2.757,0,0,0-1.012-.264,2.3,2.3,0,0,0-.289-.019,1.041,1.041,0,0,0-1.125.779c.053,0,.105,0,.158,0Zm-1066.6-.088.17-.264C23580.041,1078.005,23579.914,1078.024,23580,1078.25Zm25.227-.879a4.648,4.648,0,0,0,.992.609c.2.063.49-.132.723-.641a3.072,3.072,0,0,0-.723-.182h-.031A5.274,5.274,0,0,0,23605.229,1077.371Zm-27.613.3c.314.063.623.145.936.182.1.006.215-.119.328-.182a1.773,1.773,0,0,0-.447-.226.834.834,0,0,0-.125-.013A1.524,1.524,0,0,0,23577.615,1077.666Zm305.857.075a3.475,3.475,0,0,0,1.457-.082c.314-.157.42-.722.629-1.112-.346.107-.68.214-1.025.3a6.451,6.451,0,0,1-.848.025c-.357.119-.979.17-1.023.358-.139.572.244.546.6.521.068-.006.137-.013.2-.013Zm-192.193-.641.434.415c.057-.226.113-.452.176-.678C23691.613,1076.855,23691.336,1076.874,23691.279,1077.1Zm-29.025-.433c.176.232.3.584.529.678.5.2.74-.069.439-.817C23662.9,1076.579,23662.574,1076.623,23662.254,1076.667Zm227.3.314c.125-.013.258-.031.164-.258C23889.66,1076.812,23889.609,1076.9,23889.553,1076.981Zm3.447-.088c.133-.019.258-.031.17-.264Zm1.729-.044c.125-.019.258-.031.162-.264Zm-14.24-.063c.127-.019.258-.031.164-.264C23880.6,1076.611,23880.545,1076.7,23880.488,1076.786Zm40.057-.8.375.358a1.022,1.022,0,0,0,.258-.867C23920.971,1075.65,23920.758,1075.819,23920.545,1075.989Zm-265,.308c.219.063.369.126-.1-.427-.187.05-.377.107-.564.157.119.094.326.283.346.264a.169.169,0,0,1,.111-.031A.863.863,0,0,1,23655.541,1076.3Zm-111.16-2.123c-.031.05.2.3.34.421a9.138,9.138,0,0,0,3.455,1.413c.213.063.6-.452.9-.7-.207-.188-.42-.37-.629-.559a.666.666,0,0,0-.684-.2c.051.81-.309.879-.848.427-.119-.1-.855-.327-.07-.628.119-.05.184-.27.271-.415-.723-.126-1.445-.3-2.174-.358h-.006C23544.758,1073.577,23544.525,1073.941,23544.381,1074.173Zm393.18.879c-.352.119-.98.176-1.025.364-.119.565.252.54.6.509a1.387,1.387,0,0,1,.227-.006,9.548,9.548,0,0,0,1.275-.038c.42-.063.834-.2,1.25-.3-.422-.182-.83-.4-1.264-.54a.53.53,0,0,0-.207-.031C23938.244,1075.009,23938,1075.04,23937.561,1075.053Zm-387.023-.276c-.219.107-.484.615-.414.7.264.339.6.861,1.117-.151.039-.4-.094-.647-.363-.647A.759.759,0,0,0,23550.537,1074.776Zm208.705.59a9.513,9.513,0,0,1,1.256.22c.113-.044.227-.094.334-.138-.334-.038-.666-.082-1.439-.107Zm-206.752-1.8c.295.364.578.741.9,1.08.094.107.309.094.465.138.057-.484.295-1.055.119-1.432-.131-.3-.32-.452-.553-.452C23553.15,1072.9,23552.836,1073.118,23552.49,1073.57Zm11.012.741a4.39,4.39,0,0,0,1.746.44c.352-.126.709-.245,1.068-.371-.252-.314-.447-.8-.754-.892a3.41,3.41,0,0,0-1.105-.063c-.2.006-.4.013-.592.006-.344-.013-.684-.075-1.029-.113A3.316,3.316,0,0,0,23563.5,1074.312Zm4.529-.283c.182.069.395.226.545.182a3.605,3.605,0,0,0,.742-.433,3.523,3.523,0,0,0-.768-.389c-.012,0-.023-.006-.037-.006C23568.369,1073.382,23568.188,1073.564,23568.031,1074.029Zm-10.8-.452c.158.17.3.458.479.477a15.541,15.541,0,0,0,1.908-.025.976.976,0,0,0,.139-.151c.02-.038.006-.138-.02-.145a19.346,19.346,0,0,0-1.9-.5h-.031C23557.641,1073.238,23557.428,1073.464,23557.232,1073.577Zm729.3,9.3c.02-.119.15-.138.275-.157a.254.254,0,0,1-.23.163A.108.108,0,0,1,24286.537,1082.873Zm-8.209-.22c.025-.1.063-.276.068-.27a.885.885,0,0,1,.584.258,1.418,1.418,0,0,1-.332.044A2.393,2.393,0,0,1,24278.328,1082.653Zm13.3-.415a7.5,7.5,0,0,1,1.576-.182c.063.151.02.245-.025.245C24292.662,1082.289,24292.141,1082.264,24291.625,1082.239Zm9.961-.214c.045-.1.1-.283.133-.283.332.013.666.057,1,.1.014,0,.031.1.014.138-.031.063-.094.107-.359.163A6.134,6.134,0,0,1,24301.586,1082.025Zm21.063-.2a1.291,1.291,0,0,1,.859.207.677.677,0,0,1-.162.019A1.684,1.684,0,0,1,24322.648,1081.824Zm264.494-.207c-.068-.3-.062-.641.025-.666a14.663,14.663,0,0,1,2.35-.547c.258-.031.564.32.854.5-.187.251-.346.7-.559.722a10.383,10.383,0,0,1-1.182.069C24588.154,1081.692,24587.664,1081.661,24587.143,1081.617Zm5.559-.182c.207-.245.371-.584.641-.716a7.515,7.515,0,0,1,4.447-.377,28.963,28.963,0,0,0,4.178.038,27.66,27.66,0,0,1,2.977.006,4.494,4.494,0,0,0,1-.182,11.449,11.449,0,0,1,2.248-.283,6.5,6.5,0,0,1,1.678.572c-.547.088-1.094.157-1.627.258-.666.132-1.32.308-1.979.433a1.677,1.677,0,0,1-.836.057,5.162,5.162,0,0,0-2.658-.088,8.068,8.068,0,0,1-1.834.107c-.879-.013-1.645.126-2.418.163-.627.031-1.256.006-1.885-.019a12.5,12.5,0,0,0-3.133.145.8.8,0,0,1-.127.013A5.3,5.3,0,0,1,24592.7,1081.435Zm-252.717-.371a3.6,3.6,0,0,1,.471-1.156,6.155,6.155,0,0,1,.275,1.087c.02.4-.031.54-.137.54C24340.449,1081.535,24340.223,1081.284,24339.984,1081.064Zm19.453-.333h.037a.242.242,0,0,1,.1.013,1.967,1.967,0,0,1,.252.239.862.862,0,0,1-.258.546C24359.518,1081.265,24359.48,1081,24359.438,1080.731Zm-49.326.345c.074.144.15.289.012.433C24309.973,1081.372,24310.041,1081.227,24310.111,1081.077Zm-829.246.239a.683.683,0,0,1-.363-.528c.332-.3.527-.8.842-.239a3.438,3.438,0,0,1,.244.861A2.487,2.487,0,0,1,23480.865,1081.315Zm895.594.044c-.113,0-.326-.113-.32-.151a.752.752,0,0,1,.4-.553,8.479,8.479,0,0,0,1.074-.44.806.806,0,0,1,.2.3,3.4,3.4,0,0,1-.617.547,2.266,2.266,0,0,1-.709.3Zm208.787-.031c-.389,0-.773-.057-1.156-.094-.018,0-.037-.1-.018-.138.031-.063.088-.107.352-.163a6.172,6.172,0,0,1,.641-.013c.193.025.389.075.578.119-.113.1-.227.283-.346.289Zm-263.842-.251c.043-.094.094-.276.139-.276.332.013.666.057.992.1a.187.187,0,0,1,.012.138c-.031.063-.088.107-.352.163A5.209,5.209,0,0,1,24321.4,1081.077Zm-826.594-.214c.182-.044.363-.088.652-.132a2.913,2.913,0,0,1-.559.415Zm877.1.239a5.776,5.776,0,0,0-.85-.389,6.437,6.437,0,0,1,.484-.754c.063-.075.27-.05.408-.044.8.069,1.607.151,2.412.226-.045.716-.477.666-.918.609-.352-.038-.709-.082-.873.283-.023.069-.156.1-.32.1A2.258,2.258,0,0,1,24371.912,1081.1Zm-47.061-.113c.045-.094.1-.283.139-.283.334.013.666.063.992.107.014,0,.031.1.014.138-.031.057-.088.1-.352.157A4.681,4.681,0,0,1,24324.852,1080.989Zm266.8-.132c-.018.119-.15.138-.275.157A.251.251,0,0,1,24591.652,1080.857Zm-254.119-.069c-.508,0-1.023-.1-1.537-.151.4-.754,1.105-.747,1.809-.7a2.271,2.271,0,0,1,1.193.4,2.655,2.655,0,0,1-1.383.452Zm17.551-.057a1.794,1.794,0,0,0-.439-.044,5.529,5.529,0,0,1-.408-.685,1.732,1.732,0,0,1,.584-.063c.346.075.941.195.955.339.031.4-.119.5-.334.5A1.968,1.968,0,0,1,24355.084,1080.731Zm-859.275-.408a.6.6,0,0,1-.125.4A.565.565,0,0,1,23495.809,1080.323Zm847.316.314c-.107-.019-.277-.433-.232-.484a1.784,1.784,0,0,1,.834-.371c.578.088,1.207.119,1.258.3.15.559-.221.553-.566.54-.082,0-.162,0-.238.006-.213.013-.434.031-.652.031A2.817,2.817,0,0,1,24343.125,1080.637Zm9.666-.66c.15.138.082.289.014.433C24352.729,1080.266,24352.652,1080.122,24352.791,1079.977Zm-854.111.126c.02-.094.057-.27.063-.27a.888.888,0,0,1,.59.258,1.426,1.426,0,0,1-.338.044A1.662,1.662,0,0,1,23498.68,1080.1Zm928.719-1.124a1.7,1.7,0,0,1,.748-.408,1.651,1.651,0,0,1-.371.766C24427.65,1079.217,24427.525,1079.1,24427.4,1078.979Zm-1052.949.119a5.857,5.857,0,0,1-.576-.119c.111-.1.225-.283.344-.289a9.937,9.937,0,0,1,1.213.094c.014,0,.031.1.014.138-.033.063-.088.107-.354.163-.256.006-.4.019-.514.019A.812.812,0,0,1,23374.449,1079.1Zm413.512-1.445a.612.612,0,0,1-.127.408A.582.582,0,0,1,23787.961,1077.653Zm30.043-.7a1.355,1.355,0,0,1,.652-.013c-.025.094-.062.27-.068.27A.884.884,0,0,1,23818,1076.956Zm-2.262-.207a1.268,1.268,0,0,1-.012-.634,1.49,1.49,0,0,1,.232-.465,1.778,1.778,0,0,1,.514.7,5.419,5.419,0,0,0-.389.854A1.779,1.779,0,0,1,23815.742,1076.749Zm201.074.232c-.334-.283-.553-.465-.773-.641.414-.057.879-.251,1.225-.126.227.082.271.634.4.98A3.616,3.616,0,0,1,24016.816,1076.981Zm-206.715-.358c-.125-.05-.244-.107-.363-.157.137-.094.27-.257.414-.264.992-.05,1.984-.082,2.977-.075.145,0,.295.2.439.308-.145.182-.275.484-.445.515a13.284,13.284,0,0,1-1.7.069A10.3,10.3,0,0,1,23810.1,1076.623Zm202.512-.27a10.033,10.033,0,0,0,.936-.584,3.853,3.853,0,0,1,1.2.188c-.371.333-.686.8-1.119.942a.122.122,0,0,1-.068.013C24013.3,1076.912,24012.928,1076.535,24012.613,1076.353Zm-163.5.082a6.2,6.2,0,0,0-2.668-.3c-.422.013-.848.025-1.264,0a14.505,14.505,0,0,1-2.2-.377c-.2-.044-.359-.283-.541-.433a2.775,2.775,0,0,1,.578-.4.863.863,0,0,1,.34-.025,1.52,1.52,0,0,0,.295-.013,1.854,1.854,0,0,0,.451-.264,2.387,2.387,0,0,0-.363-.157c-.516-.138-1.031-.264-1.766-.389a3.833,3.833,0,0,0-1.406.151,2.32,2.32,0,0,1-1.9-.063,2.674,2.674,0,0,0-.561-.188,1.857,1.857,0,0,1,.5-.239c1.438-.195,2.883-.358,4.32-.559.252-.031.691-.145.7-.258.152-1.269,1.119-1.193,1.91-1.062a4.544,4.544,0,0,0,3.648-.779c.648-.5.861,0,1.219.283-.238.264-.434.672-.721.76-.785.239-1.646.289-2.137,1.093.811.069,1.621.195,2.432.2a4.369,4.369,0,0,0,1.137-.345,1.839,1.839,0,0,1,2.041,1c.045.145-.232.565-.357.559-.754-.013-1.508-.113-2.256-.188-1.5-.157-3-.32-4.5-.458a1.553,1.553,0,0,0-.57.17c.119.145.213.352.369.433.705.37,1.477,1.062,2.137.98a7.488,7.488,0,0,1,1.5-.006,8.406,8.406,0,0,0,1.377.013c.213-.025.4-.886.6-.063a1,1,0,0,1-.451.879,6,6,0,0,1-1.213.17A1.77,1.77,0,0,1,23849.113,1076.435Zm-13.416-.126a16.9,16.9,0,0,1-2.367-1.407,4.45,4.45,0,0,0-3.223-.955c-.5.019-1,.038-1.494.031a1.167,1.167,0,0,1-.371-.126c.119-.1.238-.276.371-.283.641-.05,1.281-.05,2.135-.069,1.357-.038,2.506.031,3.625-.119,1.268-.176,1.689.867,2.387,1.482.156.132-.02.791-.207,1.105-.127.207-.547.264-.842.339Zm184.975-.289a2.731,2.731,0,0,0-.689-.239c.275-.245.609-.741.816-.691a4.859,4.859,0,0,1,1.275.766c-.107.151-.209.433-.309.433A3.223,3.223,0,0,1,24020.672,1076.02Zm-234.439-.509c.057,0,.113.006.17.006.113-.006.227.094.346.145a3.942,3.942,0,0,1-1.117.622C23785.41,1075.486,23785.824,1075.5,23786.232,1075.511Zm53.371.7a.377.377,0,0,1-.018-.27,1.635,1.635,0,0,0,.27-.521,1.309,1.309,0,0,1,.854-.245c-.049.6-.23,1.068-.84,1.068A1.4,1.4,0,0,1,23839.6,1076.215Zm-435.406-.05a2.5,2.5,0,0,1-.281-.647,3.438,3.438,0,0,1,.953.1.81.81,0,0,1-.576.584A.121.121,0,0,1,23404.2,1076.165Zm378.186-.257c-.062-.006-.176-.245-.156-.358.168-.848.176-.879-.416-.9-.646-.019-1.293.025-1.939.044s-1.295.031-2.156.057l-1.072.025a5.114,5.114,0,0,1,.445-.465c1.055-.867,2.342-.5,3.473-.421a8.283,8.283,0,0,0,2.186-.239c.057-.013.107-.151.152-.144a10,10,0,0,1,1.9.239,1.031,1.031,0,0,1,.219.911,6.422,6.422,0,0,1-1.57,1.212.811.811,0,0,1-.42.088C23782.816,1075.957,23782.59,1075.92,23782.383,1075.907Zm36.939.019c-.527-.371-1.357-.791-1.412-1.269-.1-.873-.479-.842-1.088-.8a17.211,17.211,0,0,1-2.129.031c-.125-.006-.232-.4-.238-.722a6.244,6.244,0,0,1,1.375-.138c2.543-.069,2.633-.025,3.994,2.1.1.157.227.5.176.534a1.475,1.475,0,0,1-.609.289A.13.13,0,0,1,23819.322,1075.926Zm7.117-.584c.408-.528.395-.5.051-.879a3.161,3.161,0,0,1-.41-.7,3.866,3.866,0,0,1,1.113-.069,16.454,16.454,0,0,1,.57,1.834c-.471.082-.941.163-1.412.239C23826.383,1075.624,23826.363,1075.442,23826.439,1075.342Zm-184.254.427a2.515,2.515,0,0,1-1.1-.283,3.069,3.069,0,0,1,1.129-.371c.152-.006.314.27.465.421-.162.075-.326.232-.488.232Zm388.061-.7,2.078-.188c0,.05.025.107.006.145a2.576,2.576,0,0,1-.244.264,9.422,9.422,0,0,1-1.8.163A3.152,3.152,0,0,1,24030.246,1075.072Zm-522.516-.7a1.935,1.935,0,0,1,.383-.013,1.189,1.189,0,0,1-.168.867A1.134,1.134,0,0,1,23507.73,1074.375Zm289.947.735c.508-.936,1.4-1.049,1.846-.32.031.05-.168.358-.289.37a5.685,5.685,0,0,1-.576.031A6.228,6.228,0,0,1,23797.678,1075.109Zm-438.555-.251c.121.019.145.151.158.276A.254.254,0,0,1,23359.123,1074.858Zm543.332.188a5.477,5.477,0,0,0-2.809-.3,9.7,9.7,0,0,1-1.539.031,2.178,2.178,0,0,1-.377-.119c.113-.1.213-.258.34-.3a9.446,9.446,0,0,1,1.74-.465,15.889,15.889,0,0,1,2.889.013c.8.7.188,1.162-.145,1.162A.257.257,0,0,1,23902.455,1075.047Zm-172.791-.239a3.374,3.374,0,0,1-.672-.22,1.592,1.592,0,0,1,.541-.188,3.243,3.243,0,0,1,1.154.283,2.524,2.524,0,0,1-.8.132C23729.814,1074.814,23729.74,1074.814,23729.664,1074.808Zm131.479-.327a.256.256,0,0,1,.156.276C23861.18,1074.739,23861.162,1074.613,23861.143,1074.481Zm-88.822.075c-.309-.075-.584-.3-.893-.377-.471-.126-.955-.176-1.432-.257a13.473,13.473,0,0,1,1.639-.622,4.008,4.008,0,0,1,1.238.572.57.57,0,0,1-.012.54.631.631,0,0,1-.434.157A.55.55,0,0,1,23772.32,1074.557Zm-132.992-.421a2.659,2.659,0,0,0-.539-.214,1.677,1.677,0,0,1,.545-.214c.277-.019.553-.006.836,0a4.648,4.648,0,0,0,1.514-.107,6.5,6.5,0,0,1,2.971.013,8.1,8.1,0,0,0,2.074.163c1.865-.188,3.742-.251,5.607-.415a7.288,7.288,0,0,1,1.281-.013c.1.013.283.433.24.477a1.76,1.76,0,0,1-.836.377c-1.369-.1-2.689-.609-3.643-.226a11.114,11.114,0,0,1-3.5.383,5.965,5.965,0,0,1-3.285-.27,1.871,1.871,0,0,0-1.588.214,1.2,1.2,0,0,1-.686.245A1.945,1.945,0,0,1,23639.328,1074.136Zm18.781.364c-.113,0-.227-.132-.346-.415-.006-.358-.062-.59-.006-.622.734-.415-1.256-1.35.275-1.526,1.307-.151,1.834.195,1.859,1.011.039,1.175-.346,1.552-1.67,1.552Zm49.352-.113a3.9,3.9,0,0,1,.785-.3,4.9,4.9,0,0,1,1.055-.025c.063,0,.113.176.17.27a5.54,5.54,0,0,1-.785.163C23708.133,1074.462,23707.8,1074.425,23707.461,1074.387Zm165.7-.358c-.113-.214-.227-.427-.434-.408.152-.119.3-.339.453-.339,1.834-.013,3.592-.458,5.521.145a12.432,12.432,0,0,0,4.32.019,3.666,3.666,0,0,1,1.049.044c.1.019.164.352.17.54.006.082-.219.264-.283.239a9.557,9.557,0,0,0-4.17-.333,11.2,11.2,0,0,1-3.844-.2,3.24,3.24,0,0,0-1.809.421.851.851,0,0,1-.527.283C23873.391,1074.437,23873.277,1074.236,23873.158,1074.029Zm-63.012.082a13.626,13.626,0,0,0-4.008-.6c-.768-.088-1.545-.107-2.312-.2-.105-.019-.264-.32-.25-.477.012-.132.258-.364.377-.352.8.088,1.594.32,2.393.333.717.012,1.426-.013,2.143-.038.777-.031,1.563-.057,2.348-.038a10.872,10.872,0,0,1,2.131.49.167.167,0,0,1,.018.138c-.031.063-.088.107-.357.163a2.335,2.335,0,0,1-1.527.829A2.268,2.268,0,0,1,23810.146,1074.111Zm75.361-.747a1.677,1.677,0,0,0-1.049-.785c-1.439-.188-2.9-.251-4.561-.352-2.582-.565-5.031-.044-7.432-.6a3.627,3.627,0,0,0-1.344.05,3.334,3.334,0,0,1-1.721-.038c-.309-.113-.615-.239-.924-.364-.219-.094-.434-.195-.646-.289a2.153,2.153,0,0,1,.572-.176,36.722,36.722,0,0,1,8.285.559,13.994,13.994,0,0,0,3.285.006,11.98,11.98,0,0,1,5.287.628,7.04,7.04,0,0,0,2.545.025c2.154-.05,4.3-.119,6.457-.157a2.55,2.55,0,0,1,.7.22c-.2.207-.414.609-.59.59a2.8,2.8,0,0,0-1.145.245,2.08,2.08,0,0,1-2-.025c-.834-.5-2.236-.088-3.379.025-.258.025-.471.49-.7.754-.326.377-.564.565-.785.565C23886.086,1074.243,23885.846,1073.954,23885.508,1073.363Zm-61.783.641a15.748,15.748,0,0,1-1.922-.377,6.172,6.172,0,0,1,1.162-.791,6.8,6.8,0,0,1,1.27.578c-.17.207-.352.59-.5.59Zm-162.066-.044c-.672-.044-.533-.44-.031-.835a2.988,2.988,0,0,1,.873.509,2.516,2.516,0,0,1-.811.333A.056.056,0,0,1,23661.658,1073.96Zm10.457-.276a11.08,11.08,0,0,1-1.809-1.068c.547-.063,1.1-.138,1.652-.188.357-.031.723-.019,1.295-.038.91-.006,1.984-.226,2.041.559.057.729-.76.729-1.426.729h-.258c-.334.006-.691.075-1.018.075A1.468,1.468,0,0,1,23672.115,1073.683Zm191.043-.433c.24-.157.473-.314.711-.471a.853.853,0,0,1,.094.722A3.056,3.056,0,0,1,23863.158,1073.25Zm-67.184-.163c-.219-.019-.6-.226-.6-.345,0-.653.2-.477.414-.3.1.088.2.176.283.163a33.831,33.831,0,0,1,3.719-.44,1.349,1.349,0,0,1,.891.446c.365.308.748.616,1.326.345.02-.013.125.17.2.258a1.3,1.3,0,0,1-.371.157c-.357.031-.717.025-1.287.038C23798.877,1073.313,23797.426,1073.219,23795.975,1073.087Zm-128.029.3c-.527-.057-1.049-.151-1.576-.226.219-.747.854-.917,1.488-1.049a2.132,2.132,0,0,1,.967.075c.547.521,1.119.967-.018,1.181a3.087,3.087,0,0,1-.484.038C23668.2,1073.4,23668.07,1073.395,23667.945,1073.382Zm201.049-.031a14.128,14.128,0,0,1-1.967-.641,12.488,12.488,0,0,1,1.986-.094,16.7,16.7,0,0,0,1.746.289,2.114,2.114,0,0,1,.508.22,2.194,2.194,0,0,1-.559.195c-.383.025-.773.075-1.156.075A3.291,3.291,0,0,1,23868.994,1073.351Zm-132.182-.138c-.107-.094-.076-.358-.107-.54a6.424,6.424,0,0,1,1.377.094,1.158,1.158,0,0,1-.9.572A.53.53,0,0,1,23736.813,1073.212Zm38.906-.377c-.246-.157-.842.245-1.389.289a6.668,6.668,0,0,0-.885-.308,4.625,4.625,0,0,1-.5-.22c.113-.069.227-.182.346-.195,2.162-.207,4.316-.465,6.482-.565.547-.031,1.119.421,1.678.653a1.079,1.079,0,0,0-.609.289c-.326.245-.672.49-1.2,0a1.777,1.777,0,0,0-1.635-.031,2.641,2.641,0,0,1-1.268.415A1.876,1.876,0,0,1,23775.719,1072.836Zm-8.342.132a3.646,3.646,0,0,1-1.256-.276,3.191,3.191,0,0,1,1.137-.132c.156.013.3.151.451.232-.105.057-.219.176-.32.176Zm-17.211-.126a.606.606,0,0,1-.125-.71c.766-.082,1.012.151.791.672-.025.057-.207.1-.377.1A.52.52,0,0,1,23750.166,1072.842Zm109.117-.107c-.219-.082-.34-.421-.5-.641a2.637,2.637,0,0,1,.723-.075,12.463,12.463,0,0,1,1.324.408c.02.006.039.107.02.138a1.679,1.679,0,0,1-.252.27c-.187.019-.369.031-.539.031A2.053,2.053,0,0,1,23859.283,1072.735Zm-71.273-.289c.178-.289.377-.465.529-.427a3.577,3.577,0,0,1,.766.4,3.142,3.142,0,0,1-.748.427.115.115,0,0,1-.049.006C23788.363,1072.848,23788.18,1072.7,23788.01,1072.446Zm-133.2.094c.127.019.145.151.164.276A.26.26,0,0,1,23654.811,1072.54Zm104.615.214c-.121-.038-.258-.069-.32-.006-.025.019-.232-.176-.354-.27a5.58,5.58,0,0,1,.785-.157c.221.377.2.471.088.471A.92.92,0,0,1,23759.426,1072.754Zm82.646-.006c-1.344-.132-2.682-.333-4.133-.622a1.236,1.236,0,0,1-.094-.521c.389.006.779-.019,1.168-.044a6.308,6.308,0,0,1,3.154.352,5.2,5.2,0,0,1,.521.308c-.2.176-.416.528-.6.528Zm-131.621-.044c-.975-.013-.258-.377,0-.735a1.715,1.715,0,0,1,.766.364c-.252.132-.51.371-.76.371Zm14.686-.038c.018-.119.15-.138.275-.157-.051.082-.1.163-.232.163A.118.118,0,0,1,23725.137,1072.666Zm-83.723-1.074a3.759,3.759,0,0,1,1.193.2c-.17.289-.346.572-.516.861A3.636,3.636,0,0,1,23641.414,1071.592Zm72.932,1.018a2,2,0,0,1-.5-.151,6.19,6.19,0,0,1,.635-.264.779.779,0,0,1,.516.088.87.87,0,0,1-.609.327Zm-67-.936c-.145-.433.4-1.275-.887-1.181-.533-.389-.672-.785.014-.848a1.658,1.658,0,0,1,1.715,1.9,3.425,3.425,0,0,1-.572,1.055C23647.525,1072.289,23647.449,1071.975,23647.344,1071.674Zm185.941.873a12.459,12.459,0,0,1-1.979-.371,2.135,2.135,0,0,1-.6-.371,3.253,3.253,0,0,1,.729-.458c.152-.05.371.113.674.283.539.094.979.019,1.395.094.244.05.445.333.664.515a2.87,2.87,0,0,1-.834.308Zm-181.576-.239a.708.708,0,0,1-.365-.54.856.856,0,0,1,.68.038,2.535,2.535,0,0,1,.414.584A2.75,2.75,0,0,1,23651.709,1072.308Zm173.424.019c-.189-.044-.314-.32-.471-.5.145-.113.275-.308.426-.327a7.312,7.312,0,0,1,1.482-.019,1.273,1.273,0,0,1-.168.829c-.377.013-.666.044-.912.044A1.617,1.617,0,0,1,23825.133,1072.327Zm32.467-.063a5.647,5.647,0,0,1-.187-2.041c.834-.144,1.576.025,1.627.572.037.477-.541,1.024-.9,1.5-.02.031-.094.044-.189.044C23857.8,1072.339,23857.605,1072.3,23857.6,1072.264Zm-240.664-.3a2.174,2.174,0,0,1-.666-.32c.207-.176.49-.547.615-.5a3.722,3.722,0,0,0,1.8.057,3.118,3.118,0,0,1,2.162.251,2.451,2.451,0,0,1,.471.509,3.691,3.691,0,0,1-.854.352C23619.146,1072.214,23618.035,1072.113,23616.936,1071.969Zm18,.082a2.112,2.112,0,0,1-.533-.81c.168-.44.432-.873.5-.848a1.128,1.128,0,0,1,.043,1.658Zm231.18-.119a22.948,22.948,0,0,0-6.012-.936c-.176-.006-.352-.289-.521-.44.189-.132.377-.371.584-.39a4.113,4.113,0,0,1,3.2.66c1.162-1.181,2.168-.835,3.115.031.189.176.408.553.34.7a.89.89,0,0,1-.635.389A.221.221,0,0,1,23866.111,1071.931Zm-209.986-.057a7.549,7.549,0,0,1-.93-.873,5.237,5.237,0,0,1-.465-.584c.264-.05.521-.119.791-.151a3.021,3.021,0,0,0,.74-.132c.553.408.762,1.52.422,1.746a.572.572,0,0,1-.27.063A.56.56,0,0,1,23656.125,1071.875Zm17.084-1.206c.553-.653.9-.59.854.188a5.284,5.284,0,0,1-.238,1.024A6.681,6.681,0,0,1,23673.209,1070.669Zm-160.49.961a4.639,4.639,0,0,1-.992-.609,5.864,5.864,0,0,1,.961-.214.479.479,0,1,1,.111.835A.306.306,0,0,1,23512.719,1071.63Zm186.369-1.2c.219.138.27.39.213.415a10.077,10.077,0,0,1-.979.333A2.475,2.475,0,0,1,23699.088,1070.43Zm143.721.163a2.922,2.922,0,0,1-.7.031,3.72,3.72,0,0,0-.592.006,3.051,3.051,0,0,1-.678-.013c-.1-.019-.176-.433-.176-.672a.691.691,0,0,1,.533-.151,1.6,1.6,0,0,0,1.346-.17,1.677,1.677,0,0,1,1.752-.025c.891.553.533.848.2,1.388A1.839,1.839,0,0,0,23842.809,1070.593Zm11.7.025c.221-.327.547-.71.893-.735s.709.314,1.066.5a9.429,9.429,0,0,1-.992.314,1.45,1.45,0,0,1-.289.025A2.639,2.639,0,0,1,23854.51,1070.618Zm-17.48-.195a9.683,9.683,0,0,0-1.174-.088,3.864,3.864,0,0,1-.8-.264c.275-.195.559-.572.822-.553a23.73,23.73,0,0,1,2.809.39c.074.006.188.239.162.333-.043.17-.187.446-.289.446A6.177,6.177,0,0,1,23837.029,1070.424Zm2.682-.609a1.273,1.273,0,0,1,.246.848A1.319,1.319,0,0,1,23839.711,1069.814Zm12.625.835a3.851,3.851,0,0,1-.93-.276c-.426-.163-.834-.352-1.25-.54a1.831,1.831,0,0,1,.113-.276c.439.119.873.251,1.527.377a4.635,4.635,0,0,1,.635-.012c.363.082.734.176,1.092.289a.8.8,0,0,1-.043.364,7.162,7.162,0,0,1-.9.082C23852.5,1070.656,23852.418,1070.656,23852.336,1070.65Zm-27.072-.879a1.235,1.235,0,0,0,.359-.038c.363-.063.746-.132.678.534-.012.151-.666.239-1.238.358C23824.391,1070.053,23824.5,1069.714,23825.264,1069.77Zm-208.73.289c.221-.069.439-.138.666-.207a1.394,1.394,0,0,1-.125.722C23616.822,1070.336,23616.678,1070.2,23616.533,1070.059Zm6.7.452c-.07-.025-.1-.182-.145-.283a6.747,6.747,0,0,1,1-.145c.615-.006,1.238.05,1.859.088-.621.107-1.244.22-2.078.339-.232.006-.377.025-.484.025A.4.4,0,0,1,23623.23,1070.511Zm206.984-.27c-.152-.038-.252-.283-.385-.433a1.747,1.747,0,0,1,.572-.17c.879.094,1.752.226,2.732.345a1.716,1.716,0,0,1-1.318.547A7.05,7.05,0,0,1,23830.215,1070.241Zm-210.949-.113c-.057-.006-.1-.094-.049-.251a4.731,4.731,0,0,0,.729-.082c.576-.107,1.129-.207,1.557.364a.953.953,0,0,1,.1.3C23620.824,1070.348,23620.045,1070.248,23619.266,1070.128Zm195.113.232c-.232-.722.139-.8.615-.766l1.816.132c-.07.226-.127.647-.221.66-.314.031-.635.05-.961.05A11.059,11.059,0,0,1,23814.379,1070.361Zm-165.232-.044c.025-.126.15-.138.275-.157a.251.251,0,0,1-.232.157Zm2.588-.069a.943.943,0,0,1,.578-.289s.049.176.074.27a1.606,1.606,0,0,1-.371.05A1.2,1.2,0,0,1,23651.734,1070.248Zm-54.672-.628c-.791-.1-1.338-.572-2.406-.22-1.293.427-2.934-.182-4.428-.358-.113-.013-.207-.214-.326-.232-.473-.075-.949-.113-1.426-.157.584-.1,1.273-.44,1.732-.239a1.651,1.651,0,0,0,1.049.057,2.041,2.041,0,0,1,.535-.063c2.443.245,4.949-.05,7.33.716.182.057.238.471.25.829a1.208,1.208,0,0,1-.709.251C23598.074,1070.2,23597.615,1069.695,23597.063,1069.62Zm41.3.546a1.378,1.378,0,0,1-.014-.66c.227.214.447.421.666.634a1.714,1.714,0,0,1-.383.05A1.419,1.419,0,0,1,23638.361,1070.166Zm195.119-.59a.594.594,0,0,1-.125.4A.6.6,0,0,1,23833.48,1069.576Zm-14.484-.088c.145.138.074.289.012.433C23818.934,1069.777,23818.857,1069.638,23819,1069.488Zm-149.229-.283a2.659,2.659,0,0,1,.27-.082,1.291,1.291,0,0,1,.02.653A.942.942,0,0,1,23669.768,1069.205Zm34.527.484a.9.9,0,0,1,.258-.59,1.279,1.279,0,0,1,.012.653A2.651,2.651,0,0,1,23704.295,1069.689Zm-101.555.013c-.516-.138-1.287-.352-.5-1.219a11.437,11.437,0,0,1,1.244.239c-.246.339-.578.98-.736.98Zm207.732-.314c.125.019.139.144.156.276A.256.256,0,0,1,23810.473,1069.387Zm-11.727.17a8.355,8.355,0,0,1-1.652-.471c.332-.766.785-.584,1.25-.4a1.5,1.5,0,0,0,.7.157c.018,0,.137.276.088.358-.082.144-.258.358-.371.358C23798.752,1069.563,23798.746,1069.563,23798.746,1069.557Zm9.031-.207a6.1,6.1,0,0,1,.791.126c-.527.013-1.055.025-1.576.044A5.172,5.172,0,0,1,23807.777,1069.349Zm-53.076-.358c.15.138.082.283.014.433C23754.639,1069.28,23754.563,1069.142,23754.7,1068.991Zm-169.7-.069a4.5,4.5,0,0,1,1.721-.239,3.7,3.7,0,0,1,.008.389c-.189.013-.377.025-.572.025A3.391,3.391,0,0,1,23585,1068.922Zm-32.254-.132c.02-.126.15-.144.277-.163-.051.082-.1.163-.232.163Zm4.629-.446c.145.138.082.283.014.433C23557.314,1068.633,23557.24,1068.5,23557.377,1068.344Zm53.768-.879a5.582,5.582,0,0,1,.156.779,1.277,1.277,0,0,1-.859.239C23610.68,1068.144,23610.912,1067.8,23611.145,1067.465Zm-41.619.986a1.587,1.587,0,0,1-.83-.289,1.28,1.28,0,0,1,.711-.119,1.79,1.79,0,0,1,.445.232c-.105.057-.219.176-.314.176Zm54.621-.119a2.613,2.613,0,0,1-.771-.389,5.979,5.979,0,0,1,.7-.515,3.053,3.053,0,0,1,1.115-.427h.063c.4.021.662.4,1.152,1.288a5.745,5.745,0,0,1-1.176.119A8.839,8.839,0,0,1,23624.146,1068.332Zm-50.275-.088c.025-.126.152-.145.283-.163a.268.268,0,0,1-.238.163Zm-62.2-.622a.914.914,0,0,1,.264-.584,1.269,1.269,0,0,1,.006.653C23511.852,1067.666,23511.676,1067.628,23511.676,1067.622Z" transform="translate(24788.004 1097) rotate(180)" fill="#fff"/>
</svg>

